<?xml version="1.0" encoding="utf-8" standalone="no"?>
<!DOCTYPE svg PUBLIC "-//W3C//DTD SVG 1.1//EN"
  "http://www.w3.org/Graphics/SVG/1.1/DTD/svg11.dtd">
<svg xmlns:xlink="http://www.w3.org/1999/xlink" width="705.545pt" height="345.198125pt" viewBox="0 0 705.545 345.198125" xmlns="http://www.w3.org/2000/svg" version="1.1">
 <metadata>
  <rdf:RDF xmlns:dc="http://purl.org/dc/elements/1.1/" xmlns:cc="http://creativecommons.org/ns#" xmlns:rdf="http://www.w3.org/1999/02/22-rdf-syntax-ns#">
   <cc:Work>
    <dc:type rdf:resource="http://purl.org/dc/dcmitype/StillImage"/>
    <dc:date>2023-07-06T23:28:08.019850</dc:date>
    <dc:format>image/svg+xml</dc:format>
    <dc:creator>
     <cc:Agent>
      <dc:title>Matplotlib v3.7.2, https://matplotlib.org/</dc:title>
     </cc:Agent>
    </dc:creator>
   </cc:Work>
  </rdf:RDF>
 </metadata>
 <defs>
  <style type="text/css">*{stroke-linejoin: round; stroke-linecap: butt}</style>
 </defs>
 <g id="figure_1">
  <g id="patch_1">
   <path d="M -0 345.198125 
L 705.545 345.198125 
L 705.545 0 
L -0 0 
z
" style="fill: #ffffff"/>
  </g>
  <g id="axes_1">
   <g id="patch_2">
    <path d="M 19.825 328.42 
L 701.945 328.42 
L 701.945 3.6 
L 19.825 3.6 
z
" style="fill: #ffffff"/>
   </g>
   <g id="matplotlib.axis_1">
    <g id="xtick_1">
     <g id="line2d_1">
      <defs>
       <path id="m8e231a0ab0" d="M 0 0 
L 0 -3 
" style="stroke: #000000; stroke-width: 0.5"/>
      </defs>
      <g>
       <use xlink:href="#m8e231a0ab0" x="50.210345" y="328.42" style="stroke: #000000; stroke-width: 0.5"/>
      </g>
     </g>
     <g id="line2d_2">
      <defs>
       <path id="m9ab8acab97" d="M 0 0 
L 0 3 
" style="stroke: #000000; stroke-width: 0.5"/>
      </defs>
      <g>
       <use xlink:href="#m9ab8acab97" x="50.210345" y="3.6" style="stroke: #000000; stroke-width: 0.5"/>
      </g>
     </g>
     <g id="text_1">
      <!-- 0 -->
      <g transform="translate(47.029095 339.518437) scale(0.1 -0.1)">
       <defs>
        <path id="DejaVuSerif-30" d="M 2034 219 
Q 2513 219 2750 744 
Q 2988 1269 2988 2328 
Q 2988 3391 2750 3916 
Q 2513 4441 2034 4441 
Q 1556 4441 1318 3916 
Q 1081 3391 1081 2328 
Q 1081 1269 1318 744 
Q 1556 219 2034 219 
z
M 2034 -91 
Q 1275 -91 848 546 
Q 422 1184 422 2328 
Q 422 3475 848 4112 
Q 1275 4750 2034 4750 
Q 2797 4750 3222 4112 
Q 3647 3475 3647 2328 
Q 3647 1184 3222 546 
Q 2797 -91 2034 -91 
z
" transform="scale(0.015625)"/>
       </defs>
       <use xlink:href="#DejaVuSerif-30"/>
      </g>
     </g>
    </g>
    <g id="xtick_2">
     <g id="line2d_3">
      <g>
       <use xlink:href="#m8e231a0ab0" x="174.232164" y="328.42" style="stroke: #000000; stroke-width: 0.5"/>
      </g>
     </g>
     <g id="line2d_4">
      <g>
       <use xlink:href="#m9ab8acab97" x="174.232164" y="3.6" style="stroke: #000000; stroke-width: 0.5"/>
      </g>
     </g>
     <g id="text_2">
      <!-- 200 -->
      <g transform="translate(164.688414 339.518437) scale(0.1 -0.1)">
       <defs>
        <path id="DejaVuSerif-32" d="M 819 3553 
L 469 3553 
L 469 4384 
Q 803 4563 1142 4656 
Q 1481 4750 1806 4750 
Q 2534 4750 2956 4397 
Q 3378 4044 3378 3438 
Q 3378 2753 2422 1800 
Q 2347 1728 2309 1691 
L 1131 513 
L 3078 513 
L 3078 1088 
L 3444 1088 
L 3444 0 
L 434 0 
L 434 341 
L 1850 1753 
Q 2319 2222 2519 2614 
Q 2719 3006 2719 3438 
Q 2719 3909 2473 4175 
Q 2228 4441 1797 4441 
Q 1350 4441 1106 4219 
Q 863 3997 819 3553 
z
" transform="scale(0.015625)"/>
       </defs>
       <use xlink:href="#DejaVuSerif-32"/>
       <use xlink:href="#DejaVuSerif-30" x="63.623047"/>
       <use xlink:href="#DejaVuSerif-30" x="127.246094"/>
      </g>
     </g>
    </g>
    <g id="xtick_3">
     <g id="line2d_5">
      <g>
       <use xlink:href="#m8e231a0ab0" x="298.253982" y="328.42" style="stroke: #000000; stroke-width: 0.5"/>
      </g>
     </g>
     <g id="line2d_6">
      <g>
       <use xlink:href="#m9ab8acab97" x="298.253982" y="3.6" style="stroke: #000000; stroke-width: 0.5"/>
      </g>
     </g>
     <g id="text_3">
      <!-- 400 -->
      <g transform="translate(288.710232 339.518437) scale(0.1 -0.1)">
       <defs>
        <path id="DejaVuSerif-34" d="M 2234 1581 
L 2234 4063 
L 641 1581 
L 2234 1581 
z
M 3609 0 
L 1484 0 
L 1484 331 
L 2234 331 
L 2234 1247 
L 197 1247 
L 197 1588 
L 2241 4750 
L 2859 4750 
L 2859 1581 
L 3750 1581 
L 3750 1247 
L 2859 1247 
L 2859 331 
L 3609 331 
L 3609 0 
z
" transform="scale(0.015625)"/>
       </defs>
       <use xlink:href="#DejaVuSerif-34"/>
       <use xlink:href="#DejaVuSerif-30" x="63.623047"/>
       <use xlink:href="#DejaVuSerif-30" x="127.246094"/>
      </g>
     </g>
    </g>
    <g id="xtick_4">
     <g id="line2d_7">
      <g>
       <use xlink:href="#m8e231a0ab0" x="422.2758" y="328.42" style="stroke: #000000; stroke-width: 0.5"/>
      </g>
     </g>
     <g id="line2d_8">
      <g>
       <use xlink:href="#m9ab8acab97" x="422.2758" y="3.6" style="stroke: #000000; stroke-width: 0.5"/>
      </g>
     </g>
     <g id="text_4">
      <!-- 600 -->
      <g transform="translate(412.73205 339.518437) scale(0.1 -0.1)">
       <defs>
        <path id="DejaVuSerif-36" d="M 2094 219 
Q 2534 219 2771 542 
Q 3009 866 3009 1472 
Q 3009 2078 2771 2401 
Q 2534 2725 2094 2725 
Q 1647 2725 1412 2412 
Q 1178 2100 1178 1509 
Q 1178 888 1415 553 
Q 1653 219 2094 219 
z
M 1075 2569 
Q 1288 2803 1556 2918 
Q 1825 3034 2163 3034 
Q 2859 3034 3264 2615 
Q 3669 2197 3669 1472 
Q 3669 763 3233 336 
Q 2797 -91 2069 -91 
Q 1278 -91 853 498 
Q 428 1088 428 2181 
Q 428 3406 931 4078 
Q 1434 4750 2350 4750 
Q 2597 4750 2869 4703 
Q 3141 4656 3425 4563 
L 3425 3794 
L 3072 3794 
Q 3034 4109 2831 4275 
Q 2628 4441 2284 4441 
Q 1678 4441 1381 3981 
Q 1084 3522 1075 2569 
z
" transform="scale(0.015625)"/>
       </defs>
       <use xlink:href="#DejaVuSerif-36"/>
       <use xlink:href="#DejaVuSerif-30" x="63.623047"/>
       <use xlink:href="#DejaVuSerif-30" x="127.246094"/>
      </g>
     </g>
    </g>
    <g id="xtick_5">
     <g id="line2d_9">
      <g>
       <use xlink:href="#m8e231a0ab0" x="546.297618" y="328.42" style="stroke: #000000; stroke-width: 0.5"/>
      </g>
     </g>
     <g id="line2d_10">
      <g>
       <use xlink:href="#m9ab8acab97" x="546.297618" y="3.6" style="stroke: #000000; stroke-width: 0.5"/>
      </g>
     </g>
     <g id="text_5">
      <!-- 800 -->
      <g transform="translate(536.753868 339.518437) scale(0.1 -0.1)">
       <defs>
        <path id="DejaVuSerif-38" d="M 2981 1275 
Q 2981 1775 2732 2051 
Q 2484 2328 2034 2328 
Q 1584 2328 1336 2051 
Q 1088 1775 1088 1275 
Q 1088 772 1336 495 
Q 1584 219 2034 219 
Q 2484 219 2732 495 
Q 2981 772 2981 1275 
z
M 2853 3541 
Q 2853 3966 2637 4203 
Q 2422 4441 2034 4441 
Q 1650 4441 1433 4203 
Q 1216 3966 1216 3541 
Q 1216 3113 1433 2875 
Q 1650 2638 2034 2638 
Q 2422 2638 2637 2875 
Q 2853 3113 2853 3541 
z
M 2516 2484 
Q 3047 2413 3344 2092 
Q 3641 1772 3641 1275 
Q 3641 619 3225 264 
Q 2809 -91 2034 -91 
Q 1263 -91 845 264 
Q 428 619 428 1275 
Q 428 1772 725 2092 
Q 1022 2413 1556 2484 
Q 1084 2569 832 2842 
Q 581 3116 581 3541 
Q 581 4103 968 4426 
Q 1356 4750 2034 4750 
Q 2713 4750 3100 4426 
Q 3488 4103 3488 3541 
Q 3488 3116 3236 2842 
Q 2984 2569 2516 2484 
z
" transform="scale(0.015625)"/>
       </defs>
       <use xlink:href="#DejaVuSerif-38"/>
       <use xlink:href="#DejaVuSerif-30" x="63.623047"/>
       <use xlink:href="#DejaVuSerif-30" x="127.246094"/>
      </g>
     </g>
    </g>
    <g id="xtick_6">
     <g id="line2d_11">
      <g>
       <use xlink:href="#m8e231a0ab0" x="670.319436" y="328.42" style="stroke: #000000; stroke-width: 0.5"/>
      </g>
     </g>
     <g id="line2d_12">
      <g>
       <use xlink:href="#m9ab8acab97" x="670.319436" y="3.6" style="stroke: #000000; stroke-width: 0.5"/>
      </g>
     </g>
     <g id="text_6">
      <!-- 1000 -->
      <g transform="translate(657.594436 339.518437) scale(0.1 -0.1)">
       <defs>
        <path id="DejaVuSerif-31" d="M 909 0 
L 909 331 
L 1722 331 
L 1722 4213 
L 781 3603 
L 781 4013 
L 1919 4750 
L 2350 4750 
L 2350 331 
L 3163 331 
L 3163 0 
L 909 0 
z
" transform="scale(0.015625)"/>
       </defs>
       <use xlink:href="#DejaVuSerif-31"/>
       <use xlink:href="#DejaVuSerif-30" x="63.623047"/>
       <use xlink:href="#DejaVuSerif-30" x="127.246094"/>
       <use xlink:href="#DejaVuSerif-30" x="190.869141"/>
      </g>
     </g>
    </g>
    <g id="xtick_7">
     <g id="line2d_13">
      <defs>
       <path id="me382f7191c" d="M 0 0 
L 0 -1.5 
" style="stroke: #000000; stroke-width: 0.5"/>
      </defs>
      <g>
       <use xlink:href="#me382f7191c" x="81.2158" y="328.42" style="stroke: #000000; stroke-width: 0.5"/>
      </g>
     </g>
     <g id="line2d_14">
      <defs>
       <path id="m1198c17a59" d="M 0 0 
L 0 1.5 
" style="stroke: #000000; stroke-width: 0.5"/>
      </defs>
      <g>
       <use xlink:href="#m1198c17a59" x="81.2158" y="3.6" style="stroke: #000000; stroke-width: 0.5"/>
      </g>
     </g>
    </g>
    <g id="xtick_8">
     <g id="line2d_15">
      <g>
       <use xlink:href="#me382f7191c" x="112.221255" y="328.42" style="stroke: #000000; stroke-width: 0.5"/>
      </g>
     </g>
     <g id="line2d_16">
      <g>
       <use xlink:href="#m1198c17a59" x="112.221255" y="3.6" style="stroke: #000000; stroke-width: 0.5"/>
      </g>
     </g>
    </g>
    <g id="xtick_9">
     <g id="line2d_17">
      <g>
       <use xlink:href="#me382f7191c" x="143.226709" y="328.42" style="stroke: #000000; stroke-width: 0.5"/>
      </g>
     </g>
     <g id="line2d_18">
      <g>
       <use xlink:href="#m1198c17a59" x="143.226709" y="3.6" style="stroke: #000000; stroke-width: 0.5"/>
      </g>
     </g>
    </g>
    <g id="xtick_10">
     <g id="line2d_19">
      <g>
       <use xlink:href="#me382f7191c" x="205.237618" y="328.42" style="stroke: #000000; stroke-width: 0.5"/>
      </g>
     </g>
     <g id="line2d_20">
      <g>
       <use xlink:href="#m1198c17a59" x="205.237618" y="3.6" style="stroke: #000000; stroke-width: 0.5"/>
      </g>
     </g>
    </g>
    <g id="xtick_11">
     <g id="line2d_21">
      <g>
       <use xlink:href="#me382f7191c" x="236.243073" y="328.42" style="stroke: #000000; stroke-width: 0.5"/>
      </g>
     </g>
     <g id="line2d_22">
      <g>
       <use xlink:href="#m1198c17a59" x="236.243073" y="3.6" style="stroke: #000000; stroke-width: 0.5"/>
      </g>
     </g>
    </g>
    <g id="xtick_12">
     <g id="line2d_23">
      <g>
       <use xlink:href="#me382f7191c" x="267.248527" y="328.42" style="stroke: #000000; stroke-width: 0.5"/>
      </g>
     </g>
     <g id="line2d_24">
      <g>
       <use xlink:href="#m1198c17a59" x="267.248527" y="3.6" style="stroke: #000000; stroke-width: 0.5"/>
      </g>
     </g>
    </g>
    <g id="xtick_13">
     <g id="line2d_25">
      <g>
       <use xlink:href="#me382f7191c" x="329.259436" y="328.42" style="stroke: #000000; stroke-width: 0.5"/>
      </g>
     </g>
     <g id="line2d_26">
      <g>
       <use xlink:href="#m1198c17a59" x="329.259436" y="3.6" style="stroke: #000000; stroke-width: 0.5"/>
      </g>
     </g>
    </g>
    <g id="xtick_14">
     <g id="line2d_27">
      <g>
       <use xlink:href="#me382f7191c" x="360.264891" y="328.42" style="stroke: #000000; stroke-width: 0.5"/>
      </g>
     </g>
     <g id="line2d_28">
      <g>
       <use xlink:href="#m1198c17a59" x="360.264891" y="3.6" style="stroke: #000000; stroke-width: 0.5"/>
      </g>
     </g>
    </g>
    <g id="xtick_15">
     <g id="line2d_29">
      <g>
       <use xlink:href="#me382f7191c" x="391.270345" y="328.42" style="stroke: #000000; stroke-width: 0.5"/>
      </g>
     </g>
     <g id="line2d_30">
      <g>
       <use xlink:href="#m1198c17a59" x="391.270345" y="3.6" style="stroke: #000000; stroke-width: 0.5"/>
      </g>
     </g>
    </g>
    <g id="xtick_16">
     <g id="line2d_31">
      <g>
       <use xlink:href="#me382f7191c" x="453.281255" y="328.42" style="stroke: #000000; stroke-width: 0.5"/>
      </g>
     </g>
     <g id="line2d_32">
      <g>
       <use xlink:href="#m1198c17a59" x="453.281255" y="3.6" style="stroke: #000000; stroke-width: 0.5"/>
      </g>
     </g>
    </g>
    <g id="xtick_17">
     <g id="line2d_33">
      <g>
       <use xlink:href="#me382f7191c" x="484.286709" y="328.42" style="stroke: #000000; stroke-width: 0.5"/>
      </g>
     </g>
     <g id="line2d_34">
      <g>
       <use xlink:href="#m1198c17a59" x="484.286709" y="3.6" style="stroke: #000000; stroke-width: 0.5"/>
      </g>
     </g>
    </g>
    <g id="xtick_18">
     <g id="line2d_35">
      <g>
       <use xlink:href="#me382f7191c" x="515.292164" y="328.42" style="stroke: #000000; stroke-width: 0.5"/>
      </g>
     </g>
     <g id="line2d_36">
      <g>
       <use xlink:href="#m1198c17a59" x="515.292164" y="3.6" style="stroke: #000000; stroke-width: 0.5"/>
      </g>
     </g>
    </g>
    <g id="xtick_19">
     <g id="line2d_37">
      <g>
       <use xlink:href="#me382f7191c" x="577.303073" y="328.42" style="stroke: #000000; stroke-width: 0.5"/>
      </g>
     </g>
     <g id="line2d_38">
      <g>
       <use xlink:href="#m1198c17a59" x="577.303073" y="3.6" style="stroke: #000000; stroke-width: 0.5"/>
      </g>
     </g>
    </g>
    <g id="xtick_20">
     <g id="line2d_39">
      <g>
       <use xlink:href="#me382f7191c" x="608.308527" y="328.42" style="stroke: #000000; stroke-width: 0.5"/>
      </g>
     </g>
     <g id="line2d_40">
      <g>
       <use xlink:href="#m1198c17a59" x="608.308527" y="3.6" style="stroke: #000000; stroke-width: 0.5"/>
      </g>
     </g>
    </g>
    <g id="xtick_21">
     <g id="line2d_41">
      <g>
       <use xlink:href="#me382f7191c" x="639.313982" y="328.42" style="stroke: #000000; stroke-width: 0.5"/>
      </g>
     </g>
     <g id="line2d_42">
      <g>
       <use xlink:href="#m1198c17a59" x="639.313982" y="3.6" style="stroke: #000000; stroke-width: 0.5"/>
      </g>
     </g>
    </g>
    <g id="xtick_22">
     <g id="line2d_43">
      <g>
       <use xlink:href="#me382f7191c" x="701.324891" y="328.42" style="stroke: #000000; stroke-width: 0.5"/>
      </g>
     </g>
     <g id="line2d_44">
      <g>
       <use xlink:href="#m1198c17a59" x="701.324891" y="3.6" style="stroke: #000000; stroke-width: 0.5"/>
      </g>
     </g>
    </g>
   </g>
   <g id="matplotlib.axis_2">
    <g id="ytick_1">
     <g id="line2d_45">
      <defs>
       <path id="m272080c988" d="M 0 0 
L 3 0 
" style="stroke: #000000; stroke-width: 0.5"/>
      </defs>
      <g>
       <use xlink:href="#m272080c988" x="19.825" y="313.655455" style="stroke: #000000; stroke-width: 0.5"/>
      </g>
     </g>
     <g id="line2d_46">
      <defs>
       <path id="maf0b77c636" d="M 0 0 
L -3 0 
" style="stroke: #000000; stroke-width: 0.5"/>
      </defs>
      <g>
       <use xlink:href="#maf0b77c636" x="701.945" y="313.655455" style="stroke: #000000; stroke-width: 0.5"/>
      </g>
     </g>
     <g id="text_7">
      <!-- 0 -->
      <g transform="translate(9.9625 317.454673) scale(0.1 -0.1)">
       <use xlink:href="#DejaVuSerif-30"/>
      </g>
     </g>
    </g>
    <g id="ytick_2">
     <g id="line2d_47">
      <g>
       <use xlink:href="#m272080c988" x="19.825" y="274.283333" style="stroke: #000000; stroke-width: 0.5"/>
      </g>
     </g>
     <g id="line2d_48">
      <g>
       <use xlink:href="#maf0b77c636" x="701.945" y="274.283333" style="stroke: #000000; stroke-width: 0.5"/>
      </g>
     </g>
     <g id="text_8">
      <!-- 2 -->
      <g transform="translate(9.9625 278.082552) scale(0.1 -0.1)">
       <use xlink:href="#DejaVuSerif-32"/>
      </g>
     </g>
    </g>
    <g id="ytick_3">
     <g id="line2d_49">
      <g>
       <use xlink:href="#m272080c988" x="19.825" y="234.911212" style="stroke: #000000; stroke-width: 0.5"/>
      </g>
     </g>
     <g id="line2d_50">
      <g>
       <use xlink:href="#maf0b77c636" x="701.945" y="234.911212" style="stroke: #000000; stroke-width: 0.5"/>
      </g>
     </g>
     <g id="text_9">
      <!-- 4 -->
      <g transform="translate(9.9625 238.710431) scale(0.1 -0.1)">
       <use xlink:href="#DejaVuSerif-34"/>
      </g>
     </g>
    </g>
    <g id="ytick_4">
     <g id="line2d_51">
      <g>
       <use xlink:href="#m272080c988" x="19.825" y="195.539091" style="stroke: #000000; stroke-width: 0.5"/>
      </g>
     </g>
     <g id="line2d_52">
      <g>
       <use xlink:href="#maf0b77c636" x="701.945" y="195.539091" style="stroke: #000000; stroke-width: 0.5"/>
      </g>
     </g>
     <g id="text_10">
      <!-- 6 -->
      <g transform="translate(9.9625 199.33831) scale(0.1 -0.1)">
       <use xlink:href="#DejaVuSerif-36"/>
      </g>
     </g>
    </g>
    <g id="ytick_5">
     <g id="line2d_53">
      <g>
       <use xlink:href="#m272080c988" x="19.825" y="156.16697" style="stroke: #000000; stroke-width: 0.5"/>
      </g>
     </g>
     <g id="line2d_54">
      <g>
       <use xlink:href="#maf0b77c636" x="701.945" y="156.16697" style="stroke: #000000; stroke-width: 0.5"/>
      </g>
     </g>
     <g id="text_11">
      <!-- 8 -->
      <g transform="translate(9.9625 159.966188) scale(0.1 -0.1)">
       <use xlink:href="#DejaVuSerif-38"/>
      </g>
     </g>
    </g>
    <g id="ytick_6">
     <g id="line2d_55">
      <g>
       <use xlink:href="#m272080c988" x="19.825" y="116.794848" style="stroke: #000000; stroke-width: 0.5"/>
      </g>
     </g>
     <g id="line2d_56">
      <g>
       <use xlink:href="#maf0b77c636" x="701.945" y="116.794848" style="stroke: #000000; stroke-width: 0.5"/>
      </g>
     </g>
     <g id="text_12">
      <!-- 10 -->
      <g transform="translate(3.6 120.594067) scale(0.1 -0.1)">
       <use xlink:href="#DejaVuSerif-31"/>
       <use xlink:href="#DejaVuSerif-30" x="63.623047"/>
      </g>
     </g>
    </g>
    <g id="ytick_7">
     <g id="line2d_57">
      <g>
       <use xlink:href="#m272080c988" x="19.825" y="77.422727" style="stroke: #000000; stroke-width: 0.5"/>
      </g>
     </g>
     <g id="line2d_58">
      <g>
       <use xlink:href="#maf0b77c636" x="701.945" y="77.422727" style="stroke: #000000; stroke-width: 0.5"/>
      </g>
     </g>
     <g id="text_13">
      <!-- 12 -->
      <g transform="translate(3.6 81.221946) scale(0.1 -0.1)">
       <use xlink:href="#DejaVuSerif-31"/>
       <use xlink:href="#DejaVuSerif-32" x="63.623047"/>
      </g>
     </g>
    </g>
    <g id="ytick_8">
     <g id="line2d_59">
      <g>
       <use xlink:href="#m272080c988" x="19.825" y="38.050606" style="stroke: #000000; stroke-width: 0.5"/>
      </g>
     </g>
     <g id="line2d_60">
      <g>
       <use xlink:href="#maf0b77c636" x="701.945" y="38.050606" style="stroke: #000000; stroke-width: 0.5"/>
      </g>
     </g>
     <g id="text_14">
      <!-- 14 -->
      <g transform="translate(3.6 41.849825) scale(0.1 -0.1)">
       <use xlink:href="#DejaVuSerif-31"/>
       <use xlink:href="#DejaVuSerif-34" x="63.623047"/>
      </g>
     </g>
    </g>
    <g id="ytick_9">
     <g id="line2d_61">
      <defs>
       <path id="ma5209f5ff4" d="M 0 0 
L 1.5 0 
" style="stroke: #000000; stroke-width: 0.5"/>
      </defs>
      <g>
       <use xlink:href="#ma5209f5ff4" x="19.825" y="323.498485" style="stroke: #000000; stroke-width: 0.5"/>
      </g>
     </g>
     <g id="line2d_62">
      <defs>
       <path id="m0ed726d59d" d="M 0 0 
L -1.5 0 
" style="stroke: #000000; stroke-width: 0.5"/>
      </defs>
      <g>
       <use xlink:href="#m0ed726d59d" x="701.945" y="323.498485" style="stroke: #000000; stroke-width: 0.5"/>
      </g>
     </g>
    </g>
    <g id="ytick_10">
     <g id="line2d_63">
      <g>
       <use xlink:href="#ma5209f5ff4" x="19.825" y="303.812424" style="stroke: #000000; stroke-width: 0.5"/>
      </g>
     </g>
     <g id="line2d_64">
      <g>
       <use xlink:href="#m0ed726d59d" x="701.945" y="303.812424" style="stroke: #000000; stroke-width: 0.5"/>
      </g>
     </g>
    </g>
    <g id="ytick_11">
     <g id="line2d_65">
      <g>
       <use xlink:href="#ma5209f5ff4" x="19.825" y="293.969394" style="stroke: #000000; stroke-width: 0.5"/>
      </g>
     </g>
     <g id="line2d_66">
      <g>
       <use xlink:href="#m0ed726d59d" x="701.945" y="293.969394" style="stroke: #000000; stroke-width: 0.5"/>
      </g>
     </g>
    </g>
    <g id="ytick_12">
     <g id="line2d_67">
      <g>
       <use xlink:href="#ma5209f5ff4" x="19.825" y="284.126364" style="stroke: #000000; stroke-width: 0.5"/>
      </g>
     </g>
     <g id="line2d_68">
      <g>
       <use xlink:href="#m0ed726d59d" x="701.945" y="284.126364" style="stroke: #000000; stroke-width: 0.5"/>
      </g>
     </g>
    </g>
    <g id="ytick_13">
     <g id="line2d_69">
      <g>
       <use xlink:href="#ma5209f5ff4" x="19.825" y="264.440303" style="stroke: #000000; stroke-width: 0.5"/>
      </g>
     </g>
     <g id="line2d_70">
      <g>
       <use xlink:href="#m0ed726d59d" x="701.945" y="264.440303" style="stroke: #000000; stroke-width: 0.5"/>
      </g>
     </g>
    </g>
    <g id="ytick_14">
     <g id="line2d_71">
      <g>
       <use xlink:href="#ma5209f5ff4" x="19.825" y="254.597273" style="stroke: #000000; stroke-width: 0.5"/>
      </g>
     </g>
     <g id="line2d_72">
      <g>
       <use xlink:href="#m0ed726d59d" x="701.945" y="254.597273" style="stroke: #000000; stroke-width: 0.5"/>
      </g>
     </g>
    </g>
    <g id="ytick_15">
     <g id="line2d_73">
      <g>
       <use xlink:href="#ma5209f5ff4" x="19.825" y="244.754242" style="stroke: #000000; stroke-width: 0.5"/>
      </g>
     </g>
     <g id="line2d_74">
      <g>
       <use xlink:href="#m0ed726d59d" x="701.945" y="244.754242" style="stroke: #000000; stroke-width: 0.5"/>
      </g>
     </g>
    </g>
    <g id="ytick_16">
     <g id="line2d_75">
      <g>
       <use xlink:href="#ma5209f5ff4" x="19.825" y="225.068182" style="stroke: #000000; stroke-width: 0.5"/>
      </g>
     </g>
     <g id="line2d_76">
      <g>
       <use xlink:href="#m0ed726d59d" x="701.945" y="225.068182" style="stroke: #000000; stroke-width: 0.5"/>
      </g>
     </g>
    </g>
    <g id="ytick_17">
     <g id="line2d_77">
      <g>
       <use xlink:href="#ma5209f5ff4" x="19.825" y="215.225152" style="stroke: #000000; stroke-width: 0.5"/>
      </g>
     </g>
     <g id="line2d_78">
      <g>
       <use xlink:href="#m0ed726d59d" x="701.945" y="215.225152" style="stroke: #000000; stroke-width: 0.5"/>
      </g>
     </g>
    </g>
    <g id="ytick_18">
     <g id="line2d_79">
      <g>
       <use xlink:href="#ma5209f5ff4" x="19.825" y="205.382121" style="stroke: #000000; stroke-width: 0.5"/>
      </g>
     </g>
     <g id="line2d_80">
      <g>
       <use xlink:href="#m0ed726d59d" x="701.945" y="205.382121" style="stroke: #000000; stroke-width: 0.5"/>
      </g>
     </g>
    </g>
    <g id="ytick_19">
     <g id="line2d_81">
      <g>
       <use xlink:href="#ma5209f5ff4" x="19.825" y="185.696061" style="stroke: #000000; stroke-width: 0.5"/>
      </g>
     </g>
     <g id="line2d_82">
      <g>
       <use xlink:href="#m0ed726d59d" x="701.945" y="185.696061" style="stroke: #000000; stroke-width: 0.5"/>
      </g>
     </g>
    </g>
    <g id="ytick_20">
     <g id="line2d_83">
      <g>
       <use xlink:href="#ma5209f5ff4" x="19.825" y="175.85303" style="stroke: #000000; stroke-width: 0.5"/>
      </g>
     </g>
     <g id="line2d_84">
      <g>
       <use xlink:href="#m0ed726d59d" x="701.945" y="175.85303" style="stroke: #000000; stroke-width: 0.5"/>
      </g>
     </g>
    </g>
    <g id="ytick_21">
     <g id="line2d_85">
      <g>
       <use xlink:href="#ma5209f5ff4" x="19.825" y="166.01" style="stroke: #000000; stroke-width: 0.5"/>
      </g>
     </g>
     <g id="line2d_86">
      <g>
       <use xlink:href="#m0ed726d59d" x="701.945" y="166.01" style="stroke: #000000; stroke-width: 0.5"/>
      </g>
     </g>
    </g>
    <g id="ytick_22">
     <g id="line2d_87">
      <g>
       <use xlink:href="#ma5209f5ff4" x="19.825" y="146.323939" style="stroke: #000000; stroke-width: 0.5"/>
      </g>
     </g>
     <g id="line2d_88">
      <g>
       <use xlink:href="#m0ed726d59d" x="701.945" y="146.323939" style="stroke: #000000; stroke-width: 0.5"/>
      </g>
     </g>
    </g>
    <g id="ytick_23">
     <g id="line2d_89">
      <g>
       <use xlink:href="#ma5209f5ff4" x="19.825" y="136.480909" style="stroke: #000000; stroke-width: 0.5"/>
      </g>
     </g>
     <g id="line2d_90">
      <g>
       <use xlink:href="#m0ed726d59d" x="701.945" y="136.480909" style="stroke: #000000; stroke-width: 0.5"/>
      </g>
     </g>
    </g>
    <g id="ytick_24">
     <g id="line2d_91">
      <g>
       <use xlink:href="#ma5209f5ff4" x="19.825" y="126.637879" style="stroke: #000000; stroke-width: 0.5"/>
      </g>
     </g>
     <g id="line2d_92">
      <g>
       <use xlink:href="#m0ed726d59d" x="701.945" y="126.637879" style="stroke: #000000; stroke-width: 0.5"/>
      </g>
     </g>
    </g>
    <g id="ytick_25">
     <g id="line2d_93">
      <g>
       <use xlink:href="#ma5209f5ff4" x="19.825" y="106.951818" style="stroke: #000000; stroke-width: 0.5"/>
      </g>
     </g>
     <g id="line2d_94">
      <g>
       <use xlink:href="#m0ed726d59d" x="701.945" y="106.951818" style="stroke: #000000; stroke-width: 0.5"/>
      </g>
     </g>
    </g>
    <g id="ytick_26">
     <g id="line2d_95">
      <g>
       <use xlink:href="#ma5209f5ff4" x="19.825" y="97.108788" style="stroke: #000000; stroke-width: 0.5"/>
      </g>
     </g>
     <g id="line2d_96">
      <g>
       <use xlink:href="#m0ed726d59d" x="701.945" y="97.108788" style="stroke: #000000; stroke-width: 0.5"/>
      </g>
     </g>
    </g>
    <g id="ytick_27">
     <g id="line2d_97">
      <g>
       <use xlink:href="#ma5209f5ff4" x="19.825" y="87.265758" style="stroke: #000000; stroke-width: 0.5"/>
      </g>
     </g>
     <g id="line2d_98">
      <g>
       <use xlink:href="#m0ed726d59d" x="701.945" y="87.265758" style="stroke: #000000; stroke-width: 0.5"/>
      </g>
     </g>
    </g>
    <g id="ytick_28">
     <g id="line2d_99">
      <g>
       <use xlink:href="#ma5209f5ff4" x="19.825" y="67.579697" style="stroke: #000000; stroke-width: 0.5"/>
      </g>
     </g>
     <g id="line2d_100">
      <g>
       <use xlink:href="#m0ed726d59d" x="701.945" y="67.579697" style="stroke: #000000; stroke-width: 0.5"/>
      </g>
     </g>
    </g>
    <g id="ytick_29">
     <g id="line2d_101">
      <g>
       <use xlink:href="#ma5209f5ff4" x="19.825" y="57.736667" style="stroke: #000000; stroke-width: 0.5"/>
      </g>
     </g>
     <g id="line2d_102">
      <g>
       <use xlink:href="#m0ed726d59d" x="701.945" y="57.736667" style="stroke: #000000; stroke-width: 0.5"/>
      </g>
     </g>
    </g>
    <g id="ytick_30">
     <g id="line2d_103">
      <g>
       <use xlink:href="#ma5209f5ff4" x="19.825" y="47.893636" style="stroke: #000000; stroke-width: 0.5"/>
      </g>
     </g>
     <g id="line2d_104">
      <g>
       <use xlink:href="#m0ed726d59d" x="701.945" y="47.893636" style="stroke: #000000; stroke-width: 0.5"/>
      </g>
     </g>
    </g>
    <g id="ytick_31">
     <g id="line2d_105">
      <g>
       <use xlink:href="#ma5209f5ff4" x="19.825" y="28.207576" style="stroke: #000000; stroke-width: 0.5"/>
      </g>
     </g>
     <g id="line2d_106">
      <g>
       <use xlink:href="#m0ed726d59d" x="701.945" y="28.207576" style="stroke: #000000; stroke-width: 0.5"/>
      </g>
     </g>
    </g>
    <g id="ytick_32">
     <g id="line2d_107">
      <g>
       <use xlink:href="#ma5209f5ff4" x="19.825" y="18.364545" style="stroke: #000000; stroke-width: 0.5"/>
      </g>
     </g>
     <g id="line2d_108">
      <g>
       <use xlink:href="#m0ed726d59d" x="701.945" y="18.364545" style="stroke: #000000; stroke-width: 0.5"/>
      </g>
     </g>
    </g>
    <g id="ytick_33">
     <g id="line2d_109">
      <g>
       <use xlink:href="#ma5209f5ff4" x="19.825" y="8.521515" style="stroke: #000000; stroke-width: 0.5"/>
      </g>
     </g>
     <g id="line2d_110">
      <g>
       <use xlink:href="#m0ed726d59d" x="701.945" y="8.521515" style="stroke: #000000; stroke-width: 0.5"/>
      </g>
     </g>
    </g>
   </g>
   <g id="line2d_111">
    <path d="M 50.830455 313.655455 
L 53.931 313.655455 
L 54.551109 254.597273 
L 55.171218 274.283333 
L 55.791327 195.539091 
L 56.411436 215.225152 
L 57.031545 195.539091 
L 57.651655 215.225152 
L 58.271764 195.539091 
L 58.891873 156.16697 
L 59.511982 156.16697 
L 60.132091 234.911212 
L 61.372309 156.16697 
L 61.992418 195.539091 
L 62.612527 254.597273 
L 63.232636 234.911212 
L 63.852745 175.85303 
L 64.472855 77.422727 
L 65.092964 38.050606 
L 65.713073 156.16697 
L 66.333182 215.225152 
L 66.953291 136.480909 
L 67.5734 116.794848 
L 68.193509 136.480909 
L 69.433727 215.225152 
L 70.053836 195.539091 
L 70.673945 195.539091 
L 71.294055 136.480909 
L 71.914164 175.85303 
L 72.534273 195.539091 
L 73.154382 195.539091 
L 73.774491 77.422727 
L 74.3946 156.16697 
L 75.014709 116.794848 
L 75.634818 116.794848 
L 76.254927 136.480909 
L 76.875036 175.85303 
L 77.495145 254.597273 
L 78.115255 274.283333 
L 78.735364 254.597273 
L 79.355473 156.16697 
L 79.975582 136.480909 
L 80.595691 38.050606 
L 81.2158 38.050606 
L 81.835909 116.794848 
L 82.456018 97.108788 
L 83.076127 156.16697 
L 83.696236 156.16697 
L 84.316345 215.225152 
L 84.936455 195.539091 
L 85.556564 215.225152 
L 86.176673 195.539091 
L 87.416891 195.539091 
L 88.657109 116.794848 
L 89.277218 97.108788 
L 89.897327 97.108788 
L 91.137545 175.85303 
L 91.757655 254.597273 
L 92.377764 215.225152 
L 92.997873 136.480909 
L 93.617982 136.480909 
L 94.238091 77.422727 
L 94.8582 136.480909 
L 95.478309 57.736667 
L 96.098418 116.794848 
L 96.718527 156.16697 
L 97.958745 156.16697 
L 98.578855 195.539091 
L 99.198964 215.225152 
L 99.819073 215.225152 
L 100.439182 254.597273 
L 101.059291 195.539091 
L 101.6794 116.794848 
L 102.299509 116.794848 
L 102.919618 175.85303 
L 104.779945 234.911212 
L 105.400055 234.911212 
L 106.640273 195.539091 
L 107.260382 234.911212 
L 107.880491 215.225152 
L 108.5006 274.283333 
L 109.120709 234.911212 
L 110.360927 234.911212 
L 110.981036 215.225152 
L 111.601145 136.480909 
L 112.221255 116.794848 
L 112.841364 116.794848 
L 113.461473 215.225152 
L 114.081582 254.597273 
L 114.701691 254.597273 
L 115.3218 234.911212 
L 115.941909 136.480909 
L 116.562018 156.16697 
L 117.182127 136.480909 
L 117.802236 175.85303 
L 119.042455 175.85303 
L 119.662564 215.225152 
L 120.902782 175.85303 
L 121.522891 136.480909 
L 122.143 136.480909 
L 122.763109 175.85303 
L 123.383218 156.16697 
L 124.003327 234.911212 
L 124.623436 215.225152 
L 125.243545 116.794848 
L 125.863655 116.794848 
L 126.483764 136.480909 
L 127.103873 195.539091 
L 127.723982 234.911212 
L 128.344091 254.597273 
L 128.9642 215.225152 
L 129.584309 156.16697 
L 130.204418 156.16697 
L 130.824527 136.480909 
L 131.444636 156.16697 
L 132.064745 136.480909 
L 132.684855 97.108788 
L 133.304964 116.794848 
L 133.925073 195.539091 
L 134.545182 136.480909 
L 135.165291 156.16697 
L 135.7854 156.16697 
L 136.405509 175.85303 
L 137.025618 234.911212 
L 137.645727 195.539091 
L 138.265836 195.539091 
L 139.506055 156.16697 
L 140.126164 175.85303 
L 140.746273 156.16697 
L 141.366382 156.16697 
L 141.986491 215.225152 
L 142.6066 195.539091 
L 143.226709 234.911212 
L 143.846818 234.911212 
L 145.087036 195.539091 
L 145.707145 254.597273 
L 146.327255 215.225152 
L 146.947364 195.539091 
L 147.567473 215.225152 
L 148.187582 215.225152 
L 148.807691 195.539091 
L 149.4278 156.16697 
L 150.047909 175.85303 
L 150.668018 156.16697 
L 151.288127 175.85303 
L 151.908236 175.85303 
L 152.528345 215.225152 
L 153.148455 175.85303 
L 153.768564 97.108788 
L 154.388673 116.794848 
L 155.628891 195.539091 
L 156.249 156.16697 
L 156.869109 136.480909 
L 157.489218 136.480909 
L 158.729436 97.108788 
L 159.349545 97.108788 
L 159.969655 136.480909 
L 160.589764 136.480909 
L 161.209873 156.16697 
L 161.829982 136.480909 
L 162.450091 97.108788 
L 163.0702 116.794848 
L 163.690309 156.16697 
L 164.310418 175.85303 
L 164.930527 215.225152 
L 166.170745 57.736667 
L 166.790855 97.108788 
L 167.410964 97.108788 
L 168.031073 136.480909 
L 168.651182 116.794848 
L 169.271291 136.480909 
L 169.8914 57.736667 
L 170.511509 18.364545 
L 171.131618 77.422727 
L 171.751727 77.422727 
L 172.371836 97.108788 
L 172.991945 175.85303 
L 173.612055 116.794848 
L 174.232164 136.480909 
L 174.852273 97.108788 
L 175.472382 136.480909 
L 176.092491 215.225152 
L 176.7126 254.597273 
L 177.332709 254.597273 
L 177.952818 234.911212 
L 178.572927 195.539091 
L 179.813145 195.539091 
L 181.053364 156.16697 
L 181.673473 156.16697 
L 182.293582 195.539091 
L 182.913691 175.85303 
L 183.5338 195.539091 
L 184.153909 175.85303 
L 184.774018 175.85303 
L 185.394127 195.539091 
L 186.014236 156.16697 
L 186.634345 156.16697 
L 187.254455 175.85303 
L 187.874564 215.225152 
L 188.494673 195.539091 
L 189.114782 156.16697 
L 189.734891 175.85303 
L 190.355 97.108788 
L 190.975109 156.16697 
L 191.595218 175.85303 
L 192.215327 116.794848 
L 192.835436 136.480909 
L 193.455545 116.794848 
L 194.075655 116.794848 
L 194.695764 156.16697 
L 195.315873 136.480909 
L 195.935982 136.480909 
L 196.556091 116.794848 
L 197.1762 195.539091 
L 197.796309 195.539091 
L 198.416418 175.85303 
L 199.036527 77.422727 
L 199.656636 18.364545 
L 200.276745 57.736667 
L 200.896855 38.050606 
L 201.516964 156.16697 
L 202.137073 215.225152 
L 202.757182 254.597273 
L 203.377291 274.283333 
L 203.9974 234.911212 
L 204.617509 175.85303 
L 205.237618 97.108788 
L 205.857727 136.480909 
L 206.477836 215.225152 
L 207.718055 215.225152 
L 208.338164 195.539091 
L 208.958273 215.225152 
L 209.578382 175.85303 
L 210.198491 195.539091 
L 210.8186 234.911212 
L 211.438709 254.597273 
L 212.058818 234.911212 
L 212.678927 234.911212 
L 213.299036 215.225152 
L 213.919145 97.108788 
L 214.539255 97.108788 
L 215.159364 77.422727 
L 215.779473 136.480909 
L 216.399582 156.16697 
L 217.019691 116.794848 
L 217.6398 116.794848 
L 218.259909 77.422727 
L 218.880018 136.480909 
L 219.500127 156.16697 
L 220.740345 77.422727 
L 221.980564 77.422727 
L 222.600673 156.16697 
L 223.220782 195.539091 
L 223.840891 215.225152 
L 224.461 175.85303 
L 225.081109 156.16697 
L 225.701218 116.794848 
L 226.321327 156.16697 
L 226.941436 215.225152 
L 228.181655 215.225152 
L 228.801764 254.597273 
L 229.421873 215.225152 
L 230.041982 195.539091 
L 230.662091 234.911212 
L 231.2822 234.911212 
L 231.902309 215.225152 
L 232.522418 215.225152 
L 233.142527 156.16697 
L 233.762636 175.85303 
L 234.382745 156.16697 
L 235.002855 215.225152 
L 235.622964 195.539091 
L 236.243073 215.225152 
L 236.863182 175.85303 
L 237.483291 175.85303 
L 238.1034 195.539091 
L 238.723509 195.539091 
L 239.343618 215.225152 
L 239.963727 215.225152 
L 241.203945 254.597273 
L 241.824055 195.539091 
L 242.444164 195.539091 
L 243.064273 175.85303 
L 243.684382 175.85303 
L 244.9246 215.225152 
L 245.544709 215.225152 
L 246.164818 234.911212 
L 246.784927 215.225152 
L 247.405036 175.85303 
L 248.025145 156.16697 
L 248.645255 116.794848 
L 249.265364 116.794848 
L 249.885473 136.480909 
L 250.505582 136.480909 
L 251.125691 195.539091 
L 251.7458 195.539091 
L 252.365909 156.16697 
L 253.606127 234.911212 
L 254.846345 195.539091 
L 255.466455 136.480909 
L 256.086564 156.16697 
L 256.706673 195.539091 
L 258.567 195.539091 
L 259.187109 215.225152 
L 259.807218 195.539091 
L 260.427327 254.597273 
L 261.667545 215.225152 
L 262.287655 156.16697 
L 262.907764 215.225152 
L 263.527873 215.225152 
L 264.147982 136.480909 
L 265.3882 215.225152 
L 266.008309 156.16697 
L 266.628418 175.85303 
L 267.248527 116.794848 
L 267.868636 156.16697 
L 269.728964 156.16697 
L 270.969182 77.422727 
L 272.2094 195.539091 
L 272.829509 234.911212 
L 273.449618 195.539091 
L 274.069727 116.794848 
L 274.689836 136.480909 
L 275.309945 136.480909 
L 275.930055 175.85303 
L 276.550164 234.911212 
L 277.170273 215.225152 
L 277.790382 215.225152 
L 278.410491 116.794848 
L 279.0306 156.16697 
L 279.650709 156.16697 
L 280.270818 195.539091 
L 280.890927 215.225152 
L 282.751255 215.225152 
L 283.371364 195.539091 
L 283.991473 156.16697 
L 284.611582 156.16697 
L 285.231691 136.480909 
L 285.8518 136.480909 
L 286.471909 57.736667 
L 287.092018 57.736667 
L 287.712127 116.794848 
L 288.332236 136.480909 
L 288.952345 215.225152 
L 290.812673 156.16697 
L 291.432782 175.85303 
L 292.052891 175.85303 
L 293.293109 97.108788 
L 293.913218 156.16697 
L 295.773545 274.283333 
L 296.393655 215.225152 
L 297.013764 175.85303 
L 297.633873 156.16697 
L 298.253982 195.539091 
L 299.4942 234.911212 
L 300.114309 215.225152 
L 300.734418 215.225152 
L 301.354527 234.911212 
L 301.974636 136.480909 
L 303.214855 136.480909 
L 303.834964 156.16697 
L 304.455073 254.597273 
L 305.075182 254.597273 
L 305.695291 195.539091 
L 306.3154 215.225152 
L 307.555618 215.225152 
L 308.175727 195.539091 
L 308.795836 215.225152 
L 309.415945 215.225152 
L 310.036055 156.16697 
L 310.656164 77.422727 
L 313.756709 175.85303 
L 314.376818 234.911212 
L 314.996927 234.911212 
L 315.617036 175.85303 
L 316.857255 97.108788 
L 317.477364 156.16697 
L 318.097473 156.16697 
L 318.717582 175.85303 
L 319.337691 136.480909 
L 319.9578 175.85303 
L 320.577909 97.108788 
L 321.818127 136.480909 
L 322.438236 175.85303 
L 323.058345 195.539091 
L 323.678455 136.480909 
L 324.298564 97.108788 
L 324.918673 116.794848 
L 325.538782 156.16697 
L 326.158891 175.85303 
L 326.779 175.85303 
L 327.399109 215.225152 
L 328.019218 195.539091 
L 328.639327 195.539091 
L 329.259436 136.480909 
L 329.879545 156.16697 
L 330.499655 97.108788 
L 331.119764 116.794848 
L 331.739873 77.422727 
L 332.359982 136.480909 
L 334.220309 195.539091 
L 334.840418 175.85303 
L 335.460527 175.85303 
L 336.080636 156.16697 
L 336.700745 195.539091 
L 337.320855 274.283333 
L 337.940964 274.283333 
L 338.561073 175.85303 
L 339.181182 175.85303 
L 340.4214 97.108788 
L 341.041509 136.480909 
L 341.661618 234.911212 
L 342.901836 234.911212 
L 343.521945 136.480909 
L 344.142055 57.736667 
L 344.762164 57.736667 
L 345.382273 116.794848 
L 346.002382 116.794848 
L 347.2426 195.539091 
L 347.862709 215.225152 
L 348.482818 215.225152 
L 349.102927 195.539091 
L 349.723036 156.16697 
L 350.343145 156.16697 
L 350.963255 175.85303 
L 351.583364 254.597273 
L 352.203473 293.969394 
L 353.443691 215.225152 
L 354.0638 234.911212 
L 354.683909 234.911212 
L 355.304018 195.539091 
L 355.924127 175.85303 
L 356.544236 116.794848 
L 357.164345 156.16697 
L 357.784455 215.225152 
L 358.404564 234.911212 
L 359.024673 234.911212 
L 360.264891 195.539091 
L 360.885 156.16697 
L 361.505109 156.16697 
L 362.125218 195.539091 
L 362.745327 175.85303 
L 363.365436 116.794848 
L 363.985545 116.794848 
L 364.605655 156.16697 
L 365.225764 234.911212 
L 365.845873 195.539091 
L 366.465982 116.794848 
L 367.086091 156.16697 
L 367.7062 136.480909 
L 368.326309 175.85303 
L 368.946418 234.911212 
L 369.566527 215.225152 
L 370.186636 234.911212 
L 370.806745 215.225152 
L 371.426855 136.480909 
L 372.046964 116.794848 
L 372.667073 116.794848 
L 373.287182 136.480909 
L 373.907291 116.794848 
L 374.5274 136.480909 
L 375.147509 175.85303 
L 375.767618 156.16697 
L 376.387727 195.539091 
L 377.007836 156.16697 
L 377.627945 97.108788 
L 378.248055 97.108788 
L 378.868164 156.16697 
L 379.488273 234.911212 
L 380.108382 254.597273 
L 380.728491 234.911212 
L 381.3486 234.911212 
L 381.968709 215.225152 
L 382.588818 175.85303 
L 383.208927 234.911212 
L 383.829036 195.539091 
L 384.449145 136.480909 
L 385.069255 97.108788 
L 385.689364 97.108788 
L 386.309473 175.85303 
L 386.929582 195.539091 
L 387.549691 195.539091 
L 388.1698 234.911212 
L 388.789909 234.911212 
L 389.410018 215.225152 
L 390.030127 156.16697 
L 390.650236 116.794848 
L 391.890455 234.911212 
L 392.510564 195.539091 
L 393.130673 254.597273 
L 393.750782 234.911212 
L 394.370891 156.16697 
L 394.991 136.480909 
L 395.611109 215.225152 
L 396.231218 215.225152 
L 396.851327 234.911212 
L 397.471436 234.911212 
L 398.091545 195.539091 
L 398.711655 116.794848 
L 399.331764 136.480909 
L 399.951873 195.539091 
L 400.571982 215.225152 
L 401.192091 175.85303 
L 401.8122 175.85303 
L 402.432309 136.480909 
L 403.052418 156.16697 
L 403.672527 195.539091 
L 404.292636 215.225152 
L 404.912745 136.480909 
L 405.532855 175.85303 
L 406.152964 156.16697 
L 406.773073 156.16697 
L 407.393182 136.480909 
L 408.6334 175.85303 
L 409.253509 156.16697 
L 409.873618 156.16697 
L 410.493727 215.225152 
L 411.113836 254.597273 
L 411.733945 254.597273 
L 412.354055 215.225152 
L 413.594273 254.597273 
L 414.214382 215.225152 
L 414.834491 136.480909 
L 416.694818 136.480909 
L 417.314927 195.539091 
L 417.935036 195.539091 
L 418.555145 215.225152 
L 419.175255 195.539091 
L 419.795364 234.911212 
L 420.415473 234.911212 
L 421.035582 195.539091 
L 421.655691 195.539091 
L 422.2758 215.225152 
L 422.895909 274.283333 
L 423.516018 234.911212 
L 424.136127 215.225152 
L 424.756236 215.225152 
L 425.376345 234.911212 
L 425.996455 175.85303 
L 426.616564 136.480909 
L 428.476891 195.539091 
L 429.097 136.480909 
L 429.717109 116.794848 
L 430.337218 77.422727 
L 430.957327 156.16697 
L 432.197545 195.539091 
L 432.817655 195.539091 
L 434.057873 234.911212 
L 434.677982 234.911212 
L 435.298091 215.225152 
L 435.9182 175.85303 
L 436.538309 215.225152 
L 437.158418 195.539091 
L 437.778527 234.911212 
L 438.398636 175.85303 
L 439.018745 136.480909 
L 439.638855 116.794848 
L 440.258964 195.539091 
L 440.879073 195.539091 
L 441.499182 215.225152 
L 442.119291 215.225152 
L 442.7394 97.108788 
L 443.979618 57.736667 
L 444.599727 136.480909 
L 445.219836 195.539091 
L 445.839945 274.283333 
L 446.460055 274.283333 
L 447.700273 234.911212 
L 448.320382 195.539091 
L 448.940491 116.794848 
L 449.5606 97.108788 
L 450.180709 116.794848 
L 450.800818 116.794848 
L 451.420927 97.108788 
L 452.041036 38.050606 
L 452.661145 116.794848 
L 453.281255 136.480909 
L 453.901364 175.85303 
L 454.521473 175.85303 
L 455.141582 215.225152 
L 455.761691 175.85303 
L 456.3818 116.794848 
L 457.001909 136.480909 
L 457.622018 136.480909 
L 458.242127 77.422727 
L 458.862236 136.480909 
L 459.482345 136.480909 
L 460.102455 156.16697 
L 461.342673 116.794848 
L 461.962782 175.85303 
L 462.582891 136.480909 
L 463.203 195.539091 
L 463.823109 175.85303 
L 464.443218 175.85303 
L 465.063327 195.539091 
L 465.683436 175.85303 
L 466.923655 175.85303 
L 467.543764 234.911212 
L 468.163873 234.911212 
L 468.783982 195.539091 
L 469.404091 116.794848 
L 470.0242 156.16697 
L 470.644309 175.85303 
L 471.884527 97.108788 
L 472.504636 195.539091 
L 473.124745 175.85303 
L 473.744855 136.480909 
L 474.364964 175.85303 
L 475.605182 175.85303 
L 476.225291 136.480909 
L 476.8454 175.85303 
L 477.465509 156.16697 
L 478.085618 116.794848 
L 478.705727 136.480909 
L 479.325836 175.85303 
L 479.945945 116.794848 
L 480.566055 136.480909 
L 481.186164 57.736667 
L 481.806273 97.108788 
L 482.426382 97.108788 
L 483.046491 175.85303 
L 483.6666 215.225152 
L 484.286709 234.911212 
L 484.906818 156.16697 
L 485.526927 195.539091 
L 486.147036 195.539091 
L 486.767145 215.225152 
L 487.387255 175.85303 
L 488.007364 175.85303 
L 488.627473 136.480909 
L 489.247582 116.794848 
L 489.867691 77.422727 
L 490.4878 77.422727 
L 491.107909 175.85303 
L 491.728018 156.16697 
L 492.348127 156.16697 
L 492.968236 116.794848 
L 493.588345 116.794848 
L 494.208455 136.480909 
L 494.828564 136.480909 
L 495.448673 156.16697 
L 496.068782 156.16697 
L 496.688891 136.480909 
L 497.309 156.16697 
L 497.929109 195.539091 
L 498.549218 195.539091 
L 499.169327 136.480909 
L 501.029655 136.480909 
L 501.649764 116.794848 
L 502.889982 195.539091 
L 503.510091 175.85303 
L 504.1302 175.85303 
L 504.750309 156.16697 
L 505.370418 175.85303 
L 506.610636 254.597273 
L 508.470964 136.480909 
L 509.091073 57.736667 
L 509.711182 116.794848 
L 510.331291 195.539091 
L 510.9514 215.225152 
L 511.571509 175.85303 
L 512.191618 175.85303 
L 512.811727 136.480909 
L 513.431836 195.539091 
L 514.051945 195.539091 
L 514.672055 156.16697 
L 515.912273 156.16697 
L 516.532382 234.911212 
L 517.152491 215.225152 
L 517.7726 215.225152 
L 518.392709 234.911212 
L 519.012818 156.16697 
L 519.632927 156.16697 
L 520.253036 195.539091 
L 520.873145 116.794848 
L 521.493255 136.480909 
L 522.113364 116.794848 
L 522.733473 215.225152 
L 523.353582 195.539091 
L 523.973691 234.911212 
L 524.5938 254.597273 
L 525.213909 254.597273 
L 525.834018 195.539091 
L 526.454127 175.85303 
L 527.074236 175.85303 
L 527.694345 156.16697 
L 528.314455 116.794848 
L 528.934564 156.16697 
L 529.554673 175.85303 
L 530.174782 136.480909 
L 530.794891 116.794848 
L 531.415 215.225152 
L 532.035109 195.539091 
L 532.655218 195.539091 
L 533.275327 116.794848 
L 533.895436 156.16697 
L 534.515545 175.85303 
L 535.135655 156.16697 
L 535.755764 156.16697 
L 536.375873 136.480909 
L 536.995982 97.108788 
L 537.616091 156.16697 
L 538.2362 175.85303 
L 538.856309 136.480909 
L 539.476418 175.85303 
L 540.096527 234.911212 
L 540.716636 175.85303 
L 541.336745 195.539091 
L 541.956855 116.794848 
L 542.576964 97.108788 
L 543.197073 136.480909 
L 543.817182 195.539091 
L 544.437291 195.539091 
L 545.0574 215.225152 
L 545.677509 156.16697 
L 546.297618 156.16697 
L 546.917727 97.108788 
L 547.537836 77.422727 
L 548.157945 156.16697 
L 548.778055 195.539091 
L 549.398164 215.225152 
L 550.018273 195.539091 
L 550.638382 156.16697 
L 551.258491 175.85303 
L 551.8786 136.480909 
L 552.498709 116.794848 
L 553.118818 195.539091 
L 553.738927 156.16697 
L 554.359036 97.108788 
L 554.979145 116.794848 
L 555.599255 116.794848 
L 556.219364 195.539091 
L 556.839473 195.539091 
L 557.459582 175.85303 
L 558.079691 215.225152 
L 558.6998 215.225152 
L 559.319909 234.911212 
L 559.940018 215.225152 
L 560.560127 175.85303 
L 561.800345 215.225152 
L 562.420455 136.480909 
L 563.040564 77.422727 
L 563.660673 77.422727 
L 564.280782 97.108788 
L 564.900891 175.85303 
L 565.521 195.539091 
L 566.761218 195.539091 
L 567.381327 215.225152 
L 568.621545 215.225152 
L 569.241655 175.85303 
L 569.861764 215.225152 
L 570.481873 156.16697 
L 571.101982 175.85303 
L 571.722091 136.480909 
L 572.3422 136.480909 
L 572.962309 97.108788 
L 574.202527 57.736667 
L 576.062855 175.85303 
L 576.682964 175.85303 
L 577.303073 156.16697 
L 577.923182 195.539091 
L 578.543291 156.16697 
L 579.783509 156.16697 
L 580.403618 215.225152 
L 581.023727 234.911212 
L 581.643836 156.16697 
L 582.263945 156.16697 
L 582.884055 136.480909 
L 584.124273 215.225152 
L 584.744382 195.539091 
L 585.364491 156.16697 
L 585.9846 136.480909 
L 586.604709 136.480909 
L 587.224818 156.16697 
L 587.844927 195.539091 
L 588.465036 215.225152 
L 589.085145 215.225152 
L 589.705255 234.911212 
L 590.325364 274.283333 
L 590.945473 175.85303 
L 591.565582 234.911212 
L 592.185691 215.225152 
L 592.8058 156.16697 
L 593.425909 136.480909 
L 594.046018 77.422727 
L 594.666127 38.050606 
L 595.286236 77.422727 
L 595.906345 136.480909 
L 596.526455 175.85303 
L 597.146564 175.85303 
L 597.766673 116.794848 
L 598.386782 116.794848 
L 599.627 77.422727 
L 600.247109 156.16697 
L 600.867218 136.480909 
L 601.487327 195.539091 
L 602.107436 195.539091 
L 602.727545 156.16697 
L 603.967764 156.16697 
L 604.587873 136.480909 
L 605.207982 195.539091 
L 605.828091 175.85303 
L 606.4482 175.85303 
L 607.688418 254.597273 
L 608.308527 215.225152 
L 608.928636 136.480909 
L 609.548745 77.422727 
L 610.168855 116.794848 
L 610.788964 136.480909 
L 611.409073 234.911212 
L 612.029182 234.911212 
L 612.649291 156.16697 
L 613.2694 156.16697 
L 613.889509 136.480909 
L 614.509618 175.85303 
L 615.129727 195.539091 
L 615.749836 156.16697 
L 616.369945 195.539091 
L 617.610164 156.16697 
L 618.230273 195.539091 
L 618.850382 215.225152 
L 620.0906 215.225152 
L 620.710709 175.85303 
L 621.330818 116.794848 
L 621.950927 136.480909 
L 623.191145 136.480909 
L 623.811255 116.794848 
L 624.431364 116.794848 
L 625.671582 195.539091 
L 626.291691 195.539091 
L 626.9118 234.911212 
L 627.531909 215.225152 
L 628.152018 234.911212 
L 628.772127 234.911212 
L 629.392236 215.225152 
L 630.012345 234.911212 
L 631.252564 195.539091 
L 631.872673 136.480909 
L 632.492782 97.108788 
L 633.733 57.736667 
L 634.353109 156.16697 
L 634.973218 195.539091 
L 635.593327 116.794848 
L 636.213436 116.794848 
L 636.833545 175.85303 
L 637.453655 215.225152 
L 638.073764 234.911212 
L 638.693873 234.911212 
L 639.934091 156.16697 
L 640.5542 136.480909 
L 641.174309 77.422727 
L 641.794418 38.050606 
L 643.034636 116.794848 
L 643.654745 38.050606 
L 644.274855 77.422727 
L 644.894964 97.108788 
L 645.515073 136.480909 
L 646.135182 195.539091 
L 646.755291 136.480909 
L 647.3754 116.794848 
L 647.995509 156.16697 
L 648.615618 156.16697 
L 649.235727 77.422727 
L 649.855836 97.108788 
L 650.475945 97.108788 
L 651.096055 136.480909 
L 651.716164 156.16697 
L 652.336273 195.539091 
L 653.576491 156.16697 
L 654.1966 175.85303 
L 654.816709 156.16697 
L 656.056927 234.911212 
L 657.917255 234.911212 
L 658.537364 215.225152 
L 660.397691 215.225152 
L 661.0178 195.539091 
L 661.637909 136.480909 
L 662.258018 116.794848 
L 662.878127 136.480909 
L 663.498236 175.85303 
L 664.118345 116.794848 
L 664.738455 116.794848 
L 665.358564 136.480909 
L 665.978673 175.85303 
L 666.598782 234.911212 
L 667.218891 234.911212 
L 668.459109 195.539091 
L 669.079218 116.794848 
L 669.699327 116.794848 
L 670.319436 195.539091 
L 670.939545 156.16697 
L 670.939545 156.16697 
" clip-path="url(#p92dd5b86f3)" style="fill: none; stroke: #0c5da5; stroke-linecap: square"/>
   </g>
   <g id="patch_3">
    <path d="M 19.825 328.42 
L 19.825 3.6 
" style="fill: none; stroke: #000000; stroke-width: 0.5; stroke-linejoin: miter; stroke-linecap: square"/>
   </g>
   <g id="patch_4">
    <path d="M 701.945 328.42 
L 701.945 3.6 
" style="fill: none; stroke: #000000; stroke-width: 0.5; stroke-linejoin: miter; stroke-linecap: square"/>
   </g>
   <g id="patch_5">
    <path d="M 19.825 328.42 
L 701.945 328.42 
" style="fill: none; stroke: #000000; stroke-width: 0.5; stroke-linejoin: miter; stroke-linecap: square"/>
   </g>
   <g id="patch_6">
    <path d="M 19.825 3.6 
L 701.945 3.6 
" style="fill: none; stroke: #000000; stroke-width: 0.5; stroke-linejoin: miter; stroke-linecap: square"/>
   </g>
  </g>
 </g>
 <defs>
  <clipPath id="p92dd5b86f3">
   <rect x="19.825" y="3.6" width="682.12" height="324.82"/>
  </clipPath>
 </defs>
</svg>
