<?xml version="1.0" encoding="utf-8" standalone="no"?>
<!DOCTYPE svg PUBLIC "-//W3C//DTD SVG 1.1//EN"
  "http://www.w3.org/Graphics/SVG/1.1/DTD/svg11.dtd">
<svg xmlns:xlink="http://www.w3.org/1999/xlink" width="489.6pt" height="273.6pt" viewBox="0 0 489.6 273.6" xmlns="http://www.w3.org/2000/svg" version="1.1">
 <metadata>
  <rdf:RDF xmlns:dc="http://purl.org/dc/elements/1.1/" xmlns:cc="http://creativecommons.org/ns#" xmlns:rdf="http://www.w3.org/1999/02/22-rdf-syntax-ns#">
   <cc:Work>
    <dc:type rdf:resource="http://purl.org/dc/dcmitype/StillImage"/>
    <dc:date>2023-07-17T00:20:12.824029</dc:date>
    <dc:format>image/svg+xml</dc:format>
    <dc:creator>
     <cc:Agent>
      <dc:title>Matplotlib v3.7.2, https://matplotlib.org/</dc:title>
     </cc:Agent>
    </dc:creator>
   </cc:Work>
  </rdf:RDF>
 </metadata>
 <defs>
  <style type="text/css">*{stroke-linejoin: round; stroke-linecap: butt}</style>
 </defs>
 <g id="figure_1">
  <g id="patch_1">
   <path d="M 0 273.6 
L 489.6 273.6 
L 489.6 0 
L 0 0 
z
" style="fill: #ffffff"/>
  </g>
  <g id="axes_1">
   <g id="patch_2">
    <path d="M 238.685376 26.717355 
Q 244.801823 26.717355 249.800236 26.717355 
" clip-path="url(#p9e1f4c1e48)" style="fill: none; stroke: #000000; stroke-opacity: 0.8; stroke-linecap: round"/>
    <path d="M 245.800236 24.717355 
L 249.800236 26.717355 
L 245.800236 28.717355 
z
" clip-path="url(#p9e1f4c1e48)" style="fill-opacity: 0.8; stroke: #000000; stroke-opacity: 0.8; stroke-linecap: round"/>
   </g>
   <g id="patch_3">
    <path d="M 118.492507 121.262517 
Q 159.36917 81.758578 199.44188 43.031594 
" clip-path="url(#p9e1f4c1e48)" style="fill: none; stroke: #000000; stroke-opacity: 0.8; stroke-linecap: round"/>
    <path d="M 195.17571 44.373157 
L 199.44188 43.031594 
L 197.955428 47.249468 
z
" clip-path="url(#p9e1f4c1e48)" style="fill-opacity: 0.8; stroke: #000000; stroke-opacity: 0.8; stroke-linecap: round"/>
   </g>
   <g id="patch_4">
    <path d="M 124.777465 136.8 
Q 130.893912 136.8 135.892326 136.8 
" clip-path="url(#p9e1f4c1e48)" style="fill: none; stroke: #000000; stroke-opacity: 0.8; stroke-linecap: round"/>
    <path d="M 131.892326 134.8 
L 135.892326 136.8 
L 131.892326 138.8 
z
" clip-path="url(#p9e1f4c1e48)" style="fill-opacity: 0.8; stroke: #000000; stroke-opacity: 0.8; stroke-linecap: round"/>
   </g>
   <g id="patch_5">
    <path d="M 169.642957 116.942257 
Q 187.845305 81.760108 205.533898 47.570961 
" clip-path="url(#p9e1f4c1e48)" style="fill: none; stroke: #000000; stroke-opacity: 0.8; stroke-linecap: round"/>
    <path d="M 201.919495 50.204606 
L 205.533898 47.570961 
L 205.472172 52.042671 
z
" clip-path="url(#p9e1f4c1e48)" style="fill-opacity: 0.8; stroke: #000000; stroke-opacity: 0.8; stroke-linecap: round"/>
   </g>
   <g id="patch_6">
    <path d="M 314.153538 121.262517 
Q 273.276874 81.758578 233.204165 43.031594 
" clip-path="url(#p9e1f4c1e48)" style="fill: none; stroke: #000000; stroke-opacity: 0.8; stroke-linecap: round"/>
    <path d="M 234.690616 47.249468 
L 233.204165 43.031594 
L 237.470335 44.373157 
z
" clip-path="url(#p9e1f4c1e48)" style="fill-opacity: 0.8; stroke: #000000; stroke-opacity: 0.8; stroke-linecap: round"/>
   </g>
   <g id="patch_7">
    <path d="M 352.593286 136.8 
Q 358.709733 136.8 363.708146 136.8 
" clip-path="url(#p9e1f4c1e48)" style="fill: none; stroke: #000000; stroke-opacity: 0.8; stroke-linecap: round"/>
    <path d="M 359.708146 134.8 
L 363.708146 136.8 
L 359.708146 138.8 
z
" clip-path="url(#p9e1f4c1e48)" style="fill-opacity: 0.8; stroke: #000000; stroke-opacity: 0.8; stroke-linecap: round"/>
   </g>
   <g id="patch_8">
    <path d="M 368.389978 124.690842 
Q 301.755109 81.759421 236.060097 39.43353 
" clip-path="url(#p9e1f4c1e48)" style="fill: none; stroke: #000000; stroke-opacity: 0.8; stroke-linecap: round"/>
    <path d="M 238.33943 43.281211 
L 236.060097 39.43353 
L 240.505841 39.918673 
z
" clip-path="url(#p9e1f4c1e48)" style="fill-opacity: 0.8; stroke: #000000; stroke-opacity: 0.8; stroke-linecap: round"/>
   </g>
   <g id="patch_9">
    <path d="M 55.735047 227.024902 
Q 73.937395 191.842752 91.625988 157.653606 
" clip-path="url(#p9e1f4c1e48)" style="fill: none; stroke: #000000; stroke-opacity: 0.8; stroke-linecap: round"/>
    <path d="M 88.011584 160.287251 
L 91.625988 157.653606 
L 91.564262 162.125316 
z
" clip-path="url(#p9e1f4c1e48)" style="fill-opacity: 0.8; stroke: #000000; stroke-opacity: 0.8; stroke-linecap: round"/>
   </g>
   <g id="patch_10">
    <path d="M 67.82351 246.882645 
Q 73.939957 246.882645 78.938371 246.882645 
" clip-path="url(#p9e1f4c1e48)" style="fill: none; stroke: #000000; stroke-opacity: 0.8; stroke-linecap: round"/>
    <path d="M 74.938371 244.882645 
L 78.938371 246.882645 
L 74.938371 248.882645 
z
" clip-path="url(#p9e1f4c1e48)" style="fill-opacity: 0.8; stroke: #000000; stroke-opacity: 0.8; stroke-linecap: round"/>
   </g>
   <g id="patch_11">
    <path d="M 102.415112 224.518748 
Q 102.415112 191.839713 102.415112 160.278712 
" clip-path="url(#p9e1f4c1e48)" style="fill: none; stroke: #000000; stroke-opacity: 0.8; stroke-linecap: round"/>
    <path d="M 100.415112 164.278712 
L 102.415112 160.278712 
L 104.415112 164.278712 
z
" clip-path="url(#p9e1f4c1e48)" style="fill-opacity: 0.8; stroke: #000000; stroke-opacity: 0.8; stroke-linecap: round"/>
   </g>
   <g id="patch_12">
    <path d="M 149.095177 227.024902 
Q 130.892829 191.842752 113.204236 157.653606 
" clip-path="url(#p9e1f4c1e48)" style="fill: none; stroke: #000000; stroke-opacity: 0.8; stroke-linecap: round"/>
    <path d="M 113.265963 162.125316 
L 113.204236 157.653606 
L 116.81864 160.287251 
z
" clip-path="url(#p9e1f4c1e48)" style="fill-opacity: 0.8; stroke: #000000; stroke-opacity: 0.8; stroke-linecap: round"/>
   </g>
   <g id="patch_13">
    <path d="M 181.73142 246.882645 
Q 187.847868 246.882645 192.846281 246.882645 
" clip-path="url(#p9e1f4c1e48)" style="fill: none; stroke: #000000; stroke-opacity: 0.8; stroke-linecap: round"/>
    <path d="M 188.846281 244.882645 
L 192.846281 246.882645 
L 188.846281 248.882645 
z
" clip-path="url(#p9e1f4c1e48)" style="fill-opacity: 0.8; stroke: #000000; stroke-opacity: 0.8; stroke-linecap: round"/>
   </g>
   <g id="patch_14">
    <path d="M 200.245627 231.345162 
Q 159.368964 191.841223 119.296254 153.114238 
" clip-path="url(#p9e1f4c1e48)" style="fill: none; stroke: #000000; stroke-opacity: 0.8; stroke-linecap: round"/>
    <path d="M 120.782706 157.332112 
L 119.296254 153.114238 
L 123.562425 154.455801 
z
" clip-path="url(#p9e1f4c1e48)" style="fill-opacity: 0.8; stroke: #000000; stroke-opacity: 0.8; stroke-linecap: round"/>
   </g>
   <g id="patch_15">
    <path d="M 283.550868 227.024902 
Q 301.753215 191.842752 319.441808 157.653606 
" clip-path="url(#p9e1f4c1e48)" style="fill: none; stroke: #000000; stroke-opacity: 0.8; stroke-linecap: round"/>
    <path d="M 315.827405 160.287251 
L 319.441808 157.653606 
L 319.380082 162.125316 
z
" clip-path="url(#p9e1f4c1e48)" style="fill-opacity: 0.8; stroke: #000000; stroke-opacity: 0.8; stroke-linecap: round"/>
   </g>
   <g id="patch_16">
    <path d="M 295.639331 246.882645 
Q 301.755778 246.882645 306.754191 246.882645 
" clip-path="url(#p9e1f4c1e48)" style="fill: none; stroke: #000000; stroke-opacity: 0.8; stroke-linecap: round"/>
    <path d="M 302.754191 244.882645 
L 306.754191 246.882645 
L 302.754191 248.882645 
z
" clip-path="url(#p9e1f4c1e48)" style="fill-opacity: 0.8; stroke: #000000; stroke-opacity: 0.8; stroke-linecap: round"/>
   </g>
   <g id="patch_17">
    <path d="M 330.230933 224.518748 
Q 330.230933 191.839713 330.230933 160.278712 
" clip-path="url(#p9e1f4c1e48)" style="fill: none; stroke: #000000; stroke-opacity: 0.8; stroke-linecap: round"/>
    <path d="M 328.230933 164.278712 
L 330.230933 160.278712 
L 332.230933 164.278712 
z
" clip-path="url(#p9e1f4c1e48)" style="fill-opacity: 0.8; stroke: #000000; stroke-opacity: 0.8; stroke-linecap: round"/>
   </g>
   <g id="patch_18">
    <path d="M 376.910998 227.024902 
Q 358.70865 191.842752 341.020057 157.653606 
" clip-path="url(#p9e1f4c1e48)" style="fill: none; stroke: #000000; stroke-opacity: 0.8; stroke-linecap: round"/>
    <path d="M 341.081783 162.125316 
L 341.020057 157.653606 
L 344.634461 160.287251 
z
" clip-path="url(#p9e1f4c1e48)" style="fill-opacity: 0.8; stroke: #000000; stroke-opacity: 0.8; stroke-linecap: round"/>
   </g>
   <g id="patch_19">
    <path d="M 409.547241 246.882645 
Q 415.663688 246.882645 420.662101 246.882645 
" clip-path="url(#p9e1f4c1e48)" style="fill: none; stroke: #000000; stroke-opacity: 0.8; stroke-linecap: round"/>
    <path d="M 416.662101 244.882645 
L 420.662101 246.882645 
L 416.662101 248.882645 
z
" clip-path="url(#p9e1f4c1e48)" style="fill-opacity: 0.8; stroke: #000000; stroke-opacity: 0.8; stroke-linecap: round"/>
   </g>
   <g id="patch_20">
    <path d="M 428.061448 231.345162 
Q 387.184785 191.841223 347.112075 153.114238 
" clip-path="url(#p9e1f4c1e48)" style="fill: none; stroke: #000000; stroke-opacity: 0.8; stroke-linecap: round"/>
    <path d="M 348.598527 157.332112 
L 347.112075 153.114238 
L 351.378245 154.455801 
z
" clip-path="url(#p9e1f4c1e48)" style="fill-opacity: 0.8; stroke: #000000; stroke-opacity: 0.8; stroke-linecap: round"/>
   </g>
   <g id="PathCollection_1">
    <defs>
     <path id="C0_0_6a46395886" d="M 0 22.36068 
C 5.930122 22.36068 11.618159 20.004617 15.811388 15.811388 
C 20.004617 11.618159 22.36068 5.930122 22.36068 -0 
C 22.36068 -5.930122 20.004617 -11.618159 15.811388 -15.811388 
C 11.618159 -20.004617 5.930122 -22.36068 0 -22.36068 
C -5.930122 -22.36068 -11.618159 -20.004617 -15.811388 -15.811388 
C -20.004617 -11.618159 -22.36068 -5.930122 -22.36068 0 
C -22.36068 5.930122 -20.004617 11.618159 -15.811388 15.811388 
C -11.618159 20.004617 -5.930122 22.36068 0 22.36068 
z
"/>
    </defs>
    <g clip-path="url(#p9e1f4c1e48)">
     <use xlink:href="#C0_0_6a46395886" x="216.323022" y="26.717355" style="fill: #90ee90; fill-opacity: 0.8; stroke: #90ee90; stroke-opacity: 0.8"/>
    </g>
    <g clip-path="url(#p9e1f4c1e48)">
     <use xlink:href="#C0_0_6a46395886" x="273.276978" y="26.717355" style="fill: #add8e6; fill-opacity: 0.8; stroke: #add8e6; stroke-opacity: 0.8"/>
    </g>
    <g clip-path="url(#p9e1f4c1e48)">
     <use xlink:href="#C0_0_6a46395886" x="102.415112" y="136.8" style="fill: #90ee90; fill-opacity: 0.8; stroke: #90ee90; stroke-opacity: 0.8"/>
    </g>
    <g clip-path="url(#p9e1f4c1e48)">
     <use xlink:href="#C0_0_6a46395886" x="159.369067" y="136.8" style="fill: #add8e6; fill-opacity: 0.8; stroke: #add8e6; stroke-opacity: 0.8"/>
    </g>
    <g clip-path="url(#p9e1f4c1e48)">
     <use xlink:href="#C0_0_6a46395886" x="330.230933" y="136.8" style="fill: #90ee90; fill-opacity: 0.8; stroke: #90ee90; stroke-opacity: 0.8"/>
    </g>
    <g clip-path="url(#p9e1f4c1e48)">
     <use xlink:href="#C0_0_6a46395886" x="387.184888" y="136.8" style="fill: #add8e6; fill-opacity: 0.8; stroke: #add8e6; stroke-opacity: 0.8"/>
    </g>
    <g clip-path="url(#p9e1f4c1e48)">
     <use xlink:href="#C0_0_6a46395886" x="45.461157" y="246.882645" style="fill: #90ee90; fill-opacity: 0.8; stroke: #90ee90; stroke-opacity: 0.8"/>
    </g>
    <g clip-path="url(#p9e1f4c1e48)">
     <use xlink:href="#C0_0_6a46395886" x="102.415112" y="246.882645" style="fill: #add8e6; fill-opacity: 0.8; stroke: #add8e6; stroke-opacity: 0.8"/>
    </g>
    <g clip-path="url(#p9e1f4c1e48)">
     <use xlink:href="#C0_0_6a46395886" x="159.369067" y="246.882645" style="fill: #90ee90; fill-opacity: 0.8; stroke: #90ee90; stroke-opacity: 0.8"/>
    </g>
    <g clip-path="url(#p9e1f4c1e48)">
     <use xlink:href="#C0_0_6a46395886" x="216.323022" y="246.882645" style="fill: #add8e6; fill-opacity: 0.8; stroke: #add8e6; stroke-opacity: 0.8"/>
    </g>
    <g clip-path="url(#p9e1f4c1e48)">
     <use xlink:href="#C0_0_6a46395886" x="273.276978" y="246.882645" style="fill: #90ee90; fill-opacity: 0.8; stroke: #90ee90; stroke-opacity: 0.8"/>
    </g>
    <g clip-path="url(#p9e1f4c1e48)">
     <use xlink:href="#C0_0_6a46395886" x="330.230933" y="246.882645" style="fill: #add8e6; fill-opacity: 0.8; stroke: #add8e6; stroke-opacity: 0.8"/>
    </g>
    <g clip-path="url(#p9e1f4c1e48)">
     <use xlink:href="#C0_0_6a46395886" x="387.184888" y="246.882645" style="fill: #90ee90; fill-opacity: 0.8; stroke: #90ee90; stroke-opacity: 0.8"/>
    </g>
    <g clip-path="url(#p9e1f4c1e48)">
     <use xlink:href="#C0_0_6a46395886" x="444.138843" y="246.882645" style="fill: #add8e6; fill-opacity: 0.8; stroke: #add8e6; stroke-opacity: 0.8"/>
    </g>
   </g>
   <g id="text_1">
    <g clip-path="url(#p9e1f4c1e48)">
     <!-- 0 -->
     <g transform="translate(212.844116 29.47673) scale(0.1 -0.1)">
      <defs>
       <path id="DejaVuSans-Bold-30" d="M 2944 2338 
Q 2944 3213 2780 3570 
Q 2616 3928 2228 3928 
Q 1841 3928 1675 3570 
Q 1509 3213 1509 2338 
Q 1509 1453 1675 1090 
Q 1841 728 2228 728 
Q 2613 728 2778 1090 
Q 2944 1453 2944 2338 
z
M 4147 2328 
Q 4147 1169 3647 539 
Q 3147 -91 2228 -91 
Q 1306 -91 806 539 
Q 306 1169 306 2328 
Q 306 3491 806 4120 
Q 1306 4750 2228 4750 
Q 3147 4750 3647 4120 
Q 4147 3491 4147 2328 
z
" transform="scale(0.015625)"/>
      </defs>
      <use xlink:href="#DejaVuSans-Bold-30"/>
     </g>
    </g>
   </g>
   <g id="text_2">
    <g clip-path="url(#p9e1f4c1e48)">
     <!-- 1 -->
     <g transform="translate(269.798071 29.47673) scale(0.1 -0.1)">
      <defs>
       <path id="DejaVuSans-Bold-31" d="M 750 831 
L 1813 831 
L 1813 3847 
L 722 3622 
L 722 4441 
L 1806 4666 
L 2950 4666 
L 2950 831 
L 4013 831 
L 4013 0 
L 750 0 
L 750 831 
z
" transform="scale(0.015625)"/>
      </defs>
      <use xlink:href="#DejaVuSans-Bold-31"/>
     </g>
    </g>
   </g>
   <g id="text_3">
    <g clip-path="url(#p9e1f4c1e48)">
     <!-- 2 -->
     <g transform="translate(98.936206 139.559375) scale(0.1 -0.1)">
      <defs>
       <path id="DejaVuSans-Bold-32" d="M 1844 884 
L 3897 884 
L 3897 0 
L 506 0 
L 506 884 
L 2209 2388 
Q 2438 2594 2547 2791 
Q 2656 2988 2656 3200 
Q 2656 3528 2436 3728 
Q 2216 3928 1850 3928 
Q 1569 3928 1234 3808 
Q 900 3688 519 3450 
L 519 4475 
Q 925 4609 1322 4679 
Q 1719 4750 2100 4750 
Q 2938 4750 3402 4381 
Q 3866 4013 3866 3353 
Q 3866 2972 3669 2642 
Q 3472 2313 2841 1759 
L 1844 884 
z
" transform="scale(0.015625)"/>
      </defs>
      <use xlink:href="#DejaVuSans-Bold-32"/>
     </g>
    </g>
   </g>
   <g id="text_4">
    <g clip-path="url(#p9e1f4c1e48)">
     <!-- 3 -->
     <g transform="translate(155.890161 139.559375) scale(0.1 -0.1)">
      <defs>
       <path id="DejaVuSans-Bold-33" d="M 2981 2516 
Q 3453 2394 3698 2092 
Q 3944 1791 3944 1325 
Q 3944 631 3412 270 
Q 2881 -91 1863 -91 
Q 1503 -91 1142 -33 
Q 781 25 428 141 
L 428 1069 
Q 766 900 1098 814 
Q 1431 728 1753 728 
Q 2231 728 2486 893 
Q 2741 1059 2741 1369 
Q 2741 1688 2480 1852 
Q 2219 2016 1709 2016 
L 1228 2016 
L 1228 2791 
L 1734 2791 
Q 2188 2791 2409 2933 
Q 2631 3075 2631 3366 
Q 2631 3634 2415 3781 
Q 2200 3928 1806 3928 
Q 1516 3928 1219 3862 
Q 922 3797 628 3669 
L 628 4550 
Q 984 4650 1334 4700 
Q 1684 4750 2022 4750 
Q 2931 4750 3382 4451 
Q 3834 4153 3834 3553 
Q 3834 3144 3618 2883 
Q 3403 2622 2981 2516 
z
" transform="scale(0.015625)"/>
      </defs>
      <use xlink:href="#DejaVuSans-Bold-33"/>
     </g>
    </g>
   </g>
   <g id="text_5">
    <g clip-path="url(#p9e1f4c1e48)">
     <!-- 4 -->
     <g transform="translate(326.752026 139.559375) scale(0.1 -0.1)">
      <defs>
       <path id="DejaVuSans-Bold-34" d="M 2356 3675 
L 1038 1722 
L 2356 1722 
L 2356 3675 
z
M 2156 4666 
L 3494 4666 
L 3494 1722 
L 4159 1722 
L 4159 850 
L 3494 850 
L 3494 0 
L 2356 0 
L 2356 850 
L 288 850 
L 288 1881 
L 2156 4666 
z
" transform="scale(0.015625)"/>
      </defs>
      <use xlink:href="#DejaVuSans-Bold-34"/>
     </g>
    </g>
   </g>
   <g id="text_6">
    <g clip-path="url(#p9e1f4c1e48)">
     <!-- 5 -->
     <g transform="translate(383.705982 139.559375) scale(0.1 -0.1)">
      <defs>
       <path id="DejaVuSans-Bold-35" d="M 678 4666 
L 3669 4666 
L 3669 3781 
L 1638 3781 
L 1638 3059 
Q 1775 3097 1914 3117 
Q 2053 3138 2203 3138 
Q 3056 3138 3531 2711 
Q 4006 2284 4006 1522 
Q 4006 766 3489 337 
Q 2972 -91 2053 -91 
Q 1656 -91 1267 -14 
Q 878 63 494 219 
L 494 1166 
Q 875 947 1217 837 
Q 1559 728 1863 728 
Q 2300 728 2551 942 
Q 2803 1156 2803 1522 
Q 2803 1891 2551 2103 
Q 2300 2316 1863 2316 
Q 1603 2316 1309 2248 
Q 1016 2181 678 2041 
L 678 4666 
z
" transform="scale(0.015625)"/>
      </defs>
      <use xlink:href="#DejaVuSans-Bold-35"/>
     </g>
    </g>
   </g>
   <g id="text_7">
    <g clip-path="url(#p9e1f4c1e48)">
     <!-- 6 -->
     <g transform="translate(41.982251 249.64202) scale(0.1 -0.1)">
      <defs>
       <path id="DejaVuSans-Bold-36" d="M 2316 2303 
Q 2000 2303 1842 2098 
Q 1684 1894 1684 1484 
Q 1684 1075 1842 870 
Q 2000 666 2316 666 
Q 2634 666 2792 870 
Q 2950 1075 2950 1484 
Q 2950 1894 2792 2098 
Q 2634 2303 2316 2303 
z
M 3803 4544 
L 3803 3681 
Q 3506 3822 3243 3889 
Q 2981 3956 2731 3956 
Q 2194 3956 1894 3657 
Q 1594 3359 1544 2772 
Q 1750 2925 1990 3001 
Q 2231 3078 2516 3078 
Q 3231 3078 3670 2659 
Q 4109 2241 4109 1563 
Q 4109 813 3618 361 
Q 3128 -91 2303 -91 
Q 1394 -91 895 523 
Q 397 1138 397 2266 
Q 397 3422 980 4083 
Q 1563 4744 2578 4744 
Q 2900 4744 3203 4694 
Q 3506 4644 3803 4544 
z
" transform="scale(0.015625)"/>
      </defs>
      <use xlink:href="#DejaVuSans-Bold-36"/>
     </g>
    </g>
   </g>
   <g id="text_8">
    <g clip-path="url(#p9e1f4c1e48)">
     <!-- 7 -->
     <g transform="translate(98.936206 249.64202) scale(0.1 -0.1)">
      <defs>
       <path id="DejaVuSans-Bold-37" d="M 428 4666 
L 3944 4666 
L 3944 3988 
L 2125 0 
L 953 0 
L 2675 3781 
L 428 3781 
L 428 4666 
z
" transform="scale(0.015625)"/>
      </defs>
      <use xlink:href="#DejaVuSans-Bold-37"/>
     </g>
    </g>
   </g>
   <g id="text_9">
    <g clip-path="url(#p9e1f4c1e48)">
     <!-- 8 -->
     <g transform="translate(155.890161 249.64202) scale(0.1 -0.1)">
      <defs>
       <path id="DejaVuSans-Bold-38" d="M 2228 2088 
Q 1891 2088 1709 1903 
Q 1528 1719 1528 1375 
Q 1528 1031 1709 848 
Q 1891 666 2228 666 
Q 2563 666 2741 848 
Q 2919 1031 2919 1375 
Q 2919 1722 2741 1905 
Q 2563 2088 2228 2088 
z
M 1350 2484 
Q 925 2613 709 2878 
Q 494 3144 494 3541 
Q 494 4131 934 4440 
Q 1375 4750 2228 4750 
Q 3075 4750 3515 4442 
Q 3956 4134 3956 3541 
Q 3956 3144 3739 2878 
Q 3522 2613 3097 2484 
Q 3572 2353 3814 2058 
Q 4056 1763 4056 1313 
Q 4056 619 3595 264 
Q 3134 -91 2228 -91 
Q 1319 -91 855 264 
Q 391 619 391 1313 
Q 391 1763 633 2058 
Q 875 2353 1350 2484 
z
M 1631 3419 
Q 1631 3141 1786 2991 
Q 1941 2841 2228 2841 
Q 2509 2841 2662 2991 
Q 2816 3141 2816 3419 
Q 2816 3697 2662 3845 
Q 2509 3994 2228 3994 
Q 1941 3994 1786 3844 
Q 1631 3694 1631 3419 
z
" transform="scale(0.015625)"/>
      </defs>
      <use xlink:href="#DejaVuSans-Bold-38"/>
     </g>
    </g>
   </g>
   <g id="text_10">
    <g clip-path="url(#p9e1f4c1e48)">
     <!-- 9 -->
     <g transform="translate(212.844116 249.64202) scale(0.1 -0.1)">
      <defs>
       <path id="DejaVuSans-Bold-39" d="M 641 103 
L 641 966 
Q 928 831 1190 764 
Q 1453 697 1709 697 
Q 2247 697 2547 995 
Q 2847 1294 2900 1881 
Q 2688 1725 2447 1647 
Q 2206 1569 1925 1569 
Q 1209 1569 770 1986 
Q 331 2403 331 3084 
Q 331 3838 820 4291 
Q 1309 4744 2131 4744 
Q 3044 4744 3544 4128 
Q 4044 3513 4044 2388 
Q 4044 1231 3459 570 
Q 2875 -91 1856 -91 
Q 1528 -91 1228 -42 
Q 928 6 641 103 
z
M 2125 2350 
Q 2441 2350 2600 2554 
Q 2759 2759 2759 3169 
Q 2759 3575 2600 3781 
Q 2441 3988 2125 3988 
Q 1809 3988 1650 3781 
Q 1491 3575 1491 3169 
Q 1491 2759 1650 2554 
Q 1809 2350 2125 2350 
z
" transform="scale(0.015625)"/>
      </defs>
      <use xlink:href="#DejaVuSans-Bold-39"/>
     </g>
    </g>
   </g>
   <g id="text_11">
    <g clip-path="url(#p9e1f4c1e48)">
     <!-- 10 -->
     <g transform="translate(266.319165 249.64202) scale(0.1 -0.1)">
      <use xlink:href="#DejaVuSans-Bold-31"/>
      <use xlink:href="#DejaVuSans-Bold-30" x="69.580078"/>
     </g>
    </g>
   </g>
   <g id="text_12">
    <g clip-path="url(#p9e1f4c1e48)">
     <!-- 11 -->
     <g transform="translate(323.27312 249.64202) scale(0.1 -0.1)">
      <use xlink:href="#DejaVuSans-Bold-31"/>
      <use xlink:href="#DejaVuSans-Bold-31" x="69.580078"/>
     </g>
    </g>
   </g>
   <g id="text_13">
    <g clip-path="url(#p9e1f4c1e48)">
     <!-- 12 -->
     <g transform="translate(380.227075 249.64202) scale(0.1 -0.1)">
      <use xlink:href="#DejaVuSans-Bold-31"/>
      <use xlink:href="#DejaVuSans-Bold-32" x="69.580078"/>
     </g>
    </g>
   </g>
   <g id="text_14">
    <g clip-path="url(#p9e1f4c1e48)">
     <!-- 13 -->
     <g transform="translate(437.18103 249.64202) scale(0.1 -0.1)">
      <use xlink:href="#DejaVuSans-Bold-31"/>
      <use xlink:href="#DejaVuSans-Bold-33" x="69.580078"/>
     </g>
    </g>
   </g>
   <g id="legend_1">
    <g id="patch_21">
     <path d="M 407.16875 20.198437 
L 427.16875 20.198437 
L 427.16875 13.198437 
L 407.16875 13.198437 
z
" style="fill: #90ee90; stroke: #90ee90; stroke-linejoin: miter"/>
    </g>
    <g id="text_15">
     <!-- Host -->
     <g transform="translate(435.16875 20.198437) scale(0.1 -0.1)">
      <defs>
       <path id="DejaVuSerif-Bold-48" d="M 300 0 
L 300 378 
L 897 378 
L 897 4288 
L 300 4288 
L 300 4666 
L 2700 4666 
L 2700 4288 
L 2100 4288 
L 2100 2719 
L 3956 2719 
L 3956 4288 
L 3359 4288 
L 3359 4666 
L 5759 4666 
L 5759 4288 
L 5159 4288 
L 5159 378 
L 5759 378 
L 5759 0 
L 3359 0 
L 3359 378 
L 3956 378 
L 3956 2291 
L 2100 2291 
L 2100 378 
L 2700 378 
L 2700 0 
L 300 0 
z
" transform="scale(0.015625)"/>
       <path id="DejaVuSerif-Bold-6f" d="M 2138 263 
Q 2488 263 2630 563 
Q 2772 863 2772 1663 
Q 2772 2463 2631 2761 
Q 2491 3059 2138 3059 
Q 1784 3059 1640 2757 
Q 1497 2456 1497 1663 
Q 1497 869 1640 566 
Q 1784 263 2138 263 
z
M 2138 -91 
Q 1259 -91 761 376 
Q 263 844 263 1663 
Q 263 2484 761 2948 
Q 1259 3413 2138 3413 
Q 3019 3413 3516 2948 
Q 4013 2484 4013 1663 
Q 4013 844 3514 376 
Q 3016 -91 2138 -91 
z
" transform="scale(0.015625)"/>
       <path id="DejaVuSerif-Bold-73" d="M 300 97 
L 300 1025 
L 653 1025 
Q 697 653 931 458 
Q 1166 263 1569 263 
Q 1906 263 2086 380 
Q 2266 497 2266 716 
Q 2266 916 2152 1025 
Q 2038 1134 1709 1216 
L 1253 1331 
Q 738 1459 506 1698 
Q 275 1938 275 2344 
Q 275 2884 650 3148 
Q 1025 3413 1806 3413 
Q 2100 3413 2433 3364 
Q 2766 3316 3169 3213 
L 3169 2375 
L 2816 2375 
Q 2788 2716 2573 2887 
Q 2359 3059 1959 3059 
Q 1622 3059 1448 2951 
Q 1275 2844 1275 2638 
Q 1275 2469 1375 2372 
Q 1475 2275 1734 2209 
L 2188 2094 
Q 2841 1928 3091 1684 
Q 3341 1441 3341 1006 
Q 3341 444 2939 176 
Q 2538 -91 1691 -91 
Q 1381 -91 1034 -44 
Q 688 3 300 97 
z
" transform="scale(0.015625)"/>
       <path id="DejaVuSerif-Bold-74" d="M 634 2944 
L 153 2944 
L 153 3322 
L 634 3322 
L 634 4353 
L 1741 4353 
L 1741 3322 
L 2663 3322 
L 2663 2944 
L 1741 2944 
L 1741 909 
Q 1741 475 1809 369 
Q 1878 263 2059 263 
Q 2259 263 2356 397 
Q 2453 531 2459 813 
L 2925 813 
Q 2897 313 2651 111 
Q 2406 -91 1806 -91 
Q 1122 -91 878 123 
Q 634 338 634 909 
L 634 2944 
z
" transform="scale(0.015625)"/>
      </defs>
      <use xlink:href="#DejaVuSerif-Bold-48"/>
      <use xlink:href="#DejaVuSerif-Bold-6f" x="94.482422"/>
      <use xlink:href="#DejaVuSerif-Bold-73" x="161.181641"/>
      <use xlink:href="#DejaVuSerif-Bold-74" x="217.480469"/>
     </g>
    </g>
    <g id="patch_22">
     <path d="M 407.16875 34.876562 
L 427.16875 34.876562 
L 427.16875 27.876562 
L 407.16875 27.876562 
z
" style="fill: #add8e6; stroke: #add8e6; stroke-linejoin: miter"/>
    </g>
    <g id="text_16">
     <!-- Replica -->
     <g transform="translate(435.16875 34.876562) scale(0.1 -0.1)">
      <defs>
       <path id="DejaVuSerif-Bold-52" d="M 3397 2278 
Q 3675 2238 3865 2094 
Q 4056 1950 4197 1678 
L 4878 378 
L 5356 378 
L 5356 0 
L 3822 0 
L 3078 1409 
Q 2863 1847 2711 1967 
Q 2559 2088 2291 2088 
L 2100 2088 
L 2100 378 
L 2700 378 
L 2700 0 
L 300 0 
L 300 378 
L 897 378 
L 897 4288 
L 300 4288 
L 300 4666 
L 2963 4666 
Q 3775 4666 4217 4339 
Q 4659 4013 4659 3413 
Q 4659 2925 4345 2642 
Q 4031 2359 3397 2278 
z
M 2100 2463 
L 2509 2463 
Q 2947 2463 3183 2700 
Q 3419 2938 3419 3378 
Q 3419 3819 3183 4053 
Q 2947 4288 2509 4288 
L 2100 4288 
L 2100 2463 
z
" transform="scale(0.015625)"/>
       <path id="DejaVuSerif-Bold-65" d="M 2566 1875 
Q 2566 2531 2444 2795 
Q 2322 3059 2028 3059 
Q 1744 3059 1620 2800 
Q 1497 2541 1497 1931 
L 1497 1875 
L 2566 1875 
z
M 3781 1503 
L 1497 1503 
L 1497 1478 
Q 1497 834 1690 548 
Q 1884 263 2316 263 
Q 2675 263 2897 453 
Q 3119 644 3181 1006 
L 3700 1006 
Q 3566 441 3166 175 
Q 2766 -91 2047 -91 
Q 1184 -91 723 364 
Q 263 819 263 1663 
Q 263 2488 734 2950 
Q 1206 3413 2047 3413 
Q 2872 3413 3312 2927 
Q 3753 2441 3781 1503 
z
" transform="scale(0.015625)"/>
       <path id="DejaVuSerif-Bold-70" d="M 1728 1825 
L 1728 1497 
Q 1728 916 1876 656 
Q 2025 397 2356 397 
Q 2697 397 2836 672 
Q 2975 947 2975 1663 
Q 2975 2378 2836 2651 
Q 2697 2925 2356 2925 
Q 2025 2925 1876 2665 
Q 1728 2406 1728 1825 
z
M 622 2944 
L 147 2944 
L 147 3322 
L 1728 3322 
L 1728 2900 
Q 1869 3159 2106 3286 
Q 2344 3413 2694 3413 
Q 3403 3413 3811 2945 
Q 4219 2478 4219 1663 
Q 4219 847 3811 378 
Q 3403 -91 2694 -91 
Q 2344 -91 2106 36 
Q 1869 163 1728 422 
L 1728 -953 
L 2241 -953 
L 2241 -1331 
L 147 -1331 
L 147 -953 
L 622 -953 
L 622 2944 
z
" transform="scale(0.015625)"/>
       <path id="DejaVuSerif-Bold-6c" d="M 1797 378 
L 2272 378 
L 2272 0 
L 219 0 
L 219 378 
L 691 378 
L 691 4488 
L 219 4488 
L 219 4863 
L 1797 4863 
L 1797 378 
z
" transform="scale(0.015625)"/>
       <path id="DejaVuSerif-Bold-69" d="M 588 4263 
Q 588 4516 763 4689 
Q 938 4863 1191 4863 
Q 1438 4863 1611 4689 
Q 1784 4516 1784 4263 
Q 1784 4016 1611 3842 
Q 1438 3669 1191 3669 
Q 938 3669 763 3841 
Q 588 4013 588 4263 
z
M 1797 378 
L 2272 378 
L 2272 0 
L 219 0 
L 219 378 
L 691 378 
L 691 2944 
L 219 2944 
L 219 3322 
L 1797 3322 
L 1797 378 
z
" transform="scale(0.015625)"/>
       <path id="DejaVuSerif-Bold-63" d="M 3609 1038 
Q 3491 469 3123 189 
Q 2756 -91 2125 -91 
Q 1238 -91 750 368 
Q 263 828 263 1663 
Q 263 2488 744 2950 
Q 1225 3413 2081 3413 
Q 2428 3413 2781 3347 
Q 3134 3281 3500 3150 
L 3500 2228 
L 3150 2228 
Q 3100 2650 2903 2854 
Q 2706 3059 2350 3059 
Q 1888 3059 1692 2746 
Q 1497 2434 1497 1663 
Q 1497 909 1687 586 
Q 1878 263 2309 263 
Q 2644 263 2845 463 
Q 3047 663 3091 1038 
L 3609 1038 
z
" transform="scale(0.015625)"/>
       <path id="DejaVuSerif-Bold-61" d="M 3525 2041 
L 3525 378 
L 4000 378 
L 4000 0 
L 2419 0 
L 2419 422 
Q 2200 159 1931 34 
Q 1663 -91 1319 -91 
Q 809 -91 536 182 
Q 263 456 263 966 
Q 263 1525 655 1803 
Q 1047 2081 1838 2081 
L 2419 2081 
L 2419 2278 
Q 2419 2681 2228 2873 
Q 2038 3066 1638 3066 
Q 1306 3066 1126 2930 
Q 947 2794 872 2484 
L 519 2484 
L 519 3200 
Q 816 3306 1134 3359 
Q 1453 3413 1806 3413 
Q 2697 3413 3111 3081 
Q 3525 2750 3525 2041 
z
M 2419 1044 
L 2419 1709 
L 2003 1709 
Q 1694 1709 1528 1540 
Q 1363 1372 1363 1056 
Q 1363 741 1483 584 
Q 1603 428 1850 428 
Q 2106 428 2262 597 
Q 2419 766 2419 1044 
z
" transform="scale(0.015625)"/>
      </defs>
      <use xlink:href="#DejaVuSerif-Bold-52"/>
      <use xlink:href="#DejaVuSerif-Bold-65" x="83.105469"/>
      <use xlink:href="#DejaVuSerif-Bold-70" x="146.728516"/>
      <use xlink:href="#DejaVuSerif-Bold-6c" x="216.650391"/>
      <use xlink:href="#DejaVuSerif-Bold-69" x="254.638672"/>
      <use xlink:href="#DejaVuSerif-Bold-63" x="292.626953"/>
      <use xlink:href="#DejaVuSerif-Bold-61" x="353.515625"/>
     </g>
    </g>
   </g>
  </g>
 </g>
 <defs>
  <clipPath id="p9e1f4c1e48">
   <rect x="3.6" y="3.6" width="482.4" height="266.4"/>
  </clipPath>
 </defs>
</svg>
