<?xml version="1.0" encoding="utf-8" standalone="no"?>
<!DOCTYPE svg PUBLIC "-//W3C//DTD SVG 1.1//EN"
  "http://www.w3.org/Graphics/SVG/1.1/DTD/svg11.dtd">
<svg xmlns:xlink="http://www.w3.org/1999/xlink" width="1281.6pt" height="273.6pt" viewBox="0 0 1281.6 273.6" xmlns="http://www.w3.org/2000/svg" version="1.1">
 <metadata>
  <rdf:RDF xmlns:dc="http://purl.org/dc/elements/1.1/" xmlns:cc="http://creativecommons.org/ns#" xmlns:rdf="http://www.w3.org/1999/02/22-rdf-syntax-ns#">
   <cc:Work>
    <dc:type rdf:resource="http://purl.org/dc/dcmitype/StillImage"/>
    <dc:date>2023-07-20T16:54:16.859253</dc:date>
    <dc:format>image/svg+xml</dc:format>
    <dc:creator>
     <cc:Agent>
      <dc:title>Matplotlib v3.7.2, https://matplotlib.org/</dc:title>
     </cc:Agent>
    </dc:creator>
   </cc:Work>
  </rdf:RDF>
 </metadata>
 <defs>
  <style type="text/css">*{stroke-linejoin: round; stroke-linecap: butt}</style>
 </defs>
 <g id="figure_1">
  <g id="patch_1">
   <path d="M 0 273.6 
L 1281.6 273.6 
L 1281.6 0 
L 0 0 
z
" style="fill: #ffffff"/>
  </g>
  <g id="axes_1">
   <g id="patch_2">
    <path d="M 57.457333 132.799728 
Q 338.129129 81.758836 617.700931 30.917981 
" clip-path="url(#pc8b57320cc)" style="fill: none; stroke: #000000; stroke-opacity: 0.8; stroke-linecap: round"/>
    <path d="M 613.407639 29.665926 
L 617.700931 30.917981 
L 614.123312 33.601381 
z
" clip-path="url(#pc8b57320cc)" style="fill-opacity: 0.8; stroke: #000000; stroke-opacity: 0.8; stroke-linecap: round"/>
   </g>
   <g id="patch_3">
    <path d="M 57.818782 136.8 
Q 67.319694 136.8 75.702572 136.8 
" clip-path="url(#pc8b57320cc)" style="fill: none; stroke: #000000; stroke-opacity: 0.8; stroke-linecap: round"/>
    <path d="M 71.702572 134.8 
L 75.702572 136.8 
L 71.702572 138.8 
z
" clip-path="url(#pc8b57320cc)" style="fill-opacity: 0.8; stroke: #000000; stroke-opacity: 0.8; stroke-linecap: round"/>
   </g>
   <g id="patch_4">
    <path d="M 121.09323 132.346202 
Q 369.989205 81.758839 617.789547 31.394161 
" clip-path="url(#pc8b57320cc)" style="fill: none; stroke: #000000; stroke-opacity: 0.8; stroke-linecap: round"/>
    <path d="M 613.471341 30.230932 
L 617.789547 31.394161 
L 614.26804 34.150788 
z
" clip-path="url(#pc8b57320cc)" style="fill-opacity: 0.8; stroke: #000000; stroke-opacity: 0.8; stroke-linecap: round"/>
   </g>
   <g id="patch_5">
    <path d="M 35.46 224.518748 
Q 35.46 191.839713 35.46 160.278712 
" clip-path="url(#pc8b57320cc)" style="fill: none; stroke: #000000; stroke-opacity: 0.8; stroke-linecap: round"/>
    <path d="M 33.46 164.278712 
L 35.46 160.278712 
L 37.46 164.278712 
z
" clip-path="url(#pc8b57320cc)" style="fill-opacity: 0.8; stroke: #000000; stroke-opacity: 0.8; stroke-linecap: round"/>
   </g>
   <g id="patch_6">
    <path d="M 57.818782 246.882645 
Q 67.319694 246.882645 75.702572 246.882645 
" clip-path="url(#pc8b57320cc)" style="fill: none; stroke: #000000; stroke-opacity: 0.8; stroke-linecap: round"/>
    <path d="M 71.702572 244.882645 
L 75.702572 246.882645 
L 71.702572 248.882645 
z
" clip-path="url(#pc8b57320cc)" style="fill-opacity: 0.8; stroke: #000000; stroke-opacity: 0.8; stroke-linecap: round"/>
   </g>
   <g id="patch_7">
    <path d="M 87.977274 227.52882 
Q 67.319272 191.840065 47.221367 157.118932 
" clip-path="url(#pc8b57320cc)" style="fill: none; stroke: #000000; stroke-opacity: 0.8; stroke-linecap: round"/>
    <path d="M 47.494293 161.582732 
L 47.221367 157.118932 
L 50.956162 159.578871 
z
" clip-path="url(#pc8b57320cc)" style="fill-opacity: 0.8; stroke: #000000; stroke-opacity: 0.8; stroke-linecap: round"/>
   </g>
   <g id="patch_8">
    <path d="M 248.230848 131.056171 
Q 433.710727 81.758484 618.110086 32.747984 
" clip-path="url(#pc8b57320cc)" style="fill: none; stroke: #000000; stroke-opacity: 0.8; stroke-linecap: round"/>
    <path d="M 613.730565 31.842557 
L 618.110086 32.747984 
L 614.758032 35.708344 
z
" clip-path="url(#pc8b57320cc)" style="fill-opacity: 0.8; stroke: #000000; stroke-opacity: 0.8; stroke-linecap: round"/>
   </g>
   <g id="patch_9">
    <path d="M 248.978782 136.8 
Q 258.479694 136.8 266.862572 136.8 
" clip-path="url(#pc8b57320cc)" style="fill: none; stroke: #000000; stroke-opacity: 0.8; stroke-linecap: round"/>
    <path d="M 262.862572 134.8 
L 266.862572 136.8 
L 262.862572 138.8 
z
" clip-path="url(#pc8b57320cc)" style="fill-opacity: 0.8; stroke: #000000; stroke-opacity: 0.8; stroke-linecap: round"/>
   </g>
   <g id="patch_10">
    <path d="M 311.674231 130.098726 
Q 465.571514 81.758202 618.402146 33.752723 
" clip-path="url(#pc8b57320cc)" style="fill: none; stroke: #000000; stroke-opacity: 0.8; stroke-linecap: round"/>
    <path d="M 613.986632 33.043332 
L 618.402146 33.752723 
L 615.185325 36.8595 
z
" clip-path="url(#pc8b57320cc)" style="fill-opacity: 0.8; stroke: #000000; stroke-opacity: 0.8; stroke-linecap: round"/>
   </g>
   <g id="patch_11">
    <path d="M 174.102726 227.52882 
Q 194.760728 191.840065 214.858633 157.118932 
" clip-path="url(#pc8b57320cc)" style="fill: none; stroke: #000000; stroke-opacity: 0.8; stroke-linecap: round"/>
    <path d="M 211.123838 159.578871 
L 214.858633 157.118932 
L 214.585707 161.582732 
z
" clip-path="url(#pc8b57320cc)" style="fill-opacity: 0.8; stroke: #000000; stroke-opacity: 0.8; stroke-linecap: round"/>
   </g>
   <g id="patch_12">
    <path d="M 185.258782 246.882645 
Q 194.759694 246.882645 203.142572 246.882645 
" clip-path="url(#pc8b57320cc)" style="fill: none; stroke: #000000; stroke-opacity: 0.8; stroke-linecap: round"/>
    <path d="M 199.142572 244.882645 
L 203.142572 246.882645 
L 199.142572 248.882645 
z
" clip-path="url(#pc8b57320cc)" style="fill-opacity: 0.8; stroke: #000000; stroke-opacity: 0.8; stroke-linecap: round"/>
   </g>
   <g id="patch_13">
    <path d="M 226.62 224.518748 
Q 226.62 191.839713 226.62 160.278712 
" clip-path="url(#pc8b57320cc)" style="fill: none; stroke: #000000; stroke-opacity: 0.8; stroke-linecap: round"/>
    <path d="M 224.62 164.278712 
L 226.62 160.278712 
L 228.62 164.278712 
z
" clip-path="url(#pc8b57320cc)" style="fill-opacity: 0.8; stroke: #000000; stroke-opacity: 0.8; stroke-linecap: round"/>
   </g>
   <g id="patch_14">
    <path d="M 279.137274 227.52882 
Q 258.479272 191.840065 238.381367 157.118932 
" clip-path="url(#pc8b57320cc)" style="fill: none; stroke: #000000; stroke-opacity: 0.8; stroke-linecap: round"/>
    <path d="M 238.654293 161.582732 
L 238.381367 157.118932 
L 242.116162 159.578871 
z
" clip-path="url(#pc8b57320cc)" style="fill-opacity: 0.8; stroke: #000000; stroke-opacity: 0.8; stroke-linecap: round"/>
   </g>
   <g id="patch_15">
    <path d="M 312.698782 246.882645 
Q 322.199694 246.882645 330.582572 246.882645 
" clip-path="url(#pc8b57320cc)" style="fill: none; stroke: #000000; stroke-opacity: 0.8; stroke-linecap: round"/>
    <path d="M 326.582572 244.882645 
L 330.582572 246.882645 
L 326.582572 248.882645 
z
" clip-path="url(#pc8b57320cc)" style="fill-opacity: 0.8; stroke: #000000; stroke-opacity: 0.8; stroke-linecap: round"/>
   </g>
   <g id="patch_16">
    <path d="M 337.140209 232.267333 
Q 290.340796 191.84201 244.387469 152.147536 
" clip-path="url(#pc8b57320cc)" style="fill: none; stroke: #000000; stroke-opacity: 0.8; stroke-linecap: round"/>
    <path d="M 246.107135 156.275822 
L 244.387469 152.147536 
L 248.721897 153.248775 
z
" clip-path="url(#pc8b57320cc)" style="fill-opacity: 0.8; stroke: #000000; stroke-opacity: 0.8; stroke-linecap: round"/>
   </g>
   <g id="patch_17">
    <path d="M 499.893297 124.089499 
Q 561.149743 81.758856 621.486404 40.063819 
" clip-path="url(#pc8b57320cc)" style="fill: none; stroke: #000000; stroke-opacity: 0.8; stroke-linecap: round"/>
    <path d="M 617.058675 40.692478 
L 621.486404 40.063819 
L 619.332693 43.983198 
z
" clip-path="url(#pc8b57320cc)" style="fill-opacity: 0.8; stroke: #000000; stroke-opacity: 0.8; stroke-linecap: round"/>
   </g>
   <g id="patch_18">
    <path d="M 503.858782 136.8 
Q 513.359694 136.8 521.742572 136.8 
" clip-path="url(#pc8b57320cc)" style="fill: none; stroke: #000000; stroke-opacity: 0.8; stroke-linecap: round"/>
    <path d="M 517.742572 134.8 
L 521.742572 136.8 
L 517.742572 138.8 
z
" clip-path="url(#pc8b57320cc)" style="fill-opacity: 0.8; stroke: #000000; stroke-opacity: 0.8; stroke-linecap: round"/>
   </g>
   <g id="patch_19">
    <path d="M 559.877272 119.918735 
Q 593.00773 81.761292 625.405188 44.448069 
" clip-path="url(#pc8b57320cc)" style="fill: none; stroke: #000000; stroke-opacity: 0.8; stroke-linecap: round"/>
    <path d="M 621.272535 46.157216 
L 625.405188 44.448069 
L 624.292913 48.779679 
z
" clip-path="url(#pc8b57320cc)" style="fill-opacity: 0.8; stroke: #000000; stroke-opacity: 0.8; stroke-linecap: round"/>
   </g>
   <g id="patch_20">
    <path d="M 428.982726 227.52882 
Q 449.640728 191.840065 469.738633 157.118932 
" clip-path="url(#pc8b57320cc)" style="fill: none; stroke: #000000; stroke-opacity: 0.8; stroke-linecap: round"/>
    <path d="M 466.003838 159.578871 
L 469.738633 157.118932 
L 469.465707 161.582732 
z
" clip-path="url(#pc8b57320cc)" style="fill-opacity: 0.8; stroke: #000000; stroke-opacity: 0.8; stroke-linecap: round"/>
   </g>
   <g id="patch_21">
    <path d="M 440.138782 246.882645 
Q 449.639694 246.882645 458.022572 246.882645 
" clip-path="url(#pc8b57320cc)" style="fill: none; stroke: #000000; stroke-opacity: 0.8; stroke-linecap: round"/>
    <path d="M 454.022572 244.882645 
L 458.022572 246.882645 
L 454.022572 248.882645 
z
" clip-path="url(#pc8b57320cc)" style="fill-opacity: 0.8; stroke: #000000; stroke-opacity: 0.8; stroke-linecap: round"/>
   </g>
   <g id="patch_22">
    <path d="M 481.5 224.518748 
Q 481.5 191.839713 481.5 160.278712 
" clip-path="url(#pc8b57320cc)" style="fill: none; stroke: #000000; stroke-opacity: 0.8; stroke-linecap: round"/>
    <path d="M 479.5 164.278712 
L 481.5 160.278712 
L 483.5 164.278712 
z
" clip-path="url(#pc8b57320cc)" style="fill-opacity: 0.8; stroke: #000000; stroke-opacity: 0.8; stroke-linecap: round"/>
   </g>
   <g id="patch_23">
    <path d="M 534.017274 227.52882 
Q 513.359272 191.840065 493.261367 157.118932 
" clip-path="url(#pc8b57320cc)" style="fill: none; stroke: #000000; stroke-opacity: 0.8; stroke-linecap: round"/>
    <path d="M 493.534293 161.582732 
L 493.261367 157.118932 
L 496.996162 159.578871 
z
" clip-path="url(#pc8b57320cc)" style="fill-opacity: 0.8; stroke: #000000; stroke-opacity: 0.8; stroke-linecap: round"/>
   </g>
   <g id="patch_24">
    <path d="M 567.578782 246.882645 
Q 577.079694 246.882645 585.462572 246.882645 
" clip-path="url(#pc8b57320cc)" style="fill: none; stroke: #000000; stroke-opacity: 0.8; stroke-linecap: round"/>
    <path d="M 581.462572 244.882645 
L 585.462572 246.882645 
L 581.462572 248.882645 
z
" clip-path="url(#pc8b57320cc)" style="fill-opacity: 0.8; stroke: #000000; stroke-opacity: 0.8; stroke-linecap: round"/>
   </g>
   <g id="patch_25">
    <path d="M 592.020209 232.267333 
Q 545.220796 191.84201 499.267469 152.147536 
" clip-path="url(#pc8b57320cc)" style="fill: none; stroke: #000000; stroke-opacity: 0.8; stroke-linecap: round"/>
    <path d="M 500.987135 156.275822 
L 499.267469 152.147536 
L 503.601897 153.248775 
z
" clip-path="url(#pc8b57320cc)" style="fill-opacity: 0.8; stroke: #000000; stroke-opacity: 0.8; stroke-linecap: round"/>
   </g>
   <g id="patch_26">
    <path d="M 781.706703 124.089499 
Q 720.450257 81.758856 660.113596 40.063819 
" clip-path="url(#pc8b57320cc)" style="fill: none; stroke: #000000; stroke-opacity: 0.8; stroke-linecap: round"/>
    <path d="M 662.267307 43.983198 
L 660.113596 40.063819 
L 664.541325 40.692478 
z
" clip-path="url(#pc8b57320cc)" style="fill-opacity: 0.8; stroke: #000000; stroke-opacity: 0.8; stroke-linecap: round"/>
   </g>
   <g id="patch_27">
    <path d="M 822.458782 136.8 
Q 831.959694 136.8 840.342572 136.8 
" clip-path="url(#pc8b57320cc)" style="fill: none; stroke: #000000; stroke-opacity: 0.8; stroke-linecap: round"/>
    <path d="M 836.342572 134.8 
L 840.342572 136.8 
L 836.342572 138.8 
z
" clip-path="url(#pc8b57320cc)" style="fill-opacity: 0.8; stroke: #000000; stroke-opacity: 0.8; stroke-linecap: round"/>
   </g>
   <g id="patch_28">
    <path d="M 843.766032 126.901364 
Q 752.309605 81.758483 661.855731 37.110462 
" clip-path="url(#pc8b57320cc)" style="fill: none; stroke: #000000; stroke-opacity: 0.8; stroke-linecap: round"/>
    <path d="M 664.557342 40.67435 
L 661.855731 37.110462 
L 666.327808 37.087505 
z
" clip-path="url(#pc8b57320cc)" style="fill-opacity: 0.8; stroke: #000000; stroke-opacity: 0.8; stroke-linecap: round"/>
   </g>
   <g id="patch_29">
    <path d="M 689.579791 232.267333 
Q 736.379204 191.84201 782.332531 152.147536 
" clip-path="url(#pc8b57320cc)" style="fill: none; stroke: #000000; stroke-opacity: 0.8; stroke-linecap: round"/>
    <path d="M 777.998103 153.248775 
L 782.332531 152.147536 
L 780.612865 156.275822 
z
" clip-path="url(#pc8b57320cc)" style="fill-opacity: 0.8; stroke: #000000; stroke-opacity: 0.8; stroke-linecap: round"/>
   </g>
   <g id="patch_30">
    <path d="M 695.018782 246.882645 
Q 704.519694 246.882645 712.902572 246.882645 
" clip-path="url(#pc8b57320cc)" style="fill: none; stroke: #000000; stroke-opacity: 0.8; stroke-linecap: round"/>
    <path d="M 708.902572 244.882645 
L 712.902572 246.882645 
L 708.902572 248.882645 
z
" clip-path="url(#pc8b57320cc)" style="fill-opacity: 0.8; stroke: #000000; stroke-opacity: 0.8; stroke-linecap: round"/>
   </g>
   <g id="patch_31">
    <path d="M 747.582726 227.52882 
Q 768.240728 191.840065 788.338633 157.118932 
" clip-path="url(#pc8b57320cc)" style="fill: none; stroke: #000000; stroke-opacity: 0.8; stroke-linecap: round"/>
    <path d="M 784.603838 159.578871 
L 788.338633 157.118932 
L 788.065707 161.582732 
z
" clip-path="url(#pc8b57320cc)" style="fill-opacity: 0.8; stroke: #000000; stroke-opacity: 0.8; stroke-linecap: round"/>
   </g>
   <g id="patch_32">
    <path d="M 800.1 224.518748 
Q 800.1 191.839713 800.1 160.278712 
" clip-path="url(#pc8b57320cc)" style="fill: none; stroke: #000000; stroke-opacity: 0.8; stroke-linecap: round"/>
    <path d="M 798.1 164.278712 
L 800.1 160.278712 
L 802.1 164.278712 
z
" clip-path="url(#pc8b57320cc)" style="fill-opacity: 0.8; stroke: #000000; stroke-opacity: 0.8; stroke-linecap: round"/>
   </g>
   <g id="patch_33">
    <path d="M 822.458782 246.882645 
Q 831.959694 246.882645 840.342572 246.882645 
" clip-path="url(#pc8b57320cc)" style="fill: none; stroke: #000000; stroke-opacity: 0.8; stroke-linecap: round"/>
    <path d="M 836.342572 244.882645 
L 840.342572 246.882645 
L 836.342572 248.882645 
z
" clip-path="url(#pc8b57320cc)" style="fill-opacity: 0.8; stroke: #000000; stroke-opacity: 0.8; stroke-linecap: round"/>
   </g>
   <g id="patch_34">
    <path d="M 852.617274 227.52882 
Q 831.959272 191.840065 811.861367 157.118932 
" clip-path="url(#pc8b57320cc)" style="fill: none; stroke: #000000; stroke-opacity: 0.8; stroke-linecap: round"/>
    <path d="M 812.134293 161.582732 
L 811.861367 157.118932 
L 815.596162 159.578871 
z
" clip-path="url(#pc8b57320cc)" style="fill-opacity: 0.8; stroke: #000000; stroke-opacity: 0.8; stroke-linecap: round"/>
   </g>
   <g id="patch_35">
    <path d="M 910.620209 232.267333 
Q 863.820796 191.84201 817.867469 152.147536 
" clip-path="url(#pc8b57320cc)" style="fill: none; stroke: #000000; stroke-opacity: 0.8; stroke-linecap: round"/>
    <path d="M 819.587135 156.275822 
L 817.867469 152.147536 
L 822.201897 153.248775 
z
" clip-path="url(#pc8b57320cc)" style="fill-opacity: 0.8; stroke: #000000; stroke-opacity: 0.8; stroke-linecap: round"/>
   </g>
   <g id="patch_36">
    <path d="M 949.898782 246.882645 
Q 959.399694 246.882645 967.782572 246.882645 
" clip-path="url(#pc8b57320cc)" style="fill: none; stroke: #000000; stroke-opacity: 0.8; stroke-linecap: round"/>
    <path d="M 963.782572 244.882645 
L 967.782572 246.882645 
L 963.782572 248.882645 
z
" clip-path="url(#pc8b57320cc)" style="fill-opacity: 0.8; stroke: #000000; stroke-opacity: 0.8; stroke-linecap: round"/>
   </g>
   <g id="patch_37">
    <path d="M 971.883232 235.724212 
Q 895.680897 191.841839 820.44743 148.517404 
" clip-path="url(#pc8b57320cc)" style="fill: none; stroke: #000000; stroke-opacity: 0.8; stroke-linecap: round"/>
    <path d="M 822.915685 152.246708 
L 820.44743 148.517404 
L 824.911827 148.780382 
z
" clip-path="url(#pc8b57320cc)" style="fill-opacity: 0.8; stroke: #000000; stroke-opacity: 0.8; stroke-linecap: round"/>
   </g>
   <g id="patch_38">
    <path d="M 1096.907334 131.780133 
Q 879.747252 81.758045 663.676674 31.98692 
" clip-path="url(#pc8b57320cc)" style="fill: none; stroke: #000000; stroke-opacity: 0.8; stroke-linecap: round"/>
    <path d="M 667.125662 34.833756 
L 663.676674 31.98692 
L 668.023536 30.935831 
z
" clip-path="url(#pc8b57320cc)" style="fill-opacity: 0.8; stroke: #000000; stroke-opacity: 0.8; stroke-linecap: round"/>
   </g>
   <g id="patch_39">
    <path d="M 1141.058782 136.8 
Q 1150.559694 136.8 1158.942572 136.8 
" clip-path="url(#pc8b57320cc)" style="fill: none; stroke: #000000; stroke-opacity: 0.8; stroke-linecap: round"/>
    <path d="M 1154.942572 134.8 
L 1158.942572 136.8 
L 1154.942572 138.8 
z
" clip-path="url(#pc8b57320cc)" style="fill-opacity: 0.8; stroke: #000000; stroke-opacity: 0.8; stroke-linecap: round"/>
   </g>
   <g id="patch_40">
    <path d="M 1160.50677 132.346202 
Q 911.610795 81.758839 663.810453 31.394161 
" clip-path="url(#pc8b57320cc)" style="fill: none; stroke: #000000; stroke-opacity: 0.8; stroke-linecap: round"/>
    <path d="M 667.33196 34.150788 
L 663.810453 31.394161 
L 668.128659 30.230932 
z
" clip-path="url(#pc8b57320cc)" style="fill-opacity: 0.8; stroke: #000000; stroke-opacity: 0.8; stroke-linecap: round"/>
   </g>
   <g id="patch_41">
    <path d="M 1066.182726 227.52882 
Q 1086.840728 191.840065 1106.938633 157.118932 
" clip-path="url(#pc8b57320cc)" style="fill: none; stroke: #000000; stroke-opacity: 0.8; stroke-linecap: round"/>
    <path d="M 1103.203838 159.578871 
L 1106.938633 157.118932 
L 1106.665707 161.582732 
z
" clip-path="url(#pc8b57320cc)" style="fill-opacity: 0.8; stroke: #000000; stroke-opacity: 0.8; stroke-linecap: round"/>
   </g>
   <g id="patch_42">
    <path d="M 1077.338782 246.882645 
Q 1086.839694 246.882645 1095.222572 246.882645 
" clip-path="url(#pc8b57320cc)" style="fill: none; stroke: #000000; stroke-opacity: 0.8; stroke-linecap: round"/>
    <path d="M 1091.222572 244.882645 
L 1095.222572 246.882645 
L 1091.222572 248.882645 
z
" clip-path="url(#pc8b57320cc)" style="fill-opacity: 0.8; stroke: #000000; stroke-opacity: 0.8; stroke-linecap: round"/>
   </g>
   <g id="patch_43">
    <path d="M 1118.7 224.518748 
Q 1118.7 191.839713 1118.7 160.278712 
" clip-path="url(#pc8b57320cc)" style="fill: none; stroke: #000000; stroke-opacity: 0.8; stroke-linecap: round"/>
    <path d="M 1116.7 164.278712 
L 1118.7 160.278712 
L 1120.7 164.278712 
z
" clip-path="url(#pc8b57320cc)" style="fill-opacity: 0.8; stroke: #000000; stroke-opacity: 0.8; stroke-linecap: round"/>
   </g>
   <g id="patch_44">
    <path d="M 1171.217274 227.52882 
Q 1150.559272 191.840065 1130.461367 157.118932 
" clip-path="url(#pc8b57320cc)" style="fill: none; stroke: #000000; stroke-opacity: 0.8; stroke-linecap: round"/>
    <path d="M 1130.734293 161.582732 
L 1130.461367 157.118932 
L 1134.196162 159.578871 
z
" clip-path="url(#pc8b57320cc)" style="fill-opacity: 0.8; stroke: #000000; stroke-opacity: 0.8; stroke-linecap: round"/>
   </g>
   <g id="patch_45">
    <path d="M 1204.778782 246.882645 
Q 1214.279694 246.882645 1222.662572 246.882645 
" clip-path="url(#pc8b57320cc)" style="fill: none; stroke: #000000; stroke-opacity: 0.8; stroke-linecap: round"/>
    <path d="M 1218.662572 244.882645 
L 1222.662572 246.882645 
L 1218.662572 248.882645 
z
" clip-path="url(#pc8b57320cc)" style="fill-opacity: 0.8; stroke: #000000; stroke-opacity: 0.8; stroke-linecap: round"/>
   </g>
   <g id="patch_46">
    <path d="M 1229.220209 232.267333 
Q 1182.420796 191.84201 1136.467469 152.147536 
" clip-path="url(#pc8b57320cc)" style="fill: none; stroke: #000000; stroke-opacity: 0.8; stroke-linecap: round"/>
    <path d="M 1138.187135 156.275822 
L 1136.467469 152.147536 
L 1140.801897 153.248775 
z
" clip-path="url(#pc8b57320cc)" style="fill-opacity: 0.8; stroke: #000000; stroke-opacity: 0.8; stroke-linecap: round"/>
   </g>
   <g id="PathCollection_1">
    <defs>
     <path id="C0_0_a94f1e2867" d="M 0 22.36068 
C 5.930122 22.36068 11.618159 20.004617 15.811388 15.811388 
C 20.004617 11.618159 22.36068 5.930122 22.36068 -0 
C 22.36068 -5.930122 20.004617 -11.618159 15.811388 -15.811388 
C 11.618159 -20.004617 5.930122 -22.36068 0 -22.36068 
C -5.930122 -22.36068 -11.618159 -20.004617 -15.811388 -15.811388 
C -20.004617 -11.618159 -22.36068 -5.930122 -22.36068 0 
C -22.36068 5.930122 -20.004617 11.618159 -15.811388 15.811388 
C -11.618159 20.004617 -5.930122 22.36068 0 22.36068 
z
"/>
    </defs>
    <g clip-path="url(#pc8b57320cc)">
     <use xlink:href="#C0_0_a94f1e2867" x="640.8" y="26.717355" style="fill: #f08080; fill-opacity: 0.8; stroke: #f08080; stroke-opacity: 0.8"/>
    </g>
    <g clip-path="url(#pc8b57320cc)">
     <use xlink:href="#C0_0_a94f1e2867" x="35.46" y="136.8" style="fill: #90ee90; fill-opacity: 0.8; stroke: #90ee90; stroke-opacity: 0.8"/>
    </g>
    <g clip-path="url(#pc8b57320cc)">
     <use xlink:href="#C0_0_a94f1e2867" x="99.18" y="136.8" style="fill: #add8e6; fill-opacity: 0.8; stroke: #add8e6; stroke-opacity: 0.8"/>
    </g>
    <g clip-path="url(#pc8b57320cc)">
     <use xlink:href="#C0_0_a94f1e2867" x="35.46" y="246.882645" style="fill: #90ee90; fill-opacity: 0.8; stroke: #90ee90; stroke-opacity: 0.8"/>
    </g>
    <g clip-path="url(#pc8b57320cc)">
     <use xlink:href="#C0_0_a94f1e2867" x="99.18" y="246.882645" style="fill: #add8e6; fill-opacity: 0.8; stroke: #add8e6; stroke-opacity: 0.8"/>
    </g>
    <g clip-path="url(#pc8b57320cc)">
     <use xlink:href="#C0_0_a94f1e2867" x="226.62" y="136.8" style="fill: #90ee90; fill-opacity: 0.8; stroke: #90ee90; stroke-opacity: 0.8"/>
    </g>
    <g clip-path="url(#pc8b57320cc)">
     <use xlink:href="#C0_0_a94f1e2867" x="290.34" y="136.8" style="fill: #add8e6; fill-opacity: 0.8; stroke: #add8e6; stroke-opacity: 0.8"/>
    </g>
    <g clip-path="url(#pc8b57320cc)">
     <use xlink:href="#C0_0_a94f1e2867" x="162.9" y="246.882645" style="fill: #90ee90; fill-opacity: 0.8; stroke: #90ee90; stroke-opacity: 0.8"/>
    </g>
    <g clip-path="url(#pc8b57320cc)">
     <use xlink:href="#C0_0_a94f1e2867" x="226.62" y="246.882645" style="fill: #add8e6; fill-opacity: 0.8; stroke: #add8e6; stroke-opacity: 0.8"/>
    </g>
    <g clip-path="url(#pc8b57320cc)">
     <use xlink:href="#C0_0_a94f1e2867" x="290.34" y="246.882645" style="fill: #90ee90; fill-opacity: 0.8; stroke: #90ee90; stroke-opacity: 0.8"/>
    </g>
    <g clip-path="url(#pc8b57320cc)">
     <use xlink:href="#C0_0_a94f1e2867" x="354.06" y="246.882645" style="fill: #add8e6; fill-opacity: 0.8; stroke: #add8e6; stroke-opacity: 0.8"/>
    </g>
    <g clip-path="url(#pc8b57320cc)">
     <use xlink:href="#C0_0_a94f1e2867" x="481.5" y="136.8" style="fill: #90ee90; fill-opacity: 0.8; stroke: #90ee90; stroke-opacity: 0.8"/>
    </g>
    <g clip-path="url(#pc8b57320cc)">
     <use xlink:href="#C0_0_a94f1e2867" x="545.22" y="136.8" style="fill: #add8e6; fill-opacity: 0.8; stroke: #add8e6; stroke-opacity: 0.8"/>
    </g>
    <g clip-path="url(#pc8b57320cc)">
     <use xlink:href="#C0_0_a94f1e2867" x="417.78" y="246.882645" style="fill: #90ee90; fill-opacity: 0.8; stroke: #90ee90; stroke-opacity: 0.8"/>
    </g>
    <g clip-path="url(#pc8b57320cc)">
     <use xlink:href="#C0_0_a94f1e2867" x="481.5" y="246.882645" style="fill: #add8e6; fill-opacity: 0.8; stroke: #add8e6; stroke-opacity: 0.8"/>
    </g>
    <g clip-path="url(#pc8b57320cc)">
     <use xlink:href="#C0_0_a94f1e2867" x="545.22" y="246.882645" style="fill: #90ee90; fill-opacity: 0.8; stroke: #90ee90; stroke-opacity: 0.8"/>
    </g>
    <g clip-path="url(#pc8b57320cc)">
     <use xlink:href="#C0_0_a94f1e2867" x="608.94" y="246.882645" style="fill: #add8e6; fill-opacity: 0.8; stroke: #add8e6; stroke-opacity: 0.8"/>
    </g>
    <g clip-path="url(#pc8b57320cc)">
     <use xlink:href="#C0_0_a94f1e2867" x="800.1" y="136.8" style="fill: #90ee90; fill-opacity: 0.8; stroke: #90ee90; stroke-opacity: 0.8"/>
    </g>
    <g clip-path="url(#pc8b57320cc)">
     <use xlink:href="#C0_0_a94f1e2867" x="863.82" y="136.8" style="fill: #add8e6; fill-opacity: 0.8; stroke: #add8e6; stroke-opacity: 0.8"/>
    </g>
    <g clip-path="url(#pc8b57320cc)">
     <use xlink:href="#C0_0_a94f1e2867" x="672.66" y="246.882645" style="fill: #90ee90; fill-opacity: 0.8; stroke: #90ee90; stroke-opacity: 0.8"/>
    </g>
    <g clip-path="url(#pc8b57320cc)">
     <use xlink:href="#C0_0_a94f1e2867" x="736.38" y="246.882645" style="fill: #add8e6; fill-opacity: 0.8; stroke: #add8e6; stroke-opacity: 0.8"/>
    </g>
    <g clip-path="url(#pc8b57320cc)">
     <use xlink:href="#C0_0_a94f1e2867" x="800.1" y="246.882645" style="fill: #90ee90; fill-opacity: 0.8; stroke: #90ee90; stroke-opacity: 0.8"/>
    </g>
    <g clip-path="url(#pc8b57320cc)">
     <use xlink:href="#C0_0_a94f1e2867" x="863.82" y="246.882645" style="fill: #add8e6; fill-opacity: 0.8; stroke: #add8e6; stroke-opacity: 0.8"/>
    </g>
    <g clip-path="url(#pc8b57320cc)">
     <use xlink:href="#C0_0_a94f1e2867" x="927.54" y="246.882645" style="fill: #90ee90; fill-opacity: 0.8; stroke: #90ee90; stroke-opacity: 0.8"/>
    </g>
    <g clip-path="url(#pc8b57320cc)">
     <use xlink:href="#C0_0_a94f1e2867" x="991.26" y="246.882645" style="fill: #add8e6; fill-opacity: 0.8; stroke: #add8e6; stroke-opacity: 0.8"/>
    </g>
    <g clip-path="url(#pc8b57320cc)">
     <use xlink:href="#C0_0_a94f1e2867" x="1118.7" y="136.8" style="fill: #90ee90; fill-opacity: 0.8; stroke: #90ee90; stroke-opacity: 0.8"/>
    </g>
    <g clip-path="url(#pc8b57320cc)">
     <use xlink:href="#C0_0_a94f1e2867" x="1182.42" y="136.8" style="fill: #add8e6; fill-opacity: 0.8; stroke: #add8e6; stroke-opacity: 0.8"/>
    </g>
    <g clip-path="url(#pc8b57320cc)">
     <use xlink:href="#C0_0_a94f1e2867" x="1054.98" y="246.882645" style="fill: #90ee90; fill-opacity: 0.8; stroke: #90ee90; stroke-opacity: 0.8"/>
    </g>
    <g clip-path="url(#pc8b57320cc)">
     <use xlink:href="#C0_0_a94f1e2867" x="1118.7" y="246.882645" style="fill: #add8e6; fill-opacity: 0.8; stroke: #add8e6; stroke-opacity: 0.8"/>
    </g>
    <g clip-path="url(#pc8b57320cc)">
     <use xlink:href="#C0_0_a94f1e2867" x="1182.42" y="246.882645" style="fill: #90ee90; fill-opacity: 0.8; stroke: #90ee90; stroke-opacity: 0.8"/>
    </g>
    <g clip-path="url(#pc8b57320cc)">
     <use xlink:href="#C0_0_a94f1e2867" x="1246.14" y="246.882645" style="fill: #add8e6; fill-opacity: 0.8; stroke: #add8e6; stroke-opacity: 0.8"/>
    </g>
   </g>
   <g id="text_1">
    <g clip-path="url(#pc8b57320cc)">
     <!-- Cloud -->
     <g transform="translate(624.842969 29.47673) scale(0.1 -0.1)">
      <defs>
       <path id="DejaVuSans-Bold-43" d="M 4288 256 
Q 3956 84 3597 -3 
Q 3238 -91 2847 -91 
Q 1681 -91 1000 561 
Q 319 1213 319 2328 
Q 319 3447 1000 4098 
Q 1681 4750 2847 4750 
Q 3238 4750 3597 4662 
Q 3956 4575 4288 4403 
L 4288 3438 
Q 3953 3666 3628 3772 
Q 3303 3878 2944 3878 
Q 2300 3878 1931 3465 
Q 1563 3053 1563 2328 
Q 1563 1606 1931 1193 
Q 2300 781 2944 781 
Q 3303 781 3628 887 
Q 3953 994 4288 1222 
L 4288 256 
z
" transform="scale(0.015625)"/>
       <path id="DejaVuSans-Bold-6c" d="M 538 4863 
L 1656 4863 
L 1656 0 
L 538 0 
L 538 4863 
z
" transform="scale(0.015625)"/>
       <path id="DejaVuSans-Bold-6f" d="M 2203 2784 
Q 1831 2784 1636 2517 
Q 1441 2250 1441 1747 
Q 1441 1244 1636 976 
Q 1831 709 2203 709 
Q 2569 709 2762 976 
Q 2956 1244 2956 1747 
Q 2956 2250 2762 2517 
Q 2569 2784 2203 2784 
z
M 2203 3584 
Q 3106 3584 3614 3096 
Q 4122 2609 4122 1747 
Q 4122 884 3614 396 
Q 3106 -91 2203 -91 
Q 1297 -91 786 396 
Q 275 884 275 1747 
Q 275 2609 786 3096 
Q 1297 3584 2203 3584 
z
" transform="scale(0.015625)"/>
       <path id="DejaVuSans-Bold-75" d="M 500 1363 
L 500 3500 
L 1625 3500 
L 1625 3150 
Q 1625 2866 1622 2436 
Q 1619 2006 1619 1863 
Q 1619 1441 1641 1255 
Q 1663 1069 1716 984 
Q 1784 875 1895 815 
Q 2006 756 2150 756 
Q 2500 756 2700 1025 
Q 2900 1294 2900 1772 
L 2900 3500 
L 4019 3500 
L 4019 0 
L 2900 0 
L 2900 506 
Q 2647 200 2364 54 
Q 2081 -91 1741 -91 
Q 1134 -91 817 281 
Q 500 653 500 1363 
z
" transform="scale(0.015625)"/>
       <path id="DejaVuSans-Bold-64" d="M 2919 2988 
L 2919 4863 
L 4044 4863 
L 4044 0 
L 2919 0 
L 2919 506 
Q 2688 197 2409 53 
Q 2131 -91 1766 -91 
Q 1119 -91 703 423 
Q 288 938 288 1747 
Q 288 2556 703 3070 
Q 1119 3584 1766 3584 
Q 2128 3584 2408 3439 
Q 2688 3294 2919 2988 
z
M 2181 722 
Q 2541 722 2730 984 
Q 2919 1247 2919 1747 
Q 2919 2247 2730 2509 
Q 2541 2772 2181 2772 
Q 1825 2772 1636 2509 
Q 1447 2247 1447 1747 
Q 1447 1247 1636 984 
Q 1825 722 2181 722 
z
" transform="scale(0.015625)"/>
      </defs>
      <use xlink:href="#DejaVuSans-Bold-43"/>
      <use xlink:href="#DejaVuSans-Bold-6c" x="73.388672"/>
      <use xlink:href="#DejaVuSans-Bold-6f" x="107.666016"/>
      <use xlink:href="#DejaVuSans-Bold-75" x="176.367188"/>
      <use xlink:href="#DejaVuSans-Bold-64" x="247.558594"/>
     </g>
    </g>
   </g>
   <g id="text_2">
    <g clip-path="url(#pc8b57320cc)">
     <!-- 0 -->
     <g transform="translate(31.981094 139.559375) scale(0.1 -0.1)">
      <defs>
       <path id="DejaVuSans-Bold-30" d="M 2944 2338 
Q 2944 3213 2780 3570 
Q 2616 3928 2228 3928 
Q 1841 3928 1675 3570 
Q 1509 3213 1509 2338 
Q 1509 1453 1675 1090 
Q 1841 728 2228 728 
Q 2613 728 2778 1090 
Q 2944 1453 2944 2338 
z
M 4147 2328 
Q 4147 1169 3647 539 
Q 3147 -91 2228 -91 
Q 1306 -91 806 539 
Q 306 1169 306 2328 
Q 306 3491 806 4120 
Q 1306 4750 2228 4750 
Q 3147 4750 3647 4120 
Q 4147 3491 4147 2328 
z
" transform="scale(0.015625)"/>
      </defs>
      <use xlink:href="#DejaVuSans-Bold-30"/>
     </g>
    </g>
   </g>
   <g id="text_3">
    <g clip-path="url(#pc8b57320cc)">
     <!-- 1 -->
     <g transform="translate(95.701094 139.559375) scale(0.1 -0.1)">
      <defs>
       <path id="DejaVuSans-Bold-31" d="M 750 831 
L 1813 831 
L 1813 3847 
L 722 3622 
L 722 4441 
L 1806 4666 
L 2950 4666 
L 2950 831 
L 4013 831 
L 4013 0 
L 750 0 
L 750 831 
z
" transform="scale(0.015625)"/>
      </defs>
      <use xlink:href="#DejaVuSans-Bold-31"/>
     </g>
    </g>
   </g>
   <g id="text_4">
    <g clip-path="url(#pc8b57320cc)">
     <!-- 2 -->
     <g transform="translate(31.981094 249.64202) scale(0.1 -0.1)">
      <defs>
       <path id="DejaVuSans-Bold-32" d="M 1844 884 
L 3897 884 
L 3897 0 
L 506 0 
L 506 884 
L 2209 2388 
Q 2438 2594 2547 2791 
Q 2656 2988 2656 3200 
Q 2656 3528 2436 3728 
Q 2216 3928 1850 3928 
Q 1569 3928 1234 3808 
Q 900 3688 519 3450 
L 519 4475 
Q 925 4609 1322 4679 
Q 1719 4750 2100 4750 
Q 2938 4750 3402 4381 
Q 3866 4013 3866 3353 
Q 3866 2972 3669 2642 
Q 3472 2313 2841 1759 
L 1844 884 
z
" transform="scale(0.015625)"/>
      </defs>
      <use xlink:href="#DejaVuSans-Bold-32"/>
     </g>
    </g>
   </g>
   <g id="text_5">
    <g clip-path="url(#pc8b57320cc)">
     <!-- 3 -->
     <g transform="translate(95.701094 249.64202) scale(0.1 -0.1)">
      <defs>
       <path id="DejaVuSans-Bold-33" d="M 2981 2516 
Q 3453 2394 3698 2092 
Q 3944 1791 3944 1325 
Q 3944 631 3412 270 
Q 2881 -91 1863 -91 
Q 1503 -91 1142 -33 
Q 781 25 428 141 
L 428 1069 
Q 766 900 1098 814 
Q 1431 728 1753 728 
Q 2231 728 2486 893 
Q 2741 1059 2741 1369 
Q 2741 1688 2480 1852 
Q 2219 2016 1709 2016 
L 1228 2016 
L 1228 2791 
L 1734 2791 
Q 2188 2791 2409 2933 
Q 2631 3075 2631 3366 
Q 2631 3634 2415 3781 
Q 2200 3928 1806 3928 
Q 1516 3928 1219 3862 
Q 922 3797 628 3669 
L 628 4550 
Q 984 4650 1334 4700 
Q 1684 4750 2022 4750 
Q 2931 4750 3382 4451 
Q 3834 4153 3834 3553 
Q 3834 3144 3618 2883 
Q 3403 2622 2981 2516 
z
" transform="scale(0.015625)"/>
      </defs>
      <use xlink:href="#DejaVuSans-Bold-33"/>
     </g>
    </g>
   </g>
   <g id="text_6">
    <g clip-path="url(#pc8b57320cc)">
     <!-- 4 -->
     <g transform="translate(223.141094 139.559375) scale(0.1 -0.1)">
      <defs>
       <path id="DejaVuSans-Bold-34" d="M 2356 3675 
L 1038 1722 
L 2356 1722 
L 2356 3675 
z
M 2156 4666 
L 3494 4666 
L 3494 1722 
L 4159 1722 
L 4159 850 
L 3494 850 
L 3494 0 
L 2356 0 
L 2356 850 
L 288 850 
L 288 1881 
L 2156 4666 
z
" transform="scale(0.015625)"/>
      </defs>
      <use xlink:href="#DejaVuSans-Bold-34"/>
     </g>
    </g>
   </g>
   <g id="text_7">
    <g clip-path="url(#pc8b57320cc)">
     <!-- 5 -->
     <g transform="translate(286.861094 139.559375) scale(0.1 -0.1)">
      <defs>
       <path id="DejaVuSans-Bold-35" d="M 678 4666 
L 3669 4666 
L 3669 3781 
L 1638 3781 
L 1638 3059 
Q 1775 3097 1914 3117 
Q 2053 3138 2203 3138 
Q 3056 3138 3531 2711 
Q 4006 2284 4006 1522 
Q 4006 766 3489 337 
Q 2972 -91 2053 -91 
Q 1656 -91 1267 -14 
Q 878 63 494 219 
L 494 1166 
Q 875 947 1217 837 
Q 1559 728 1863 728 
Q 2300 728 2551 942 
Q 2803 1156 2803 1522 
Q 2803 1891 2551 2103 
Q 2300 2316 1863 2316 
Q 1603 2316 1309 2248 
Q 1016 2181 678 2041 
L 678 4666 
z
" transform="scale(0.015625)"/>
      </defs>
      <use xlink:href="#DejaVuSans-Bold-35"/>
     </g>
    </g>
   </g>
   <g id="text_8">
    <g clip-path="url(#pc8b57320cc)">
     <!-- 6 -->
     <g transform="translate(159.421094 249.64202) scale(0.1 -0.1)">
      <defs>
       <path id="DejaVuSans-Bold-36" d="M 2316 2303 
Q 2000 2303 1842 2098 
Q 1684 1894 1684 1484 
Q 1684 1075 1842 870 
Q 2000 666 2316 666 
Q 2634 666 2792 870 
Q 2950 1075 2950 1484 
Q 2950 1894 2792 2098 
Q 2634 2303 2316 2303 
z
M 3803 4544 
L 3803 3681 
Q 3506 3822 3243 3889 
Q 2981 3956 2731 3956 
Q 2194 3956 1894 3657 
Q 1594 3359 1544 2772 
Q 1750 2925 1990 3001 
Q 2231 3078 2516 3078 
Q 3231 3078 3670 2659 
Q 4109 2241 4109 1563 
Q 4109 813 3618 361 
Q 3128 -91 2303 -91 
Q 1394 -91 895 523 
Q 397 1138 397 2266 
Q 397 3422 980 4083 
Q 1563 4744 2578 4744 
Q 2900 4744 3203 4694 
Q 3506 4644 3803 4544 
z
" transform="scale(0.015625)"/>
      </defs>
      <use xlink:href="#DejaVuSans-Bold-36"/>
     </g>
    </g>
   </g>
   <g id="text_9">
    <g clip-path="url(#pc8b57320cc)">
     <!-- 7 -->
     <g transform="translate(223.141094 249.64202) scale(0.1 -0.1)">
      <defs>
       <path id="DejaVuSans-Bold-37" d="M 428 4666 
L 3944 4666 
L 3944 3988 
L 2125 0 
L 953 0 
L 2675 3781 
L 428 3781 
L 428 4666 
z
" transform="scale(0.015625)"/>
      </defs>
      <use xlink:href="#DejaVuSans-Bold-37"/>
     </g>
    </g>
   </g>
   <g id="text_10">
    <g clip-path="url(#pc8b57320cc)">
     <!-- 8 -->
     <g transform="translate(286.861094 249.64202) scale(0.1 -0.1)">
      <defs>
       <path id="DejaVuSans-Bold-38" d="M 2228 2088 
Q 1891 2088 1709 1903 
Q 1528 1719 1528 1375 
Q 1528 1031 1709 848 
Q 1891 666 2228 666 
Q 2563 666 2741 848 
Q 2919 1031 2919 1375 
Q 2919 1722 2741 1905 
Q 2563 2088 2228 2088 
z
M 1350 2484 
Q 925 2613 709 2878 
Q 494 3144 494 3541 
Q 494 4131 934 4440 
Q 1375 4750 2228 4750 
Q 3075 4750 3515 4442 
Q 3956 4134 3956 3541 
Q 3956 3144 3739 2878 
Q 3522 2613 3097 2484 
Q 3572 2353 3814 2058 
Q 4056 1763 4056 1313 
Q 4056 619 3595 264 
Q 3134 -91 2228 -91 
Q 1319 -91 855 264 
Q 391 619 391 1313 
Q 391 1763 633 2058 
Q 875 2353 1350 2484 
z
M 1631 3419 
Q 1631 3141 1786 2991 
Q 1941 2841 2228 2841 
Q 2509 2841 2662 2991 
Q 2816 3141 2816 3419 
Q 2816 3697 2662 3845 
Q 2509 3994 2228 3994 
Q 1941 3994 1786 3844 
Q 1631 3694 1631 3419 
z
" transform="scale(0.015625)"/>
      </defs>
      <use xlink:href="#DejaVuSans-Bold-38"/>
     </g>
    </g>
   </g>
   <g id="text_11">
    <g clip-path="url(#pc8b57320cc)">
     <!-- 9 -->
     <g transform="translate(350.581094 249.64202) scale(0.1 -0.1)">
      <defs>
       <path id="DejaVuSans-Bold-39" d="M 641 103 
L 641 966 
Q 928 831 1190 764 
Q 1453 697 1709 697 
Q 2247 697 2547 995 
Q 2847 1294 2900 1881 
Q 2688 1725 2447 1647 
Q 2206 1569 1925 1569 
Q 1209 1569 770 1986 
Q 331 2403 331 3084 
Q 331 3838 820 4291 
Q 1309 4744 2131 4744 
Q 3044 4744 3544 4128 
Q 4044 3513 4044 2388 
Q 4044 1231 3459 570 
Q 2875 -91 1856 -91 
Q 1528 -91 1228 -42 
Q 928 6 641 103 
z
M 2125 2350 
Q 2441 2350 2600 2554 
Q 2759 2759 2759 3169 
Q 2759 3575 2600 3781 
Q 2441 3988 2125 3988 
Q 1809 3988 1650 3781 
Q 1491 3575 1491 3169 
Q 1491 2759 1650 2554 
Q 1809 2350 2125 2350 
z
" transform="scale(0.015625)"/>
      </defs>
      <use xlink:href="#DejaVuSans-Bold-39"/>
     </g>
    </g>
   </g>
   <g id="text_12">
    <g clip-path="url(#pc8b57320cc)">
     <!-- 10 -->
     <g transform="translate(474.542188 139.559375) scale(0.1 -0.1)">
      <use xlink:href="#DejaVuSans-Bold-31"/>
      <use xlink:href="#DejaVuSans-Bold-30" x="69.580078"/>
     </g>
    </g>
   </g>
   <g id="text_13">
    <g clip-path="url(#pc8b57320cc)">
     <!-- 11 -->
     <g transform="translate(538.262187 139.559375) scale(0.1 -0.1)">
      <use xlink:href="#DejaVuSans-Bold-31"/>
      <use xlink:href="#DejaVuSans-Bold-31" x="69.580078"/>
     </g>
    </g>
   </g>
   <g id="text_14">
    <g clip-path="url(#pc8b57320cc)">
     <!-- 12 -->
     <g transform="translate(410.822188 249.64202) scale(0.1 -0.1)">
      <use xlink:href="#DejaVuSans-Bold-31"/>
      <use xlink:href="#DejaVuSans-Bold-32" x="69.580078"/>
     </g>
    </g>
   </g>
   <g id="text_15">
    <g clip-path="url(#pc8b57320cc)">
     <!-- 13 -->
     <g transform="translate(474.542188 249.64202) scale(0.1 -0.1)">
      <use xlink:href="#DejaVuSans-Bold-31"/>
      <use xlink:href="#DejaVuSans-Bold-33" x="69.580078"/>
     </g>
    </g>
   </g>
   <g id="text_16">
    <g clip-path="url(#pc8b57320cc)">
     <!-- 14 -->
     <g transform="translate(538.262187 249.64202) scale(0.1 -0.1)">
      <use xlink:href="#DejaVuSans-Bold-31"/>
      <use xlink:href="#DejaVuSans-Bold-34" x="69.580078"/>
     </g>
    </g>
   </g>
   <g id="text_17">
    <g clip-path="url(#pc8b57320cc)">
     <!-- 15 -->
     <g transform="translate(601.982188 249.64202) scale(0.1 -0.1)">
      <use xlink:href="#DejaVuSans-Bold-31"/>
      <use xlink:href="#DejaVuSans-Bold-35" x="69.580078"/>
     </g>
    </g>
   </g>
   <g id="text_18">
    <g clip-path="url(#pc8b57320cc)">
     <!-- 16 -->
     <g transform="translate(793.142188 139.559375) scale(0.1 -0.1)">
      <use xlink:href="#DejaVuSans-Bold-31"/>
      <use xlink:href="#DejaVuSans-Bold-36" x="69.580078"/>
     </g>
    </g>
   </g>
   <g id="text_19">
    <g clip-path="url(#pc8b57320cc)">
     <!-- 17 -->
     <g transform="translate(856.862188 139.559375) scale(0.1 -0.1)">
      <use xlink:href="#DejaVuSans-Bold-31"/>
      <use xlink:href="#DejaVuSans-Bold-37" x="69.580078"/>
     </g>
    </g>
   </g>
   <g id="text_20">
    <g clip-path="url(#pc8b57320cc)">
     <!-- 18 -->
     <g transform="translate(665.702188 249.64202) scale(0.1 -0.1)">
      <use xlink:href="#DejaVuSans-Bold-31"/>
      <use xlink:href="#DejaVuSans-Bold-38" x="69.580078"/>
     </g>
    </g>
   </g>
   <g id="text_21">
    <g clip-path="url(#pc8b57320cc)">
     <!-- 19 -->
     <g transform="translate(729.422188 249.64202) scale(0.1 -0.1)">
      <use xlink:href="#DejaVuSans-Bold-31"/>
      <use xlink:href="#DejaVuSans-Bold-39" x="69.580078"/>
     </g>
    </g>
   </g>
   <g id="text_22">
    <g clip-path="url(#pc8b57320cc)">
     <!-- 20 -->
     <g transform="translate(793.142188 249.64202) scale(0.1 -0.1)">
      <use xlink:href="#DejaVuSans-Bold-32"/>
      <use xlink:href="#DejaVuSans-Bold-30" x="69.580078"/>
     </g>
    </g>
   </g>
   <g id="text_23">
    <g clip-path="url(#pc8b57320cc)">
     <!-- 21 -->
     <g transform="translate(856.862188 249.64202) scale(0.1 -0.1)">
      <use xlink:href="#DejaVuSans-Bold-32"/>
      <use xlink:href="#DejaVuSans-Bold-31" x="69.580078"/>
     </g>
    </g>
   </g>
   <g id="text_24">
    <g clip-path="url(#pc8b57320cc)">
     <!-- 22 -->
     <g transform="translate(920.582188 249.64202) scale(0.1 -0.1)">
      <use xlink:href="#DejaVuSans-Bold-32"/>
      <use xlink:href="#DejaVuSans-Bold-32" x="69.580078"/>
     </g>
    </g>
   </g>
   <g id="text_25">
    <g clip-path="url(#pc8b57320cc)">
     <!-- 23 -->
     <g transform="translate(984.302188 249.64202) scale(0.1 -0.1)">
      <use xlink:href="#DejaVuSans-Bold-32"/>
      <use xlink:href="#DejaVuSans-Bold-33" x="69.580078"/>
     </g>
    </g>
   </g>
   <g id="text_26">
    <g clip-path="url(#pc8b57320cc)">
     <!-- 24 -->
     <g transform="translate(1111.742188 139.559375) scale(0.1 -0.1)">
      <use xlink:href="#DejaVuSans-Bold-32"/>
      <use xlink:href="#DejaVuSans-Bold-34" x="69.580078"/>
     </g>
    </g>
   </g>
   <g id="text_27">
    <g clip-path="url(#pc8b57320cc)">
     <!-- 25 -->
     <g transform="translate(1175.462188 139.559375) scale(0.1 -0.1)">
      <use xlink:href="#DejaVuSans-Bold-32"/>
      <use xlink:href="#DejaVuSans-Bold-35" x="69.580078"/>
     </g>
    </g>
   </g>
   <g id="text_28">
    <g clip-path="url(#pc8b57320cc)">
     <!-- 26 -->
     <g transform="translate(1048.022187 249.64202) scale(0.1 -0.1)">
      <use xlink:href="#DejaVuSans-Bold-32"/>
      <use xlink:href="#DejaVuSans-Bold-36" x="69.580078"/>
     </g>
    </g>
   </g>
   <g id="text_29">
    <g clip-path="url(#pc8b57320cc)">
     <!-- 27 -->
     <g transform="translate(1111.742188 249.64202) scale(0.1 -0.1)">
      <use xlink:href="#DejaVuSans-Bold-32"/>
      <use xlink:href="#DejaVuSans-Bold-37" x="69.580078"/>
     </g>
    </g>
   </g>
   <g id="text_30">
    <g clip-path="url(#pc8b57320cc)">
     <!-- 28 -->
     <g transform="translate(1175.462188 249.64202) scale(0.1 -0.1)">
      <use xlink:href="#DejaVuSans-Bold-32"/>
      <use xlink:href="#DejaVuSans-Bold-38" x="69.580078"/>
     </g>
    </g>
   </g>
   <g id="text_31">
    <g clip-path="url(#pc8b57320cc)">
     <!-- 29 -->
     <g transform="translate(1239.182188 249.64202) scale(0.1 -0.1)">
      <use xlink:href="#DejaVuSans-Bold-32"/>
      <use xlink:href="#DejaVuSans-Bold-39" x="69.580078"/>
     </g>
    </g>
   </g>
  </g>
 </g>
 <defs>
  <clipPath id="pc8b57320cc">
   <rect x="3.6" y="3.6" width="1274.4" height="266.4"/>
  </clipPath>
 </defs>
</svg>
