<?xml version="1.0" encoding="utf-8" standalone="no"?>
<!DOCTYPE svg PUBLIC "-//W3C//DTD SVG 1.1//EN"
  "http://www.w3.org/Graphics/SVG/1.1/DTD/svg11.dtd">
<svg xmlns:xlink="http://www.w3.org/1999/xlink" width="705.545pt" height="345.198125pt" viewBox="0 0 705.545 345.198125" xmlns="http://www.w3.org/2000/svg" version="1.1">
 <metadata>
  <rdf:RDF xmlns:dc="http://purl.org/dc/elements/1.1/" xmlns:cc="http://creativecommons.org/ns#" xmlns:rdf="http://www.w3.org/1999/02/22-rdf-syntax-ns#">
   <cc:Work>
    <dc:type rdf:resource="http://purl.org/dc/dcmitype/StillImage"/>
    <dc:date>2023-07-06T23:29:57.231129</dc:date>
    <dc:format>image/svg+xml</dc:format>
    <dc:creator>
     <cc:Agent>
      <dc:title>Matplotlib v3.7.2, https://matplotlib.org/</dc:title>
     </cc:Agent>
    </dc:creator>
   </cc:Work>
  </rdf:RDF>
 </metadata>
 <defs>
  <style type="text/css">*{stroke-linejoin: round; stroke-linecap: butt}</style>
 </defs>
 <g id="figure_1">
  <g id="patch_1">
   <path d="M -0 345.198125 
L 705.545 345.198125 
L 705.545 0 
L -0 0 
z
" style="fill: #ffffff"/>
  </g>
  <g id="axes_1">
   <g id="patch_2">
    <path d="M 19.825 328.42 
L 701.945 328.42 
L 701.945 3.6 
L 19.825 3.6 
z
" style="fill: #ffffff"/>
   </g>
   <g id="matplotlib.axis_1">
    <g id="xtick_1">
     <g id="line2d_1">
      <defs>
       <path id="m76ef70033d" d="M 0 0 
L 0 -3 
" style="stroke: #000000; stroke-width: 0.5"/>
      </defs>
      <g>
       <use xlink:href="#m76ef70033d" x="50.210345" y="328.42" style="stroke: #000000; stroke-width: 0.5"/>
      </g>
     </g>
     <g id="line2d_2">
      <defs>
       <path id="m85a2dc607b" d="M 0 0 
L 0 3 
" style="stroke: #000000; stroke-width: 0.5"/>
      </defs>
      <g>
       <use xlink:href="#m85a2dc607b" x="50.210345" y="3.6" style="stroke: #000000; stroke-width: 0.5"/>
      </g>
     </g>
     <g id="text_1">
      <!-- 0 -->
      <g transform="translate(47.029095 339.518437) scale(0.1 -0.1)">
       <defs>
        <path id="DejaVuSerif-30" d="M 2034 219 
Q 2513 219 2750 744 
Q 2988 1269 2988 2328 
Q 2988 3391 2750 3916 
Q 2513 4441 2034 4441 
Q 1556 4441 1318 3916 
Q 1081 3391 1081 2328 
Q 1081 1269 1318 744 
Q 1556 219 2034 219 
z
M 2034 -91 
Q 1275 -91 848 546 
Q 422 1184 422 2328 
Q 422 3475 848 4112 
Q 1275 4750 2034 4750 
Q 2797 4750 3222 4112 
Q 3647 3475 3647 2328 
Q 3647 1184 3222 546 
Q 2797 -91 2034 -91 
z
" transform="scale(0.015625)"/>
       </defs>
       <use xlink:href="#DejaVuSerif-30"/>
      </g>
     </g>
    </g>
    <g id="xtick_2">
     <g id="line2d_3">
      <g>
       <use xlink:href="#m76ef70033d" x="174.232164" y="328.42" style="stroke: #000000; stroke-width: 0.5"/>
      </g>
     </g>
     <g id="line2d_4">
      <g>
       <use xlink:href="#m85a2dc607b" x="174.232164" y="3.6" style="stroke: #000000; stroke-width: 0.5"/>
      </g>
     </g>
     <g id="text_2">
      <!-- 200 -->
      <g transform="translate(164.688414 339.518437) scale(0.1 -0.1)">
       <defs>
        <path id="DejaVuSerif-32" d="M 819 3553 
L 469 3553 
L 469 4384 
Q 803 4563 1142 4656 
Q 1481 4750 1806 4750 
Q 2534 4750 2956 4397 
Q 3378 4044 3378 3438 
Q 3378 2753 2422 1800 
Q 2347 1728 2309 1691 
L 1131 513 
L 3078 513 
L 3078 1088 
L 3444 1088 
L 3444 0 
L 434 0 
L 434 341 
L 1850 1753 
Q 2319 2222 2519 2614 
Q 2719 3006 2719 3438 
Q 2719 3909 2473 4175 
Q 2228 4441 1797 4441 
Q 1350 4441 1106 4219 
Q 863 3997 819 3553 
z
" transform="scale(0.015625)"/>
       </defs>
       <use xlink:href="#DejaVuSerif-32"/>
       <use xlink:href="#DejaVuSerif-30" x="63.623047"/>
       <use xlink:href="#DejaVuSerif-30" x="127.246094"/>
      </g>
     </g>
    </g>
    <g id="xtick_3">
     <g id="line2d_5">
      <g>
       <use xlink:href="#m76ef70033d" x="298.253982" y="328.42" style="stroke: #000000; stroke-width: 0.5"/>
      </g>
     </g>
     <g id="line2d_6">
      <g>
       <use xlink:href="#m85a2dc607b" x="298.253982" y="3.6" style="stroke: #000000; stroke-width: 0.5"/>
      </g>
     </g>
     <g id="text_3">
      <!-- 400 -->
      <g transform="translate(288.710232 339.518437) scale(0.1 -0.1)">
       <defs>
        <path id="DejaVuSerif-34" d="M 2234 1581 
L 2234 4063 
L 641 1581 
L 2234 1581 
z
M 3609 0 
L 1484 0 
L 1484 331 
L 2234 331 
L 2234 1247 
L 197 1247 
L 197 1588 
L 2241 4750 
L 2859 4750 
L 2859 1581 
L 3750 1581 
L 3750 1247 
L 2859 1247 
L 2859 331 
L 3609 331 
L 3609 0 
z
" transform="scale(0.015625)"/>
       </defs>
       <use xlink:href="#DejaVuSerif-34"/>
       <use xlink:href="#DejaVuSerif-30" x="63.623047"/>
       <use xlink:href="#DejaVuSerif-30" x="127.246094"/>
      </g>
     </g>
    </g>
    <g id="xtick_4">
     <g id="line2d_7">
      <g>
       <use xlink:href="#m76ef70033d" x="422.2758" y="328.42" style="stroke: #000000; stroke-width: 0.5"/>
      </g>
     </g>
     <g id="line2d_8">
      <g>
       <use xlink:href="#m85a2dc607b" x="422.2758" y="3.6" style="stroke: #000000; stroke-width: 0.5"/>
      </g>
     </g>
     <g id="text_4">
      <!-- 600 -->
      <g transform="translate(412.73205 339.518437) scale(0.1 -0.1)">
       <defs>
        <path id="DejaVuSerif-36" d="M 2094 219 
Q 2534 219 2771 542 
Q 3009 866 3009 1472 
Q 3009 2078 2771 2401 
Q 2534 2725 2094 2725 
Q 1647 2725 1412 2412 
Q 1178 2100 1178 1509 
Q 1178 888 1415 553 
Q 1653 219 2094 219 
z
M 1075 2569 
Q 1288 2803 1556 2918 
Q 1825 3034 2163 3034 
Q 2859 3034 3264 2615 
Q 3669 2197 3669 1472 
Q 3669 763 3233 336 
Q 2797 -91 2069 -91 
Q 1278 -91 853 498 
Q 428 1088 428 2181 
Q 428 3406 931 4078 
Q 1434 4750 2350 4750 
Q 2597 4750 2869 4703 
Q 3141 4656 3425 4563 
L 3425 3794 
L 3072 3794 
Q 3034 4109 2831 4275 
Q 2628 4441 2284 4441 
Q 1678 4441 1381 3981 
Q 1084 3522 1075 2569 
z
" transform="scale(0.015625)"/>
       </defs>
       <use xlink:href="#DejaVuSerif-36"/>
       <use xlink:href="#DejaVuSerif-30" x="63.623047"/>
       <use xlink:href="#DejaVuSerif-30" x="127.246094"/>
      </g>
     </g>
    </g>
    <g id="xtick_5">
     <g id="line2d_9">
      <g>
       <use xlink:href="#m76ef70033d" x="546.297618" y="328.42" style="stroke: #000000; stroke-width: 0.5"/>
      </g>
     </g>
     <g id="line2d_10">
      <g>
       <use xlink:href="#m85a2dc607b" x="546.297618" y="3.6" style="stroke: #000000; stroke-width: 0.5"/>
      </g>
     </g>
     <g id="text_5">
      <!-- 800 -->
      <g transform="translate(536.753868 339.518437) scale(0.1 -0.1)">
       <defs>
        <path id="DejaVuSerif-38" d="M 2981 1275 
Q 2981 1775 2732 2051 
Q 2484 2328 2034 2328 
Q 1584 2328 1336 2051 
Q 1088 1775 1088 1275 
Q 1088 772 1336 495 
Q 1584 219 2034 219 
Q 2484 219 2732 495 
Q 2981 772 2981 1275 
z
M 2853 3541 
Q 2853 3966 2637 4203 
Q 2422 4441 2034 4441 
Q 1650 4441 1433 4203 
Q 1216 3966 1216 3541 
Q 1216 3113 1433 2875 
Q 1650 2638 2034 2638 
Q 2422 2638 2637 2875 
Q 2853 3113 2853 3541 
z
M 2516 2484 
Q 3047 2413 3344 2092 
Q 3641 1772 3641 1275 
Q 3641 619 3225 264 
Q 2809 -91 2034 -91 
Q 1263 -91 845 264 
Q 428 619 428 1275 
Q 428 1772 725 2092 
Q 1022 2413 1556 2484 
Q 1084 2569 832 2842 
Q 581 3116 581 3541 
Q 581 4103 968 4426 
Q 1356 4750 2034 4750 
Q 2713 4750 3100 4426 
Q 3488 4103 3488 3541 
Q 3488 3116 3236 2842 
Q 2984 2569 2516 2484 
z
" transform="scale(0.015625)"/>
       </defs>
       <use xlink:href="#DejaVuSerif-38"/>
       <use xlink:href="#DejaVuSerif-30" x="63.623047"/>
       <use xlink:href="#DejaVuSerif-30" x="127.246094"/>
      </g>
     </g>
    </g>
    <g id="xtick_6">
     <g id="line2d_11">
      <g>
       <use xlink:href="#m76ef70033d" x="670.319436" y="328.42" style="stroke: #000000; stroke-width: 0.5"/>
      </g>
     </g>
     <g id="line2d_12">
      <g>
       <use xlink:href="#m85a2dc607b" x="670.319436" y="3.6" style="stroke: #000000; stroke-width: 0.5"/>
      </g>
     </g>
     <g id="text_6">
      <!-- 1000 -->
      <g transform="translate(657.594436 339.518437) scale(0.1 -0.1)">
       <defs>
        <path id="DejaVuSerif-31" d="M 909 0 
L 909 331 
L 1722 331 
L 1722 4213 
L 781 3603 
L 781 4013 
L 1919 4750 
L 2350 4750 
L 2350 331 
L 3163 331 
L 3163 0 
L 909 0 
z
" transform="scale(0.015625)"/>
       </defs>
       <use xlink:href="#DejaVuSerif-31"/>
       <use xlink:href="#DejaVuSerif-30" x="63.623047"/>
       <use xlink:href="#DejaVuSerif-30" x="127.246094"/>
       <use xlink:href="#DejaVuSerif-30" x="190.869141"/>
      </g>
     </g>
    </g>
    <g id="xtick_7">
     <g id="line2d_13">
      <defs>
       <path id="m8aaef2837d" d="M 0 0 
L 0 -1.5 
" style="stroke: #000000; stroke-width: 0.5"/>
      </defs>
      <g>
       <use xlink:href="#m8aaef2837d" x="81.2158" y="328.42" style="stroke: #000000; stroke-width: 0.5"/>
      </g>
     </g>
     <g id="line2d_14">
      <defs>
       <path id="m5d4f555f22" d="M 0 0 
L 0 1.5 
" style="stroke: #000000; stroke-width: 0.5"/>
      </defs>
      <g>
       <use xlink:href="#m5d4f555f22" x="81.2158" y="3.6" style="stroke: #000000; stroke-width: 0.5"/>
      </g>
     </g>
    </g>
    <g id="xtick_8">
     <g id="line2d_15">
      <g>
       <use xlink:href="#m8aaef2837d" x="112.221255" y="328.42" style="stroke: #000000; stroke-width: 0.5"/>
      </g>
     </g>
     <g id="line2d_16">
      <g>
       <use xlink:href="#m5d4f555f22" x="112.221255" y="3.6" style="stroke: #000000; stroke-width: 0.5"/>
      </g>
     </g>
    </g>
    <g id="xtick_9">
     <g id="line2d_17">
      <g>
       <use xlink:href="#m8aaef2837d" x="143.226709" y="328.42" style="stroke: #000000; stroke-width: 0.5"/>
      </g>
     </g>
     <g id="line2d_18">
      <g>
       <use xlink:href="#m5d4f555f22" x="143.226709" y="3.6" style="stroke: #000000; stroke-width: 0.5"/>
      </g>
     </g>
    </g>
    <g id="xtick_10">
     <g id="line2d_19">
      <g>
       <use xlink:href="#m8aaef2837d" x="205.237618" y="328.42" style="stroke: #000000; stroke-width: 0.5"/>
      </g>
     </g>
     <g id="line2d_20">
      <g>
       <use xlink:href="#m5d4f555f22" x="205.237618" y="3.6" style="stroke: #000000; stroke-width: 0.5"/>
      </g>
     </g>
    </g>
    <g id="xtick_11">
     <g id="line2d_21">
      <g>
       <use xlink:href="#m8aaef2837d" x="236.243073" y="328.42" style="stroke: #000000; stroke-width: 0.5"/>
      </g>
     </g>
     <g id="line2d_22">
      <g>
       <use xlink:href="#m5d4f555f22" x="236.243073" y="3.6" style="stroke: #000000; stroke-width: 0.5"/>
      </g>
     </g>
    </g>
    <g id="xtick_12">
     <g id="line2d_23">
      <g>
       <use xlink:href="#m8aaef2837d" x="267.248527" y="328.42" style="stroke: #000000; stroke-width: 0.5"/>
      </g>
     </g>
     <g id="line2d_24">
      <g>
       <use xlink:href="#m5d4f555f22" x="267.248527" y="3.6" style="stroke: #000000; stroke-width: 0.5"/>
      </g>
     </g>
    </g>
    <g id="xtick_13">
     <g id="line2d_25">
      <g>
       <use xlink:href="#m8aaef2837d" x="329.259436" y="328.42" style="stroke: #000000; stroke-width: 0.5"/>
      </g>
     </g>
     <g id="line2d_26">
      <g>
       <use xlink:href="#m5d4f555f22" x="329.259436" y="3.6" style="stroke: #000000; stroke-width: 0.5"/>
      </g>
     </g>
    </g>
    <g id="xtick_14">
     <g id="line2d_27">
      <g>
       <use xlink:href="#m8aaef2837d" x="360.264891" y="328.42" style="stroke: #000000; stroke-width: 0.5"/>
      </g>
     </g>
     <g id="line2d_28">
      <g>
       <use xlink:href="#m5d4f555f22" x="360.264891" y="3.6" style="stroke: #000000; stroke-width: 0.5"/>
      </g>
     </g>
    </g>
    <g id="xtick_15">
     <g id="line2d_29">
      <g>
       <use xlink:href="#m8aaef2837d" x="391.270345" y="328.42" style="stroke: #000000; stroke-width: 0.5"/>
      </g>
     </g>
     <g id="line2d_30">
      <g>
       <use xlink:href="#m5d4f555f22" x="391.270345" y="3.6" style="stroke: #000000; stroke-width: 0.5"/>
      </g>
     </g>
    </g>
    <g id="xtick_16">
     <g id="line2d_31">
      <g>
       <use xlink:href="#m8aaef2837d" x="453.281255" y="328.42" style="stroke: #000000; stroke-width: 0.5"/>
      </g>
     </g>
     <g id="line2d_32">
      <g>
       <use xlink:href="#m5d4f555f22" x="453.281255" y="3.6" style="stroke: #000000; stroke-width: 0.5"/>
      </g>
     </g>
    </g>
    <g id="xtick_17">
     <g id="line2d_33">
      <g>
       <use xlink:href="#m8aaef2837d" x="484.286709" y="328.42" style="stroke: #000000; stroke-width: 0.5"/>
      </g>
     </g>
     <g id="line2d_34">
      <g>
       <use xlink:href="#m5d4f555f22" x="484.286709" y="3.6" style="stroke: #000000; stroke-width: 0.5"/>
      </g>
     </g>
    </g>
    <g id="xtick_18">
     <g id="line2d_35">
      <g>
       <use xlink:href="#m8aaef2837d" x="515.292164" y="328.42" style="stroke: #000000; stroke-width: 0.5"/>
      </g>
     </g>
     <g id="line2d_36">
      <g>
       <use xlink:href="#m5d4f555f22" x="515.292164" y="3.6" style="stroke: #000000; stroke-width: 0.5"/>
      </g>
     </g>
    </g>
    <g id="xtick_19">
     <g id="line2d_37">
      <g>
       <use xlink:href="#m8aaef2837d" x="577.303073" y="328.42" style="stroke: #000000; stroke-width: 0.5"/>
      </g>
     </g>
     <g id="line2d_38">
      <g>
       <use xlink:href="#m5d4f555f22" x="577.303073" y="3.6" style="stroke: #000000; stroke-width: 0.5"/>
      </g>
     </g>
    </g>
    <g id="xtick_20">
     <g id="line2d_39">
      <g>
       <use xlink:href="#m8aaef2837d" x="608.308527" y="328.42" style="stroke: #000000; stroke-width: 0.5"/>
      </g>
     </g>
     <g id="line2d_40">
      <g>
       <use xlink:href="#m5d4f555f22" x="608.308527" y="3.6" style="stroke: #000000; stroke-width: 0.5"/>
      </g>
     </g>
    </g>
    <g id="xtick_21">
     <g id="line2d_41">
      <g>
       <use xlink:href="#m8aaef2837d" x="639.313982" y="328.42" style="stroke: #000000; stroke-width: 0.5"/>
      </g>
     </g>
     <g id="line2d_42">
      <g>
       <use xlink:href="#m5d4f555f22" x="639.313982" y="3.6" style="stroke: #000000; stroke-width: 0.5"/>
      </g>
     </g>
    </g>
    <g id="xtick_22">
     <g id="line2d_43">
      <g>
       <use xlink:href="#m8aaef2837d" x="701.324891" y="328.42" style="stroke: #000000; stroke-width: 0.5"/>
      </g>
     </g>
     <g id="line2d_44">
      <g>
       <use xlink:href="#m5d4f555f22" x="701.324891" y="3.6" style="stroke: #000000; stroke-width: 0.5"/>
      </g>
     </g>
    </g>
   </g>
   <g id="matplotlib.axis_2">
    <g id="ytick_1">
     <g id="line2d_45">
      <defs>
       <path id="m604fc5f216" d="M 0 0 
L 3 0 
" style="stroke: #000000; stroke-width: 0.5"/>
      </defs>
      <g>
       <use xlink:href="#m604fc5f216" x="19.825" y="313.655455" style="stroke: #000000; stroke-width: 0.5"/>
      </g>
     </g>
     <g id="line2d_46">
      <defs>
       <path id="mf58d2d05ef" d="M 0 0 
L -3 0 
" style="stroke: #000000; stroke-width: 0.5"/>
      </defs>
      <g>
       <use xlink:href="#mf58d2d05ef" x="701.945" y="313.655455" style="stroke: #000000; stroke-width: 0.5"/>
      </g>
     </g>
     <g id="text_7">
      <!-- 0 -->
      <g transform="translate(9.9625 317.454673) scale(0.1 -0.1)">
       <use xlink:href="#DejaVuSerif-30"/>
      </g>
     </g>
    </g>
    <g id="ytick_2">
     <g id="line2d_47">
      <g>
       <use xlink:href="#m604fc5f216" x="19.825" y="274.283333" style="stroke: #000000; stroke-width: 0.5"/>
      </g>
     </g>
     <g id="line2d_48">
      <g>
       <use xlink:href="#mf58d2d05ef" x="701.945" y="274.283333" style="stroke: #000000; stroke-width: 0.5"/>
      </g>
     </g>
     <g id="text_8">
      <!-- 2 -->
      <g transform="translate(9.9625 278.082552) scale(0.1 -0.1)">
       <use xlink:href="#DejaVuSerif-32"/>
      </g>
     </g>
    </g>
    <g id="ytick_3">
     <g id="line2d_49">
      <g>
       <use xlink:href="#m604fc5f216" x="19.825" y="234.911212" style="stroke: #000000; stroke-width: 0.5"/>
      </g>
     </g>
     <g id="line2d_50">
      <g>
       <use xlink:href="#mf58d2d05ef" x="701.945" y="234.911212" style="stroke: #000000; stroke-width: 0.5"/>
      </g>
     </g>
     <g id="text_9">
      <!-- 4 -->
      <g transform="translate(9.9625 238.710431) scale(0.1 -0.1)">
       <use xlink:href="#DejaVuSerif-34"/>
      </g>
     </g>
    </g>
    <g id="ytick_4">
     <g id="line2d_51">
      <g>
       <use xlink:href="#m604fc5f216" x="19.825" y="195.539091" style="stroke: #000000; stroke-width: 0.5"/>
      </g>
     </g>
     <g id="line2d_52">
      <g>
       <use xlink:href="#mf58d2d05ef" x="701.945" y="195.539091" style="stroke: #000000; stroke-width: 0.5"/>
      </g>
     </g>
     <g id="text_10">
      <!-- 6 -->
      <g transform="translate(9.9625 199.33831) scale(0.1 -0.1)">
       <use xlink:href="#DejaVuSerif-36"/>
      </g>
     </g>
    </g>
    <g id="ytick_5">
     <g id="line2d_53">
      <g>
       <use xlink:href="#m604fc5f216" x="19.825" y="156.16697" style="stroke: #000000; stroke-width: 0.5"/>
      </g>
     </g>
     <g id="line2d_54">
      <g>
       <use xlink:href="#mf58d2d05ef" x="701.945" y="156.16697" style="stroke: #000000; stroke-width: 0.5"/>
      </g>
     </g>
     <g id="text_11">
      <!-- 8 -->
      <g transform="translate(9.9625 159.966188) scale(0.1 -0.1)">
       <use xlink:href="#DejaVuSerif-38"/>
      </g>
     </g>
    </g>
    <g id="ytick_6">
     <g id="line2d_55">
      <g>
       <use xlink:href="#m604fc5f216" x="19.825" y="116.794848" style="stroke: #000000; stroke-width: 0.5"/>
      </g>
     </g>
     <g id="line2d_56">
      <g>
       <use xlink:href="#mf58d2d05ef" x="701.945" y="116.794848" style="stroke: #000000; stroke-width: 0.5"/>
      </g>
     </g>
     <g id="text_12">
      <!-- 10 -->
      <g transform="translate(3.6 120.594067) scale(0.1 -0.1)">
       <use xlink:href="#DejaVuSerif-31"/>
       <use xlink:href="#DejaVuSerif-30" x="63.623047"/>
      </g>
     </g>
    </g>
    <g id="ytick_7">
     <g id="line2d_57">
      <g>
       <use xlink:href="#m604fc5f216" x="19.825" y="77.422727" style="stroke: #000000; stroke-width: 0.5"/>
      </g>
     </g>
     <g id="line2d_58">
      <g>
       <use xlink:href="#mf58d2d05ef" x="701.945" y="77.422727" style="stroke: #000000; stroke-width: 0.5"/>
      </g>
     </g>
     <g id="text_13">
      <!-- 12 -->
      <g transform="translate(3.6 81.221946) scale(0.1 -0.1)">
       <use xlink:href="#DejaVuSerif-31"/>
       <use xlink:href="#DejaVuSerif-32" x="63.623047"/>
      </g>
     </g>
    </g>
    <g id="ytick_8">
     <g id="line2d_59">
      <g>
       <use xlink:href="#m604fc5f216" x="19.825" y="38.050606" style="stroke: #000000; stroke-width: 0.5"/>
      </g>
     </g>
     <g id="line2d_60">
      <g>
       <use xlink:href="#mf58d2d05ef" x="701.945" y="38.050606" style="stroke: #000000; stroke-width: 0.5"/>
      </g>
     </g>
     <g id="text_14">
      <!-- 14 -->
      <g transform="translate(3.6 41.849825) scale(0.1 -0.1)">
       <use xlink:href="#DejaVuSerif-31"/>
       <use xlink:href="#DejaVuSerif-34" x="63.623047"/>
      </g>
     </g>
    </g>
    <g id="ytick_9">
     <g id="line2d_61">
      <defs>
       <path id="mb42a41bae4" d="M 0 0 
L 1.5 0 
" style="stroke: #000000; stroke-width: 0.5"/>
      </defs>
      <g>
       <use xlink:href="#mb42a41bae4" x="19.825" y="323.498485" style="stroke: #000000; stroke-width: 0.5"/>
      </g>
     </g>
     <g id="line2d_62">
      <defs>
       <path id="m08f4fdbe1e" d="M 0 0 
L -1.5 0 
" style="stroke: #000000; stroke-width: 0.5"/>
      </defs>
      <g>
       <use xlink:href="#m08f4fdbe1e" x="701.945" y="323.498485" style="stroke: #000000; stroke-width: 0.5"/>
      </g>
     </g>
    </g>
    <g id="ytick_10">
     <g id="line2d_63">
      <g>
       <use xlink:href="#mb42a41bae4" x="19.825" y="303.812424" style="stroke: #000000; stroke-width: 0.5"/>
      </g>
     </g>
     <g id="line2d_64">
      <g>
       <use xlink:href="#m08f4fdbe1e" x="701.945" y="303.812424" style="stroke: #000000; stroke-width: 0.5"/>
      </g>
     </g>
    </g>
    <g id="ytick_11">
     <g id="line2d_65">
      <g>
       <use xlink:href="#mb42a41bae4" x="19.825" y="293.969394" style="stroke: #000000; stroke-width: 0.5"/>
      </g>
     </g>
     <g id="line2d_66">
      <g>
       <use xlink:href="#m08f4fdbe1e" x="701.945" y="293.969394" style="stroke: #000000; stroke-width: 0.5"/>
      </g>
     </g>
    </g>
    <g id="ytick_12">
     <g id="line2d_67">
      <g>
       <use xlink:href="#mb42a41bae4" x="19.825" y="284.126364" style="stroke: #000000; stroke-width: 0.5"/>
      </g>
     </g>
     <g id="line2d_68">
      <g>
       <use xlink:href="#m08f4fdbe1e" x="701.945" y="284.126364" style="stroke: #000000; stroke-width: 0.5"/>
      </g>
     </g>
    </g>
    <g id="ytick_13">
     <g id="line2d_69">
      <g>
       <use xlink:href="#mb42a41bae4" x="19.825" y="264.440303" style="stroke: #000000; stroke-width: 0.5"/>
      </g>
     </g>
     <g id="line2d_70">
      <g>
       <use xlink:href="#m08f4fdbe1e" x="701.945" y="264.440303" style="stroke: #000000; stroke-width: 0.5"/>
      </g>
     </g>
    </g>
    <g id="ytick_14">
     <g id="line2d_71">
      <g>
       <use xlink:href="#mb42a41bae4" x="19.825" y="254.597273" style="stroke: #000000; stroke-width: 0.5"/>
      </g>
     </g>
     <g id="line2d_72">
      <g>
       <use xlink:href="#m08f4fdbe1e" x="701.945" y="254.597273" style="stroke: #000000; stroke-width: 0.5"/>
      </g>
     </g>
    </g>
    <g id="ytick_15">
     <g id="line2d_73">
      <g>
       <use xlink:href="#mb42a41bae4" x="19.825" y="244.754242" style="stroke: #000000; stroke-width: 0.5"/>
      </g>
     </g>
     <g id="line2d_74">
      <g>
       <use xlink:href="#m08f4fdbe1e" x="701.945" y="244.754242" style="stroke: #000000; stroke-width: 0.5"/>
      </g>
     </g>
    </g>
    <g id="ytick_16">
     <g id="line2d_75">
      <g>
       <use xlink:href="#mb42a41bae4" x="19.825" y="225.068182" style="stroke: #000000; stroke-width: 0.5"/>
      </g>
     </g>
     <g id="line2d_76">
      <g>
       <use xlink:href="#m08f4fdbe1e" x="701.945" y="225.068182" style="stroke: #000000; stroke-width: 0.5"/>
      </g>
     </g>
    </g>
    <g id="ytick_17">
     <g id="line2d_77">
      <g>
       <use xlink:href="#mb42a41bae4" x="19.825" y="215.225152" style="stroke: #000000; stroke-width: 0.5"/>
      </g>
     </g>
     <g id="line2d_78">
      <g>
       <use xlink:href="#m08f4fdbe1e" x="701.945" y="215.225152" style="stroke: #000000; stroke-width: 0.5"/>
      </g>
     </g>
    </g>
    <g id="ytick_18">
     <g id="line2d_79">
      <g>
       <use xlink:href="#mb42a41bae4" x="19.825" y="205.382121" style="stroke: #000000; stroke-width: 0.5"/>
      </g>
     </g>
     <g id="line2d_80">
      <g>
       <use xlink:href="#m08f4fdbe1e" x="701.945" y="205.382121" style="stroke: #000000; stroke-width: 0.5"/>
      </g>
     </g>
    </g>
    <g id="ytick_19">
     <g id="line2d_81">
      <g>
       <use xlink:href="#mb42a41bae4" x="19.825" y="185.696061" style="stroke: #000000; stroke-width: 0.5"/>
      </g>
     </g>
     <g id="line2d_82">
      <g>
       <use xlink:href="#m08f4fdbe1e" x="701.945" y="185.696061" style="stroke: #000000; stroke-width: 0.5"/>
      </g>
     </g>
    </g>
    <g id="ytick_20">
     <g id="line2d_83">
      <g>
       <use xlink:href="#mb42a41bae4" x="19.825" y="175.85303" style="stroke: #000000; stroke-width: 0.5"/>
      </g>
     </g>
     <g id="line2d_84">
      <g>
       <use xlink:href="#m08f4fdbe1e" x="701.945" y="175.85303" style="stroke: #000000; stroke-width: 0.5"/>
      </g>
     </g>
    </g>
    <g id="ytick_21">
     <g id="line2d_85">
      <g>
       <use xlink:href="#mb42a41bae4" x="19.825" y="166.01" style="stroke: #000000; stroke-width: 0.5"/>
      </g>
     </g>
     <g id="line2d_86">
      <g>
       <use xlink:href="#m08f4fdbe1e" x="701.945" y="166.01" style="stroke: #000000; stroke-width: 0.5"/>
      </g>
     </g>
    </g>
    <g id="ytick_22">
     <g id="line2d_87">
      <g>
       <use xlink:href="#mb42a41bae4" x="19.825" y="146.323939" style="stroke: #000000; stroke-width: 0.5"/>
      </g>
     </g>
     <g id="line2d_88">
      <g>
       <use xlink:href="#m08f4fdbe1e" x="701.945" y="146.323939" style="stroke: #000000; stroke-width: 0.5"/>
      </g>
     </g>
    </g>
    <g id="ytick_23">
     <g id="line2d_89">
      <g>
       <use xlink:href="#mb42a41bae4" x="19.825" y="136.480909" style="stroke: #000000; stroke-width: 0.5"/>
      </g>
     </g>
     <g id="line2d_90">
      <g>
       <use xlink:href="#m08f4fdbe1e" x="701.945" y="136.480909" style="stroke: #000000; stroke-width: 0.5"/>
      </g>
     </g>
    </g>
    <g id="ytick_24">
     <g id="line2d_91">
      <g>
       <use xlink:href="#mb42a41bae4" x="19.825" y="126.637879" style="stroke: #000000; stroke-width: 0.5"/>
      </g>
     </g>
     <g id="line2d_92">
      <g>
       <use xlink:href="#m08f4fdbe1e" x="701.945" y="126.637879" style="stroke: #000000; stroke-width: 0.5"/>
      </g>
     </g>
    </g>
    <g id="ytick_25">
     <g id="line2d_93">
      <g>
       <use xlink:href="#mb42a41bae4" x="19.825" y="106.951818" style="stroke: #000000; stroke-width: 0.5"/>
      </g>
     </g>
     <g id="line2d_94">
      <g>
       <use xlink:href="#m08f4fdbe1e" x="701.945" y="106.951818" style="stroke: #000000; stroke-width: 0.5"/>
      </g>
     </g>
    </g>
    <g id="ytick_26">
     <g id="line2d_95">
      <g>
       <use xlink:href="#mb42a41bae4" x="19.825" y="97.108788" style="stroke: #000000; stroke-width: 0.5"/>
      </g>
     </g>
     <g id="line2d_96">
      <g>
       <use xlink:href="#m08f4fdbe1e" x="701.945" y="97.108788" style="stroke: #000000; stroke-width: 0.5"/>
      </g>
     </g>
    </g>
    <g id="ytick_27">
     <g id="line2d_97">
      <g>
       <use xlink:href="#mb42a41bae4" x="19.825" y="87.265758" style="stroke: #000000; stroke-width: 0.5"/>
      </g>
     </g>
     <g id="line2d_98">
      <g>
       <use xlink:href="#m08f4fdbe1e" x="701.945" y="87.265758" style="stroke: #000000; stroke-width: 0.5"/>
      </g>
     </g>
    </g>
    <g id="ytick_28">
     <g id="line2d_99">
      <g>
       <use xlink:href="#mb42a41bae4" x="19.825" y="67.579697" style="stroke: #000000; stroke-width: 0.5"/>
      </g>
     </g>
     <g id="line2d_100">
      <g>
       <use xlink:href="#m08f4fdbe1e" x="701.945" y="67.579697" style="stroke: #000000; stroke-width: 0.5"/>
      </g>
     </g>
    </g>
    <g id="ytick_29">
     <g id="line2d_101">
      <g>
       <use xlink:href="#mb42a41bae4" x="19.825" y="57.736667" style="stroke: #000000; stroke-width: 0.5"/>
      </g>
     </g>
     <g id="line2d_102">
      <g>
       <use xlink:href="#m08f4fdbe1e" x="701.945" y="57.736667" style="stroke: #000000; stroke-width: 0.5"/>
      </g>
     </g>
    </g>
    <g id="ytick_30">
     <g id="line2d_103">
      <g>
       <use xlink:href="#mb42a41bae4" x="19.825" y="47.893636" style="stroke: #000000; stroke-width: 0.5"/>
      </g>
     </g>
     <g id="line2d_104">
      <g>
       <use xlink:href="#m08f4fdbe1e" x="701.945" y="47.893636" style="stroke: #000000; stroke-width: 0.5"/>
      </g>
     </g>
    </g>
    <g id="ytick_31">
     <g id="line2d_105">
      <g>
       <use xlink:href="#mb42a41bae4" x="19.825" y="28.207576" style="stroke: #000000; stroke-width: 0.5"/>
      </g>
     </g>
     <g id="line2d_106">
      <g>
       <use xlink:href="#m08f4fdbe1e" x="701.945" y="28.207576" style="stroke: #000000; stroke-width: 0.5"/>
      </g>
     </g>
    </g>
    <g id="ytick_32">
     <g id="line2d_107">
      <g>
       <use xlink:href="#mb42a41bae4" x="19.825" y="18.364545" style="stroke: #000000; stroke-width: 0.5"/>
      </g>
     </g>
     <g id="line2d_108">
      <g>
       <use xlink:href="#m08f4fdbe1e" x="701.945" y="18.364545" style="stroke: #000000; stroke-width: 0.5"/>
      </g>
     </g>
    </g>
    <g id="ytick_33">
     <g id="line2d_109">
      <g>
       <use xlink:href="#mb42a41bae4" x="19.825" y="8.521515" style="stroke: #000000; stroke-width: 0.5"/>
      </g>
     </g>
     <g id="line2d_110">
      <g>
       <use xlink:href="#m08f4fdbe1e" x="701.945" y="8.521515" style="stroke: #000000; stroke-width: 0.5"/>
      </g>
     </g>
    </g>
   </g>
   <g id="line2d_111">
    <path d="M 50.830455 313.655455 
L 54.551109 313.655455 
L 55.171218 215.225152 
L 55.791327 136.480909 
L 56.411436 156.16697 
L 57.031545 156.16697 
L 57.651655 274.283333 
L 58.271764 313.655455 
L 58.891873 254.597273 
L 60.132091 215.225152 
L 60.7522 156.16697 
L 61.372309 175.85303 
L 61.992418 136.480909 
L 62.612527 215.225152 
L 63.232636 156.16697 
L 63.852745 175.85303 
L 64.472855 116.794848 
L 65.092964 175.85303 
L 65.713073 97.108788 
L 66.333182 136.480909 
L 66.953291 136.480909 
L 67.5734 175.85303 
L 68.813618 215.225152 
L 69.433727 116.794848 
L 70.053836 97.108788 
L 71.294055 175.85303 
L 71.914164 156.16697 
L 72.534273 234.911212 
L 73.774491 195.539091 
L 74.3946 195.539091 
L 75.634818 234.911212 
L 76.254927 234.911212 
L 76.875036 215.225152 
L 77.495145 215.225152 
L 78.115255 136.480909 
L 78.735364 116.794848 
L 79.975582 156.16697 
L 80.595691 116.794848 
L 81.2158 38.050606 
L 81.835909 57.736667 
L 82.456018 195.539091 
L 83.076127 175.85303 
L 83.696236 136.480909 
L 84.316345 136.480909 
L 84.936455 175.85303 
L 85.556564 254.597273 
L 86.176673 254.597273 
L 86.796782 215.225152 
L 88.037 175.85303 
L 88.657109 274.283333 
L 89.277218 274.283333 
L 89.897327 234.911212 
L 90.517436 215.225152 
L 91.137545 136.480909 
L 92.377764 97.108788 
L 92.997873 97.108788 
L 93.617982 156.16697 
L 94.238091 195.539091 
L 94.8582 195.539091 
L 95.478309 254.597273 
L 96.098418 175.85303 
L 96.718527 136.480909 
L 97.338636 136.480909 
L 97.958745 175.85303 
L 98.578855 175.85303 
L 99.198964 97.108788 
L 99.819073 116.794848 
L 100.439182 57.736667 
L 101.059291 136.480909 
L 101.6794 175.85303 
L 102.299509 136.480909 
L 102.919618 136.480909 
L 103.539727 156.16697 
L 104.779945 156.16697 
L 105.400055 195.539091 
L 106.020164 215.225152 
L 106.640273 195.539091 
L 107.260382 195.539091 
L 108.5006 156.16697 
L 109.120709 116.794848 
L 109.740818 175.85303 
L 110.360927 136.480909 
L 110.981036 136.480909 
L 111.601145 156.16697 
L 112.221255 116.794848 
L 112.841364 195.539091 
L 113.461473 175.85303 
L 114.081582 254.597273 
L 115.3218 38.050606 
L 115.941909 38.050606 
L 116.562018 136.480909 
L 117.182127 195.539091 
L 117.802236 195.539091 
L 118.422345 234.911212 
L 119.662564 234.911212 
L 120.282673 195.539091 
L 120.902782 195.539091 
L 122.143 274.283333 
L 122.763109 274.283333 
L 123.383218 234.911212 
L 124.003327 136.480909 
L 124.623436 116.794848 
L 125.243545 175.85303 
L 125.863655 175.85303 
L 126.483764 195.539091 
L 127.103873 234.911212 
L 127.723982 175.85303 
L 129.584309 175.85303 
L 130.204418 195.539091 
L 130.824527 175.85303 
L 131.444636 175.85303 
L 132.064745 136.480909 
L 132.684855 156.16697 
L 133.304964 116.794848 
L 133.925073 116.794848 
L 135.7854 175.85303 
L 136.405509 175.85303 
L 137.025618 195.539091 
L 138.885945 136.480909 
L 139.506055 175.85303 
L 140.126164 156.16697 
L 140.746273 195.539091 
L 141.366382 156.16697 
L 141.986491 195.539091 
L 142.6066 156.16697 
L 143.226709 195.539091 
L 143.846818 175.85303 
L 144.466927 215.225152 
L 146.327255 215.225152 
L 146.947364 254.597273 
L 147.567473 175.85303 
L 148.187582 175.85303 
L 148.807691 136.480909 
L 149.4278 156.16697 
L 150.668018 234.911212 
L 151.288127 195.539091 
L 151.908236 195.539091 
L 152.528345 215.225152 
L 153.148455 215.225152 
L 154.388673 175.85303 
L 155.008782 175.85303 
L 155.628891 136.480909 
L 156.249 136.480909 
L 156.869109 175.85303 
L 158.109327 97.108788 
L 158.729436 136.480909 
L 159.349545 156.16697 
L 159.969655 215.225152 
L 160.589764 215.225152 
L 161.209873 195.539091 
L 161.829982 195.539091 
L 162.450091 175.85303 
L 163.0702 175.85303 
L 163.690309 195.539091 
L 164.930527 195.539091 
L 165.550636 175.85303 
L 166.170745 136.480909 
L 166.790855 116.794848 
L 167.410964 136.480909 
L 168.031073 215.225152 
L 168.651182 234.911212 
L 169.271291 274.283333 
L 169.8914 175.85303 
L 170.511509 97.108788 
L 171.131618 116.794848 
L 171.751727 215.225152 
L 172.371836 215.225152 
L 172.991945 136.480909 
L 173.612055 116.794848 
L 174.232164 156.16697 
L 174.852273 175.85303 
L 175.472382 234.911212 
L 176.092491 215.225152 
L 176.7126 175.85303 
L 177.332709 234.911212 
L 177.952818 175.85303 
L 178.572927 136.480909 
L 179.193036 136.480909 
L 179.813145 215.225152 
L 180.433255 156.16697 
L 181.053364 116.794848 
L 182.293582 195.539091 
L 182.913691 215.225152 
L 183.5338 156.16697 
L 184.153909 195.539091 
L 184.774018 195.539091 
L 185.394127 156.16697 
L 186.014236 97.108788 
L 186.634345 97.108788 
L 187.254455 77.422727 
L 187.874564 156.16697 
L 188.494673 156.16697 
L 189.734891 77.422727 
L 190.355 136.480909 
L 190.975109 136.480909 
L 191.595218 195.539091 
L 192.215327 234.911212 
L 193.455545 195.539091 
L 194.075655 254.597273 
L 194.695764 195.539091 
L 195.315873 234.911212 
L 195.935982 175.85303 
L 196.556091 97.108788 
L 197.1762 97.108788 
L 199.036527 156.16697 
L 199.656636 116.794848 
L 200.276745 116.794848 
L 200.896855 195.539091 
L 201.516964 195.539091 
L 202.757182 234.911212 
L 203.377291 234.911212 
L 203.9974 136.480909 
L 204.617509 116.794848 
L 205.237618 116.794848 
L 205.857727 175.85303 
L 207.097945 254.597273 
L 208.958273 254.597273 
L 209.578382 195.539091 
L 210.198491 175.85303 
L 210.8186 234.911212 
L 211.438709 195.539091 
L 212.058818 195.539091 
L 212.678927 234.911212 
L 213.919145 234.911212 
L 214.539255 215.225152 
L 215.159364 234.911212 
L 216.399582 195.539091 
L 217.019691 215.225152 
L 217.6398 175.85303 
L 218.259909 175.85303 
L 218.880018 215.225152 
L 219.500127 215.225152 
L 220.120236 175.85303 
L 220.740345 156.16697 
L 221.360455 175.85303 
L 221.980564 175.85303 
L 222.600673 156.16697 
L 223.220782 195.539091 
L 223.840891 195.539091 
L 224.461 234.911212 
L 225.081109 215.225152 
L 225.701218 175.85303 
L 226.321327 116.794848 
L 226.941436 215.225152 
L 227.561545 274.283333 
L 228.181655 254.597273 
L 228.801764 254.597273 
L 229.421873 195.539091 
L 230.662091 195.539091 
L 231.2822 274.283333 
L 231.902309 274.283333 
L 232.522418 215.225152 
L 233.142527 215.225152 
L 233.762636 234.911212 
L 235.622964 175.85303 
L 236.243073 175.85303 
L 236.863182 195.539091 
L 238.1034 156.16697 
L 239.343618 195.539091 
L 239.963727 136.480909 
L 240.583836 116.794848 
L 241.203945 156.16697 
L 241.824055 136.480909 
L 242.444164 156.16697 
L 243.064273 116.794848 
L 243.684382 215.225152 
L 244.304491 136.480909 
L 245.544709 136.480909 
L 246.164818 156.16697 
L 246.784927 156.16697 
L 247.405036 136.480909 
L 248.025145 175.85303 
L 248.645255 234.911212 
L 249.265364 195.539091 
L 249.885473 116.794848 
L 250.505582 57.736667 
L 251.125691 136.480909 
L 252.365909 175.85303 
L 252.986018 215.225152 
L 253.606127 215.225152 
L 254.226236 136.480909 
L 254.846345 136.480909 
L 255.466455 156.16697 
L 256.086564 156.16697 
L 256.706673 136.480909 
L 257.946891 175.85303 
L 258.567 215.225152 
L 259.187109 215.225152 
L 260.427327 254.597273 
L 261.047436 195.539091 
L 261.667545 116.794848 
L 262.907764 116.794848 
L 263.527873 136.480909 
L 264.147982 215.225152 
L 265.3882 136.480909 
L 266.008309 136.480909 
L 266.628418 116.794848 
L 267.248527 195.539091 
L 267.868636 175.85303 
L 268.488745 175.85303 
L 269.108855 234.911212 
L 269.728964 274.283333 
L 270.349073 274.283333 
L 270.969182 234.911212 
L 271.589291 215.225152 
L 272.2094 136.480909 
L 272.829509 156.16697 
L 273.449618 156.16697 
L 274.689836 234.911212 
L 275.930055 195.539091 
L 276.550164 195.539091 
L 277.170273 136.480909 
L 277.790382 156.16697 
L 278.410491 156.16697 
L 279.0306 116.794848 
L 280.270818 116.794848 
L 280.890927 175.85303 
L 281.511036 156.16697 
L 282.131145 215.225152 
L 282.751255 195.539091 
L 283.371364 156.16697 
L 283.991473 136.480909 
L 284.611582 156.16697 
L 285.231691 156.16697 
L 285.8518 234.911212 
L 286.471909 234.911212 
L 287.092018 254.597273 
L 287.712127 215.225152 
L 288.332236 234.911212 
L 288.952345 234.911212 
L 290.192564 156.16697 
L 290.812673 136.480909 
L 291.432782 156.16697 
L 292.052891 136.480909 
L 292.673 136.480909 
L 293.293109 97.108788 
L 294.533327 175.85303 
L 295.153436 254.597273 
L 295.773545 254.597273 
L 296.393655 234.911212 
L 297.013764 254.597273 
L 297.633873 175.85303 
L 298.874091 175.85303 
L 299.4942 97.108788 
L 300.114309 195.539091 
L 300.734418 195.539091 
L 301.354527 156.16697 
L 302.594745 156.16697 
L 303.214855 136.480909 
L 303.834964 156.16697 
L 304.455073 234.911212 
L 305.075182 215.225152 
L 305.695291 156.16697 
L 306.3154 116.794848 
L 306.935509 116.794848 
L 307.555618 215.225152 
L 308.175727 175.85303 
L 309.415945 175.85303 
L 310.036055 215.225152 
L 310.656164 175.85303 
L 311.276273 195.539091 
L 311.896382 195.539091 
L 312.516491 175.85303 
L 313.1366 175.85303 
L 313.756709 215.225152 
L 314.996927 175.85303 
L 315.617036 136.480909 
L 316.857255 215.225152 
L 317.477364 195.539091 
L 318.097473 195.539091 
L 318.717582 234.911212 
L 319.337691 215.225152 
L 319.9578 215.225152 
L 320.577909 136.480909 
L 321.198018 77.422727 
L 321.818127 156.16697 
L 322.438236 195.539091 
L 323.678455 116.794848 
L 324.298564 97.108788 
L 325.538782 175.85303 
L 326.158891 195.539091 
L 326.779 254.597273 
L 327.399109 195.539091 
L 328.019218 195.539091 
L 328.639327 156.16697 
L 329.879545 156.16697 
L 330.499655 254.597273 
L 331.119764 195.539091 
L 331.739873 195.539091 
L 332.980091 156.16697 
L 333.6002 175.85303 
L 334.220309 215.225152 
L 334.840418 215.225152 
L 335.460527 156.16697 
L 336.080636 156.16697 
L 336.700745 136.480909 
L 337.320855 136.480909 
L 337.940964 116.794848 
L 338.561073 215.225152 
L 339.181182 215.225152 
L 340.4214 175.85303 
L 341.041509 136.480909 
L 341.661618 195.539091 
L 342.281727 175.85303 
L 342.901836 175.85303 
L 343.521945 156.16697 
L 344.142055 97.108788 
L 345.382273 136.480909 
L 346.002382 195.539091 
L 347.2426 234.911212 
L 347.862709 234.911212 
L 349.102927 195.539091 
L 349.723036 195.539091 
L 350.343145 136.480909 
L 350.963255 97.108788 
L 351.583364 97.108788 
L 352.823582 175.85303 
L 354.683909 175.85303 
L 355.304018 195.539091 
L 355.924127 175.85303 
L 356.544236 175.85303 
L 357.164345 116.794848 
L 357.784455 136.480909 
L 358.404564 234.911212 
L 359.024673 234.911212 
L 359.644782 175.85303 
L 360.264891 156.16697 
L 360.885 156.16697 
L 361.505109 116.794848 
L 362.125218 175.85303 
L 362.745327 195.539091 
L 363.365436 156.16697 
L 363.985545 195.539091 
L 364.605655 156.16697 
L 365.225764 156.16697 
L 366.465982 234.911212 
L 367.7062 156.16697 
L 368.326309 156.16697 
L 368.946418 136.480909 
L 369.566527 215.225152 
L 370.806745 254.597273 
L 372.046964 136.480909 
L 372.667073 116.794848 
L 373.287182 136.480909 
L 373.907291 136.480909 
L 374.5274 175.85303 
L 375.767618 175.85303 
L 377.007836 57.736667 
L 377.627945 136.480909 
L 378.868164 175.85303 
L 379.488273 175.85303 
L 380.108382 195.539091 
L 380.728491 175.85303 
L 381.3486 195.539091 
L 382.588818 274.283333 
L 383.208927 254.597273 
L 383.829036 195.539091 
L 385.069255 116.794848 
L 385.689364 57.736667 
L 386.309473 136.480909 
L 386.929582 57.736667 
L 387.549691 116.794848 
L 388.1698 195.539091 
L 388.789909 215.225152 
L 389.410018 215.225152 
L 390.030127 234.911212 
L 390.650236 195.539091 
L 391.270345 175.85303 
L 391.890455 215.225152 
L 392.510564 274.283333 
L 394.370891 215.225152 
L 394.991 215.225152 
L 395.611109 195.539091 
L 396.231218 116.794848 
L 396.851327 77.422727 
L 397.471436 116.794848 
L 398.091545 116.794848 
L 398.711655 57.736667 
L 399.331764 116.794848 
L 399.951873 136.480909 
L 400.571982 116.794848 
L 401.192091 175.85303 
L 401.8122 156.16697 
L 402.432309 156.16697 
L 403.052418 136.480909 
L 403.672527 136.480909 
L 404.292636 215.225152 
L 404.912745 195.539091 
L 405.532855 234.911212 
L 406.152964 195.539091 
L 406.773073 175.85303 
L 407.393182 175.85303 
L 408.013291 234.911212 
L 409.253509 116.794848 
L 409.873618 116.794848 
L 410.493727 97.108788 
L 411.113836 97.108788 
L 412.354055 136.480909 
L 412.974164 97.108788 
L 414.214382 136.480909 
L 414.834491 195.539091 
L 415.4546 215.225152 
L 416.694818 136.480909 
L 417.314927 136.480909 
L 417.935036 215.225152 
L 418.555145 195.539091 
L 419.175255 156.16697 
L 419.795364 175.85303 
L 420.415473 156.16697 
L 421.035582 156.16697 
L 421.655691 116.794848 
L 422.2758 175.85303 
L 422.895909 136.480909 
L 423.516018 116.794848 
L 424.136127 136.480909 
L 424.756236 195.539091 
L 425.376345 195.539091 
L 425.996455 116.794848 
L 426.616564 116.794848 
L 427.236673 156.16697 
L 428.476891 195.539091 
L 429.097 195.539091 
L 429.717109 215.225152 
L 430.337218 215.225152 
L 430.957327 234.911212 
L 431.577436 195.539091 
L 432.197545 136.480909 
L 432.817655 136.480909 
L 433.437764 195.539091 
L 434.057873 175.85303 
L 434.677982 215.225152 
L 435.298091 156.16697 
L 435.9182 156.16697 
L 437.158418 234.911212 
L 439.018745 175.85303 
L 439.638855 175.85303 
L 440.258964 195.539091 
L 440.879073 175.85303 
L 441.499182 215.225152 
L 442.119291 175.85303 
L 442.7394 156.16697 
L 443.359509 156.16697 
L 444.599727 234.911212 
L 445.219836 254.597273 
L 445.839945 234.911212 
L 446.460055 254.597273 
L 447.080164 254.597273 
L 448.320382 215.225152 
L 448.940491 215.225152 
L 449.5606 175.85303 
L 450.800818 215.225152 
L 452.041036 175.85303 
L 452.661145 175.85303 
L 453.281255 136.480909 
L 453.901364 136.480909 
L 454.521473 175.85303 
L 455.141582 175.85303 
L 455.761691 156.16697 
L 456.3818 175.85303 
L 457.622018 97.108788 
L 458.242127 136.480909 
L 458.862236 195.539091 
L 459.482345 175.85303 
L 460.102455 116.794848 
L 461.342673 116.794848 
L 461.962782 215.225152 
L 462.582891 274.283333 
L 463.203 274.283333 
L 463.823109 215.225152 
L 464.443218 215.225152 
L 465.683436 175.85303 
L 466.303545 215.225152 
L 466.923655 215.225152 
L 467.543764 195.539091 
L 468.163873 136.480909 
L 468.783982 116.794848 
L 469.404091 57.736667 
L 470.0242 195.539091 
L 471.264418 156.16697 
L 472.504636 156.16697 
L 473.124745 175.85303 
L 474.364964 175.85303 
L 474.985073 254.597273 
L 475.605182 293.969394 
L 476.225291 254.597273 
L 477.465509 215.225152 
L 478.085618 156.16697 
L 478.705727 215.225152 
L 479.325836 136.480909 
L 479.945945 156.16697 
L 480.566055 195.539091 
L 481.186164 156.16697 
L 481.806273 175.85303 
L 483.046491 254.597273 
L 483.6666 215.225152 
L 484.286709 195.539091 
L 484.906818 195.539091 
L 485.526927 234.911212 
L 486.147036 234.911212 
L 486.767145 215.225152 
L 487.387255 156.16697 
L 488.007364 57.736667 
L 488.627473 57.736667 
L 489.247582 136.480909 
L 489.867691 116.794848 
L 490.4878 156.16697 
L 491.107909 136.480909 
L 491.728018 136.480909 
L 492.348127 156.16697 
L 492.968236 234.911212 
L 493.588345 234.911212 
L 494.208455 195.539091 
L 494.828564 195.539091 
L 495.448673 215.225152 
L 496.068782 274.283333 
L 497.929109 156.16697 
L 498.549218 136.480909 
L 499.169327 136.480909 
L 499.789436 175.85303 
L 500.409545 195.539091 
L 501.649764 195.539091 
L 502.889982 156.16697 
L 503.510091 175.85303 
L 504.1302 175.85303 
L 504.750309 215.225152 
L 505.370418 195.539091 
L 505.990527 97.108788 
L 506.610636 77.422727 
L 507.230745 136.480909 
L 507.850855 116.794848 
L 509.091073 156.16697 
L 509.711182 116.794848 
L 510.331291 116.794848 
L 510.9514 136.480909 
L 511.571509 116.794848 
L 512.191618 175.85303 
L 512.811727 195.539091 
L 513.431836 175.85303 
L 514.051945 175.85303 
L 514.672055 195.539091 
L 515.292164 156.16697 
L 516.532382 234.911212 
L 517.152491 175.85303 
L 517.7726 195.539091 
L 518.392709 234.911212 
L 519.012818 175.85303 
L 519.632927 156.16697 
L 520.253036 175.85303 
L 520.873145 116.794848 
L 521.493255 116.794848 
L 522.113364 156.16697 
L 522.733473 215.225152 
L 523.353582 195.539091 
L 523.973691 195.539091 
L 524.5938 175.85303 
L 525.213909 136.480909 
L 525.834018 234.911212 
L 527.074236 234.911212 
L 528.314455 156.16697 
L 529.554673 116.794848 
L 530.174782 215.225152 
L 530.794891 234.911212 
L 531.415 234.911212 
L 532.035109 195.539091 
L 532.655218 136.480909 
L 533.275327 136.480909 
L 535.135655 195.539091 
L 535.755764 195.539091 
L 536.375873 215.225152 
L 537.616091 215.225152 
L 538.2362 195.539091 
L 538.856309 254.597273 
L 539.476418 195.539091 
L 540.096527 215.225152 
L 540.716636 175.85303 
L 541.336745 116.794848 
L 541.956855 136.480909 
L 542.576964 136.480909 
L 543.197073 156.16697 
L 543.817182 116.794848 
L 545.0574 156.16697 
L 545.677509 234.911212 
L 546.297618 195.539091 
L 546.917727 116.794848 
L 547.537836 116.794848 
L 548.157945 57.736667 
L 548.778055 136.480909 
L 550.018273 175.85303 
L 550.638382 175.85303 
L 551.258491 116.794848 
L 551.8786 156.16697 
L 552.498709 215.225152 
L 553.118818 136.480909 
L 553.738927 156.16697 
L 554.979145 234.911212 
L 555.599255 234.911212 
L 556.219364 274.283333 
L 557.459582 195.539091 
L 558.079691 175.85303 
L 558.6998 175.85303 
L 559.319909 195.539091 
L 559.940018 156.16697 
L 560.560127 136.480909 
L 561.180236 175.85303 
L 563.040564 175.85303 
L 563.660673 156.16697 
L 564.280782 195.539091 
L 565.521 116.794848 
L 566.141109 136.480909 
L 566.761218 97.108788 
L 567.381327 97.108788 
L 568.001436 77.422727 
L 568.621545 97.108788 
L 570.481873 215.225152 
L 571.101982 195.539091 
L 571.722091 156.16697 
L 572.3422 175.85303 
L 572.962309 156.16697 
L 573.582418 156.16697 
L 574.202527 215.225152 
L 574.822636 195.539091 
L 576.062855 234.911212 
L 576.682964 175.85303 
L 577.303073 175.85303 
L 577.923182 156.16697 
L 579.1634 195.539091 
L 579.783509 156.16697 
L 580.403618 136.480909 
L 581.023727 136.480909 
L 581.643836 57.736667 
L 582.263945 57.736667 
L 582.884055 136.480909 
L 583.504164 116.794848 
L 584.124273 175.85303 
L 584.744382 156.16697 
L 585.364491 156.16697 
L 585.9846 195.539091 
L 586.604709 195.539091 
L 587.224818 175.85303 
L 587.844927 175.85303 
L 588.465036 234.911212 
L 589.085145 195.539091 
L 589.705255 195.539091 
L 590.325364 175.85303 
L 590.945473 18.364545 
L 591.565582 57.736667 
L 592.185691 77.422727 
L 593.425909 234.911212 
L 595.286236 175.85303 
L 595.906345 97.108788 
L 596.526455 116.794848 
L 597.146564 97.108788 
L 597.766673 156.16697 
L 599.006891 156.16697 
L 599.627 175.85303 
L 600.247109 156.16697 
L 600.867218 195.539091 
L 601.487327 195.539091 
L 602.107436 156.16697 
L 602.727545 215.225152 
L 603.347655 234.911212 
L 603.967764 175.85303 
L 604.587873 156.16697 
L 605.207982 175.85303 
L 605.828091 254.597273 
L 606.4482 254.597273 
L 607.688418 215.225152 
L 608.308527 234.911212 
L 608.928636 195.539091 
L 610.168855 156.16697 
L 611.409073 195.539091 
L 612.029182 175.85303 
L 612.649291 234.911212 
L 614.509618 234.911212 
L 615.129727 274.283333 
L 616.369945 156.16697 
L 616.990055 116.794848 
L 618.230273 234.911212 
L 619.470491 156.16697 
L 621.330818 215.225152 
L 621.950927 254.597273 
L 622.571036 254.597273 
L 623.191145 175.85303 
L 625.051473 234.911212 
L 626.291691 156.16697 
L 626.9118 175.85303 
L 627.531909 175.85303 
L 628.152018 195.539091 
L 628.772127 175.85303 
L 629.392236 215.225152 
L 630.012345 175.85303 
L 630.632455 156.16697 
L 631.252564 97.108788 
L 631.872673 77.422727 
L 632.492782 97.108788 
L 633.112891 77.422727 
L 633.733 136.480909 
L 634.973218 215.225152 
L 635.593327 175.85303 
L 636.213436 175.85303 
L 637.453655 254.597273 
L 638.073764 215.225152 
L 638.693873 195.539091 
L 639.313982 195.539091 
L 639.934091 116.794848 
L 641.174309 156.16697 
L 641.794418 136.480909 
L 643.034636 175.85303 
L 643.654745 136.480909 
L 644.274855 175.85303 
L 644.894964 175.85303 
L 645.515073 136.480909 
L 646.135182 175.85303 
L 647.3754 97.108788 
L 647.995509 116.794848 
L 648.615618 195.539091 
L 649.235727 156.16697 
L 649.855836 175.85303 
L 650.475945 136.480909 
L 651.096055 175.85303 
L 651.716164 195.539091 
L 652.336273 195.539091 
L 652.956382 234.911212 
L 653.576491 195.539091 
L 654.1966 215.225152 
L 654.816709 195.539091 
L 655.436818 293.969394 
L 656.056927 274.283333 
L 656.677036 175.85303 
L 657.297145 156.16697 
L 657.917255 156.16697 
L 658.537364 136.480909 
L 659.157473 195.539091 
L 659.777582 195.539091 
L 661.0178 234.911212 
L 661.637909 195.539091 
L 662.258018 234.911212 
L 662.878127 195.539091 
L 663.498236 175.85303 
L 664.118345 195.539091 
L 664.738455 234.911212 
L 665.358564 215.225152 
L 666.598782 215.225152 
L 667.218891 195.539091 
L 668.459109 116.794848 
L 669.079218 195.539091 
L 669.699327 175.85303 
L 670.319436 175.85303 
L 670.939545 195.539091 
L 670.939545 195.539091 
" clip-path="url(#p51ce765bdd)" style="fill: none; stroke: #0c5da5; stroke-linecap: square"/>
   </g>
   <g id="patch_3">
    <path d="M 19.825 328.42 
L 19.825 3.6 
" style="fill: none; stroke: #000000; stroke-width: 0.5; stroke-linejoin: miter; stroke-linecap: square"/>
   </g>
   <g id="patch_4">
    <path d="M 701.945 328.42 
L 701.945 3.6 
" style="fill: none; stroke: #000000; stroke-width: 0.5; stroke-linejoin: miter; stroke-linecap: square"/>
   </g>
   <g id="patch_5">
    <path d="M 19.825 328.42 
L 701.945 328.42 
" style="fill: none; stroke: #000000; stroke-width: 0.5; stroke-linejoin: miter; stroke-linecap: square"/>
   </g>
   <g id="patch_6">
    <path d="M 19.825 3.6 
L 701.945 3.6 
" style="fill: none; stroke: #000000; stroke-width: 0.5; stroke-linejoin: miter; stroke-linecap: square"/>
   </g>
  </g>
 </g>
 <defs>
  <clipPath id="p51ce765bdd">
   <rect x="19.825" y="3.6" width="682.12" height="324.82"/>
  </clipPath>
 </defs>
</svg>
