<?xml version="1.0" encoding="utf-8" standalone="no"?>
<!DOCTYPE svg PUBLIC "-//W3C//DTD SVG 1.1//EN"
  "http://www.w3.org/Graphics/SVG/1.1/DTD/svg11.dtd">
<svg xmlns:xlink="http://www.w3.org/1999/xlink" width="705.545pt" height="345.198125pt" viewBox="0 0 705.545 345.198125" xmlns="http://www.w3.org/2000/svg" version="1.1">
 <metadata>
  <rdf:RDF xmlns:dc="http://purl.org/dc/elements/1.1/" xmlns:cc="http://creativecommons.org/ns#" xmlns:rdf="http://www.w3.org/1999/02/22-rdf-syntax-ns#">
   <cc:Work>
    <dc:type rdf:resource="http://purl.org/dc/dcmitype/StillImage"/>
    <dc:date>2023-07-06T23:16:28.002667</dc:date>
    <dc:format>image/svg+xml</dc:format>
    <dc:creator>
     <cc:Agent>
      <dc:title>Matplotlib v3.7.2, https://matplotlib.org/</dc:title>
     </cc:Agent>
    </dc:creator>
   </cc:Work>
  </rdf:RDF>
 </metadata>
 <defs>
  <style type="text/css">*{stroke-linejoin: round; stroke-linecap: butt}</style>
 </defs>
 <g id="figure_1">
  <g id="patch_1">
   <path d="M -0 345.198125 
L 705.545 345.198125 
L 705.545 0 
L -0 0 
z
" style="fill: #ffffff"/>
  </g>
  <g id="axes_1">
   <g id="patch_2">
    <path d="M 19.825 328.42 
L 701.945 328.42 
L 701.945 3.6 
L 19.825 3.6 
z
" style="fill: #ffffff"/>
   </g>
   <g id="matplotlib.axis_1">
    <g id="xtick_1">
     <g id="line2d_1">
      <defs>
       <path id="m5cedf79dbe" d="M 0 0 
L 0 -3 
" style="stroke: #000000; stroke-width: 0.5"/>
      </defs>
      <g>
       <use xlink:href="#m5cedf79dbe" x="50.210345" y="328.42" style="stroke: #000000; stroke-width: 0.5"/>
      </g>
     </g>
     <g id="line2d_2">
      <defs>
       <path id="m1e5f155658" d="M 0 0 
L 0 3 
" style="stroke: #000000; stroke-width: 0.5"/>
      </defs>
      <g>
       <use xlink:href="#m1e5f155658" x="50.210345" y="3.6" style="stroke: #000000; stroke-width: 0.5"/>
      </g>
     </g>
     <g id="text_1">
      <!-- 0 -->
      <g transform="translate(47.029095 339.518437) scale(0.1 -0.1)">
       <defs>
        <path id="DejaVuSerif-30" d="M 2034 219 
Q 2513 219 2750 744 
Q 2988 1269 2988 2328 
Q 2988 3391 2750 3916 
Q 2513 4441 2034 4441 
Q 1556 4441 1318 3916 
Q 1081 3391 1081 2328 
Q 1081 1269 1318 744 
Q 1556 219 2034 219 
z
M 2034 -91 
Q 1275 -91 848 546 
Q 422 1184 422 2328 
Q 422 3475 848 4112 
Q 1275 4750 2034 4750 
Q 2797 4750 3222 4112 
Q 3647 3475 3647 2328 
Q 3647 1184 3222 546 
Q 2797 -91 2034 -91 
z
" transform="scale(0.015625)"/>
       </defs>
       <use xlink:href="#DejaVuSerif-30"/>
      </g>
     </g>
    </g>
    <g id="xtick_2">
     <g id="line2d_3">
      <g>
       <use xlink:href="#m5cedf79dbe" x="174.232164" y="328.42" style="stroke: #000000; stroke-width: 0.5"/>
      </g>
     </g>
     <g id="line2d_4">
      <g>
       <use xlink:href="#m1e5f155658" x="174.232164" y="3.6" style="stroke: #000000; stroke-width: 0.5"/>
      </g>
     </g>
     <g id="text_2">
      <!-- 200 -->
      <g transform="translate(164.688414 339.518437) scale(0.1 -0.1)">
       <defs>
        <path id="DejaVuSerif-32" d="M 819 3553 
L 469 3553 
L 469 4384 
Q 803 4563 1142 4656 
Q 1481 4750 1806 4750 
Q 2534 4750 2956 4397 
Q 3378 4044 3378 3438 
Q 3378 2753 2422 1800 
Q 2347 1728 2309 1691 
L 1131 513 
L 3078 513 
L 3078 1088 
L 3444 1088 
L 3444 0 
L 434 0 
L 434 341 
L 1850 1753 
Q 2319 2222 2519 2614 
Q 2719 3006 2719 3438 
Q 2719 3909 2473 4175 
Q 2228 4441 1797 4441 
Q 1350 4441 1106 4219 
Q 863 3997 819 3553 
z
" transform="scale(0.015625)"/>
       </defs>
       <use xlink:href="#DejaVuSerif-32"/>
       <use xlink:href="#DejaVuSerif-30" x="63.623047"/>
       <use xlink:href="#DejaVuSerif-30" x="127.246094"/>
      </g>
     </g>
    </g>
    <g id="xtick_3">
     <g id="line2d_5">
      <g>
       <use xlink:href="#m5cedf79dbe" x="298.253982" y="328.42" style="stroke: #000000; stroke-width: 0.5"/>
      </g>
     </g>
     <g id="line2d_6">
      <g>
       <use xlink:href="#m1e5f155658" x="298.253982" y="3.6" style="stroke: #000000; stroke-width: 0.5"/>
      </g>
     </g>
     <g id="text_3">
      <!-- 400 -->
      <g transform="translate(288.710232 339.518437) scale(0.1 -0.1)">
       <defs>
        <path id="DejaVuSerif-34" d="M 2234 1581 
L 2234 4063 
L 641 1581 
L 2234 1581 
z
M 3609 0 
L 1484 0 
L 1484 331 
L 2234 331 
L 2234 1247 
L 197 1247 
L 197 1588 
L 2241 4750 
L 2859 4750 
L 2859 1581 
L 3750 1581 
L 3750 1247 
L 2859 1247 
L 2859 331 
L 3609 331 
L 3609 0 
z
" transform="scale(0.015625)"/>
       </defs>
       <use xlink:href="#DejaVuSerif-34"/>
       <use xlink:href="#DejaVuSerif-30" x="63.623047"/>
       <use xlink:href="#DejaVuSerif-30" x="127.246094"/>
      </g>
     </g>
    </g>
    <g id="xtick_4">
     <g id="line2d_7">
      <g>
       <use xlink:href="#m5cedf79dbe" x="422.2758" y="328.42" style="stroke: #000000; stroke-width: 0.5"/>
      </g>
     </g>
     <g id="line2d_8">
      <g>
       <use xlink:href="#m1e5f155658" x="422.2758" y="3.6" style="stroke: #000000; stroke-width: 0.5"/>
      </g>
     </g>
     <g id="text_4">
      <!-- 600 -->
      <g transform="translate(412.73205 339.518437) scale(0.1 -0.1)">
       <defs>
        <path id="DejaVuSerif-36" d="M 2094 219 
Q 2534 219 2771 542 
Q 3009 866 3009 1472 
Q 3009 2078 2771 2401 
Q 2534 2725 2094 2725 
Q 1647 2725 1412 2412 
Q 1178 2100 1178 1509 
Q 1178 888 1415 553 
Q 1653 219 2094 219 
z
M 1075 2569 
Q 1288 2803 1556 2918 
Q 1825 3034 2163 3034 
Q 2859 3034 3264 2615 
Q 3669 2197 3669 1472 
Q 3669 763 3233 336 
Q 2797 -91 2069 -91 
Q 1278 -91 853 498 
Q 428 1088 428 2181 
Q 428 3406 931 4078 
Q 1434 4750 2350 4750 
Q 2597 4750 2869 4703 
Q 3141 4656 3425 4563 
L 3425 3794 
L 3072 3794 
Q 3034 4109 2831 4275 
Q 2628 4441 2284 4441 
Q 1678 4441 1381 3981 
Q 1084 3522 1075 2569 
z
" transform="scale(0.015625)"/>
       </defs>
       <use xlink:href="#DejaVuSerif-36"/>
       <use xlink:href="#DejaVuSerif-30" x="63.623047"/>
       <use xlink:href="#DejaVuSerif-30" x="127.246094"/>
      </g>
     </g>
    </g>
    <g id="xtick_5">
     <g id="line2d_9">
      <g>
       <use xlink:href="#m5cedf79dbe" x="546.297618" y="328.42" style="stroke: #000000; stroke-width: 0.5"/>
      </g>
     </g>
     <g id="line2d_10">
      <g>
       <use xlink:href="#m1e5f155658" x="546.297618" y="3.6" style="stroke: #000000; stroke-width: 0.5"/>
      </g>
     </g>
     <g id="text_5">
      <!-- 800 -->
      <g transform="translate(536.753868 339.518437) scale(0.1 -0.1)">
       <defs>
        <path id="DejaVuSerif-38" d="M 2981 1275 
Q 2981 1775 2732 2051 
Q 2484 2328 2034 2328 
Q 1584 2328 1336 2051 
Q 1088 1775 1088 1275 
Q 1088 772 1336 495 
Q 1584 219 2034 219 
Q 2484 219 2732 495 
Q 2981 772 2981 1275 
z
M 2853 3541 
Q 2853 3966 2637 4203 
Q 2422 4441 2034 4441 
Q 1650 4441 1433 4203 
Q 1216 3966 1216 3541 
Q 1216 3113 1433 2875 
Q 1650 2638 2034 2638 
Q 2422 2638 2637 2875 
Q 2853 3113 2853 3541 
z
M 2516 2484 
Q 3047 2413 3344 2092 
Q 3641 1772 3641 1275 
Q 3641 619 3225 264 
Q 2809 -91 2034 -91 
Q 1263 -91 845 264 
Q 428 619 428 1275 
Q 428 1772 725 2092 
Q 1022 2413 1556 2484 
Q 1084 2569 832 2842 
Q 581 3116 581 3541 
Q 581 4103 968 4426 
Q 1356 4750 2034 4750 
Q 2713 4750 3100 4426 
Q 3488 4103 3488 3541 
Q 3488 3116 3236 2842 
Q 2984 2569 2516 2484 
z
" transform="scale(0.015625)"/>
       </defs>
       <use xlink:href="#DejaVuSerif-38"/>
       <use xlink:href="#DejaVuSerif-30" x="63.623047"/>
       <use xlink:href="#DejaVuSerif-30" x="127.246094"/>
      </g>
     </g>
    </g>
    <g id="xtick_6">
     <g id="line2d_11">
      <g>
       <use xlink:href="#m5cedf79dbe" x="670.319436" y="328.42" style="stroke: #000000; stroke-width: 0.5"/>
      </g>
     </g>
     <g id="line2d_12">
      <g>
       <use xlink:href="#m1e5f155658" x="670.319436" y="3.6" style="stroke: #000000; stroke-width: 0.5"/>
      </g>
     </g>
     <g id="text_6">
      <!-- 1000 -->
      <g transform="translate(657.594436 339.518437) scale(0.1 -0.1)">
       <defs>
        <path id="DejaVuSerif-31" d="M 909 0 
L 909 331 
L 1722 331 
L 1722 4213 
L 781 3603 
L 781 4013 
L 1919 4750 
L 2350 4750 
L 2350 331 
L 3163 331 
L 3163 0 
L 909 0 
z
" transform="scale(0.015625)"/>
       </defs>
       <use xlink:href="#DejaVuSerif-31"/>
       <use xlink:href="#DejaVuSerif-30" x="63.623047"/>
       <use xlink:href="#DejaVuSerif-30" x="127.246094"/>
       <use xlink:href="#DejaVuSerif-30" x="190.869141"/>
      </g>
     </g>
    </g>
    <g id="xtick_7">
     <g id="line2d_13">
      <defs>
       <path id="mc7de7c1c1b" d="M 0 0 
L 0 -1.5 
" style="stroke: #000000; stroke-width: 0.5"/>
      </defs>
      <g>
       <use xlink:href="#mc7de7c1c1b" x="81.2158" y="328.42" style="stroke: #000000; stroke-width: 0.5"/>
      </g>
     </g>
     <g id="line2d_14">
      <defs>
       <path id="ma8e9d3c8d4" d="M 0 0 
L 0 1.5 
" style="stroke: #000000; stroke-width: 0.5"/>
      </defs>
      <g>
       <use xlink:href="#ma8e9d3c8d4" x="81.2158" y="3.6" style="stroke: #000000; stroke-width: 0.5"/>
      </g>
     </g>
    </g>
    <g id="xtick_8">
     <g id="line2d_15">
      <g>
       <use xlink:href="#mc7de7c1c1b" x="112.221255" y="328.42" style="stroke: #000000; stroke-width: 0.5"/>
      </g>
     </g>
     <g id="line2d_16">
      <g>
       <use xlink:href="#ma8e9d3c8d4" x="112.221255" y="3.6" style="stroke: #000000; stroke-width: 0.5"/>
      </g>
     </g>
    </g>
    <g id="xtick_9">
     <g id="line2d_17">
      <g>
       <use xlink:href="#mc7de7c1c1b" x="143.226709" y="328.42" style="stroke: #000000; stroke-width: 0.5"/>
      </g>
     </g>
     <g id="line2d_18">
      <g>
       <use xlink:href="#ma8e9d3c8d4" x="143.226709" y="3.6" style="stroke: #000000; stroke-width: 0.5"/>
      </g>
     </g>
    </g>
    <g id="xtick_10">
     <g id="line2d_19">
      <g>
       <use xlink:href="#mc7de7c1c1b" x="205.237618" y="328.42" style="stroke: #000000; stroke-width: 0.5"/>
      </g>
     </g>
     <g id="line2d_20">
      <g>
       <use xlink:href="#ma8e9d3c8d4" x="205.237618" y="3.6" style="stroke: #000000; stroke-width: 0.5"/>
      </g>
     </g>
    </g>
    <g id="xtick_11">
     <g id="line2d_21">
      <g>
       <use xlink:href="#mc7de7c1c1b" x="236.243073" y="328.42" style="stroke: #000000; stroke-width: 0.5"/>
      </g>
     </g>
     <g id="line2d_22">
      <g>
       <use xlink:href="#ma8e9d3c8d4" x="236.243073" y="3.6" style="stroke: #000000; stroke-width: 0.5"/>
      </g>
     </g>
    </g>
    <g id="xtick_12">
     <g id="line2d_23">
      <g>
       <use xlink:href="#mc7de7c1c1b" x="267.248527" y="328.42" style="stroke: #000000; stroke-width: 0.5"/>
      </g>
     </g>
     <g id="line2d_24">
      <g>
       <use xlink:href="#ma8e9d3c8d4" x="267.248527" y="3.6" style="stroke: #000000; stroke-width: 0.5"/>
      </g>
     </g>
    </g>
    <g id="xtick_13">
     <g id="line2d_25">
      <g>
       <use xlink:href="#mc7de7c1c1b" x="329.259436" y="328.42" style="stroke: #000000; stroke-width: 0.5"/>
      </g>
     </g>
     <g id="line2d_26">
      <g>
       <use xlink:href="#ma8e9d3c8d4" x="329.259436" y="3.6" style="stroke: #000000; stroke-width: 0.5"/>
      </g>
     </g>
    </g>
    <g id="xtick_14">
     <g id="line2d_27">
      <g>
       <use xlink:href="#mc7de7c1c1b" x="360.264891" y="328.42" style="stroke: #000000; stroke-width: 0.5"/>
      </g>
     </g>
     <g id="line2d_28">
      <g>
       <use xlink:href="#ma8e9d3c8d4" x="360.264891" y="3.6" style="stroke: #000000; stroke-width: 0.5"/>
      </g>
     </g>
    </g>
    <g id="xtick_15">
     <g id="line2d_29">
      <g>
       <use xlink:href="#mc7de7c1c1b" x="391.270345" y="328.42" style="stroke: #000000; stroke-width: 0.5"/>
      </g>
     </g>
     <g id="line2d_30">
      <g>
       <use xlink:href="#ma8e9d3c8d4" x="391.270345" y="3.6" style="stroke: #000000; stroke-width: 0.5"/>
      </g>
     </g>
    </g>
    <g id="xtick_16">
     <g id="line2d_31">
      <g>
       <use xlink:href="#mc7de7c1c1b" x="453.281255" y="328.42" style="stroke: #000000; stroke-width: 0.5"/>
      </g>
     </g>
     <g id="line2d_32">
      <g>
       <use xlink:href="#ma8e9d3c8d4" x="453.281255" y="3.6" style="stroke: #000000; stroke-width: 0.5"/>
      </g>
     </g>
    </g>
    <g id="xtick_17">
     <g id="line2d_33">
      <g>
       <use xlink:href="#mc7de7c1c1b" x="484.286709" y="328.42" style="stroke: #000000; stroke-width: 0.5"/>
      </g>
     </g>
     <g id="line2d_34">
      <g>
       <use xlink:href="#ma8e9d3c8d4" x="484.286709" y="3.6" style="stroke: #000000; stroke-width: 0.5"/>
      </g>
     </g>
    </g>
    <g id="xtick_18">
     <g id="line2d_35">
      <g>
       <use xlink:href="#mc7de7c1c1b" x="515.292164" y="328.42" style="stroke: #000000; stroke-width: 0.5"/>
      </g>
     </g>
     <g id="line2d_36">
      <g>
       <use xlink:href="#ma8e9d3c8d4" x="515.292164" y="3.6" style="stroke: #000000; stroke-width: 0.5"/>
      </g>
     </g>
    </g>
    <g id="xtick_19">
     <g id="line2d_37">
      <g>
       <use xlink:href="#mc7de7c1c1b" x="577.303073" y="328.42" style="stroke: #000000; stroke-width: 0.5"/>
      </g>
     </g>
     <g id="line2d_38">
      <g>
       <use xlink:href="#ma8e9d3c8d4" x="577.303073" y="3.6" style="stroke: #000000; stroke-width: 0.5"/>
      </g>
     </g>
    </g>
    <g id="xtick_20">
     <g id="line2d_39">
      <g>
       <use xlink:href="#mc7de7c1c1b" x="608.308527" y="328.42" style="stroke: #000000; stroke-width: 0.5"/>
      </g>
     </g>
     <g id="line2d_40">
      <g>
       <use xlink:href="#ma8e9d3c8d4" x="608.308527" y="3.6" style="stroke: #000000; stroke-width: 0.5"/>
      </g>
     </g>
    </g>
    <g id="xtick_21">
     <g id="line2d_41">
      <g>
       <use xlink:href="#mc7de7c1c1b" x="639.313982" y="328.42" style="stroke: #000000; stroke-width: 0.5"/>
      </g>
     </g>
     <g id="line2d_42">
      <g>
       <use xlink:href="#ma8e9d3c8d4" x="639.313982" y="3.6" style="stroke: #000000; stroke-width: 0.5"/>
      </g>
     </g>
    </g>
    <g id="xtick_22">
     <g id="line2d_43">
      <g>
       <use xlink:href="#mc7de7c1c1b" x="701.324891" y="328.42" style="stroke: #000000; stroke-width: 0.5"/>
      </g>
     </g>
     <g id="line2d_44">
      <g>
       <use xlink:href="#ma8e9d3c8d4" x="701.324891" y="3.6" style="stroke: #000000; stroke-width: 0.5"/>
      </g>
     </g>
    </g>
   </g>
   <g id="matplotlib.axis_2">
    <g id="ytick_1">
     <g id="line2d_45">
      <defs>
       <path id="mbafacf5fda" d="M 0 0 
L 3 0 
" style="stroke: #000000; stroke-width: 0.5"/>
      </defs>
      <g>
       <use xlink:href="#mbafacf5fda" x="19.825" y="313.655455" style="stroke: #000000; stroke-width: 0.5"/>
      </g>
     </g>
     <g id="line2d_46">
      <defs>
       <path id="m31a01f2e91" d="M 0 0 
L -3 0 
" style="stroke: #000000; stroke-width: 0.5"/>
      </defs>
      <g>
       <use xlink:href="#m31a01f2e91" x="701.945" y="313.655455" style="stroke: #000000; stroke-width: 0.5"/>
      </g>
     </g>
     <g id="text_7">
      <!-- 0 -->
      <g transform="translate(9.9625 317.454673) scale(0.1 -0.1)">
       <use xlink:href="#DejaVuSerif-30"/>
      </g>
     </g>
    </g>
    <g id="ytick_2">
     <g id="line2d_47">
      <g>
       <use xlink:href="#mbafacf5fda" x="19.825" y="276.744091" style="stroke: #000000; stroke-width: 0.5"/>
      </g>
     </g>
     <g id="line2d_48">
      <g>
       <use xlink:href="#m31a01f2e91" x="701.945" y="276.744091" style="stroke: #000000; stroke-width: 0.5"/>
      </g>
     </g>
     <g id="text_8">
      <!-- 2 -->
      <g transform="translate(9.9625 280.54331) scale(0.1 -0.1)">
       <use xlink:href="#DejaVuSerif-32"/>
      </g>
     </g>
    </g>
    <g id="ytick_3">
     <g id="line2d_49">
      <g>
       <use xlink:href="#mbafacf5fda" x="19.825" y="239.832727" style="stroke: #000000; stroke-width: 0.5"/>
      </g>
     </g>
     <g id="line2d_50">
      <g>
       <use xlink:href="#m31a01f2e91" x="701.945" y="239.832727" style="stroke: #000000; stroke-width: 0.5"/>
      </g>
     </g>
     <g id="text_9">
      <!-- 4 -->
      <g transform="translate(9.9625 243.631946) scale(0.1 -0.1)">
       <use xlink:href="#DejaVuSerif-34"/>
      </g>
     </g>
    </g>
    <g id="ytick_4">
     <g id="line2d_51">
      <g>
       <use xlink:href="#mbafacf5fda" x="19.825" y="202.921364" style="stroke: #000000; stroke-width: 0.5"/>
      </g>
     </g>
     <g id="line2d_52">
      <g>
       <use xlink:href="#m31a01f2e91" x="701.945" y="202.921364" style="stroke: #000000; stroke-width: 0.5"/>
      </g>
     </g>
     <g id="text_10">
      <!-- 6 -->
      <g transform="translate(9.9625 206.720582) scale(0.1 -0.1)">
       <use xlink:href="#DejaVuSerif-36"/>
      </g>
     </g>
    </g>
    <g id="ytick_5">
     <g id="line2d_53">
      <g>
       <use xlink:href="#mbafacf5fda" x="19.825" y="166.01" style="stroke: #000000; stroke-width: 0.5"/>
      </g>
     </g>
     <g id="line2d_54">
      <g>
       <use xlink:href="#m31a01f2e91" x="701.945" y="166.01" style="stroke: #000000; stroke-width: 0.5"/>
      </g>
     </g>
     <g id="text_11">
      <!-- 8 -->
      <g transform="translate(9.9625 169.809219) scale(0.1 -0.1)">
       <use xlink:href="#DejaVuSerif-38"/>
      </g>
     </g>
    </g>
    <g id="ytick_6">
     <g id="line2d_55">
      <g>
       <use xlink:href="#mbafacf5fda" x="19.825" y="129.098636" style="stroke: #000000; stroke-width: 0.5"/>
      </g>
     </g>
     <g id="line2d_56">
      <g>
       <use xlink:href="#m31a01f2e91" x="701.945" y="129.098636" style="stroke: #000000; stroke-width: 0.5"/>
      </g>
     </g>
     <g id="text_12">
      <!-- 10 -->
      <g transform="translate(3.6 132.897855) scale(0.1 -0.1)">
       <use xlink:href="#DejaVuSerif-31"/>
       <use xlink:href="#DejaVuSerif-30" x="63.623047"/>
      </g>
     </g>
    </g>
    <g id="ytick_7">
     <g id="line2d_57">
      <g>
       <use xlink:href="#mbafacf5fda" x="19.825" y="92.187273" style="stroke: #000000; stroke-width: 0.5"/>
      </g>
     </g>
     <g id="line2d_58">
      <g>
       <use xlink:href="#m31a01f2e91" x="701.945" y="92.187273" style="stroke: #000000; stroke-width: 0.5"/>
      </g>
     </g>
     <g id="text_13">
      <!-- 12 -->
      <g transform="translate(3.6 95.986491) scale(0.1 -0.1)">
       <use xlink:href="#DejaVuSerif-31"/>
       <use xlink:href="#DejaVuSerif-32" x="63.623047"/>
      </g>
     </g>
    </g>
    <g id="ytick_8">
     <g id="line2d_59">
      <g>
       <use xlink:href="#mbafacf5fda" x="19.825" y="55.275909" style="stroke: #000000; stroke-width: 0.5"/>
      </g>
     </g>
     <g id="line2d_60">
      <g>
       <use xlink:href="#m31a01f2e91" x="701.945" y="55.275909" style="stroke: #000000; stroke-width: 0.5"/>
      </g>
     </g>
     <g id="text_14">
      <!-- 14 -->
      <g transform="translate(3.6 59.075128) scale(0.1 -0.1)">
       <use xlink:href="#DejaVuSerif-31"/>
       <use xlink:href="#DejaVuSerif-34" x="63.623047"/>
      </g>
     </g>
    </g>
    <g id="ytick_9">
     <g id="line2d_61">
      <g>
       <use xlink:href="#mbafacf5fda" x="19.825" y="18.364545" style="stroke: #000000; stroke-width: 0.5"/>
      </g>
     </g>
     <g id="line2d_62">
      <g>
       <use xlink:href="#m31a01f2e91" x="701.945" y="18.364545" style="stroke: #000000; stroke-width: 0.5"/>
      </g>
     </g>
     <g id="text_15">
      <!-- 16 -->
      <g transform="translate(3.6 22.163764) scale(0.1 -0.1)">
       <use xlink:href="#DejaVuSerif-31"/>
       <use xlink:href="#DejaVuSerif-36" x="63.623047"/>
      </g>
     </g>
    </g>
    <g id="ytick_10">
     <g id="line2d_63">
      <defs>
       <path id="m1cdfcf4c93" d="M 0 0 
L 1.5 0 
" style="stroke: #000000; stroke-width: 0.5"/>
      </defs>
      <g>
       <use xlink:href="#m1cdfcf4c93" x="19.825" y="322.883295" style="stroke: #000000; stroke-width: 0.5"/>
      </g>
     </g>
     <g id="line2d_64">
      <defs>
       <path id="mf622348dfe" d="M 0 0 
L -1.5 0 
" style="stroke: #000000; stroke-width: 0.5"/>
      </defs>
      <g>
       <use xlink:href="#mf622348dfe" x="701.945" y="322.883295" style="stroke: #000000; stroke-width: 0.5"/>
      </g>
     </g>
    </g>
    <g id="ytick_11">
     <g id="line2d_65">
      <g>
       <use xlink:href="#m1cdfcf4c93" x="19.825" y="304.427614" style="stroke: #000000; stroke-width: 0.5"/>
      </g>
     </g>
     <g id="line2d_66">
      <g>
       <use xlink:href="#mf622348dfe" x="701.945" y="304.427614" style="stroke: #000000; stroke-width: 0.5"/>
      </g>
     </g>
    </g>
    <g id="ytick_12">
     <g id="line2d_67">
      <g>
       <use xlink:href="#m1cdfcf4c93" x="19.825" y="295.199773" style="stroke: #000000; stroke-width: 0.5"/>
      </g>
     </g>
     <g id="line2d_68">
      <g>
       <use xlink:href="#mf622348dfe" x="701.945" y="295.199773" style="stroke: #000000; stroke-width: 0.5"/>
      </g>
     </g>
    </g>
    <g id="ytick_13">
     <g id="line2d_69">
      <g>
       <use xlink:href="#m1cdfcf4c93" x="19.825" y="285.971932" style="stroke: #000000; stroke-width: 0.5"/>
      </g>
     </g>
     <g id="line2d_70">
      <g>
       <use xlink:href="#mf622348dfe" x="701.945" y="285.971932" style="stroke: #000000; stroke-width: 0.5"/>
      </g>
     </g>
    </g>
    <g id="ytick_14">
     <g id="line2d_71">
      <g>
       <use xlink:href="#m1cdfcf4c93" x="19.825" y="267.51625" style="stroke: #000000; stroke-width: 0.5"/>
      </g>
     </g>
     <g id="line2d_72">
      <g>
       <use xlink:href="#mf622348dfe" x="701.945" y="267.51625" style="stroke: #000000; stroke-width: 0.5"/>
      </g>
     </g>
    </g>
    <g id="ytick_15">
     <g id="line2d_73">
      <g>
       <use xlink:href="#m1cdfcf4c93" x="19.825" y="258.288409" style="stroke: #000000; stroke-width: 0.5"/>
      </g>
     </g>
     <g id="line2d_74">
      <g>
       <use xlink:href="#mf622348dfe" x="701.945" y="258.288409" style="stroke: #000000; stroke-width: 0.5"/>
      </g>
     </g>
    </g>
    <g id="ytick_16">
     <g id="line2d_75">
      <g>
       <use xlink:href="#m1cdfcf4c93" x="19.825" y="249.060568" style="stroke: #000000; stroke-width: 0.5"/>
      </g>
     </g>
     <g id="line2d_76">
      <g>
       <use xlink:href="#mf622348dfe" x="701.945" y="249.060568" style="stroke: #000000; stroke-width: 0.5"/>
      </g>
     </g>
    </g>
    <g id="ytick_17">
     <g id="line2d_77">
      <g>
       <use xlink:href="#m1cdfcf4c93" x="19.825" y="230.604886" style="stroke: #000000; stroke-width: 0.5"/>
      </g>
     </g>
     <g id="line2d_78">
      <g>
       <use xlink:href="#mf622348dfe" x="701.945" y="230.604886" style="stroke: #000000; stroke-width: 0.5"/>
      </g>
     </g>
    </g>
    <g id="ytick_18">
     <g id="line2d_79">
      <g>
       <use xlink:href="#m1cdfcf4c93" x="19.825" y="221.377045" style="stroke: #000000; stroke-width: 0.5"/>
      </g>
     </g>
     <g id="line2d_80">
      <g>
       <use xlink:href="#mf622348dfe" x="701.945" y="221.377045" style="stroke: #000000; stroke-width: 0.5"/>
      </g>
     </g>
    </g>
    <g id="ytick_19">
     <g id="line2d_81">
      <g>
       <use xlink:href="#m1cdfcf4c93" x="19.825" y="212.149205" style="stroke: #000000; stroke-width: 0.5"/>
      </g>
     </g>
     <g id="line2d_82">
      <g>
       <use xlink:href="#mf622348dfe" x="701.945" y="212.149205" style="stroke: #000000; stroke-width: 0.5"/>
      </g>
     </g>
    </g>
    <g id="ytick_20">
     <g id="line2d_83">
      <g>
       <use xlink:href="#m1cdfcf4c93" x="19.825" y="193.693523" style="stroke: #000000; stroke-width: 0.5"/>
      </g>
     </g>
     <g id="line2d_84">
      <g>
       <use xlink:href="#mf622348dfe" x="701.945" y="193.693523" style="stroke: #000000; stroke-width: 0.5"/>
      </g>
     </g>
    </g>
    <g id="ytick_21">
     <g id="line2d_85">
      <g>
       <use xlink:href="#m1cdfcf4c93" x="19.825" y="184.465682" style="stroke: #000000; stroke-width: 0.5"/>
      </g>
     </g>
     <g id="line2d_86">
      <g>
       <use xlink:href="#mf622348dfe" x="701.945" y="184.465682" style="stroke: #000000; stroke-width: 0.5"/>
      </g>
     </g>
    </g>
    <g id="ytick_22">
     <g id="line2d_87">
      <g>
       <use xlink:href="#m1cdfcf4c93" x="19.825" y="175.237841" style="stroke: #000000; stroke-width: 0.5"/>
      </g>
     </g>
     <g id="line2d_88">
      <g>
       <use xlink:href="#mf622348dfe" x="701.945" y="175.237841" style="stroke: #000000; stroke-width: 0.5"/>
      </g>
     </g>
    </g>
    <g id="ytick_23">
     <g id="line2d_89">
      <g>
       <use xlink:href="#m1cdfcf4c93" x="19.825" y="156.782159" style="stroke: #000000; stroke-width: 0.5"/>
      </g>
     </g>
     <g id="line2d_90">
      <g>
       <use xlink:href="#mf622348dfe" x="701.945" y="156.782159" style="stroke: #000000; stroke-width: 0.5"/>
      </g>
     </g>
    </g>
    <g id="ytick_24">
     <g id="line2d_91">
      <g>
       <use xlink:href="#m1cdfcf4c93" x="19.825" y="147.554318" style="stroke: #000000; stroke-width: 0.5"/>
      </g>
     </g>
     <g id="line2d_92">
      <g>
       <use xlink:href="#mf622348dfe" x="701.945" y="147.554318" style="stroke: #000000; stroke-width: 0.5"/>
      </g>
     </g>
    </g>
    <g id="ytick_25">
     <g id="line2d_93">
      <g>
       <use xlink:href="#m1cdfcf4c93" x="19.825" y="138.326477" style="stroke: #000000; stroke-width: 0.5"/>
      </g>
     </g>
     <g id="line2d_94">
      <g>
       <use xlink:href="#mf622348dfe" x="701.945" y="138.326477" style="stroke: #000000; stroke-width: 0.5"/>
      </g>
     </g>
    </g>
    <g id="ytick_26">
     <g id="line2d_95">
      <g>
       <use xlink:href="#m1cdfcf4c93" x="19.825" y="119.870795" style="stroke: #000000; stroke-width: 0.5"/>
      </g>
     </g>
     <g id="line2d_96">
      <g>
       <use xlink:href="#mf622348dfe" x="701.945" y="119.870795" style="stroke: #000000; stroke-width: 0.5"/>
      </g>
     </g>
    </g>
    <g id="ytick_27">
     <g id="line2d_97">
      <g>
       <use xlink:href="#m1cdfcf4c93" x="19.825" y="110.642955" style="stroke: #000000; stroke-width: 0.5"/>
      </g>
     </g>
     <g id="line2d_98">
      <g>
       <use xlink:href="#mf622348dfe" x="701.945" y="110.642955" style="stroke: #000000; stroke-width: 0.5"/>
      </g>
     </g>
    </g>
    <g id="ytick_28">
     <g id="line2d_99">
      <g>
       <use xlink:href="#m1cdfcf4c93" x="19.825" y="101.415114" style="stroke: #000000; stroke-width: 0.5"/>
      </g>
     </g>
     <g id="line2d_100">
      <g>
       <use xlink:href="#mf622348dfe" x="701.945" y="101.415114" style="stroke: #000000; stroke-width: 0.5"/>
      </g>
     </g>
    </g>
    <g id="ytick_29">
     <g id="line2d_101">
      <g>
       <use xlink:href="#m1cdfcf4c93" x="19.825" y="82.959432" style="stroke: #000000; stroke-width: 0.5"/>
      </g>
     </g>
     <g id="line2d_102">
      <g>
       <use xlink:href="#mf622348dfe" x="701.945" y="82.959432" style="stroke: #000000; stroke-width: 0.5"/>
      </g>
     </g>
    </g>
    <g id="ytick_30">
     <g id="line2d_103">
      <g>
       <use xlink:href="#m1cdfcf4c93" x="19.825" y="73.731591" style="stroke: #000000; stroke-width: 0.5"/>
      </g>
     </g>
     <g id="line2d_104">
      <g>
       <use xlink:href="#mf622348dfe" x="701.945" y="73.731591" style="stroke: #000000; stroke-width: 0.5"/>
      </g>
     </g>
    </g>
    <g id="ytick_31">
     <g id="line2d_105">
      <g>
       <use xlink:href="#m1cdfcf4c93" x="19.825" y="64.50375" style="stroke: #000000; stroke-width: 0.5"/>
      </g>
     </g>
     <g id="line2d_106">
      <g>
       <use xlink:href="#mf622348dfe" x="701.945" y="64.50375" style="stroke: #000000; stroke-width: 0.5"/>
      </g>
     </g>
    </g>
    <g id="ytick_32">
     <g id="line2d_107">
      <g>
       <use xlink:href="#m1cdfcf4c93" x="19.825" y="46.048068" style="stroke: #000000; stroke-width: 0.5"/>
      </g>
     </g>
     <g id="line2d_108">
      <g>
       <use xlink:href="#mf622348dfe" x="701.945" y="46.048068" style="stroke: #000000; stroke-width: 0.5"/>
      </g>
     </g>
    </g>
    <g id="ytick_33">
     <g id="line2d_109">
      <g>
       <use xlink:href="#m1cdfcf4c93" x="19.825" y="36.820227" style="stroke: #000000; stroke-width: 0.5"/>
      </g>
     </g>
     <g id="line2d_110">
      <g>
       <use xlink:href="#mf622348dfe" x="701.945" y="36.820227" style="stroke: #000000; stroke-width: 0.5"/>
      </g>
     </g>
    </g>
    <g id="ytick_34">
     <g id="line2d_111">
      <g>
       <use xlink:href="#m1cdfcf4c93" x="19.825" y="27.592386" style="stroke: #000000; stroke-width: 0.5"/>
      </g>
     </g>
     <g id="line2d_112">
      <g>
       <use xlink:href="#mf622348dfe" x="701.945" y="27.592386" style="stroke: #000000; stroke-width: 0.5"/>
      </g>
     </g>
    </g>
    <g id="ytick_35">
     <g id="line2d_113">
      <g>
       <use xlink:href="#m1cdfcf4c93" x="19.825" y="9.136705" style="stroke: #000000; stroke-width: 0.5"/>
      </g>
     </g>
     <g id="line2d_114">
      <g>
       <use xlink:href="#mf622348dfe" x="701.945" y="9.136705" style="stroke: #000000; stroke-width: 0.5"/>
      </g>
     </g>
    </g>
   </g>
   <g id="line2d_115">
    <path d="M 50.830455 313.655455 
L 54.551109 313.655455 
L 55.791327 239.832727 
L 56.411436 184.465682 
L 57.031545 221.377045 
L 57.651655 184.465682 
L 58.891873 184.465682 
L 59.511982 129.098636 
L 60.132091 55.275909 
L 60.7522 55.275909 
L 61.992418 129.098636 
L 63.232636 166.01 
L 63.852745 147.554318 
L 65.092964 147.554318 
L 65.713073 110.642955 
L 66.333182 92.187273 
L 66.953291 147.554318 
L 67.5734 184.465682 
L 68.193509 184.465682 
L 68.813618 110.642955 
L 69.433727 147.554318 
L 70.053836 221.377045 
L 70.673945 202.921364 
L 71.294055 239.832727 
L 71.914164 166.01 
L 72.534273 147.554318 
L 73.154382 166.01 
L 73.774491 202.921364 
L 74.3946 202.921364 
L 75.014709 166.01 
L 75.634818 166.01 
L 76.254927 110.642955 
L 76.875036 147.554318 
L 77.495145 110.642955 
L 78.115255 166.01 
L 78.735364 184.465682 
L 79.355473 92.187273 
L 79.975582 129.098636 
L 80.595691 202.921364 
L 81.2158 221.377045 
L 81.835909 258.288409 
L 82.456018 221.377045 
L 83.076127 110.642955 
L 83.696236 92.187273 
L 84.316345 129.098636 
L 84.936455 147.554318 
L 85.556564 202.921364 
L 86.176673 166.01 
L 86.796782 73.731591 
L 87.416891 73.731591 
L 88.037 147.554318 
L 89.277218 147.554318 
L 89.897327 239.832727 
L 90.517436 166.01 
L 91.137545 147.554318 
L 91.757655 202.921364 
L 92.377764 184.465682 
L 92.997873 221.377045 
L 93.617982 239.832727 
L 94.8582 166.01 
L 95.478309 147.554318 
L 96.098418 166.01 
L 96.718527 258.288409 
L 97.338636 295.199773 
L 97.958745 239.832727 
L 99.198964 202.921364 
L 99.819073 221.377045 
L 101.059291 184.465682 
L 102.299509 221.377045 
L 102.919618 147.554318 
L 103.539727 147.554318 
L 104.159836 202.921364 
L 104.779945 202.921364 
L 105.400055 221.377045 
L 106.020164 184.465682 
L 106.640273 166.01 
L 107.260382 166.01 
L 107.880491 202.921364 
L 108.5006 202.921364 
L 109.120709 239.832727 
L 109.740818 202.921364 
L 110.360927 110.642955 
L 111.601145 221.377045 
L 112.841364 258.288409 
L 113.461473 258.288409 
L 114.081582 239.832727 
L 114.701691 202.921364 
L 115.941909 239.832727 
L 117.182127 166.01 
L 117.802236 202.921364 
L 118.422345 202.921364 
L 119.042455 221.377045 
L 119.662564 276.744091 
L 120.902782 239.832727 
L 122.143 166.01 
L 122.763109 184.465682 
L 123.383218 221.377045 
L 124.003327 239.832727 
L 124.623436 129.098636 
L 125.243545 55.275909 
L 125.863655 92.187273 
L 126.483764 166.01 
L 127.103873 202.921364 
L 127.723982 147.554318 
L 128.344091 129.098636 
L 128.9642 92.187273 
L 129.584309 110.642955 
L 130.204418 184.465682 
L 130.824527 147.554318 
L 131.444636 184.465682 
L 132.064745 184.465682 
L 133.304964 258.288409 
L 133.925073 184.465682 
L 134.545182 147.554318 
L 135.165291 166.01 
L 135.7854 166.01 
L 136.405509 92.187273 
L 137.025618 166.01 
L 138.265836 166.01 
L 138.885945 221.377045 
L 139.506055 239.832727 
L 140.126164 221.377045 
L 140.746273 184.465682 
L 141.986491 184.465682 
L 142.6066 202.921364 
L 143.226709 166.01 
L 143.846818 221.377045 
L 144.466927 202.921364 
L 145.087036 202.921364 
L 145.707145 184.465682 
L 146.327255 129.098636 
L 146.947364 129.098636 
L 147.567473 110.642955 
L 148.187582 110.642955 
L 148.807691 166.01 
L 149.4278 110.642955 
L 150.047909 184.465682 
L 150.668018 184.465682 
L 151.288127 110.642955 
L 151.908236 18.364545 
L 152.528345 18.364545 
L 153.768564 239.832727 
L 154.388673 166.01 
L 155.008782 147.554318 
L 155.628891 184.465682 
L 156.249 239.832727 
L 156.869109 258.288409 
L 157.489218 202.921364 
L 158.109327 129.098636 
L 158.729436 110.642955 
L 159.349545 73.731591 
L 159.969655 147.554318 
L 160.589764 166.01 
L 161.209873 221.377045 
L 162.450091 221.377045 
L 163.0702 239.832727 
L 163.690309 221.377045 
L 164.310418 129.098636 
L 165.550636 166.01 
L 166.170745 129.098636 
L 166.790855 184.465682 
L 167.410964 166.01 
L 168.031073 110.642955 
L 169.271291 73.731591 
L 169.8914 166.01 
L 171.751727 221.377045 
L 173.612055 221.377045 
L 174.232164 276.744091 
L 174.852273 295.199773 
L 175.472382 258.288409 
L 176.092491 239.832727 
L 176.7126 202.921364 
L 177.332709 147.554318 
L 177.952818 129.098636 
L 178.572927 147.554318 
L 179.193036 147.554318 
L 180.433255 184.465682 
L 181.673473 147.554318 
L 182.293582 184.465682 
L 183.5338 147.554318 
L 184.153909 92.187273 
L 184.774018 110.642955 
L 185.394127 110.642955 
L 186.014236 202.921364 
L 186.634345 110.642955 
L 188.494673 166.01 
L 189.114782 147.554318 
L 189.734891 110.642955 
L 190.355 110.642955 
L 190.975109 129.098636 
L 191.595218 166.01 
L 192.215327 221.377045 
L 192.835436 202.921364 
L 193.455545 202.921364 
L 194.075655 221.377045 
L 194.695764 276.744091 
L 195.315873 239.832727 
L 195.935982 166.01 
L 197.1762 92.187273 
L 197.796309 147.554318 
L 198.416418 239.832727 
L 199.656636 166.01 
L 200.276745 147.554318 
L 200.896855 202.921364 
L 201.516964 239.832727 
L 202.757182 202.921364 
L 203.377291 147.554318 
L 204.617509 147.554318 
L 205.237618 166.01 
L 205.857727 202.921364 
L 206.477836 184.465682 
L 207.097945 110.642955 
L 208.338164 73.731591 
L 208.958273 129.098636 
L 209.578382 202.921364 
L 210.8186 166.01 
L 212.678927 221.377045 
L 213.299036 147.554318 
L 213.919145 110.642955 
L 214.539255 129.098636 
L 215.159364 184.465682 
L 215.779473 147.554318 
L 217.019691 221.377045 
L 217.6398 239.832727 
L 218.259909 184.465682 
L 218.880018 147.554318 
L 219.500127 166.01 
L 220.120236 110.642955 
L 220.740345 110.642955 
L 221.360455 166.01 
L 221.980564 166.01 
L 222.600673 202.921364 
L 223.220782 129.098636 
L 223.840891 92.187273 
L 224.461 73.731591 
L 225.701218 258.288409 
L 226.321327 239.832727 
L 226.941436 202.921364 
L 227.561545 147.554318 
L 228.181655 110.642955 
L 228.801764 166.01 
L 229.421873 147.554318 
L 230.041982 184.465682 
L 230.662091 147.554318 
L 231.2822 92.187273 
L 231.902309 55.275909 
L 232.522418 92.187273 
L 233.762636 129.098636 
L 235.002855 202.921364 
L 236.243073 166.01 
L 236.863182 221.377045 
L 237.483291 258.288409 
L 239.343618 147.554318 
L 240.583836 184.465682 
L 241.203945 129.098636 
L 241.824055 147.554318 
L 242.444164 129.098636 
L 243.064273 166.01 
L 243.684382 147.554318 
L 244.304491 202.921364 
L 244.9246 147.554318 
L 245.544709 221.377045 
L 246.164818 184.465682 
L 246.784927 258.288409 
L 247.405036 258.288409 
L 248.645255 184.465682 
L 249.265364 184.465682 
L 249.885473 166.01 
L 250.505582 166.01 
L 251.125691 202.921364 
L 251.7458 184.465682 
L 252.365909 129.098636 
L 252.986018 129.098636 
L 253.606127 166.01 
L 254.226236 92.187273 
L 254.846345 166.01 
L 255.466455 147.554318 
L 256.086564 73.731591 
L 256.706673 55.275909 
L 257.326782 129.098636 
L 257.946891 184.465682 
L 258.567 184.465682 
L 259.187109 239.832727 
L 259.807218 202.921364 
L 260.427327 239.832727 
L 261.047436 258.288409 
L 261.667545 239.832727 
L 262.287655 239.832727 
L 263.527873 202.921364 
L 264.147982 202.921364 
L 264.768091 184.465682 
L 265.3882 202.921364 
L 266.008309 184.465682 
L 266.628418 221.377045 
L 267.248527 239.832727 
L 267.868636 221.377045 
L 269.108855 221.377045 
L 269.728964 184.465682 
L 270.349073 184.465682 
L 270.969182 129.098636 
L 272.2094 92.187273 
L 274.689836 239.832727 
L 275.309945 202.921364 
L 275.930055 184.465682 
L 276.550164 221.377045 
L 277.790382 221.377045 
L 278.410491 166.01 
L 279.0306 184.465682 
L 279.650709 129.098636 
L 280.270818 92.187273 
L 280.890927 129.098636 
L 281.511036 184.465682 
L 282.131145 202.921364 
L 282.751255 202.921364 
L 283.371364 166.01 
L 283.991473 166.01 
L 284.611582 147.554318 
L 285.231691 92.187273 
L 286.471909 202.921364 
L 287.092018 166.01 
L 287.712127 110.642955 
L 288.332236 184.465682 
L 288.952345 184.465682 
L 289.572455 202.921364 
L 290.192564 239.832727 
L 290.812673 239.832727 
L 291.432782 221.377045 
L 292.052891 166.01 
L 292.673 147.554318 
L 293.293109 147.554318 
L 293.913218 184.465682 
L 294.533327 258.288409 
L 295.153436 239.832727 
L 295.773545 184.465682 
L 296.393655 184.465682 
L 297.013764 147.554318 
L 297.633873 184.465682 
L 298.253982 166.01 
L 298.874091 166.01 
L 299.4942 221.377045 
L 300.734418 221.377045 
L 301.354527 147.554318 
L 301.974636 129.098636 
L 302.594745 92.187273 
L 303.834964 239.832727 
L 304.455073 166.01 
L 305.075182 166.01 
L 305.695291 147.554318 
L 306.3154 73.731591 
L 306.935509 129.098636 
L 307.555618 110.642955 
L 308.175727 129.098636 
L 308.795836 184.465682 
L 309.415945 184.465682 
L 310.036055 239.832727 
L 311.896382 239.832727 
L 312.516491 258.288409 
L 313.1366 221.377045 
L 313.756709 202.921364 
L 314.376818 166.01 
L 314.996927 92.187273 
L 315.617036 36.820227 
L 316.237145 92.187273 
L 316.857255 129.098636 
L 317.477364 147.554318 
L 318.097473 147.554318 
L 318.717582 202.921364 
L 319.337691 184.465682 
L 319.9578 258.288409 
L 320.577909 276.744091 
L 321.818127 202.921364 
L 322.438236 147.554318 
L 323.058345 184.465682 
L 323.678455 147.554318 
L 324.298564 166.01 
L 324.918673 147.554318 
L 325.538782 147.554318 
L 326.158891 129.098636 
L 326.779 166.01 
L 327.399109 221.377045 
L 328.019218 202.921364 
L 328.639327 202.921364 
L 329.259436 184.465682 
L 329.879545 221.377045 
L 330.499655 276.744091 
L 331.119764 221.377045 
L 332.359982 147.554318 
L 332.980091 129.098636 
L 333.6002 147.554318 
L 334.840418 147.554318 
L 336.080636 184.465682 
L 336.700745 221.377045 
L 337.940964 110.642955 
L 338.561073 110.642955 
L 339.181182 92.187273 
L 340.4214 166.01 
L 341.041509 184.465682 
L 341.661618 239.832727 
L 342.281727 239.832727 
L 343.521945 202.921364 
L 344.762164 202.921364 
L 345.382273 92.187273 
L 346.002382 55.275909 
L 346.622491 129.098636 
L 347.2426 239.832727 
L 348.482818 166.01 
L 349.102927 184.465682 
L 349.723036 221.377045 
L 350.343145 221.377045 
L 350.963255 184.465682 
L 351.583364 202.921364 
L 354.0638 202.921364 
L 354.683909 239.832727 
L 355.304018 202.921364 
L 355.924127 184.465682 
L 356.544236 184.465682 
L 357.164345 239.832727 
L 357.784455 258.288409 
L 358.404564 239.832727 
L 359.024673 202.921364 
L 359.644782 202.921364 
L 360.264891 184.465682 
L 360.885 184.465682 
L 361.505109 258.288409 
L 362.125218 221.377045 
L 362.745327 221.377045 
L 363.365436 202.921364 
L 363.985545 147.554318 
L 364.605655 147.554318 
L 365.225764 202.921364 
L 365.845873 184.465682 
L 366.465982 202.921364 
L 367.086091 166.01 
L 367.7062 202.921364 
L 368.326309 73.731591 
L 368.946418 92.187273 
L 369.566527 166.01 
L 370.186636 166.01 
L 370.806745 184.465682 
L 371.426855 239.832727 
L 372.046964 184.465682 
L 372.667073 202.921364 
L 373.287182 239.832727 
L 373.907291 258.288409 
L 375.147509 184.465682 
L 375.767618 184.465682 
L 376.387727 166.01 
L 377.007836 202.921364 
L 378.248055 166.01 
L 378.868164 202.921364 
L 379.488273 202.921364 
L 380.108382 147.554318 
L 380.728491 129.098636 
L 381.3486 147.554318 
L 381.968709 184.465682 
L 382.588818 147.554318 
L 383.208927 92.187273 
L 383.829036 147.554318 
L 385.689364 147.554318 
L 386.309473 221.377045 
L 386.929582 184.465682 
L 387.549691 129.098636 
L 388.1698 110.642955 
L 389.410018 184.465682 
L 390.030127 147.554318 
L 391.270345 147.554318 
L 391.890455 166.01 
L 392.510564 147.554318 
L 393.130673 202.921364 
L 393.750782 202.921364 
L 394.991 239.832727 
L 395.611109 202.921364 
L 396.231218 221.377045 
L 396.851327 166.01 
L 397.471436 184.465682 
L 398.091545 166.01 
L 398.711655 202.921364 
L 399.331764 166.01 
L 399.951873 221.377045 
L 401.192091 221.377045 
L 401.8122 258.288409 
L 402.432309 166.01 
L 403.052418 166.01 
L 403.672527 184.465682 
L 404.292636 147.554318 
L 404.912745 184.465682 
L 405.532855 110.642955 
L 406.152964 110.642955 
L 406.773073 73.731591 
L 408.013291 73.731591 
L 408.6334 92.187273 
L 409.253509 202.921364 
L 409.873618 239.832727 
L 410.493727 221.377045 
L 411.113836 258.288409 
L 411.733945 239.832727 
L 412.354055 276.744091 
L 412.974164 239.832727 
L 413.594273 258.288409 
L 414.214382 221.377045 
L 414.834491 221.377045 
L 415.4546 258.288409 
L 416.074709 239.832727 
L 416.694818 202.921364 
L 417.314927 202.921364 
L 417.935036 239.832727 
L 418.555145 221.377045 
L 419.175255 221.377045 
L 419.795364 258.288409 
L 420.415473 258.288409 
L 421.035582 202.921364 
L 422.2758 239.832727 
L 422.895909 147.554318 
L 424.136127 147.554318 
L 424.756236 166.01 
L 425.376345 147.554318 
L 425.996455 147.554318 
L 426.616564 110.642955 
L 427.236673 92.187273 
L 427.856782 110.642955 
L 428.476891 221.377045 
L 429.097 295.199773 
L 430.337218 221.377045 
L 430.957327 202.921364 
L 431.577436 166.01 
L 432.197545 184.465682 
L 432.817655 221.377045 
L 433.437764 184.465682 
L 434.677982 184.465682 
L 435.298091 221.377045 
L 435.9182 184.465682 
L 436.538309 221.377045 
L 437.158418 239.832727 
L 437.778527 166.01 
L 438.398636 147.554318 
L 439.018745 147.554318 
L 439.638855 184.465682 
L 440.258964 184.465682 
L 440.879073 166.01 
L 441.499182 184.465682 
L 442.119291 184.465682 
L 442.7394 221.377045 
L 443.359509 147.554318 
L 443.979618 147.554318 
L 445.219836 73.731591 
L 445.839945 110.642955 
L 446.460055 184.465682 
L 447.080164 221.377045 
L 447.700273 239.832727 
L 449.5606 184.465682 
L 450.180709 184.465682 
L 450.800818 129.098636 
L 451.420927 110.642955 
L 452.041036 110.642955 
L 453.281255 184.465682 
L 453.901364 184.465682 
L 454.521473 221.377045 
L 455.141582 221.377045 
L 457.001909 166.01 
L 457.622018 129.098636 
L 458.862236 92.187273 
L 460.102455 202.921364 
L 460.722564 239.832727 
L 461.342673 221.377045 
L 461.962782 147.554318 
L 463.203 147.554318 
L 463.823109 184.465682 
L 464.443218 184.465682 
L 465.683436 147.554318 
L 466.303545 184.465682 
L 466.923655 129.098636 
L 467.543764 129.098636 
L 468.163873 221.377045 
L 468.783982 184.465682 
L 469.404091 202.921364 
L 470.644309 276.744091 
L 471.264418 276.744091 
L 472.504636 202.921364 
L 473.124745 184.465682 
L 473.744855 110.642955 
L 474.364964 55.275909 
L 474.985073 92.187273 
L 475.605182 202.921364 
L 476.225291 202.921364 
L 476.8454 239.832727 
L 477.465509 239.832727 
L 478.705727 202.921364 
L 479.325836 221.377045 
L 479.945945 221.377045 
L 480.566055 147.554318 
L 481.186164 129.098636 
L 481.806273 166.01 
L 482.426382 184.465682 
L 483.046491 221.377045 
L 483.6666 221.377045 
L 484.286709 239.832727 
L 484.906818 239.832727 
L 485.526927 184.465682 
L 486.147036 184.465682 
L 487.387255 110.642955 
L 488.007364 129.098636 
L 488.627473 129.098636 
L 489.247582 147.554318 
L 489.867691 147.554318 
L 490.4878 184.465682 
L 491.728018 110.642955 
L 492.348127 110.642955 
L 492.968236 166.01 
L 494.208455 239.832727 
L 495.448673 239.832727 
L 496.068782 184.465682 
L 497.929109 184.465682 
L 498.549218 129.098636 
L 499.169327 147.554318 
L 499.789436 18.364545 
L 500.409545 36.820227 
L 501.029655 18.364545 
L 501.649764 36.820227 
L 502.889982 221.377045 
L 503.510091 276.744091 
L 504.1302 258.288409 
L 504.750309 221.377045 
L 505.370418 221.377045 
L 505.990527 202.921364 
L 506.610636 202.921364 
L 507.230745 166.01 
L 508.470964 239.832727 
L 509.711182 239.832727 
L 510.331291 202.921364 
L 510.9514 239.832727 
L 512.191618 239.832727 
L 512.811727 166.01 
L 513.431836 147.554318 
L 515.292164 202.921364 
L 515.912273 166.01 
L 516.532382 184.465682 
L 517.7726 110.642955 
L 519.012818 110.642955 
L 519.632927 147.554318 
L 520.253036 110.642955 
L 520.873145 221.377045 
L 521.493255 258.288409 
L 522.113364 239.832727 
L 522.733473 166.01 
L 523.353582 184.465682 
L 523.973691 147.554318 
L 524.5938 184.465682 
L 525.213909 184.465682 
L 526.454127 147.554318 
L 527.074236 184.465682 
L 527.694345 184.465682 
L 528.934564 147.554318 
L 529.554673 110.642955 
L 530.794891 110.642955 
L 531.415 92.187273 
L 532.035109 147.554318 
L 532.655218 166.01 
L 533.275327 147.554318 
L 533.895436 73.731591 
L 534.515545 92.187273 
L 535.135655 147.554318 
L 535.755764 129.098636 
L 536.375873 166.01 
L 536.995982 166.01 
L 538.2362 202.921364 
L 538.856309 147.554318 
L 539.476418 147.554318 
L 540.716636 221.377045 
L 541.336745 184.465682 
L 541.956855 202.921364 
L 542.576964 147.554318 
L 543.197073 129.098636 
L 543.817182 221.377045 
L 545.0574 184.465682 
L 545.677509 184.465682 
L 546.297618 202.921364 
L 546.917727 258.288409 
L 547.537836 184.465682 
L 548.157945 239.832727 
L 548.778055 129.098636 
L 549.398164 147.554318 
L 550.018273 129.098636 
L 550.638382 221.377045 
L 551.8786 221.377045 
L 552.498709 166.01 
L 553.118818 184.465682 
L 553.738927 184.465682 
L 554.359036 166.01 
L 555.599255 166.01 
L 556.219364 147.554318 
L 556.839473 166.01 
L 557.459582 239.832727 
L 558.079691 239.832727 
L 558.6998 258.288409 
L 559.319909 258.288409 
L 560.560127 295.199773 
L 561.180236 221.377045 
L 562.420455 184.465682 
L 563.040564 221.377045 
L 563.660673 221.377045 
L 564.280782 239.832727 
L 564.900891 221.377045 
L 565.521 184.465682 
L 566.141109 184.465682 
L 566.761218 147.554318 
L 567.381327 166.01 
L 568.001436 221.377045 
L 568.621545 239.832727 
L 569.241655 239.832727 
L 569.861764 221.377045 
L 571.101982 258.288409 
L 571.722091 295.199773 
L 572.3422 276.744091 
L 572.962309 276.744091 
L 573.582418 221.377045 
L 574.202527 129.098636 
L 575.442745 55.275909 
L 576.062855 55.275909 
L 576.682964 129.098636 
L 577.303073 147.554318 
L 577.923182 184.465682 
L 578.543291 239.832727 
L 579.783509 202.921364 
L 580.403618 221.377045 
L 581.023727 184.465682 
L 581.643836 221.377045 
L 582.263945 202.921364 
L 582.884055 202.921364 
L 583.504164 184.465682 
L 584.124273 147.554318 
L 584.744382 129.098636 
L 585.364491 166.01 
L 585.9846 184.465682 
L 586.604709 147.554318 
L 587.224818 184.465682 
L 587.844927 166.01 
L 588.465036 166.01 
L 589.085145 129.098636 
L 589.705255 129.098636 
L 590.325364 110.642955 
L 590.945473 202.921364 
L 591.565582 239.832727 
L 592.185691 221.377045 
L 592.8058 239.832727 
L 593.425909 276.744091 
L 594.046018 258.288409 
L 595.286236 184.465682 
L 595.906345 166.01 
L 597.146564 166.01 
L 597.766673 202.921364 
L 598.386782 166.01 
L 599.006891 184.465682 
L 600.247109 184.465682 
L 600.867218 202.921364 
L 601.487327 202.921364 
L 602.727545 239.832727 
L 603.347655 166.01 
L 603.967764 184.465682 
L 604.587873 147.554318 
L 605.207982 184.465682 
L 605.828091 166.01 
L 606.4482 110.642955 
L 607.068309 92.187273 
L 607.688418 110.642955 
L 608.928636 184.465682 
L 609.548745 184.465682 
L 610.788964 221.377045 
L 611.409073 184.465682 
L 612.029182 184.465682 
L 612.649291 166.01 
L 613.2694 166.01 
L 613.889509 184.465682 
L 615.129727 110.642955 
L 615.749836 92.187273 
L 616.369945 92.187273 
L 616.990055 55.275909 
L 617.610164 147.554318 
L 618.230273 166.01 
L 618.850382 202.921364 
L 619.470491 166.01 
L 620.0906 221.377045 
L 620.710709 258.288409 
L 621.330818 202.921364 
L 621.950927 221.377045 
L 622.571036 202.921364 
L 623.191145 147.554318 
L 623.811255 166.01 
L 624.431364 129.098636 
L 625.051473 166.01 
L 625.671582 184.465682 
L 626.291691 166.01 
L 626.9118 184.465682 
L 627.531909 221.377045 
L 628.152018 184.465682 
L 629.392236 147.554318 
L 630.012345 166.01 
L 630.632455 258.288409 
L 631.252564 221.377045 
L 631.872673 221.377045 
L 632.492782 166.01 
L 633.733 202.921364 
L 634.353109 129.098636 
L 634.973218 110.642955 
L 635.593327 166.01 
L 637.453655 166.01 
L 638.073764 184.465682 
L 638.693873 184.465682 
L 639.313982 221.377045 
L 639.934091 239.832727 
L 640.5542 221.377045 
L 641.174309 221.377045 
L 641.794418 166.01 
L 642.414527 202.921364 
L 643.654745 166.01 
L 644.274855 239.832727 
L 644.894964 221.377045 
L 645.515073 221.377045 
L 646.135182 202.921364 
L 646.755291 202.921364 
L 647.3754 184.465682 
L 647.995509 202.921364 
L 649.235727 166.01 
L 649.855836 202.921364 
L 651.096055 239.832727 
L 651.716164 239.832727 
L 652.336273 202.921364 
L 652.956382 202.921364 
L 653.576491 184.465682 
L 654.1966 258.288409 
L 654.816709 110.642955 
L 655.436818 73.731591 
L 656.056927 110.642955 
L 657.297145 110.642955 
L 658.537364 147.554318 
L 659.157473 184.465682 
L 659.777582 202.921364 
L 660.397691 202.921364 
L 661.0178 221.377045 
L 661.637909 258.288409 
L 662.258018 239.832727 
L 662.878127 184.465682 
L 663.498236 166.01 
L 664.118345 129.098636 
L 664.738455 129.098636 
L 665.978673 92.187273 
L 667.218891 129.098636 
L 667.839 129.098636 
L 668.459109 92.187273 
L 669.079218 129.098636 
L 669.699327 202.921364 
L 670.319436 221.377045 
L 670.939545 147.554318 
L 670.939545 147.554318 
" clip-path="url(#pdbb10907c2)" style="fill: none; stroke: #0c5da5; stroke-linecap: square"/>
   </g>
   <g id="patch_3">
    <path d="M 19.825 328.42 
L 19.825 3.6 
" style="fill: none; stroke: #000000; stroke-width: 0.5; stroke-linejoin: miter; stroke-linecap: square"/>
   </g>
   <g id="patch_4">
    <path d="M 701.945 328.42 
L 701.945 3.6 
" style="fill: none; stroke: #000000; stroke-width: 0.5; stroke-linejoin: miter; stroke-linecap: square"/>
   </g>
   <g id="patch_5">
    <path d="M 19.825 328.42 
L 701.945 328.42 
" style="fill: none; stroke: #000000; stroke-width: 0.5; stroke-linejoin: miter; stroke-linecap: square"/>
   </g>
   <g id="patch_6">
    <path d="M 19.825 3.6 
L 701.945 3.6 
" style="fill: none; stroke: #000000; stroke-width: 0.5; stroke-linejoin: miter; stroke-linecap: square"/>
   </g>
  </g>
 </g>
 <defs>
  <clipPath id="pdbb10907c2">
   <rect x="19.825" y="3.6" width="682.12" height="324.82"/>
  </clipPath>
 </defs>
</svg>
