<?xml version="1.0" encoding="utf-8" standalone="no"?>
<!DOCTYPE svg PUBLIC "-//W3C//DTD SVG 1.1//EN"
  "http://www.w3.org/Graphics/SVG/1.1/DTD/svg11.dtd">
<svg xmlns:xlink="http://www.w3.org/1999/xlink" width="705.545pt" height="345.198125pt" viewBox="0 0 705.545 345.198125" xmlns="http://www.w3.org/2000/svg" version="1.1">
 <metadata>
  <rdf:RDF xmlns:dc="http://purl.org/dc/elements/1.1/" xmlns:cc="http://creativecommons.org/ns#" xmlns:rdf="http://www.w3.org/1999/02/22-rdf-syntax-ns#">
   <cc:Work>
    <dc:type rdf:resource="http://purl.org/dc/dcmitype/StillImage"/>
    <dc:date>2023-07-06T23:23:17.257827</dc:date>
    <dc:format>image/svg+xml</dc:format>
    <dc:creator>
     <cc:Agent>
      <dc:title>Matplotlib v3.7.2, https://matplotlib.org/</dc:title>
     </cc:Agent>
    </dc:creator>
   </cc:Work>
  </rdf:RDF>
 </metadata>
 <defs>
  <style type="text/css">*{stroke-linejoin: round; stroke-linecap: butt}</style>
 </defs>
 <g id="figure_1">
  <g id="patch_1">
   <path d="M -0 345.198125 
L 705.545 345.198125 
L 705.545 0 
L -0 0 
z
" style="fill: #ffffff"/>
  </g>
  <g id="axes_1">
   <g id="patch_2">
    <path d="M 19.825 328.42 
L 701.945 328.42 
L 701.945 3.6 
L 19.825 3.6 
z
" style="fill: #ffffff"/>
   </g>
   <g id="matplotlib.axis_1">
    <g id="xtick_1">
     <g id="line2d_1">
      <defs>
       <path id="m1c2054652e" d="M 0 0 
L 0 -3 
" style="stroke: #000000; stroke-width: 0.5"/>
      </defs>
      <g>
       <use xlink:href="#m1c2054652e" x="50.210345" y="328.42" style="stroke: #000000; stroke-width: 0.5"/>
      </g>
     </g>
     <g id="line2d_2">
      <defs>
       <path id="mbeee75ad4b" d="M 0 0 
L 0 3 
" style="stroke: #000000; stroke-width: 0.5"/>
      </defs>
      <g>
       <use xlink:href="#mbeee75ad4b" x="50.210345" y="3.6" style="stroke: #000000; stroke-width: 0.5"/>
      </g>
     </g>
     <g id="text_1">
      <!-- 0 -->
      <g transform="translate(47.029095 339.518437) scale(0.1 -0.1)">
       <defs>
        <path id="DejaVuSerif-30" d="M 2034 219 
Q 2513 219 2750 744 
Q 2988 1269 2988 2328 
Q 2988 3391 2750 3916 
Q 2513 4441 2034 4441 
Q 1556 4441 1318 3916 
Q 1081 3391 1081 2328 
Q 1081 1269 1318 744 
Q 1556 219 2034 219 
z
M 2034 -91 
Q 1275 -91 848 546 
Q 422 1184 422 2328 
Q 422 3475 848 4112 
Q 1275 4750 2034 4750 
Q 2797 4750 3222 4112 
Q 3647 3475 3647 2328 
Q 3647 1184 3222 546 
Q 2797 -91 2034 -91 
z
" transform="scale(0.015625)"/>
       </defs>
       <use xlink:href="#DejaVuSerif-30"/>
      </g>
     </g>
    </g>
    <g id="xtick_2">
     <g id="line2d_3">
      <g>
       <use xlink:href="#m1c2054652e" x="174.232164" y="328.42" style="stroke: #000000; stroke-width: 0.5"/>
      </g>
     </g>
     <g id="line2d_4">
      <g>
       <use xlink:href="#mbeee75ad4b" x="174.232164" y="3.6" style="stroke: #000000; stroke-width: 0.5"/>
      </g>
     </g>
     <g id="text_2">
      <!-- 200 -->
      <g transform="translate(164.688414 339.518437) scale(0.1 -0.1)">
       <defs>
        <path id="DejaVuSerif-32" d="M 819 3553 
L 469 3553 
L 469 4384 
Q 803 4563 1142 4656 
Q 1481 4750 1806 4750 
Q 2534 4750 2956 4397 
Q 3378 4044 3378 3438 
Q 3378 2753 2422 1800 
Q 2347 1728 2309 1691 
L 1131 513 
L 3078 513 
L 3078 1088 
L 3444 1088 
L 3444 0 
L 434 0 
L 434 341 
L 1850 1753 
Q 2319 2222 2519 2614 
Q 2719 3006 2719 3438 
Q 2719 3909 2473 4175 
Q 2228 4441 1797 4441 
Q 1350 4441 1106 4219 
Q 863 3997 819 3553 
z
" transform="scale(0.015625)"/>
       </defs>
       <use xlink:href="#DejaVuSerif-32"/>
       <use xlink:href="#DejaVuSerif-30" x="63.623047"/>
       <use xlink:href="#DejaVuSerif-30" x="127.246094"/>
      </g>
     </g>
    </g>
    <g id="xtick_3">
     <g id="line2d_5">
      <g>
       <use xlink:href="#m1c2054652e" x="298.253982" y="328.42" style="stroke: #000000; stroke-width: 0.5"/>
      </g>
     </g>
     <g id="line2d_6">
      <g>
       <use xlink:href="#mbeee75ad4b" x="298.253982" y="3.6" style="stroke: #000000; stroke-width: 0.5"/>
      </g>
     </g>
     <g id="text_3">
      <!-- 400 -->
      <g transform="translate(288.710232 339.518437) scale(0.1 -0.1)">
       <defs>
        <path id="DejaVuSerif-34" d="M 2234 1581 
L 2234 4063 
L 641 1581 
L 2234 1581 
z
M 3609 0 
L 1484 0 
L 1484 331 
L 2234 331 
L 2234 1247 
L 197 1247 
L 197 1588 
L 2241 4750 
L 2859 4750 
L 2859 1581 
L 3750 1581 
L 3750 1247 
L 2859 1247 
L 2859 331 
L 3609 331 
L 3609 0 
z
" transform="scale(0.015625)"/>
       </defs>
       <use xlink:href="#DejaVuSerif-34"/>
       <use xlink:href="#DejaVuSerif-30" x="63.623047"/>
       <use xlink:href="#DejaVuSerif-30" x="127.246094"/>
      </g>
     </g>
    </g>
    <g id="xtick_4">
     <g id="line2d_7">
      <g>
       <use xlink:href="#m1c2054652e" x="422.2758" y="328.42" style="stroke: #000000; stroke-width: 0.5"/>
      </g>
     </g>
     <g id="line2d_8">
      <g>
       <use xlink:href="#mbeee75ad4b" x="422.2758" y="3.6" style="stroke: #000000; stroke-width: 0.5"/>
      </g>
     </g>
     <g id="text_4">
      <!-- 600 -->
      <g transform="translate(412.73205 339.518437) scale(0.1 -0.1)">
       <defs>
        <path id="DejaVuSerif-36" d="M 2094 219 
Q 2534 219 2771 542 
Q 3009 866 3009 1472 
Q 3009 2078 2771 2401 
Q 2534 2725 2094 2725 
Q 1647 2725 1412 2412 
Q 1178 2100 1178 1509 
Q 1178 888 1415 553 
Q 1653 219 2094 219 
z
M 1075 2569 
Q 1288 2803 1556 2918 
Q 1825 3034 2163 3034 
Q 2859 3034 3264 2615 
Q 3669 2197 3669 1472 
Q 3669 763 3233 336 
Q 2797 -91 2069 -91 
Q 1278 -91 853 498 
Q 428 1088 428 2181 
Q 428 3406 931 4078 
Q 1434 4750 2350 4750 
Q 2597 4750 2869 4703 
Q 3141 4656 3425 4563 
L 3425 3794 
L 3072 3794 
Q 3034 4109 2831 4275 
Q 2628 4441 2284 4441 
Q 1678 4441 1381 3981 
Q 1084 3522 1075 2569 
z
" transform="scale(0.015625)"/>
       </defs>
       <use xlink:href="#DejaVuSerif-36"/>
       <use xlink:href="#DejaVuSerif-30" x="63.623047"/>
       <use xlink:href="#DejaVuSerif-30" x="127.246094"/>
      </g>
     </g>
    </g>
    <g id="xtick_5">
     <g id="line2d_9">
      <g>
       <use xlink:href="#m1c2054652e" x="546.297618" y="328.42" style="stroke: #000000; stroke-width: 0.5"/>
      </g>
     </g>
     <g id="line2d_10">
      <g>
       <use xlink:href="#mbeee75ad4b" x="546.297618" y="3.6" style="stroke: #000000; stroke-width: 0.5"/>
      </g>
     </g>
     <g id="text_5">
      <!-- 800 -->
      <g transform="translate(536.753868 339.518437) scale(0.1 -0.1)">
       <defs>
        <path id="DejaVuSerif-38" d="M 2981 1275 
Q 2981 1775 2732 2051 
Q 2484 2328 2034 2328 
Q 1584 2328 1336 2051 
Q 1088 1775 1088 1275 
Q 1088 772 1336 495 
Q 1584 219 2034 219 
Q 2484 219 2732 495 
Q 2981 772 2981 1275 
z
M 2853 3541 
Q 2853 3966 2637 4203 
Q 2422 4441 2034 4441 
Q 1650 4441 1433 4203 
Q 1216 3966 1216 3541 
Q 1216 3113 1433 2875 
Q 1650 2638 2034 2638 
Q 2422 2638 2637 2875 
Q 2853 3113 2853 3541 
z
M 2516 2484 
Q 3047 2413 3344 2092 
Q 3641 1772 3641 1275 
Q 3641 619 3225 264 
Q 2809 -91 2034 -91 
Q 1263 -91 845 264 
Q 428 619 428 1275 
Q 428 1772 725 2092 
Q 1022 2413 1556 2484 
Q 1084 2569 832 2842 
Q 581 3116 581 3541 
Q 581 4103 968 4426 
Q 1356 4750 2034 4750 
Q 2713 4750 3100 4426 
Q 3488 4103 3488 3541 
Q 3488 3116 3236 2842 
Q 2984 2569 2516 2484 
z
" transform="scale(0.015625)"/>
       </defs>
       <use xlink:href="#DejaVuSerif-38"/>
       <use xlink:href="#DejaVuSerif-30" x="63.623047"/>
       <use xlink:href="#DejaVuSerif-30" x="127.246094"/>
      </g>
     </g>
    </g>
    <g id="xtick_6">
     <g id="line2d_11">
      <g>
       <use xlink:href="#m1c2054652e" x="670.319436" y="328.42" style="stroke: #000000; stroke-width: 0.5"/>
      </g>
     </g>
     <g id="line2d_12">
      <g>
       <use xlink:href="#mbeee75ad4b" x="670.319436" y="3.6" style="stroke: #000000; stroke-width: 0.5"/>
      </g>
     </g>
     <g id="text_6">
      <!-- 1000 -->
      <g transform="translate(657.594436 339.518437) scale(0.1 -0.1)">
       <defs>
        <path id="DejaVuSerif-31" d="M 909 0 
L 909 331 
L 1722 331 
L 1722 4213 
L 781 3603 
L 781 4013 
L 1919 4750 
L 2350 4750 
L 2350 331 
L 3163 331 
L 3163 0 
L 909 0 
z
" transform="scale(0.015625)"/>
       </defs>
       <use xlink:href="#DejaVuSerif-31"/>
       <use xlink:href="#DejaVuSerif-30" x="63.623047"/>
       <use xlink:href="#DejaVuSerif-30" x="127.246094"/>
       <use xlink:href="#DejaVuSerif-30" x="190.869141"/>
      </g>
     </g>
    </g>
    <g id="xtick_7">
     <g id="line2d_13">
      <defs>
       <path id="mf89a0cfd17" d="M 0 0 
L 0 -1.5 
" style="stroke: #000000; stroke-width: 0.5"/>
      </defs>
      <g>
       <use xlink:href="#mf89a0cfd17" x="81.2158" y="328.42" style="stroke: #000000; stroke-width: 0.5"/>
      </g>
     </g>
     <g id="line2d_14">
      <defs>
       <path id="mdcae969d27" d="M 0 0 
L 0 1.5 
" style="stroke: #000000; stroke-width: 0.5"/>
      </defs>
      <g>
       <use xlink:href="#mdcae969d27" x="81.2158" y="3.6" style="stroke: #000000; stroke-width: 0.5"/>
      </g>
     </g>
    </g>
    <g id="xtick_8">
     <g id="line2d_15">
      <g>
       <use xlink:href="#mf89a0cfd17" x="112.221255" y="328.42" style="stroke: #000000; stroke-width: 0.5"/>
      </g>
     </g>
     <g id="line2d_16">
      <g>
       <use xlink:href="#mdcae969d27" x="112.221255" y="3.6" style="stroke: #000000; stroke-width: 0.5"/>
      </g>
     </g>
    </g>
    <g id="xtick_9">
     <g id="line2d_17">
      <g>
       <use xlink:href="#mf89a0cfd17" x="143.226709" y="328.42" style="stroke: #000000; stroke-width: 0.5"/>
      </g>
     </g>
     <g id="line2d_18">
      <g>
       <use xlink:href="#mdcae969d27" x="143.226709" y="3.6" style="stroke: #000000; stroke-width: 0.5"/>
      </g>
     </g>
    </g>
    <g id="xtick_10">
     <g id="line2d_19">
      <g>
       <use xlink:href="#mf89a0cfd17" x="205.237618" y="328.42" style="stroke: #000000; stroke-width: 0.5"/>
      </g>
     </g>
     <g id="line2d_20">
      <g>
       <use xlink:href="#mdcae969d27" x="205.237618" y="3.6" style="stroke: #000000; stroke-width: 0.5"/>
      </g>
     </g>
    </g>
    <g id="xtick_11">
     <g id="line2d_21">
      <g>
       <use xlink:href="#mf89a0cfd17" x="236.243073" y="328.42" style="stroke: #000000; stroke-width: 0.5"/>
      </g>
     </g>
     <g id="line2d_22">
      <g>
       <use xlink:href="#mdcae969d27" x="236.243073" y="3.6" style="stroke: #000000; stroke-width: 0.5"/>
      </g>
     </g>
    </g>
    <g id="xtick_12">
     <g id="line2d_23">
      <g>
       <use xlink:href="#mf89a0cfd17" x="267.248527" y="328.42" style="stroke: #000000; stroke-width: 0.5"/>
      </g>
     </g>
     <g id="line2d_24">
      <g>
       <use xlink:href="#mdcae969d27" x="267.248527" y="3.6" style="stroke: #000000; stroke-width: 0.5"/>
      </g>
     </g>
    </g>
    <g id="xtick_13">
     <g id="line2d_25">
      <g>
       <use xlink:href="#mf89a0cfd17" x="329.259436" y="328.42" style="stroke: #000000; stroke-width: 0.5"/>
      </g>
     </g>
     <g id="line2d_26">
      <g>
       <use xlink:href="#mdcae969d27" x="329.259436" y="3.6" style="stroke: #000000; stroke-width: 0.5"/>
      </g>
     </g>
    </g>
    <g id="xtick_14">
     <g id="line2d_27">
      <g>
       <use xlink:href="#mf89a0cfd17" x="360.264891" y="328.42" style="stroke: #000000; stroke-width: 0.5"/>
      </g>
     </g>
     <g id="line2d_28">
      <g>
       <use xlink:href="#mdcae969d27" x="360.264891" y="3.6" style="stroke: #000000; stroke-width: 0.5"/>
      </g>
     </g>
    </g>
    <g id="xtick_15">
     <g id="line2d_29">
      <g>
       <use xlink:href="#mf89a0cfd17" x="391.270345" y="328.42" style="stroke: #000000; stroke-width: 0.5"/>
      </g>
     </g>
     <g id="line2d_30">
      <g>
       <use xlink:href="#mdcae969d27" x="391.270345" y="3.6" style="stroke: #000000; stroke-width: 0.5"/>
      </g>
     </g>
    </g>
    <g id="xtick_16">
     <g id="line2d_31">
      <g>
       <use xlink:href="#mf89a0cfd17" x="453.281255" y="328.42" style="stroke: #000000; stroke-width: 0.5"/>
      </g>
     </g>
     <g id="line2d_32">
      <g>
       <use xlink:href="#mdcae969d27" x="453.281255" y="3.6" style="stroke: #000000; stroke-width: 0.5"/>
      </g>
     </g>
    </g>
    <g id="xtick_17">
     <g id="line2d_33">
      <g>
       <use xlink:href="#mf89a0cfd17" x="484.286709" y="328.42" style="stroke: #000000; stroke-width: 0.5"/>
      </g>
     </g>
     <g id="line2d_34">
      <g>
       <use xlink:href="#mdcae969d27" x="484.286709" y="3.6" style="stroke: #000000; stroke-width: 0.5"/>
      </g>
     </g>
    </g>
    <g id="xtick_18">
     <g id="line2d_35">
      <g>
       <use xlink:href="#mf89a0cfd17" x="515.292164" y="328.42" style="stroke: #000000; stroke-width: 0.5"/>
      </g>
     </g>
     <g id="line2d_36">
      <g>
       <use xlink:href="#mdcae969d27" x="515.292164" y="3.6" style="stroke: #000000; stroke-width: 0.5"/>
      </g>
     </g>
    </g>
    <g id="xtick_19">
     <g id="line2d_37">
      <g>
       <use xlink:href="#mf89a0cfd17" x="577.303073" y="328.42" style="stroke: #000000; stroke-width: 0.5"/>
      </g>
     </g>
     <g id="line2d_38">
      <g>
       <use xlink:href="#mdcae969d27" x="577.303073" y="3.6" style="stroke: #000000; stroke-width: 0.5"/>
      </g>
     </g>
    </g>
    <g id="xtick_20">
     <g id="line2d_39">
      <g>
       <use xlink:href="#mf89a0cfd17" x="608.308527" y="328.42" style="stroke: #000000; stroke-width: 0.5"/>
      </g>
     </g>
     <g id="line2d_40">
      <g>
       <use xlink:href="#mdcae969d27" x="608.308527" y="3.6" style="stroke: #000000; stroke-width: 0.5"/>
      </g>
     </g>
    </g>
    <g id="xtick_21">
     <g id="line2d_41">
      <g>
       <use xlink:href="#mf89a0cfd17" x="639.313982" y="328.42" style="stroke: #000000; stroke-width: 0.5"/>
      </g>
     </g>
     <g id="line2d_42">
      <g>
       <use xlink:href="#mdcae969d27" x="639.313982" y="3.6" style="stroke: #000000; stroke-width: 0.5"/>
      </g>
     </g>
    </g>
    <g id="xtick_22">
     <g id="line2d_43">
      <g>
       <use xlink:href="#mf89a0cfd17" x="701.324891" y="328.42" style="stroke: #000000; stroke-width: 0.5"/>
      </g>
     </g>
     <g id="line2d_44">
      <g>
       <use xlink:href="#mdcae969d27" x="701.324891" y="3.6" style="stroke: #000000; stroke-width: 0.5"/>
      </g>
     </g>
    </g>
   </g>
   <g id="matplotlib.axis_2">
    <g id="ytick_1">
     <g id="line2d_45">
      <defs>
       <path id="m4b786f1939" d="M 0 0 
L 3 0 
" style="stroke: #000000; stroke-width: 0.5"/>
      </defs>
      <g>
       <use xlink:href="#m4b786f1939" x="19.825" y="313.655455" style="stroke: #000000; stroke-width: 0.5"/>
      </g>
     </g>
     <g id="line2d_46">
      <defs>
       <path id="m216019bfc0" d="M 0 0 
L -3 0 
" style="stroke: #000000; stroke-width: 0.5"/>
      </defs>
      <g>
       <use xlink:href="#m216019bfc0" x="701.945" y="313.655455" style="stroke: #000000; stroke-width: 0.5"/>
      </g>
     </g>
     <g id="text_7">
      <!-- 0 -->
      <g transform="translate(9.9625 317.454673) scale(0.1 -0.1)">
       <use xlink:href="#DejaVuSerif-30"/>
      </g>
     </g>
    </g>
    <g id="ytick_2">
     <g id="line2d_47">
      <g>
       <use xlink:href="#m4b786f1939" x="19.825" y="274.283333" style="stroke: #000000; stroke-width: 0.5"/>
      </g>
     </g>
     <g id="line2d_48">
      <g>
       <use xlink:href="#m216019bfc0" x="701.945" y="274.283333" style="stroke: #000000; stroke-width: 0.5"/>
      </g>
     </g>
     <g id="text_8">
      <!-- 2 -->
      <g transform="translate(9.9625 278.082552) scale(0.1 -0.1)">
       <use xlink:href="#DejaVuSerif-32"/>
      </g>
     </g>
    </g>
    <g id="ytick_3">
     <g id="line2d_49">
      <g>
       <use xlink:href="#m4b786f1939" x="19.825" y="234.911212" style="stroke: #000000; stroke-width: 0.5"/>
      </g>
     </g>
     <g id="line2d_50">
      <g>
       <use xlink:href="#m216019bfc0" x="701.945" y="234.911212" style="stroke: #000000; stroke-width: 0.5"/>
      </g>
     </g>
     <g id="text_9">
      <!-- 4 -->
      <g transform="translate(9.9625 238.710431) scale(0.1 -0.1)">
       <use xlink:href="#DejaVuSerif-34"/>
      </g>
     </g>
    </g>
    <g id="ytick_4">
     <g id="line2d_51">
      <g>
       <use xlink:href="#m4b786f1939" x="19.825" y="195.539091" style="stroke: #000000; stroke-width: 0.5"/>
      </g>
     </g>
     <g id="line2d_52">
      <g>
       <use xlink:href="#m216019bfc0" x="701.945" y="195.539091" style="stroke: #000000; stroke-width: 0.5"/>
      </g>
     </g>
     <g id="text_10">
      <!-- 6 -->
      <g transform="translate(9.9625 199.33831) scale(0.1 -0.1)">
       <use xlink:href="#DejaVuSerif-36"/>
      </g>
     </g>
    </g>
    <g id="ytick_5">
     <g id="line2d_53">
      <g>
       <use xlink:href="#m4b786f1939" x="19.825" y="156.16697" style="stroke: #000000; stroke-width: 0.5"/>
      </g>
     </g>
     <g id="line2d_54">
      <g>
       <use xlink:href="#m216019bfc0" x="701.945" y="156.16697" style="stroke: #000000; stroke-width: 0.5"/>
      </g>
     </g>
     <g id="text_11">
      <!-- 8 -->
      <g transform="translate(9.9625 159.966188) scale(0.1 -0.1)">
       <use xlink:href="#DejaVuSerif-38"/>
      </g>
     </g>
    </g>
    <g id="ytick_6">
     <g id="line2d_55">
      <g>
       <use xlink:href="#m4b786f1939" x="19.825" y="116.794848" style="stroke: #000000; stroke-width: 0.5"/>
      </g>
     </g>
     <g id="line2d_56">
      <g>
       <use xlink:href="#m216019bfc0" x="701.945" y="116.794848" style="stroke: #000000; stroke-width: 0.5"/>
      </g>
     </g>
     <g id="text_12">
      <!-- 10 -->
      <g transform="translate(3.6 120.594067) scale(0.1 -0.1)">
       <use xlink:href="#DejaVuSerif-31"/>
       <use xlink:href="#DejaVuSerif-30" x="63.623047"/>
      </g>
     </g>
    </g>
    <g id="ytick_7">
     <g id="line2d_57">
      <g>
       <use xlink:href="#m4b786f1939" x="19.825" y="77.422727" style="stroke: #000000; stroke-width: 0.5"/>
      </g>
     </g>
     <g id="line2d_58">
      <g>
       <use xlink:href="#m216019bfc0" x="701.945" y="77.422727" style="stroke: #000000; stroke-width: 0.5"/>
      </g>
     </g>
     <g id="text_13">
      <!-- 12 -->
      <g transform="translate(3.6 81.221946) scale(0.1 -0.1)">
       <use xlink:href="#DejaVuSerif-31"/>
       <use xlink:href="#DejaVuSerif-32" x="63.623047"/>
      </g>
     </g>
    </g>
    <g id="ytick_8">
     <g id="line2d_59">
      <g>
       <use xlink:href="#m4b786f1939" x="19.825" y="38.050606" style="stroke: #000000; stroke-width: 0.5"/>
      </g>
     </g>
     <g id="line2d_60">
      <g>
       <use xlink:href="#m216019bfc0" x="701.945" y="38.050606" style="stroke: #000000; stroke-width: 0.5"/>
      </g>
     </g>
     <g id="text_14">
      <!-- 14 -->
      <g transform="translate(3.6 41.849825) scale(0.1 -0.1)">
       <use xlink:href="#DejaVuSerif-31"/>
       <use xlink:href="#DejaVuSerif-34" x="63.623047"/>
      </g>
     </g>
    </g>
    <g id="ytick_9">
     <g id="line2d_61">
      <defs>
       <path id="mb0d9228210" d="M 0 0 
L 1.5 0 
" style="stroke: #000000; stroke-width: 0.5"/>
      </defs>
      <g>
       <use xlink:href="#mb0d9228210" x="19.825" y="323.498485" style="stroke: #000000; stroke-width: 0.5"/>
      </g>
     </g>
     <g id="line2d_62">
      <defs>
       <path id="mdcb903c152" d="M 0 0 
L -1.5 0 
" style="stroke: #000000; stroke-width: 0.5"/>
      </defs>
      <g>
       <use xlink:href="#mdcb903c152" x="701.945" y="323.498485" style="stroke: #000000; stroke-width: 0.5"/>
      </g>
     </g>
    </g>
    <g id="ytick_10">
     <g id="line2d_63">
      <g>
       <use xlink:href="#mb0d9228210" x="19.825" y="303.812424" style="stroke: #000000; stroke-width: 0.5"/>
      </g>
     </g>
     <g id="line2d_64">
      <g>
       <use xlink:href="#mdcb903c152" x="701.945" y="303.812424" style="stroke: #000000; stroke-width: 0.5"/>
      </g>
     </g>
    </g>
    <g id="ytick_11">
     <g id="line2d_65">
      <g>
       <use xlink:href="#mb0d9228210" x="19.825" y="293.969394" style="stroke: #000000; stroke-width: 0.5"/>
      </g>
     </g>
     <g id="line2d_66">
      <g>
       <use xlink:href="#mdcb903c152" x="701.945" y="293.969394" style="stroke: #000000; stroke-width: 0.5"/>
      </g>
     </g>
    </g>
    <g id="ytick_12">
     <g id="line2d_67">
      <g>
       <use xlink:href="#mb0d9228210" x="19.825" y="284.126364" style="stroke: #000000; stroke-width: 0.5"/>
      </g>
     </g>
     <g id="line2d_68">
      <g>
       <use xlink:href="#mdcb903c152" x="701.945" y="284.126364" style="stroke: #000000; stroke-width: 0.5"/>
      </g>
     </g>
    </g>
    <g id="ytick_13">
     <g id="line2d_69">
      <g>
       <use xlink:href="#mb0d9228210" x="19.825" y="264.440303" style="stroke: #000000; stroke-width: 0.5"/>
      </g>
     </g>
     <g id="line2d_70">
      <g>
       <use xlink:href="#mdcb903c152" x="701.945" y="264.440303" style="stroke: #000000; stroke-width: 0.5"/>
      </g>
     </g>
    </g>
    <g id="ytick_14">
     <g id="line2d_71">
      <g>
       <use xlink:href="#mb0d9228210" x="19.825" y="254.597273" style="stroke: #000000; stroke-width: 0.5"/>
      </g>
     </g>
     <g id="line2d_72">
      <g>
       <use xlink:href="#mdcb903c152" x="701.945" y="254.597273" style="stroke: #000000; stroke-width: 0.5"/>
      </g>
     </g>
    </g>
    <g id="ytick_15">
     <g id="line2d_73">
      <g>
       <use xlink:href="#mb0d9228210" x="19.825" y="244.754242" style="stroke: #000000; stroke-width: 0.5"/>
      </g>
     </g>
     <g id="line2d_74">
      <g>
       <use xlink:href="#mdcb903c152" x="701.945" y="244.754242" style="stroke: #000000; stroke-width: 0.5"/>
      </g>
     </g>
    </g>
    <g id="ytick_16">
     <g id="line2d_75">
      <g>
       <use xlink:href="#mb0d9228210" x="19.825" y="225.068182" style="stroke: #000000; stroke-width: 0.5"/>
      </g>
     </g>
     <g id="line2d_76">
      <g>
       <use xlink:href="#mdcb903c152" x="701.945" y="225.068182" style="stroke: #000000; stroke-width: 0.5"/>
      </g>
     </g>
    </g>
    <g id="ytick_17">
     <g id="line2d_77">
      <g>
       <use xlink:href="#mb0d9228210" x="19.825" y="215.225152" style="stroke: #000000; stroke-width: 0.5"/>
      </g>
     </g>
     <g id="line2d_78">
      <g>
       <use xlink:href="#mdcb903c152" x="701.945" y="215.225152" style="stroke: #000000; stroke-width: 0.5"/>
      </g>
     </g>
    </g>
    <g id="ytick_18">
     <g id="line2d_79">
      <g>
       <use xlink:href="#mb0d9228210" x="19.825" y="205.382121" style="stroke: #000000; stroke-width: 0.5"/>
      </g>
     </g>
     <g id="line2d_80">
      <g>
       <use xlink:href="#mdcb903c152" x="701.945" y="205.382121" style="stroke: #000000; stroke-width: 0.5"/>
      </g>
     </g>
    </g>
    <g id="ytick_19">
     <g id="line2d_81">
      <g>
       <use xlink:href="#mb0d9228210" x="19.825" y="185.696061" style="stroke: #000000; stroke-width: 0.5"/>
      </g>
     </g>
     <g id="line2d_82">
      <g>
       <use xlink:href="#mdcb903c152" x="701.945" y="185.696061" style="stroke: #000000; stroke-width: 0.5"/>
      </g>
     </g>
    </g>
    <g id="ytick_20">
     <g id="line2d_83">
      <g>
       <use xlink:href="#mb0d9228210" x="19.825" y="175.85303" style="stroke: #000000; stroke-width: 0.5"/>
      </g>
     </g>
     <g id="line2d_84">
      <g>
       <use xlink:href="#mdcb903c152" x="701.945" y="175.85303" style="stroke: #000000; stroke-width: 0.5"/>
      </g>
     </g>
    </g>
    <g id="ytick_21">
     <g id="line2d_85">
      <g>
       <use xlink:href="#mb0d9228210" x="19.825" y="166.01" style="stroke: #000000; stroke-width: 0.5"/>
      </g>
     </g>
     <g id="line2d_86">
      <g>
       <use xlink:href="#mdcb903c152" x="701.945" y="166.01" style="stroke: #000000; stroke-width: 0.5"/>
      </g>
     </g>
    </g>
    <g id="ytick_22">
     <g id="line2d_87">
      <g>
       <use xlink:href="#mb0d9228210" x="19.825" y="146.323939" style="stroke: #000000; stroke-width: 0.5"/>
      </g>
     </g>
     <g id="line2d_88">
      <g>
       <use xlink:href="#mdcb903c152" x="701.945" y="146.323939" style="stroke: #000000; stroke-width: 0.5"/>
      </g>
     </g>
    </g>
    <g id="ytick_23">
     <g id="line2d_89">
      <g>
       <use xlink:href="#mb0d9228210" x="19.825" y="136.480909" style="stroke: #000000; stroke-width: 0.5"/>
      </g>
     </g>
     <g id="line2d_90">
      <g>
       <use xlink:href="#mdcb903c152" x="701.945" y="136.480909" style="stroke: #000000; stroke-width: 0.5"/>
      </g>
     </g>
    </g>
    <g id="ytick_24">
     <g id="line2d_91">
      <g>
       <use xlink:href="#mb0d9228210" x="19.825" y="126.637879" style="stroke: #000000; stroke-width: 0.5"/>
      </g>
     </g>
     <g id="line2d_92">
      <g>
       <use xlink:href="#mdcb903c152" x="701.945" y="126.637879" style="stroke: #000000; stroke-width: 0.5"/>
      </g>
     </g>
    </g>
    <g id="ytick_25">
     <g id="line2d_93">
      <g>
       <use xlink:href="#mb0d9228210" x="19.825" y="106.951818" style="stroke: #000000; stroke-width: 0.5"/>
      </g>
     </g>
     <g id="line2d_94">
      <g>
       <use xlink:href="#mdcb903c152" x="701.945" y="106.951818" style="stroke: #000000; stroke-width: 0.5"/>
      </g>
     </g>
    </g>
    <g id="ytick_26">
     <g id="line2d_95">
      <g>
       <use xlink:href="#mb0d9228210" x="19.825" y="97.108788" style="stroke: #000000; stroke-width: 0.5"/>
      </g>
     </g>
     <g id="line2d_96">
      <g>
       <use xlink:href="#mdcb903c152" x="701.945" y="97.108788" style="stroke: #000000; stroke-width: 0.5"/>
      </g>
     </g>
    </g>
    <g id="ytick_27">
     <g id="line2d_97">
      <g>
       <use xlink:href="#mb0d9228210" x="19.825" y="87.265758" style="stroke: #000000; stroke-width: 0.5"/>
      </g>
     </g>
     <g id="line2d_98">
      <g>
       <use xlink:href="#mdcb903c152" x="701.945" y="87.265758" style="stroke: #000000; stroke-width: 0.5"/>
      </g>
     </g>
    </g>
    <g id="ytick_28">
     <g id="line2d_99">
      <g>
       <use xlink:href="#mb0d9228210" x="19.825" y="67.579697" style="stroke: #000000; stroke-width: 0.5"/>
      </g>
     </g>
     <g id="line2d_100">
      <g>
       <use xlink:href="#mdcb903c152" x="701.945" y="67.579697" style="stroke: #000000; stroke-width: 0.5"/>
      </g>
     </g>
    </g>
    <g id="ytick_29">
     <g id="line2d_101">
      <g>
       <use xlink:href="#mb0d9228210" x="19.825" y="57.736667" style="stroke: #000000; stroke-width: 0.5"/>
      </g>
     </g>
     <g id="line2d_102">
      <g>
       <use xlink:href="#mdcb903c152" x="701.945" y="57.736667" style="stroke: #000000; stroke-width: 0.5"/>
      </g>
     </g>
    </g>
    <g id="ytick_30">
     <g id="line2d_103">
      <g>
       <use xlink:href="#mb0d9228210" x="19.825" y="47.893636" style="stroke: #000000; stroke-width: 0.5"/>
      </g>
     </g>
     <g id="line2d_104">
      <g>
       <use xlink:href="#mdcb903c152" x="701.945" y="47.893636" style="stroke: #000000; stroke-width: 0.5"/>
      </g>
     </g>
    </g>
    <g id="ytick_31">
     <g id="line2d_105">
      <g>
       <use xlink:href="#mb0d9228210" x="19.825" y="28.207576" style="stroke: #000000; stroke-width: 0.5"/>
      </g>
     </g>
     <g id="line2d_106">
      <g>
       <use xlink:href="#mdcb903c152" x="701.945" y="28.207576" style="stroke: #000000; stroke-width: 0.5"/>
      </g>
     </g>
    </g>
    <g id="ytick_32">
     <g id="line2d_107">
      <g>
       <use xlink:href="#mb0d9228210" x="19.825" y="18.364545" style="stroke: #000000; stroke-width: 0.5"/>
      </g>
     </g>
     <g id="line2d_108">
      <g>
       <use xlink:href="#mdcb903c152" x="701.945" y="18.364545" style="stroke: #000000; stroke-width: 0.5"/>
      </g>
     </g>
    </g>
    <g id="ytick_33">
     <g id="line2d_109">
      <g>
       <use xlink:href="#mb0d9228210" x="19.825" y="8.521515" style="stroke: #000000; stroke-width: 0.5"/>
      </g>
     </g>
     <g id="line2d_110">
      <g>
       <use xlink:href="#mdcb903c152" x="701.945" y="8.521515" style="stroke: #000000; stroke-width: 0.5"/>
      </g>
     </g>
    </g>
   </g>
   <g id="line2d_111">
    <path d="M 50.830455 313.655455 
L 53.310891 313.655455 
L 53.931 293.969394 
L 54.551109 293.969394 
L 55.171218 234.911212 
L 55.791327 215.225152 
L 56.411436 215.225152 
L 57.031545 175.85303 
L 57.651655 156.16697 
L 58.271764 215.225152 
L 58.891873 234.911212 
L 59.511982 274.283333 
L 60.132091 293.969394 
L 60.7522 215.225152 
L 61.372309 175.85303 
L 62.612527 215.225152 
L 63.852745 175.85303 
L 64.472855 234.911212 
L 65.092964 274.283333 
L 65.713073 234.911212 
L 66.333182 234.911212 
L 66.953291 195.539091 
L 67.5734 175.85303 
L 68.193509 97.108788 
L 69.433727 97.108788 
L 70.053836 156.16697 
L 70.673945 195.539091 
L 71.294055 175.85303 
L 71.914164 195.539091 
L 72.534273 195.539091 
L 73.154382 175.85303 
L 73.774491 136.480909 
L 74.3946 116.794848 
L 75.634818 195.539091 
L 76.254927 215.225152 
L 76.875036 156.16697 
L 78.115255 156.16697 
L 78.735364 175.85303 
L 79.355473 156.16697 
L 80.595691 274.283333 
L 81.2158 254.597273 
L 81.835909 195.539091 
L 82.456018 156.16697 
L 83.076127 195.539091 
L 83.696236 175.85303 
L 84.316345 175.85303 
L 84.936455 156.16697 
L 85.556564 195.539091 
L 86.176673 215.225152 
L 86.796782 274.283333 
L 87.416891 215.225152 
L 88.037 215.225152 
L 88.657109 116.794848 
L 89.277218 97.108788 
L 89.897327 136.480909 
L 90.517436 97.108788 
L 91.137545 195.539091 
L 91.757655 175.85303 
L 92.997873 254.597273 
L 93.617982 234.911212 
L 94.238091 195.539091 
L 94.8582 234.911212 
L 95.478309 234.911212 
L 96.098418 195.539091 
L 96.718527 215.225152 
L 97.338636 175.85303 
L 97.958745 175.85303 
L 98.578855 77.422727 
L 99.198964 116.794848 
L 99.819073 175.85303 
L 100.439182 195.539091 
L 101.059291 195.539091 
L 101.6794 175.85303 
L 102.299509 195.539091 
L 102.919618 175.85303 
L 103.539727 195.539091 
L 104.159836 195.539091 
L 105.400055 156.16697 
L 106.020164 156.16697 
L 106.640273 195.539091 
L 107.260382 195.539091 
L 107.880491 274.283333 
L 108.5006 234.911212 
L 109.120709 215.225152 
L 109.740818 156.16697 
L 110.360927 156.16697 
L 110.981036 195.539091 
L 112.221255 195.539091 
L 112.841364 234.911212 
L 113.461473 195.539091 
L 114.081582 234.911212 
L 114.701691 254.597273 
L 115.941909 215.225152 
L 116.562018 234.911212 
L 117.182127 234.911212 
L 117.802236 156.16697 
L 118.422345 136.480909 
L 119.042455 195.539091 
L 119.662564 156.16697 
L 120.902782 156.16697 
L 121.522891 136.480909 
L 122.763109 215.225152 
L 123.383218 215.225152 
L 124.003327 136.480909 
L 124.623436 97.108788 
L 125.243545 38.050606 
L 125.863655 57.736667 
L 126.483764 116.794848 
L 127.103873 195.539091 
L 127.723982 195.539091 
L 128.344091 234.911212 
L 128.9642 195.539091 
L 129.584309 195.539091 
L 130.204418 215.225152 
L 130.824527 156.16697 
L 131.444636 136.480909 
L 132.064745 136.480909 
L 132.684855 175.85303 
L 133.925073 175.85303 
L 134.545182 156.16697 
L 135.165291 77.422727 
L 136.405509 116.794848 
L 137.025618 175.85303 
L 137.645727 215.225152 
L 138.265836 274.283333 
L 138.885945 234.911212 
L 139.506055 175.85303 
L 140.126164 156.16697 
L 140.746273 156.16697 
L 141.986491 195.539091 
L 142.6066 175.85303 
L 143.226709 195.539091 
L 143.846818 234.911212 
L 144.466927 215.225152 
L 145.087036 234.911212 
L 145.707145 195.539091 
L 146.327255 215.225152 
L 146.947364 195.539091 
L 147.567473 195.539091 
L 148.187582 175.85303 
L 148.807691 136.480909 
L 150.047909 136.480909 
L 150.668018 116.794848 
L 151.288127 116.794848 
L 151.908236 195.539091 
L 152.528345 116.794848 
L 153.148455 136.480909 
L 153.768564 136.480909 
L 154.388673 175.85303 
L 155.008782 254.597273 
L 155.628891 254.597273 
L 156.869109 175.85303 
L 157.489218 175.85303 
L 158.109327 195.539091 
L 158.729436 175.85303 
L 159.349545 97.108788 
L 159.969655 156.16697 
L 160.589764 195.539091 
L 161.209873 175.85303 
L 161.829982 234.911212 
L 163.0702 234.911212 
L 163.690309 156.16697 
L 164.930527 77.422727 
L 165.550636 136.480909 
L 166.170745 156.16697 
L 166.790855 195.539091 
L 167.410964 215.225152 
L 168.031073 195.539091 
L 168.651182 97.108788 
L 169.271291 77.422727 
L 170.511509 77.422727 
L 171.131618 136.480909 
L 172.371836 215.225152 
L 172.991945 195.539091 
L 173.612055 97.108788 
L 174.232164 136.480909 
L 174.852273 156.16697 
L 175.472382 136.480909 
L 176.092491 215.225152 
L 176.7126 215.225152 
L 177.332709 156.16697 
L 177.952818 195.539091 
L 178.572927 195.539091 
L 179.193036 156.16697 
L 180.433255 116.794848 
L 181.053364 156.16697 
L 181.673473 215.225152 
L 182.293582 175.85303 
L 182.913691 156.16697 
L 184.153909 195.539091 
L 184.774018 156.16697 
L 185.394127 156.16697 
L 186.634345 116.794848 
L 187.254455 215.225152 
L 187.874564 254.597273 
L 188.494673 274.283333 
L 189.114782 215.225152 
L 189.734891 175.85303 
L 190.355 175.85303 
L 190.975109 195.539091 
L 191.595218 175.85303 
L 192.215327 175.85303 
L 192.835436 156.16697 
L 193.455545 175.85303 
L 194.075655 215.225152 
L 194.695764 234.911212 
L 195.315873 156.16697 
L 197.796309 77.422727 
L 199.036527 116.794848 
L 199.656636 97.108788 
L 200.276745 156.16697 
L 200.896855 156.16697 
L 201.516964 195.539091 
L 202.137073 136.480909 
L 202.757182 156.16697 
L 203.377291 136.480909 
L 203.9974 195.539091 
L 204.617509 136.480909 
L 205.237618 175.85303 
L 205.857727 175.85303 
L 206.477836 156.16697 
L 207.097945 175.85303 
L 207.718055 215.225152 
L 208.338164 156.16697 
L 208.958273 175.85303 
L 209.578382 175.85303 
L 211.438709 116.794848 
L 212.058818 175.85303 
L 212.678927 175.85303 
L 213.299036 195.539091 
L 213.919145 195.539091 
L 214.539255 234.911212 
L 215.159364 195.539091 
L 215.779473 195.539091 
L 216.399582 156.16697 
L 217.019691 156.16697 
L 217.6398 116.794848 
L 218.259909 116.794848 
L 218.880018 136.480909 
L 220.120236 254.597273 
L 220.740345 215.225152 
L 221.360455 136.480909 
L 221.980564 97.108788 
L 222.600673 136.480909 
L 223.220782 156.16697 
L 223.840891 215.225152 
L 225.081109 175.85303 
L 225.701218 77.422727 
L 226.321327 77.422727 
L 226.941436 136.480909 
L 227.561545 136.480909 
L 228.181655 195.539091 
L 228.801764 195.539091 
L 229.421873 116.794848 
L 230.041982 77.422727 
L 231.902309 136.480909 
L 232.522418 175.85303 
L 233.142527 195.539091 
L 233.762636 136.480909 
L 234.382745 156.16697 
L 235.002855 215.225152 
L 235.622964 175.85303 
L 236.243073 175.85303 
L 238.1034 234.911212 
L 239.343618 195.539091 
L 239.963727 156.16697 
L 240.583836 195.539091 
L 241.203945 175.85303 
L 241.824055 195.539091 
L 242.444164 195.539091 
L 243.064273 234.911212 
L 243.684382 156.16697 
L 244.9246 116.794848 
L 246.164818 195.539091 
L 246.784927 195.539091 
L 247.405036 136.480909 
L 248.025145 175.85303 
L 249.265364 215.225152 
L 249.885473 254.597273 
L 250.505582 274.283333 
L 251.7458 274.283333 
L 252.365909 156.16697 
L 252.986018 97.108788 
L 253.606127 136.480909 
L 254.226236 97.108788 
L 255.466455 175.85303 
L 256.086564 156.16697 
L 256.706673 215.225152 
L 257.326782 254.597273 
L 257.946891 274.283333 
L 258.567 234.911212 
L 259.187109 175.85303 
L 259.807218 175.85303 
L 260.427327 136.480909 
L 261.047436 136.480909 
L 261.667545 156.16697 
L 262.287655 156.16697 
L 262.907764 116.794848 
L 263.527873 57.736667 
L 264.147982 97.108788 
L 264.768091 175.85303 
L 265.3882 175.85303 
L 266.008309 215.225152 
L 266.628418 234.911212 
L 267.248527 136.480909 
L 267.868636 136.480909 
L 268.488745 156.16697 
L 269.108855 234.911212 
L 270.349073 274.283333 
L 270.969182 274.283333 
L 271.589291 215.225152 
L 272.2094 195.539091 
L 272.829509 156.16697 
L 273.449618 175.85303 
L 274.069727 215.225152 
L 274.689836 234.911212 
L 275.309945 215.225152 
L 275.930055 234.911212 
L 277.170273 116.794848 
L 277.790382 116.794848 
L 279.0306 77.422727 
L 279.650709 195.539091 
L 280.270818 175.85303 
L 282.131145 234.911212 
L 282.751255 215.225152 
L 283.991473 254.597273 
L 284.611582 234.911212 
L 285.231691 175.85303 
L 286.471909 175.85303 
L 287.092018 215.225152 
L 287.712127 195.539091 
L 288.332236 156.16697 
L 288.952345 136.480909 
L 289.572455 97.108788 
L 291.432782 97.108788 
L 292.052891 175.85303 
L 293.913218 116.794848 
L 294.533327 195.539091 
L 295.773545 234.911212 
L 296.393655 215.225152 
L 297.013764 156.16697 
L 297.633873 156.16697 
L 298.253982 116.794848 
L 298.874091 156.16697 
L 299.4942 234.911212 
L 300.114309 215.225152 
L 300.734418 215.225152 
L 301.354527 195.539091 
L 301.974636 116.794848 
L 302.594745 136.480909 
L 303.214855 136.480909 
L 303.834964 97.108788 
L 304.455073 136.480909 
L 305.075182 215.225152 
L 305.695291 234.911212 
L 306.3154 195.539091 
L 306.935509 77.422727 
L 307.555618 97.108788 
L 308.175727 136.480909 
L 308.795836 116.794848 
L 309.415945 136.480909 
L 310.036055 215.225152 
L 310.656164 116.794848 
L 311.276273 195.539091 
L 311.896382 234.911212 
L 312.516491 215.225152 
L 313.1366 234.911212 
L 313.756709 156.16697 
L 314.376818 175.85303 
L 314.996927 18.364545 
L 315.617036 97.108788 
L 316.237145 136.480909 
L 316.857255 195.539091 
L 317.477364 234.911212 
L 318.717582 195.539091 
L 319.337691 156.16697 
L 319.9578 234.911212 
L 320.577909 215.225152 
L 321.198018 215.225152 
L 321.818127 175.85303 
L 322.438236 195.539091 
L 323.058345 175.85303 
L 323.678455 175.85303 
L 324.298564 195.539091 
L 324.918673 195.539091 
L 325.538782 175.85303 
L 326.158891 195.539091 
L 326.779 77.422727 
L 327.399109 97.108788 
L 328.019218 77.422727 
L 328.639327 97.108788 
L 329.259436 77.422727 
L 329.879545 195.539091 
L 330.499655 234.911212 
L 331.119764 254.597273 
L 331.739873 175.85303 
L 332.359982 156.16697 
L 332.980091 195.539091 
L 334.220309 234.911212 
L 334.840418 215.225152 
L 335.460527 156.16697 
L 336.080636 195.539091 
L 336.700745 195.539091 
L 337.320855 234.911212 
L 337.940964 175.85303 
L 339.181182 215.225152 
L 341.661618 136.480909 
L 342.281727 77.422727 
L 342.901836 38.050606 
L 343.521945 38.050606 
L 344.142055 136.480909 
L 344.762164 195.539091 
L 345.382273 97.108788 
L 346.002382 116.794848 
L 347.2426 116.794848 
L 347.862709 136.480909 
L 348.482818 195.539091 
L 349.102927 215.225152 
L 349.723036 254.597273 
L 350.343145 195.539091 
L 351.583364 234.911212 
L 352.203473 175.85303 
L 352.823582 175.85303 
L 353.443691 116.794848 
L 354.0638 97.108788 
L 354.683909 57.736667 
L 355.304018 136.480909 
L 355.924127 175.85303 
L 356.544236 156.16697 
L 357.164345 175.85303 
L 357.784455 136.480909 
L 358.404564 175.85303 
L 359.024673 136.480909 
L 359.644782 156.16697 
L 360.264891 136.480909 
L 360.885 175.85303 
L 361.505109 116.794848 
L 362.125218 195.539091 
L 363.365436 234.911212 
L 364.605655 234.911212 
L 365.225764 274.283333 
L 365.845873 274.283333 
L 367.7062 156.16697 
L 368.946418 156.16697 
L 369.566527 116.794848 
L 370.186636 156.16697 
L 370.806745 156.16697 
L 371.426855 116.794848 
L 372.046964 136.480909 
L 372.667073 116.794848 
L 373.287182 136.480909 
L 373.907291 195.539091 
L 374.5274 195.539091 
L 375.147509 215.225152 
L 375.767618 136.480909 
L 376.387727 116.794848 
L 377.007836 116.794848 
L 377.627945 215.225152 
L 378.248055 234.911212 
L 378.868164 175.85303 
L 379.488273 156.16697 
L 380.728491 195.539091 
L 381.3486 254.597273 
L 381.968709 254.597273 
L 382.588818 234.911212 
L 383.208927 156.16697 
L 383.829036 175.85303 
L 384.449145 175.85303 
L 385.069255 156.16697 
L 386.929582 156.16697 
L 387.549691 195.539091 
L 388.789909 234.911212 
L 390.030127 234.911212 
L 390.650236 215.225152 
L 391.270345 136.480909 
L 391.890455 175.85303 
L 392.510564 77.422727 
L 393.130673 156.16697 
L 393.750782 77.422727 
L 394.370891 116.794848 
L 394.991 215.225152 
L 395.611109 175.85303 
L 396.231218 215.225152 
L 397.471436 175.85303 
L 398.091545 175.85303 
L 398.711655 97.108788 
L 399.331764 57.736667 
L 399.951873 77.422727 
L 400.571982 136.480909 
L 401.192091 156.16697 
L 401.8122 156.16697 
L 403.052418 195.539091 
L 403.672527 195.539091 
L 404.292636 234.911212 
L 404.912745 234.911212 
L 406.152964 195.539091 
L 406.773073 156.16697 
L 407.393182 215.225152 
L 408.013291 215.225152 
L 408.6334 195.539091 
L 409.253509 215.225152 
L 409.873618 156.16697 
L 411.113836 195.539091 
L 411.733945 234.911212 
L 412.354055 215.225152 
L 413.594273 254.597273 
L 414.214382 215.225152 
L 414.834491 234.911212 
L 415.4546 215.225152 
L 416.074709 136.480909 
L 416.694818 136.480909 
L 417.314927 195.539091 
L 417.935036 195.539091 
L 418.555145 175.85303 
L 419.175255 136.480909 
L 420.415473 136.480909 
L 422.2758 77.422727 
L 422.895909 195.539091 
L 423.516018 156.16697 
L 424.136127 175.85303 
L 424.756236 175.85303 
L 425.376345 195.539091 
L 425.996455 175.85303 
L 426.616564 215.225152 
L 427.236673 175.85303 
L 427.856782 195.539091 
L 428.476891 195.539091 
L 429.097 136.480909 
L 429.717109 116.794848 
L 430.337218 156.16697 
L 430.957327 175.85303 
L 431.577436 274.283333 
L 432.197545 274.283333 
L 432.817655 215.225152 
L 434.057873 215.225152 
L 435.298091 254.597273 
L 435.9182 234.911212 
L 436.538309 234.911212 
L 437.158418 195.539091 
L 437.778527 234.911212 
L 438.398636 175.85303 
L 439.018745 175.85303 
L 439.638855 215.225152 
L 440.258964 215.225152 
L 440.879073 156.16697 
L 441.499182 195.539091 
L 442.119291 195.539091 
L 442.7394 215.225152 
L 443.359509 215.225152 
L 443.979618 254.597273 
L 444.599727 195.539091 
L 445.219836 156.16697 
L 445.839945 234.911212 
L 446.460055 215.225152 
L 447.080164 254.597273 
L 447.700273 175.85303 
L 448.320382 175.85303 
L 448.940491 156.16697 
L 449.5606 234.911212 
L 450.180709 234.911212 
L 450.800818 175.85303 
L 451.420927 156.16697 
L 452.041036 156.16697 
L 452.661145 195.539091 
L 453.281255 215.225152 
L 453.901364 195.539091 
L 454.521473 156.16697 
L 455.141582 77.422727 
L 455.761691 38.050606 
L 456.3818 116.794848 
L 457.001909 116.794848 
L 458.242127 195.539091 
L 458.862236 215.225152 
L 459.482345 215.225152 
L 460.102455 175.85303 
L 460.722564 215.225152 
L 461.962782 254.597273 
L 462.582891 156.16697 
L 463.203 175.85303 
L 463.823109 77.422727 
L 464.443218 97.108788 
L 465.063327 156.16697 
L 465.683436 156.16697 
L 466.303545 136.480909 
L 466.923655 156.16697 
L 467.543764 195.539091 
L 468.163873 215.225152 
L 468.783982 97.108788 
L 470.644309 156.16697 
L 471.264418 136.480909 
L 472.504636 136.480909 
L 473.124745 77.422727 
L 473.744855 77.422727 
L 475.605182 254.597273 
L 476.225291 254.597273 
L 477.465509 175.85303 
L 478.085618 175.85303 
L 478.705727 156.16697 
L 479.325836 116.794848 
L 480.566055 234.911212 
L 481.806273 195.539091 
L 482.426382 156.16697 
L 483.046491 234.911212 
L 483.6666 234.911212 
L 484.286709 195.539091 
L 484.906818 116.794848 
L 485.526927 97.108788 
L 486.147036 215.225152 
L 486.767145 254.597273 
L 487.387255 116.794848 
L 488.007364 57.736667 
L 488.627473 116.794848 
L 489.247582 156.16697 
L 489.867691 175.85303 
L 490.4878 156.16697 
L 491.107909 175.85303 
L 491.728018 215.225152 
L 492.348127 234.911212 
L 492.968236 215.225152 
L 493.588345 215.225152 
L 494.208455 234.911212 
L 495.448673 234.911212 
L 496.068782 254.597273 
L 496.688891 215.225152 
L 497.309 136.480909 
L 497.929109 175.85303 
L 498.549218 195.539091 
L 499.169327 254.597273 
L 500.409545 215.225152 
L 501.649764 254.597273 
L 502.269873 293.969394 
L 502.889982 254.597273 
L 504.1302 97.108788 
L 504.750309 136.480909 
L 505.370418 215.225152 
L 505.990527 175.85303 
L 506.610636 234.911212 
L 507.230745 215.225152 
L 507.850855 234.911212 
L 508.470964 234.911212 
L 509.091073 215.225152 
L 509.711182 215.225152 
L 510.331291 175.85303 
L 510.9514 175.85303 
L 512.191618 254.597273 
L 512.811727 254.597273 
L 513.431836 274.283333 
L 514.051945 195.539091 
L 514.672055 175.85303 
L 515.292164 175.85303 
L 515.912273 156.16697 
L 516.532382 156.16697 
L 517.152491 175.85303 
L 518.392709 175.85303 
L 519.012818 234.911212 
L 519.632927 234.911212 
L 520.253036 254.597273 
L 520.873145 215.225152 
L 521.493255 156.16697 
L 522.113364 156.16697 
L 522.733473 175.85303 
L 523.353582 136.480909 
L 523.973691 215.225152 
L 524.5938 175.85303 
L 525.213909 195.539091 
L 525.834018 136.480909 
L 526.454127 116.794848 
L 528.314455 234.911212 
L 529.554673 195.539091 
L 530.174782 234.911212 
L 530.794891 215.225152 
L 531.415 175.85303 
L 532.035109 156.16697 
L 532.655218 175.85303 
L 533.275327 175.85303 
L 533.895436 215.225152 
L 535.135655 215.225152 
L 535.755764 195.539091 
L 536.375873 195.539091 
L 536.995982 175.85303 
L 537.616091 116.794848 
L 538.2362 97.108788 
L 538.856309 175.85303 
L 539.476418 136.480909 
L 540.096527 175.85303 
L 540.716636 136.480909 
L 541.336745 175.85303 
L 541.956855 175.85303 
L 543.197073 215.225152 
L 543.817182 254.597273 
L 544.437291 215.225152 
L 545.0574 215.225152 
L 545.677509 195.539091 
L 546.297618 156.16697 
L 546.917727 175.85303 
L 547.537836 136.480909 
L 548.157945 195.539091 
L 548.778055 156.16697 
L 549.398164 136.480909 
L 550.638382 136.480909 
L 551.258491 97.108788 
L 551.8786 136.480909 
L 552.498709 156.16697 
L 553.118818 195.539091 
L 553.738927 215.225152 
L 554.359036 136.480909 
L 554.979145 195.539091 
L 555.599255 156.16697 
L 556.219364 136.480909 
L 556.839473 156.16697 
L 557.459582 195.539091 
L 558.079691 136.480909 
L 558.6998 136.480909 
L 560.560127 254.597273 
L 561.800345 254.597273 
L 562.420455 234.911212 
L 563.040564 195.539091 
L 563.660673 195.539091 
L 564.280782 175.85303 
L 564.900891 234.911212 
L 566.761218 116.794848 
L 567.381327 136.480909 
L 568.001436 175.85303 
L 569.241655 215.225152 
L 569.861764 175.85303 
L 571.101982 215.225152 
L 571.722091 175.85303 
L 572.962309 175.85303 
L 573.582418 215.225152 
L 574.202527 215.225152 
L 574.822636 97.108788 
L 575.442745 97.108788 
L 576.062855 38.050606 
L 576.682964 77.422727 
L 577.303073 136.480909 
L 577.923182 175.85303 
L 578.543291 116.794848 
L 579.1634 156.16697 
L 580.403618 116.794848 
L 581.023727 156.16697 
L 581.643836 215.225152 
L 582.263945 234.911212 
L 583.504164 195.539091 
L 584.124273 195.539091 
L 584.744382 234.911212 
L 585.364491 175.85303 
L 585.9846 175.85303 
L 586.604709 254.597273 
L 587.224818 254.597273 
L 587.844927 175.85303 
L 588.465036 175.85303 
L 589.085145 195.539091 
L 589.705255 195.539091 
L 590.325364 175.85303 
L 590.945473 175.85303 
L 591.565582 195.539091 
L 592.185691 234.911212 
L 592.8058 254.597273 
L 593.425909 215.225152 
L 594.046018 156.16697 
L 594.666127 136.480909 
L 595.286236 156.16697 
L 595.906345 254.597273 
L 596.526455 215.225152 
L 597.146564 215.225152 
L 597.766673 175.85303 
L 598.386782 195.539091 
L 599.006891 175.85303 
L 600.247109 215.225152 
L 600.867218 215.225152 
L 602.107436 293.969394 
L 602.727545 274.283333 
L 603.347655 175.85303 
L 604.587873 136.480909 
L 605.207982 136.480909 
L 606.4482 175.85303 
L 607.068309 215.225152 
L 608.308527 215.225152 
L 608.928636 195.539091 
L 609.548745 116.794848 
L 610.168855 57.736667 
L 610.788964 38.050606 
L 612.029182 156.16697 
L 612.649291 254.597273 
L 613.889509 215.225152 
L 614.509618 215.225152 
L 615.129727 234.911212 
L 615.749836 195.539091 
L 616.369945 195.539091 
L 616.990055 156.16697 
L 617.610164 97.108788 
L 618.230273 156.16697 
L 619.470491 234.911212 
L 620.0906 215.225152 
L 621.330818 215.225152 
L 621.950927 97.108788 
L 622.571036 136.480909 
L 623.191145 136.480909 
L 623.811255 97.108788 
L 624.431364 116.794848 
L 625.051473 156.16697 
L 625.671582 156.16697 
L 626.291691 175.85303 
L 626.9118 215.225152 
L 627.531909 234.911212 
L 628.152018 195.539091 
L 628.772127 175.85303 
L 629.392236 116.794848 
L 630.632455 116.794848 
L 631.252564 215.225152 
L 631.872673 175.85303 
L 632.492782 175.85303 
L 633.112891 215.225152 
L 633.733 175.85303 
L 634.353109 215.225152 
L 634.973218 215.225152 
L 635.593327 254.597273 
L 636.213436 195.539091 
L 636.833545 215.225152 
L 637.453655 215.225152 
L 638.073764 234.911212 
L 639.313982 116.794848 
L 639.934091 116.794848 
L 640.5542 175.85303 
L 641.174309 175.85303 
L 641.794418 136.480909 
L 642.414527 136.480909 
L 643.034636 215.225152 
L 643.654745 195.539091 
L 644.274855 136.480909 
L 644.894964 156.16697 
L 645.515073 156.16697 
L 646.135182 195.539091 
L 646.755291 156.16697 
L 647.3754 136.480909 
L 647.995509 175.85303 
L 648.615618 234.911212 
L 649.235727 254.597273 
L 649.855836 195.539091 
L 650.475945 175.85303 
L 652.336273 234.911212 
L 652.956382 195.539091 
L 653.576491 195.539091 
L 654.1966 175.85303 
L 654.816709 195.539091 
L 655.436818 116.794848 
L 656.677036 116.794848 
L 657.297145 175.85303 
L 657.917255 195.539091 
L 658.537364 136.480909 
L 659.157473 215.225152 
L 659.777582 175.85303 
L 660.397691 195.539091 
L 661.0178 254.597273 
L 661.637909 234.911212 
L 662.258018 156.16697 
L 662.878127 97.108788 
L 663.498236 18.364545 
L 664.118345 38.050606 
L 664.738455 136.480909 
L 665.358564 136.480909 
L 665.978673 195.539091 
L 666.598782 175.85303 
L 667.218891 116.794848 
L 667.839 77.422727 
L 668.459109 97.108788 
L 669.079218 156.16697 
L 669.699327 175.85303 
L 670.319436 156.16697 
L 670.939545 156.16697 
L 670.939545 156.16697 
" clip-path="url(#p2c6e5077f0)" style="fill: none; stroke: #0c5da5; stroke-linecap: square"/>
   </g>
   <g id="patch_3">
    <path d="M 19.825 328.42 
L 19.825 3.6 
" style="fill: none; stroke: #000000; stroke-width: 0.5; stroke-linejoin: miter; stroke-linecap: square"/>
   </g>
   <g id="patch_4">
    <path d="M 701.945 328.42 
L 701.945 3.6 
" style="fill: none; stroke: #000000; stroke-width: 0.5; stroke-linejoin: miter; stroke-linecap: square"/>
   </g>
   <g id="patch_5">
    <path d="M 19.825 328.42 
L 701.945 328.42 
" style="fill: none; stroke: #000000; stroke-width: 0.5; stroke-linejoin: miter; stroke-linecap: square"/>
   </g>
   <g id="patch_6">
    <path d="M 19.825 3.6 
L 701.945 3.6 
" style="fill: none; stroke: #000000; stroke-width: 0.5; stroke-linejoin: miter; stroke-linecap: square"/>
   </g>
  </g>
 </g>
 <defs>
  <clipPath id="p2c6e5077f0">
   <rect x="19.825" y="3.6" width="682.12" height="324.82"/>
  </clipPath>
 </defs>
</svg>
