<?xml version="1.0" encoding="utf-8" standalone="no"?>
<!DOCTYPE svg PUBLIC "-//W3C//DTD SVG 1.1//EN"
  "http://www.w3.org/Graphics/SVG/1.1/DTD/svg11.dtd">
<svg xmlns:xlink="http://www.w3.org/1999/xlink" width="705.725625pt" height="345.198125pt" viewBox="0 0 705.725625 345.198125" xmlns="http://www.w3.org/2000/svg" version="1.1">
 <metadata>
  <rdf:RDF xmlns:dc="http://purl.org/dc/elements/1.1/" xmlns:cc="http://creativecommons.org/ns#" xmlns:rdf="http://www.w3.org/1999/02/22-rdf-syntax-ns#">
   <cc:Work>
    <dc:type rdf:resource="http://purl.org/dc/dcmitype/StillImage"/>
    <dc:date>2023-07-06T23:19:15.592799</dc:date>
    <dc:format>image/svg+xml</dc:format>
    <dc:creator>
     <cc:Agent>
      <dc:title>Matplotlib v3.7.2, https://matplotlib.org/</dc:title>
     </cc:Agent>
    </dc:creator>
   </cc:Work>
  </rdf:RDF>
 </metadata>
 <defs>
  <style type="text/css">*{stroke-linejoin: round; stroke-linecap: butt}</style>
 </defs>
 <g id="figure_1">
  <g id="patch_1">
   <path d="M 0 345.198125 
L 705.725625 345.198125 
L 705.725625 0 
L 0 0 
z
" style="fill: #ffffff"/>
  </g>
  <g id="axes_1">
   <g id="patch_2">
    <path d="M 29.365625 328.42 
L 702.125625 328.42 
L 702.125625 3.6 
L 29.365625 3.6 
z
" style="fill: #ffffff"/>
   </g>
   <g id="matplotlib.axis_1">
    <g id="xtick_1">
     <g id="line2d_1">
      <defs>
       <path id="m56c9816839" d="M 0 0 
L 0 -3 
" style="stroke: #000000; stroke-width: 0.5"/>
      </defs>
      <g>
       <use xlink:href="#m56c9816839" x="59.334025" y="328.42" style="stroke: #000000; stroke-width: 0.5"/>
      </g>
     </g>
     <g id="line2d_2">
      <defs>
       <path id="m24b516053b" d="M 0 0 
L 0 3 
" style="stroke: #000000; stroke-width: 0.5"/>
      </defs>
      <g>
       <use xlink:href="#m24b516053b" x="59.334025" y="3.6" style="stroke: #000000; stroke-width: 0.5"/>
      </g>
     </g>
     <g id="text_1">
      <!-- 0 -->
      <g transform="translate(56.152775 339.518438) scale(0.1 -0.1)">
       <defs>
        <path id="DejaVuSerif-30" d="M 2034 219 
Q 2513 219 2750 744 
Q 2988 1269 2988 2328 
Q 2988 3391 2750 3916 
Q 2513 4441 2034 4441 
Q 1556 4441 1318 3916 
Q 1081 3391 1081 2328 
Q 1081 1269 1318 744 
Q 1556 219 2034 219 
z
M 2034 -91 
Q 1275 -91 848 546 
Q 422 1184 422 2328 
Q 422 3475 848 4112 
Q 1275 4750 2034 4750 
Q 2797 4750 3222 4112 
Q 3647 3475 3647 2328 
Q 3647 1184 3222 546 
Q 2797 -91 2034 -91 
z
" transform="scale(0.015625)"/>
       </defs>
       <use xlink:href="#DejaVuSerif-30"/>
      </g>
     </g>
    </g>
    <g id="xtick_2">
     <g id="line2d_3">
      <g>
       <use xlink:href="#m56c9816839" x="181.654025" y="328.42" style="stroke: #000000; stroke-width: 0.5"/>
      </g>
     </g>
     <g id="line2d_4">
      <g>
       <use xlink:href="#m24b516053b" x="181.654025" y="3.6" style="stroke: #000000; stroke-width: 0.5"/>
      </g>
     </g>
     <g id="text_2">
      <!-- 200 -->
      <g transform="translate(172.110275 339.518438) scale(0.1 -0.1)">
       <defs>
        <path id="DejaVuSerif-32" d="M 819 3553 
L 469 3553 
L 469 4384 
Q 803 4563 1142 4656 
Q 1481 4750 1806 4750 
Q 2534 4750 2956 4397 
Q 3378 4044 3378 3438 
Q 3378 2753 2422 1800 
Q 2347 1728 2309 1691 
L 1131 513 
L 3078 513 
L 3078 1088 
L 3444 1088 
L 3444 0 
L 434 0 
L 434 341 
L 1850 1753 
Q 2319 2222 2519 2614 
Q 2719 3006 2719 3438 
Q 2719 3909 2473 4175 
Q 2228 4441 1797 4441 
Q 1350 4441 1106 4219 
Q 863 3997 819 3553 
z
" transform="scale(0.015625)"/>
       </defs>
       <use xlink:href="#DejaVuSerif-32"/>
       <use xlink:href="#DejaVuSerif-30" x="63.623047"/>
       <use xlink:href="#DejaVuSerif-30" x="127.246094"/>
      </g>
     </g>
    </g>
    <g id="xtick_3">
     <g id="line2d_5">
      <g>
       <use xlink:href="#m56c9816839" x="303.974025" y="328.42" style="stroke: #000000; stroke-width: 0.5"/>
      </g>
     </g>
     <g id="line2d_6">
      <g>
       <use xlink:href="#m24b516053b" x="303.974025" y="3.6" style="stroke: #000000; stroke-width: 0.5"/>
      </g>
     </g>
     <g id="text_3">
      <!-- 400 -->
      <g transform="translate(294.430275 339.518438) scale(0.1 -0.1)">
       <defs>
        <path id="DejaVuSerif-34" d="M 2234 1581 
L 2234 4063 
L 641 1581 
L 2234 1581 
z
M 3609 0 
L 1484 0 
L 1484 331 
L 2234 331 
L 2234 1247 
L 197 1247 
L 197 1588 
L 2241 4750 
L 2859 4750 
L 2859 1581 
L 3750 1581 
L 3750 1247 
L 2859 1247 
L 2859 331 
L 3609 331 
L 3609 0 
z
" transform="scale(0.015625)"/>
       </defs>
       <use xlink:href="#DejaVuSerif-34"/>
       <use xlink:href="#DejaVuSerif-30" x="63.623047"/>
       <use xlink:href="#DejaVuSerif-30" x="127.246094"/>
      </g>
     </g>
    </g>
    <g id="xtick_4">
     <g id="line2d_7">
      <g>
       <use xlink:href="#m56c9816839" x="426.294025" y="328.42" style="stroke: #000000; stroke-width: 0.5"/>
      </g>
     </g>
     <g id="line2d_8">
      <g>
       <use xlink:href="#m24b516053b" x="426.294025" y="3.6" style="stroke: #000000; stroke-width: 0.5"/>
      </g>
     </g>
     <g id="text_4">
      <!-- 600 -->
      <g transform="translate(416.750275 339.518438) scale(0.1 -0.1)">
       <defs>
        <path id="DejaVuSerif-36" d="M 2094 219 
Q 2534 219 2771 542 
Q 3009 866 3009 1472 
Q 3009 2078 2771 2401 
Q 2534 2725 2094 2725 
Q 1647 2725 1412 2412 
Q 1178 2100 1178 1509 
Q 1178 888 1415 553 
Q 1653 219 2094 219 
z
M 1075 2569 
Q 1288 2803 1556 2918 
Q 1825 3034 2163 3034 
Q 2859 3034 3264 2615 
Q 3669 2197 3669 1472 
Q 3669 763 3233 336 
Q 2797 -91 2069 -91 
Q 1278 -91 853 498 
Q 428 1088 428 2181 
Q 428 3406 931 4078 
Q 1434 4750 2350 4750 
Q 2597 4750 2869 4703 
Q 3141 4656 3425 4563 
L 3425 3794 
L 3072 3794 
Q 3034 4109 2831 4275 
Q 2628 4441 2284 4441 
Q 1678 4441 1381 3981 
Q 1084 3522 1075 2569 
z
" transform="scale(0.015625)"/>
       </defs>
       <use xlink:href="#DejaVuSerif-36"/>
       <use xlink:href="#DejaVuSerif-30" x="63.623047"/>
       <use xlink:href="#DejaVuSerif-30" x="127.246094"/>
      </g>
     </g>
    </g>
    <g id="xtick_5">
     <g id="line2d_9">
      <g>
       <use xlink:href="#m56c9816839" x="548.614025" y="328.42" style="stroke: #000000; stroke-width: 0.5"/>
      </g>
     </g>
     <g id="line2d_10">
      <g>
       <use xlink:href="#m24b516053b" x="548.614025" y="3.6" style="stroke: #000000; stroke-width: 0.5"/>
      </g>
     </g>
     <g id="text_5">
      <!-- 800 -->
      <g transform="translate(539.070275 339.518438) scale(0.1 -0.1)">
       <defs>
        <path id="DejaVuSerif-38" d="M 2981 1275 
Q 2981 1775 2732 2051 
Q 2484 2328 2034 2328 
Q 1584 2328 1336 2051 
Q 1088 1775 1088 1275 
Q 1088 772 1336 495 
Q 1584 219 2034 219 
Q 2484 219 2732 495 
Q 2981 772 2981 1275 
z
M 2853 3541 
Q 2853 3966 2637 4203 
Q 2422 4441 2034 4441 
Q 1650 4441 1433 4203 
Q 1216 3966 1216 3541 
Q 1216 3113 1433 2875 
Q 1650 2638 2034 2638 
Q 2422 2638 2637 2875 
Q 2853 3113 2853 3541 
z
M 2516 2484 
Q 3047 2413 3344 2092 
Q 3641 1772 3641 1275 
Q 3641 619 3225 264 
Q 2809 -91 2034 -91 
Q 1263 -91 845 264 
Q 428 619 428 1275 
Q 428 1772 725 2092 
Q 1022 2413 1556 2484 
Q 1084 2569 832 2842 
Q 581 3116 581 3541 
Q 581 4103 968 4426 
Q 1356 4750 2034 4750 
Q 2713 4750 3100 4426 
Q 3488 4103 3488 3541 
Q 3488 3116 3236 2842 
Q 2984 2569 2516 2484 
z
" transform="scale(0.015625)"/>
       </defs>
       <use xlink:href="#DejaVuSerif-38"/>
       <use xlink:href="#DejaVuSerif-30" x="63.623047"/>
       <use xlink:href="#DejaVuSerif-30" x="127.246094"/>
      </g>
     </g>
    </g>
    <g id="xtick_6">
     <g id="line2d_11">
      <g>
       <use xlink:href="#m56c9816839" x="670.934025" y="328.42" style="stroke: #000000; stroke-width: 0.5"/>
      </g>
     </g>
     <g id="line2d_12">
      <g>
       <use xlink:href="#m24b516053b" x="670.934025" y="3.6" style="stroke: #000000; stroke-width: 0.5"/>
      </g>
     </g>
     <g id="text_6">
      <!-- 1000 -->
      <g transform="translate(658.209025 339.518438) scale(0.1 -0.1)">
       <defs>
        <path id="DejaVuSerif-31" d="M 909 0 
L 909 331 
L 1722 331 
L 1722 4213 
L 781 3603 
L 781 4013 
L 1919 4750 
L 2350 4750 
L 2350 331 
L 3163 331 
L 3163 0 
L 909 0 
z
" transform="scale(0.015625)"/>
       </defs>
       <use xlink:href="#DejaVuSerif-31"/>
       <use xlink:href="#DejaVuSerif-30" x="63.623047"/>
       <use xlink:href="#DejaVuSerif-30" x="127.246094"/>
       <use xlink:href="#DejaVuSerif-30" x="190.869141"/>
      </g>
     </g>
    </g>
    <g id="xtick_7">
     <g id="line2d_13">
      <defs>
       <path id="m5cdacd8d0b" d="M 0 0 
L 0 -1.5 
" style="stroke: #000000; stroke-width: 0.5"/>
      </defs>
      <g>
       <use xlink:href="#m5cdacd8d0b" x="89.914025" y="328.42" style="stroke: #000000; stroke-width: 0.5"/>
      </g>
     </g>
     <g id="line2d_14">
      <defs>
       <path id="m422d93fbc0" d="M 0 0 
L 0 1.5 
" style="stroke: #000000; stroke-width: 0.5"/>
      </defs>
      <g>
       <use xlink:href="#m422d93fbc0" x="89.914025" y="3.6" style="stroke: #000000; stroke-width: 0.5"/>
      </g>
     </g>
    </g>
    <g id="xtick_8">
     <g id="line2d_15">
      <g>
       <use xlink:href="#m5cdacd8d0b" x="120.494025" y="328.42" style="stroke: #000000; stroke-width: 0.5"/>
      </g>
     </g>
     <g id="line2d_16">
      <g>
       <use xlink:href="#m422d93fbc0" x="120.494025" y="3.6" style="stroke: #000000; stroke-width: 0.5"/>
      </g>
     </g>
    </g>
    <g id="xtick_9">
     <g id="line2d_17">
      <g>
       <use xlink:href="#m5cdacd8d0b" x="151.074025" y="328.42" style="stroke: #000000; stroke-width: 0.5"/>
      </g>
     </g>
     <g id="line2d_18">
      <g>
       <use xlink:href="#m422d93fbc0" x="151.074025" y="3.6" style="stroke: #000000; stroke-width: 0.5"/>
      </g>
     </g>
    </g>
    <g id="xtick_10">
     <g id="line2d_19">
      <g>
       <use xlink:href="#m5cdacd8d0b" x="212.234025" y="328.42" style="stroke: #000000; stroke-width: 0.5"/>
      </g>
     </g>
     <g id="line2d_20">
      <g>
       <use xlink:href="#m422d93fbc0" x="212.234025" y="3.6" style="stroke: #000000; stroke-width: 0.5"/>
      </g>
     </g>
    </g>
    <g id="xtick_11">
     <g id="line2d_21">
      <g>
       <use xlink:href="#m5cdacd8d0b" x="242.814025" y="328.42" style="stroke: #000000; stroke-width: 0.5"/>
      </g>
     </g>
     <g id="line2d_22">
      <g>
       <use xlink:href="#m422d93fbc0" x="242.814025" y="3.6" style="stroke: #000000; stroke-width: 0.5"/>
      </g>
     </g>
    </g>
    <g id="xtick_12">
     <g id="line2d_23">
      <g>
       <use xlink:href="#m5cdacd8d0b" x="273.394025" y="328.42" style="stroke: #000000; stroke-width: 0.5"/>
      </g>
     </g>
     <g id="line2d_24">
      <g>
       <use xlink:href="#m422d93fbc0" x="273.394025" y="3.6" style="stroke: #000000; stroke-width: 0.5"/>
      </g>
     </g>
    </g>
    <g id="xtick_13">
     <g id="line2d_25">
      <g>
       <use xlink:href="#m5cdacd8d0b" x="334.554025" y="328.42" style="stroke: #000000; stroke-width: 0.5"/>
      </g>
     </g>
     <g id="line2d_26">
      <g>
       <use xlink:href="#m422d93fbc0" x="334.554025" y="3.6" style="stroke: #000000; stroke-width: 0.5"/>
      </g>
     </g>
    </g>
    <g id="xtick_14">
     <g id="line2d_27">
      <g>
       <use xlink:href="#m5cdacd8d0b" x="365.134025" y="328.42" style="stroke: #000000; stroke-width: 0.5"/>
      </g>
     </g>
     <g id="line2d_28">
      <g>
       <use xlink:href="#m422d93fbc0" x="365.134025" y="3.6" style="stroke: #000000; stroke-width: 0.5"/>
      </g>
     </g>
    </g>
    <g id="xtick_15">
     <g id="line2d_29">
      <g>
       <use xlink:href="#m5cdacd8d0b" x="395.714025" y="328.42" style="stroke: #000000; stroke-width: 0.5"/>
      </g>
     </g>
     <g id="line2d_30">
      <g>
       <use xlink:href="#m422d93fbc0" x="395.714025" y="3.6" style="stroke: #000000; stroke-width: 0.5"/>
      </g>
     </g>
    </g>
    <g id="xtick_16">
     <g id="line2d_31">
      <g>
       <use xlink:href="#m5cdacd8d0b" x="456.874025" y="328.42" style="stroke: #000000; stroke-width: 0.5"/>
      </g>
     </g>
     <g id="line2d_32">
      <g>
       <use xlink:href="#m422d93fbc0" x="456.874025" y="3.6" style="stroke: #000000; stroke-width: 0.5"/>
      </g>
     </g>
    </g>
    <g id="xtick_17">
     <g id="line2d_33">
      <g>
       <use xlink:href="#m5cdacd8d0b" x="487.454025" y="328.42" style="stroke: #000000; stroke-width: 0.5"/>
      </g>
     </g>
     <g id="line2d_34">
      <g>
       <use xlink:href="#m422d93fbc0" x="487.454025" y="3.6" style="stroke: #000000; stroke-width: 0.5"/>
      </g>
     </g>
    </g>
    <g id="xtick_18">
     <g id="line2d_35">
      <g>
       <use xlink:href="#m5cdacd8d0b" x="518.034025" y="328.42" style="stroke: #000000; stroke-width: 0.5"/>
      </g>
     </g>
     <g id="line2d_36">
      <g>
       <use xlink:href="#m422d93fbc0" x="518.034025" y="3.6" style="stroke: #000000; stroke-width: 0.5"/>
      </g>
     </g>
    </g>
    <g id="xtick_19">
     <g id="line2d_37">
      <g>
       <use xlink:href="#m5cdacd8d0b" x="579.194025" y="328.42" style="stroke: #000000; stroke-width: 0.5"/>
      </g>
     </g>
     <g id="line2d_38">
      <g>
       <use xlink:href="#m422d93fbc0" x="579.194025" y="3.6" style="stroke: #000000; stroke-width: 0.5"/>
      </g>
     </g>
    </g>
    <g id="xtick_20">
     <g id="line2d_39">
      <g>
       <use xlink:href="#m5cdacd8d0b" x="609.774025" y="328.42" style="stroke: #000000; stroke-width: 0.5"/>
      </g>
     </g>
     <g id="line2d_40">
      <g>
       <use xlink:href="#m422d93fbc0" x="609.774025" y="3.6" style="stroke: #000000; stroke-width: 0.5"/>
      </g>
     </g>
    </g>
    <g id="xtick_21">
     <g id="line2d_41">
      <g>
       <use xlink:href="#m5cdacd8d0b" x="640.354025" y="328.42" style="stroke: #000000; stroke-width: 0.5"/>
      </g>
     </g>
     <g id="line2d_42">
      <g>
       <use xlink:href="#m422d93fbc0" x="640.354025" y="3.6" style="stroke: #000000; stroke-width: 0.5"/>
      </g>
     </g>
    </g>
    <g id="xtick_22">
     <g id="line2d_43">
      <g>
       <use xlink:href="#m5cdacd8d0b" x="701.514025" y="328.42" style="stroke: #000000; stroke-width: 0.5"/>
      </g>
     </g>
     <g id="line2d_44">
      <g>
       <use xlink:href="#m422d93fbc0" x="701.514025" y="3.6" style="stroke: #000000; stroke-width: 0.5"/>
      </g>
     </g>
    </g>
   </g>
   <g id="matplotlib.axis_2">
    <g id="ytick_1">
     <g id="line2d_45">
      <defs>
       <path id="mbf3939aa03" d="M 0 0 
L 3 0 
" style="stroke: #000000; stroke-width: 0.5"/>
      </defs>
      <g>
       <use xlink:href="#mbf3939aa03" x="29.365625" y="313.655455" style="stroke: #000000; stroke-width: 0.5"/>
      </g>
     </g>
     <g id="line2d_46">
      <defs>
       <path id="m2387cc0513" d="M 0 0 
L -3 0 
" style="stroke: #000000; stroke-width: 0.5"/>
      </defs>
      <g>
       <use xlink:href="#m2387cc0513" x="702.125625" y="313.655455" style="stroke: #000000; stroke-width: 0.5"/>
      </g>
     </g>
     <g id="text_7">
      <!-- 0.0 -->
      <g transform="translate(9.9625 317.454673) scale(0.1 -0.1)">
       <defs>
        <path id="DejaVuSerif-2e" d="M 603 325 
Q 603 500 722 622 
Q 841 744 1019 744 
Q 1191 744 1312 622 
Q 1434 500 1434 325 
Q 1434 153 1312 31 
Q 1191 -91 1019 -91 
Q 841 -91 722 29 
Q 603 150 603 325 
z
" transform="scale(0.015625)"/>
       </defs>
       <use xlink:href="#DejaVuSerif-30"/>
       <use xlink:href="#DejaVuSerif-2e" x="63.623047"/>
       <use xlink:href="#DejaVuSerif-30" x="95.410156"/>
      </g>
     </g>
    </g>
    <g id="ytick_2">
     <g id="line2d_47">
      <g>
       <use xlink:href="#mbf3939aa03" x="29.365625" y="274.801388" style="stroke: #000000; stroke-width: 0.5"/>
      </g>
     </g>
     <g id="line2d_48">
      <g>
       <use xlink:href="#m2387cc0513" x="702.125625" y="274.801388" style="stroke: #000000; stroke-width: 0.5"/>
      </g>
     </g>
     <g id="text_8">
      <!-- 2.5 -->
      <g transform="translate(9.9625 278.600606) scale(0.1 -0.1)">
       <defs>
        <path id="DejaVuSerif-35" d="M 3219 4666 
L 3219 4153 
L 1081 4153 
L 1081 2816 
Q 1244 2928 1461 2984 
Q 1678 3041 1947 3041 
Q 2703 3041 3140 2622 
Q 3578 2203 3578 1478 
Q 3578 738 3136 323 
Q 2694 -91 1894 -91 
Q 1572 -91 1234 -12 
Q 897 66 544 225 
L 544 1131 
L 897 1131 
Q 925 688 1179 453 
Q 1434 219 1894 219 
Q 2388 219 2653 544 
Q 2919 869 2919 1478 
Q 2919 2084 2655 2407 
Q 2391 2731 1894 2731 
Q 1613 2731 1398 2631 
Q 1184 2531 1019 2322 
L 750 2322 
L 750 4666 
L 3219 4666 
z
" transform="scale(0.015625)"/>
       </defs>
       <use xlink:href="#DejaVuSerif-32"/>
       <use xlink:href="#DejaVuSerif-2e" x="63.623047"/>
       <use xlink:href="#DejaVuSerif-35" x="95.410156"/>
      </g>
     </g>
    </g>
    <g id="ytick_3">
     <g id="line2d_49">
      <g>
       <use xlink:href="#mbf3939aa03" x="29.365625" y="235.947321" style="stroke: #000000; stroke-width: 0.5"/>
      </g>
     </g>
     <g id="line2d_50">
      <g>
       <use xlink:href="#m2387cc0513" x="702.125625" y="235.947321" style="stroke: #000000; stroke-width: 0.5"/>
      </g>
     </g>
     <g id="text_9">
      <!-- 5.0 -->
      <g transform="translate(9.9625 239.746539) scale(0.1 -0.1)">
       <use xlink:href="#DejaVuSerif-35"/>
       <use xlink:href="#DejaVuSerif-2e" x="63.623047"/>
       <use xlink:href="#DejaVuSerif-30" x="95.410156"/>
      </g>
     </g>
    </g>
    <g id="ytick_4">
     <g id="line2d_51">
      <g>
       <use xlink:href="#mbf3939aa03" x="29.365625" y="197.093254" style="stroke: #000000; stroke-width: 0.5"/>
      </g>
     </g>
     <g id="line2d_52">
      <g>
       <use xlink:href="#m2387cc0513" x="702.125625" y="197.093254" style="stroke: #000000; stroke-width: 0.5"/>
      </g>
     </g>
     <g id="text_10">
      <!-- 7.5 -->
      <g transform="translate(9.9625 200.892472) scale(0.1 -0.1)">
       <defs>
        <path id="DejaVuSerif-37" d="M 3609 4347 
L 1784 0 
L 1319 0 
L 3059 4153 
L 903 4153 
L 903 3578 
L 538 3578 
L 538 4666 
L 3609 4666 
L 3609 4347 
z
" transform="scale(0.015625)"/>
       </defs>
       <use xlink:href="#DejaVuSerif-37"/>
       <use xlink:href="#DejaVuSerif-2e" x="63.623047"/>
       <use xlink:href="#DejaVuSerif-35" x="95.410156"/>
      </g>
     </g>
    </g>
    <g id="ytick_5">
     <g id="line2d_53">
      <g>
       <use xlink:href="#mbf3939aa03" x="29.365625" y="158.239187" style="stroke: #000000; stroke-width: 0.5"/>
      </g>
     </g>
     <g id="line2d_54">
      <g>
       <use xlink:href="#m2387cc0513" x="702.125625" y="158.239187" style="stroke: #000000; stroke-width: 0.5"/>
      </g>
     </g>
     <g id="text_11">
      <!-- 10.0 -->
      <g transform="translate(3.6 162.038405) scale(0.1 -0.1)">
       <use xlink:href="#DejaVuSerif-31"/>
       <use xlink:href="#DejaVuSerif-30" x="63.623047"/>
       <use xlink:href="#DejaVuSerif-2e" x="127.246094"/>
       <use xlink:href="#DejaVuSerif-30" x="159.033203"/>
      </g>
     </g>
    </g>
    <g id="ytick_6">
     <g id="line2d_55">
      <g>
       <use xlink:href="#mbf3939aa03" x="29.365625" y="119.38512" style="stroke: #000000; stroke-width: 0.5"/>
      </g>
     </g>
     <g id="line2d_56">
      <g>
       <use xlink:href="#m2387cc0513" x="702.125625" y="119.38512" style="stroke: #000000; stroke-width: 0.5"/>
      </g>
     </g>
     <g id="text_12">
      <!-- 12.5 -->
      <g transform="translate(3.6 123.184338) scale(0.1 -0.1)">
       <use xlink:href="#DejaVuSerif-31"/>
       <use xlink:href="#DejaVuSerif-32" x="63.623047"/>
       <use xlink:href="#DejaVuSerif-2e" x="127.246094"/>
       <use xlink:href="#DejaVuSerif-35" x="159.033203"/>
      </g>
     </g>
    </g>
    <g id="ytick_7">
     <g id="line2d_57">
      <g>
       <use xlink:href="#mbf3939aa03" x="29.365625" y="80.531053" style="stroke: #000000; stroke-width: 0.5"/>
      </g>
     </g>
     <g id="line2d_58">
      <g>
       <use xlink:href="#m2387cc0513" x="702.125625" y="80.531053" style="stroke: #000000; stroke-width: 0.5"/>
      </g>
     </g>
     <g id="text_13">
      <!-- 15.0 -->
      <g transform="translate(3.6 84.330271) scale(0.1 -0.1)">
       <use xlink:href="#DejaVuSerif-31"/>
       <use xlink:href="#DejaVuSerif-35" x="63.623047"/>
       <use xlink:href="#DejaVuSerif-2e" x="127.246094"/>
       <use xlink:href="#DejaVuSerif-30" x="159.033203"/>
      </g>
     </g>
    </g>
    <g id="ytick_8">
     <g id="line2d_59">
      <g>
       <use xlink:href="#mbf3939aa03" x="29.365625" y="41.676986" style="stroke: #000000; stroke-width: 0.5"/>
      </g>
     </g>
     <g id="line2d_60">
      <g>
       <use xlink:href="#m2387cc0513" x="702.125625" y="41.676986" style="stroke: #000000; stroke-width: 0.5"/>
      </g>
     </g>
     <g id="text_14">
      <!-- 17.5 -->
      <g transform="translate(3.6 45.476204) scale(0.1 -0.1)">
       <use xlink:href="#DejaVuSerif-31"/>
       <use xlink:href="#DejaVuSerif-37" x="63.623047"/>
       <use xlink:href="#DejaVuSerif-2e" x="127.246094"/>
       <use xlink:href="#DejaVuSerif-35" x="159.033203"/>
      </g>
     </g>
    </g>
    <g id="ytick_9">
     <g id="line2d_61">
      <defs>
       <path id="m63359209d1" d="M 0 0 
L 1.5 0 
" style="stroke: #000000; stroke-width: 0.5"/>
      </defs>
      <g>
       <use xlink:href="#m63359209d1" x="29.365625" y="321.426268" style="stroke: #000000; stroke-width: 0.5"/>
      </g>
     </g>
     <g id="line2d_62">
      <defs>
       <path id="ma54c6bfc1a" d="M 0 0 
L -1.5 0 
" style="stroke: #000000; stroke-width: 0.5"/>
      </defs>
      <g>
       <use xlink:href="#ma54c6bfc1a" x="702.125625" y="321.426268" style="stroke: #000000; stroke-width: 0.5"/>
      </g>
     </g>
    </g>
    <g id="ytick_10">
     <g id="line2d_63">
      <g>
       <use xlink:href="#m63359209d1" x="29.365625" y="305.884641" style="stroke: #000000; stroke-width: 0.5"/>
      </g>
     </g>
     <g id="line2d_64">
      <g>
       <use xlink:href="#ma54c6bfc1a" x="702.125625" y="305.884641" style="stroke: #000000; stroke-width: 0.5"/>
      </g>
     </g>
    </g>
    <g id="ytick_11">
     <g id="line2d_65">
      <g>
       <use xlink:href="#m63359209d1" x="29.365625" y="298.113828" style="stroke: #000000; stroke-width: 0.5"/>
      </g>
     </g>
     <g id="line2d_66">
      <g>
       <use xlink:href="#ma54c6bfc1a" x="702.125625" y="298.113828" style="stroke: #000000; stroke-width: 0.5"/>
      </g>
     </g>
    </g>
    <g id="ytick_12">
     <g id="line2d_67">
      <g>
       <use xlink:href="#m63359209d1" x="29.365625" y="290.343014" style="stroke: #000000; stroke-width: 0.5"/>
      </g>
     </g>
     <g id="line2d_68">
      <g>
       <use xlink:href="#ma54c6bfc1a" x="702.125625" y="290.343014" style="stroke: #000000; stroke-width: 0.5"/>
      </g>
     </g>
    </g>
    <g id="ytick_13">
     <g id="line2d_69">
      <g>
       <use xlink:href="#m63359209d1" x="29.365625" y="282.572201" style="stroke: #000000; stroke-width: 0.5"/>
      </g>
     </g>
     <g id="line2d_70">
      <g>
       <use xlink:href="#ma54c6bfc1a" x="702.125625" y="282.572201" style="stroke: #000000; stroke-width: 0.5"/>
      </g>
     </g>
    </g>
    <g id="ytick_14">
     <g id="line2d_71">
      <g>
       <use xlink:href="#m63359209d1" x="29.365625" y="267.030574" style="stroke: #000000; stroke-width: 0.5"/>
      </g>
     </g>
     <g id="line2d_72">
      <g>
       <use xlink:href="#ma54c6bfc1a" x="702.125625" y="267.030574" style="stroke: #000000; stroke-width: 0.5"/>
      </g>
     </g>
    </g>
    <g id="ytick_15">
     <g id="line2d_73">
      <g>
       <use xlink:href="#m63359209d1" x="29.365625" y="259.259761" style="stroke: #000000; stroke-width: 0.5"/>
      </g>
     </g>
     <g id="line2d_74">
      <g>
       <use xlink:href="#ma54c6bfc1a" x="702.125625" y="259.259761" style="stroke: #000000; stroke-width: 0.5"/>
      </g>
     </g>
    </g>
    <g id="ytick_16">
     <g id="line2d_75">
      <g>
       <use xlink:href="#m63359209d1" x="29.365625" y="251.488947" style="stroke: #000000; stroke-width: 0.5"/>
      </g>
     </g>
     <g id="line2d_76">
      <g>
       <use xlink:href="#ma54c6bfc1a" x="702.125625" y="251.488947" style="stroke: #000000; stroke-width: 0.5"/>
      </g>
     </g>
    </g>
    <g id="ytick_17">
     <g id="line2d_77">
      <g>
       <use xlink:href="#m63359209d1" x="29.365625" y="243.718134" style="stroke: #000000; stroke-width: 0.5"/>
      </g>
     </g>
     <g id="line2d_78">
      <g>
       <use xlink:href="#ma54c6bfc1a" x="702.125625" y="243.718134" style="stroke: #000000; stroke-width: 0.5"/>
      </g>
     </g>
    </g>
    <g id="ytick_18">
     <g id="line2d_79">
      <g>
       <use xlink:href="#m63359209d1" x="29.365625" y="228.176507" style="stroke: #000000; stroke-width: 0.5"/>
      </g>
     </g>
     <g id="line2d_80">
      <g>
       <use xlink:href="#ma54c6bfc1a" x="702.125625" y="228.176507" style="stroke: #000000; stroke-width: 0.5"/>
      </g>
     </g>
    </g>
    <g id="ytick_19">
     <g id="line2d_81">
      <g>
       <use xlink:href="#m63359209d1" x="29.365625" y="220.405694" style="stroke: #000000; stroke-width: 0.5"/>
      </g>
     </g>
     <g id="line2d_82">
      <g>
       <use xlink:href="#ma54c6bfc1a" x="702.125625" y="220.405694" style="stroke: #000000; stroke-width: 0.5"/>
      </g>
     </g>
    </g>
    <g id="ytick_20">
     <g id="line2d_83">
      <g>
       <use xlink:href="#m63359209d1" x="29.365625" y="212.63488" style="stroke: #000000; stroke-width: 0.5"/>
      </g>
     </g>
     <g id="line2d_84">
      <g>
       <use xlink:href="#ma54c6bfc1a" x="702.125625" y="212.63488" style="stroke: #000000; stroke-width: 0.5"/>
      </g>
     </g>
    </g>
    <g id="ytick_21">
     <g id="line2d_85">
      <g>
       <use xlink:href="#m63359209d1" x="29.365625" y="204.864067" style="stroke: #000000; stroke-width: 0.5"/>
      </g>
     </g>
     <g id="line2d_86">
      <g>
       <use xlink:href="#ma54c6bfc1a" x="702.125625" y="204.864067" style="stroke: #000000; stroke-width: 0.5"/>
      </g>
     </g>
    </g>
    <g id="ytick_22">
     <g id="line2d_87">
      <g>
       <use xlink:href="#m63359209d1" x="29.365625" y="189.32244" style="stroke: #000000; stroke-width: 0.5"/>
      </g>
     </g>
     <g id="line2d_88">
      <g>
       <use xlink:href="#ma54c6bfc1a" x="702.125625" y="189.32244" style="stroke: #000000; stroke-width: 0.5"/>
      </g>
     </g>
    </g>
    <g id="ytick_23">
     <g id="line2d_89">
      <g>
       <use xlink:href="#m63359209d1" x="29.365625" y="181.551627" style="stroke: #000000; stroke-width: 0.5"/>
      </g>
     </g>
     <g id="line2d_90">
      <g>
       <use xlink:href="#ma54c6bfc1a" x="702.125625" y="181.551627" style="stroke: #000000; stroke-width: 0.5"/>
      </g>
     </g>
    </g>
    <g id="ytick_24">
     <g id="line2d_91">
      <g>
       <use xlink:href="#m63359209d1" x="29.365625" y="173.780813" style="stroke: #000000; stroke-width: 0.5"/>
      </g>
     </g>
     <g id="line2d_92">
      <g>
       <use xlink:href="#ma54c6bfc1a" x="702.125625" y="173.780813" style="stroke: #000000; stroke-width: 0.5"/>
      </g>
     </g>
    </g>
    <g id="ytick_25">
     <g id="line2d_93">
      <g>
       <use xlink:href="#m63359209d1" x="29.365625" y="166.01" style="stroke: #000000; stroke-width: 0.5"/>
      </g>
     </g>
     <g id="line2d_94">
      <g>
       <use xlink:href="#ma54c6bfc1a" x="702.125625" y="166.01" style="stroke: #000000; stroke-width: 0.5"/>
      </g>
     </g>
    </g>
    <g id="ytick_26">
     <g id="line2d_95">
      <g>
       <use xlink:href="#m63359209d1" x="29.365625" y="150.468373" style="stroke: #000000; stroke-width: 0.5"/>
      </g>
     </g>
     <g id="line2d_96">
      <g>
       <use xlink:href="#ma54c6bfc1a" x="702.125625" y="150.468373" style="stroke: #000000; stroke-width: 0.5"/>
      </g>
     </g>
    </g>
    <g id="ytick_27">
     <g id="line2d_97">
      <g>
       <use xlink:href="#m63359209d1" x="29.365625" y="142.69756" style="stroke: #000000; stroke-width: 0.5"/>
      </g>
     </g>
     <g id="line2d_98">
      <g>
       <use xlink:href="#ma54c6bfc1a" x="702.125625" y="142.69756" style="stroke: #000000; stroke-width: 0.5"/>
      </g>
     </g>
    </g>
    <g id="ytick_28">
     <g id="line2d_99">
      <g>
       <use xlink:href="#m63359209d1" x="29.365625" y="134.926746" style="stroke: #000000; stroke-width: 0.5"/>
      </g>
     </g>
     <g id="line2d_100">
      <g>
       <use xlink:href="#ma54c6bfc1a" x="702.125625" y="134.926746" style="stroke: #000000; stroke-width: 0.5"/>
      </g>
     </g>
    </g>
    <g id="ytick_29">
     <g id="line2d_101">
      <g>
       <use xlink:href="#m63359209d1" x="29.365625" y="127.155933" style="stroke: #000000; stroke-width: 0.5"/>
      </g>
     </g>
     <g id="line2d_102">
      <g>
       <use xlink:href="#ma54c6bfc1a" x="702.125625" y="127.155933" style="stroke: #000000; stroke-width: 0.5"/>
      </g>
     </g>
    </g>
    <g id="ytick_30">
     <g id="line2d_103">
      <g>
       <use xlink:href="#m63359209d1" x="29.365625" y="111.614306" style="stroke: #000000; stroke-width: 0.5"/>
      </g>
     </g>
     <g id="line2d_104">
      <g>
       <use xlink:href="#ma54c6bfc1a" x="702.125625" y="111.614306" style="stroke: #000000; stroke-width: 0.5"/>
      </g>
     </g>
    </g>
    <g id="ytick_31">
     <g id="line2d_105">
      <g>
       <use xlink:href="#m63359209d1" x="29.365625" y="103.843493" style="stroke: #000000; stroke-width: 0.5"/>
      </g>
     </g>
     <g id="line2d_106">
      <g>
       <use xlink:href="#ma54c6bfc1a" x="702.125625" y="103.843493" style="stroke: #000000; stroke-width: 0.5"/>
      </g>
     </g>
    </g>
    <g id="ytick_32">
     <g id="line2d_107">
      <g>
       <use xlink:href="#m63359209d1" x="29.365625" y="96.072679" style="stroke: #000000; stroke-width: 0.5"/>
      </g>
     </g>
     <g id="line2d_108">
      <g>
       <use xlink:href="#ma54c6bfc1a" x="702.125625" y="96.072679" style="stroke: #000000; stroke-width: 0.5"/>
      </g>
     </g>
    </g>
    <g id="ytick_33">
     <g id="line2d_109">
      <g>
       <use xlink:href="#m63359209d1" x="29.365625" y="88.301866" style="stroke: #000000; stroke-width: 0.5"/>
      </g>
     </g>
     <g id="line2d_110">
      <g>
       <use xlink:href="#ma54c6bfc1a" x="702.125625" y="88.301866" style="stroke: #000000; stroke-width: 0.5"/>
      </g>
     </g>
    </g>
    <g id="ytick_34">
     <g id="line2d_111">
      <g>
       <use xlink:href="#m63359209d1" x="29.365625" y="72.760239" style="stroke: #000000; stroke-width: 0.5"/>
      </g>
     </g>
     <g id="line2d_112">
      <g>
       <use xlink:href="#ma54c6bfc1a" x="702.125625" y="72.760239" style="stroke: #000000; stroke-width: 0.5"/>
      </g>
     </g>
    </g>
    <g id="ytick_35">
     <g id="line2d_113">
      <g>
       <use xlink:href="#m63359209d1" x="29.365625" y="64.989426" style="stroke: #000000; stroke-width: 0.5"/>
      </g>
     </g>
     <g id="line2d_114">
      <g>
       <use xlink:href="#ma54c6bfc1a" x="702.125625" y="64.989426" style="stroke: #000000; stroke-width: 0.5"/>
      </g>
     </g>
    </g>
    <g id="ytick_36">
     <g id="line2d_115">
      <g>
       <use xlink:href="#m63359209d1" x="29.365625" y="57.218612" style="stroke: #000000; stroke-width: 0.5"/>
      </g>
     </g>
     <g id="line2d_116">
      <g>
       <use xlink:href="#ma54c6bfc1a" x="702.125625" y="57.218612" style="stroke: #000000; stroke-width: 0.5"/>
      </g>
     </g>
    </g>
    <g id="ytick_37">
     <g id="line2d_117">
      <g>
       <use xlink:href="#m63359209d1" x="29.365625" y="49.447799" style="stroke: #000000; stroke-width: 0.5"/>
      </g>
     </g>
     <g id="line2d_118">
      <g>
       <use xlink:href="#ma54c6bfc1a" x="702.125625" y="49.447799" style="stroke: #000000; stroke-width: 0.5"/>
      </g>
     </g>
    </g>
    <g id="ytick_38">
     <g id="line2d_119">
      <g>
       <use xlink:href="#m63359209d1" x="29.365625" y="33.906172" style="stroke: #000000; stroke-width: 0.5"/>
      </g>
     </g>
     <g id="line2d_120">
      <g>
       <use xlink:href="#ma54c6bfc1a" x="702.125625" y="33.906172" style="stroke: #000000; stroke-width: 0.5"/>
      </g>
     </g>
    </g>
    <g id="ytick_39">
     <g id="line2d_121">
      <g>
       <use xlink:href="#m63359209d1" x="29.365625" y="26.135359" style="stroke: #000000; stroke-width: 0.5"/>
      </g>
     </g>
     <g id="line2d_122">
      <g>
       <use xlink:href="#ma54c6bfc1a" x="702.125625" y="26.135359" style="stroke: #000000; stroke-width: 0.5"/>
      </g>
     </g>
    </g>
    <g id="ytick_40">
     <g id="line2d_123">
      <g>
       <use xlink:href="#m63359209d1" x="29.365625" y="18.364545" style="stroke: #000000; stroke-width: 0.5"/>
      </g>
     </g>
     <g id="line2d_124">
      <g>
       <use xlink:href="#ma54c6bfc1a" x="702.125625" y="18.364545" style="stroke: #000000; stroke-width: 0.5"/>
      </g>
     </g>
    </g>
    <g id="ytick_41">
     <g id="line2d_125">
      <g>
       <use xlink:href="#m63359209d1" x="29.365625" y="10.593732" style="stroke: #000000; stroke-width: 0.5"/>
      </g>
     </g>
     <g id="line2d_126">
      <g>
       <use xlink:href="#ma54c6bfc1a" x="702.125625" y="10.593732" style="stroke: #000000; stroke-width: 0.5"/>
      </g>
     </g>
    </g>
   </g>
   <g id="line2d_127">
    <path d="M 59.945625 313.655455 
L 61.780425 313.655455 
L 62.392025 298.113828 
L 63.003625 298.113828 
L 63.615225 267.030574 
L 64.226825 267.030574 
L 64.838425 220.405694 
L 65.450025 220.405694 
L 66.061625 189.32244 
L 66.673225 173.780813 
L 67.284825 220.405694 
L 67.896425 251.488947 
L 69.731225 204.864067 
L 70.342825 235.947321 
L 71.566025 235.947321 
L 72.177625 220.405694 
L 72.789225 220.405694 
L 73.400825 189.32244 
L 75.235625 189.32244 
L 75.847225 204.864067 
L 76.458825 204.864067 
L 77.070425 235.947321 
L 77.682025 251.488947 
L 78.293625 235.947321 
L 78.905225 267.030574 
L 79.516825 267.030574 
L 80.128425 220.405694 
L 80.740025 204.864067 
L 81.351625 173.780813 
L 81.963225 173.780813 
L 82.574825 158.239187 
L 83.186425 204.864067 
L 83.798025 220.405694 
L 84.409625 220.405694 
L 85.021225 235.947321 
L 85.632825 173.780813 
L 86.244425 158.239187 
L 86.856025 173.780813 
L 88.079225 235.947321 
L 88.690825 189.32244 
L 89.302425 173.780813 
L 89.914025 142.69756 
L 90.525625 142.69756 
L 91.137225 158.239187 
L 91.748825 204.864067 
L 92.360425 204.864067 
L 92.972025 220.405694 
L 93.583625 251.488947 
L 94.195225 251.488947 
L 95.418425 220.405694 
L 96.030025 235.947321 
L 96.641625 158.239187 
L 97.253225 173.780813 
L 97.864825 96.072679 
L 99.088025 64.989426 
L 99.699625 18.364545 
L 100.311225 33.906172 
L 101.534425 96.072679 
L 102.757625 267.030574 
L 103.980825 235.947321 
L 104.592425 204.864067 
L 105.204025 204.864067 
L 105.815625 189.32244 
L 106.427225 158.239187 
L 107.038825 142.69756 
L 107.650425 204.864067 
L 108.262025 251.488947 
L 108.873625 235.947321 
L 109.485225 189.32244 
L 110.096825 189.32244 
L 110.708425 220.405694 
L 111.320025 204.864067 
L 111.931625 220.405694 
L 112.543225 251.488947 
L 113.766425 251.488947 
L 114.378025 220.405694 
L 114.989625 204.864067 
L 116.212825 204.864067 
L 116.824425 158.239187 
L 118.047625 158.239187 
L 118.659225 189.32244 
L 119.270825 204.864067 
L 120.494025 204.864067 
L 121.105625 282.572201 
L 121.717225 282.572201 
L 122.328825 298.113828 
L 122.940425 220.405694 
L 123.552025 204.864067 
L 124.775225 204.864067 
L 125.386825 235.947321 
L 125.998425 235.947321 
L 126.610025 251.488947 
L 127.221625 204.864067 
L 127.833225 204.864067 
L 128.444825 158.239187 
L 129.056425 142.69756 
L 129.668025 142.69756 
L 130.279625 189.32244 
L 130.891225 111.614306 
L 132.114425 173.780813 
L 132.726025 158.239187 
L 133.337625 189.32244 
L 133.949225 189.32244 
L 134.560825 267.030574 
L 135.784025 173.780813 
L 136.395625 204.864067 
L 137.007225 220.405694 
L 137.618825 220.405694 
L 138.230425 235.947321 
L 138.842025 189.32244 
L 139.453625 173.780813 
L 140.065225 204.864067 
L 141.288425 142.69756 
L 141.900025 173.780813 
L 143.123225 204.864067 
L 143.734825 235.947321 
L 144.346425 189.32244 
L 145.569625 158.239187 
L 146.181225 158.239187 
L 146.792825 189.32244 
L 147.404425 235.947321 
L 148.016025 251.488947 
L 148.627625 235.947321 
L 149.239225 189.32244 
L 149.850825 158.239187 
L 150.462425 189.32244 
L 151.074025 173.780813 
L 151.685625 220.405694 
L 152.297225 251.488947 
L 152.908825 267.030574 
L 153.520425 267.030574 
L 154.132025 251.488947 
L 154.743625 204.864067 
L 155.355225 189.32244 
L 155.966825 204.864067 
L 156.578425 173.780813 
L 157.801625 235.947321 
L 158.413225 251.488947 
L 159.024825 220.405694 
L 159.636425 220.405694 
L 160.248025 189.32244 
L 160.859625 142.69756 
L 161.471225 127.155933 
L 162.082825 127.155933 
L 162.694425 204.864067 
L 163.306025 204.864067 
L 163.917625 220.405694 
L 164.529225 251.488947 
L 165.140825 220.405694 
L 166.364025 220.405694 
L 166.975625 204.864067 
L 169.422025 204.864067 
L 170.033625 235.947321 
L 170.645225 235.947321 
L 171.256825 204.864067 
L 171.868425 220.405694 
L 172.480025 220.405694 
L 173.091625 251.488947 
L 173.703225 267.030574 
L 175.538025 220.405694 
L 176.149625 173.780813 
L 176.761225 142.69756 
L 177.372825 142.69756 
L 177.984425 204.864067 
L 178.596025 220.405694 
L 179.207625 251.488947 
L 179.819225 267.030574 
L 180.430825 251.488947 
L 181.042425 220.405694 
L 181.654025 220.405694 
L 182.265625 204.864067 
L 182.877225 220.405694 
L 183.488825 204.864067 
L 184.100425 220.405694 
L 184.712025 267.030574 
L 185.935225 204.864067 
L 186.546825 189.32244 
L 187.770025 189.32244 
L 188.381625 220.405694 
L 188.993225 235.947321 
L 189.604825 235.947321 
L 190.216425 204.864067 
L 190.828025 220.405694 
L 191.439625 220.405694 
L 192.051225 204.864067 
L 192.662825 204.864067 
L 193.274425 158.239187 
L 193.886025 173.780813 
L 195.109225 267.030574 
L 195.720825 267.030574 
L 196.332425 251.488947 
L 197.555625 158.239187 
L 198.167225 158.239187 
L 198.778825 142.69756 
L 199.390425 142.69756 
L 200.002025 127.155933 
L 200.613625 127.155933 
L 201.225225 189.32244 
L 201.836825 189.32244 
L 202.448425 127.155933 
L 203.671625 189.32244 
L 205.506425 142.69756 
L 206.118025 173.780813 
L 207.952825 220.405694 
L 208.564425 267.030574 
L 209.787625 204.864067 
L 210.399225 204.864067 
L 211.010825 235.947321 
L 211.622425 251.488947 
L 212.234025 251.488947 
L 212.845625 235.947321 
L 214.068825 142.69756 
L 214.680425 158.239187 
L 215.292025 158.239187 
L 215.903625 189.32244 
L 217.126825 189.32244 
L 217.738425 204.864067 
L 218.350025 189.32244 
L 218.961625 189.32244 
L 219.573225 204.864067 
L 220.184825 267.030574 
L 221.408025 267.030574 
L 222.019625 220.405694 
L 222.631225 158.239187 
L 223.242825 127.155933 
L 223.854425 127.155933 
L 224.466025 142.69756 
L 225.077625 127.155933 
L 225.689225 142.69756 
L 226.300825 189.32244 
L 226.912425 204.864067 
L 228.135625 204.864067 
L 228.747225 220.405694 
L 229.358825 267.030574 
L 229.970425 235.947321 
L 230.582025 235.947321 
L 231.193625 173.780813 
L 231.805225 158.239187 
L 232.416825 173.780813 
L 233.028425 158.239187 
L 233.640025 111.614306 
L 234.251625 80.531053 
L 234.863225 96.072679 
L 235.474825 127.155933 
L 236.086425 127.155933 
L 236.698025 189.32244 
L 237.309625 204.864067 
L 237.921225 204.864067 
L 238.532825 235.947321 
L 239.144425 189.32244 
L 239.756025 204.864067 
L 240.367625 204.864067 
L 240.979225 220.405694 
L 241.590825 189.32244 
L 242.202425 189.32244 
L 242.814025 158.239187 
L 243.425625 142.69756 
L 244.037225 189.32244 
L 244.648825 204.864067 
L 245.260425 282.572201 
L 245.872025 220.405694 
L 246.483625 220.405694 
L 247.095225 173.780813 
L 248.318425 204.864067 
L 248.930025 235.947321 
L 249.541625 251.488947 
L 250.153225 235.947321 
L 250.764825 235.947321 
L 251.376425 189.32244 
L 251.988025 158.239187 
L 252.599625 220.405694 
L 253.822825 251.488947 
L 255.046025 251.488947 
L 255.657625 235.947321 
L 256.269225 235.947321 
L 256.880825 267.030574 
L 257.492425 235.947321 
L 258.104025 267.030574 
L 259.327225 235.947321 
L 259.938825 173.780813 
L 260.550425 189.32244 
L 261.162025 189.32244 
L 261.773625 158.239187 
L 262.385225 158.239187 
L 262.996825 235.947321 
L 263.608425 251.488947 
L 264.220025 251.488947 
L 264.831625 220.405694 
L 265.443225 235.947321 
L 266.054825 235.947321 
L 266.666425 204.864067 
L 267.278025 189.32244 
L 267.889625 204.864067 
L 268.501225 235.947321 
L 269.112825 251.488947 
L 269.724425 251.488947 
L 270.336025 298.113828 
L 270.947625 251.488947 
L 271.559225 220.405694 
L 272.170825 142.69756 
L 272.782425 111.614306 
L 273.394025 158.239187 
L 274.005625 127.155933 
L 274.617225 173.780813 
L 275.228825 189.32244 
L 275.840425 220.405694 
L 276.452025 220.405694 
L 277.063625 267.030574 
L 277.675225 251.488947 
L 278.286825 267.030574 
L 278.898425 235.947321 
L 279.510025 235.947321 
L 280.121625 204.864067 
L 280.733225 204.864067 
L 281.344825 220.405694 
L 281.956425 267.030574 
L 282.568025 235.947321 
L 283.791225 235.947321 
L 284.402825 204.864067 
L 285.014425 158.239187 
L 285.626025 142.69756 
L 286.237625 189.32244 
L 286.849225 173.780813 
L 287.460825 127.155933 
L 288.072425 127.155933 
L 288.684025 142.69756 
L 289.295625 220.405694 
L 289.907225 204.864067 
L 291.130425 204.864067 
L 291.742025 220.405694 
L 292.353625 204.864067 
L 292.965225 235.947321 
L 293.576825 235.947321 
L 294.188425 220.405694 
L 294.800025 220.405694 
L 295.411625 267.030574 
L 296.634825 204.864067 
L 297.246425 189.32244 
L 297.858025 204.864067 
L 298.469625 158.239187 
L 299.081225 127.155933 
L 299.692825 127.155933 
L 300.916025 282.572201 
L 302.139225 251.488947 
L 302.750825 204.864067 
L 303.362425 189.32244 
L 304.585625 189.32244 
L 305.808825 220.405694 
L 306.420425 204.864067 
L 307.032025 173.780813 
L 308.255225 204.864067 
L 308.866825 251.488947 
L 309.478425 220.405694 
L 310.701625 189.32244 
L 311.924825 220.405694 
L 312.536425 251.488947 
L 313.148025 298.113828 
L 314.371225 173.780813 
L 315.594425 235.947321 
L 316.206025 235.947321 
L 316.817625 220.405694 
L 317.429225 189.32244 
L 318.040825 235.947321 
L 319.875625 235.947321 
L 321.098825 267.030574 
L 321.710425 189.32244 
L 322.933625 220.405694 
L 324.156825 220.405694 
L 324.768425 204.864067 
L 325.380025 173.780813 
L 325.991625 235.947321 
L 326.603225 220.405694 
L 327.214825 235.947321 
L 328.438025 204.864067 
L 329.049625 204.864067 
L 329.661225 189.32244 
L 330.272825 189.32244 
L 330.884425 220.405694 
L 331.496025 267.030574 
L 332.107625 282.572201 
L 332.719225 251.488947 
L 333.330825 267.030574 
L 334.554025 235.947321 
L 335.165625 158.239187 
L 335.777225 158.239187 
L 336.388825 142.69756 
L 337.000425 204.864067 
L 337.612025 235.947321 
L 338.223625 235.947321 
L 338.835225 220.405694 
L 339.446825 189.32244 
L 340.058425 111.614306 
L 340.670025 111.614306 
L 341.281625 189.32244 
L 341.893225 204.864067 
L 342.504825 267.030574 
L 343.116425 282.572201 
L 343.728025 204.864067 
L 344.339625 189.32244 
L 345.562825 220.405694 
L 346.174425 220.405694 
L 346.786025 189.32244 
L 347.397625 189.32244 
L 348.009225 173.780813 
L 348.620825 111.614306 
L 349.232425 111.614306 
L 349.844025 158.239187 
L 350.455625 158.239187 
L 351.067225 204.864067 
L 351.678825 204.864067 
L 352.290425 251.488947 
L 352.902025 267.030574 
L 353.513625 251.488947 
L 354.125225 220.405694 
L 355.348425 96.072679 
L 355.960025 111.614306 
L 356.571625 173.780813 
L 357.183225 220.405694 
L 357.794825 251.488947 
L 358.406425 267.030574 
L 359.018025 220.405694 
L 359.629625 204.864067 
L 360.241225 235.947321 
L 360.852825 220.405694 
L 361.464425 220.405694 
L 362.076025 235.947321 
L 362.687625 267.030574 
L 363.299225 220.405694 
L 364.522425 251.488947 
L 365.134025 204.864067 
L 365.745625 220.405694 
L 366.357225 173.780813 
L 366.968825 204.864067 
L 367.580425 158.239187 
L 368.192025 204.864067 
L 368.803625 189.32244 
L 369.415225 127.155933 
L 370.026825 96.072679 
L 370.638425 142.69756 
L 371.861625 204.864067 
L 372.473225 204.864067 
L 373.084825 173.780813 
L 373.696425 111.614306 
L 374.308025 158.239187 
L 374.919625 158.239187 
L 375.531225 173.780813 
L 376.142825 220.405694 
L 376.754425 235.947321 
L 377.366025 204.864067 
L 378.589225 267.030574 
L 379.812425 204.864067 
L 380.424025 189.32244 
L 381.035625 158.239187 
L 381.647225 173.780813 
L 382.258825 204.864067 
L 382.870425 220.405694 
L 383.482025 251.488947 
L 384.093625 267.030574 
L 384.705225 251.488947 
L 385.316825 204.864067 
L 385.928425 204.864067 
L 386.540025 220.405694 
L 387.151625 173.780813 
L 388.374825 235.947321 
L 388.986425 251.488947 
L 389.598025 251.488947 
L 390.209625 220.405694 
L 391.432825 189.32244 
L 392.044425 189.32244 
L 392.656025 173.780813 
L 393.267625 127.155933 
L 393.879225 173.780813 
L 394.490825 158.239187 
L 395.102425 204.864067 
L 395.714025 220.405694 
L 396.325625 158.239187 
L 396.937225 142.69756 
L 397.548825 173.780813 
L 398.160425 251.488947 
L 398.772025 267.030574 
L 399.383625 220.405694 
L 399.995225 158.239187 
L 400.606825 189.32244 
L 401.218425 189.32244 
L 401.830025 282.572201 
L 402.441625 267.030574 
L 403.053225 235.947321 
L 403.664825 189.32244 
L 404.276425 158.239187 
L 404.888025 173.780813 
L 405.499625 235.947321 
L 406.722825 204.864067 
L 407.334425 220.405694 
L 407.946025 251.488947 
L 408.557625 267.030574 
L 409.169225 220.405694 
L 409.780825 158.239187 
L 410.392425 127.155933 
L 411.615625 220.405694 
L 412.227225 220.405694 
L 412.838825 173.780813 
L 413.450425 189.32244 
L 414.062025 173.780813 
L 414.673625 204.864067 
L 415.285225 173.780813 
L 415.896825 189.32244 
L 416.508425 189.32244 
L 417.120025 173.780813 
L 417.731625 204.864067 
L 418.343225 173.780813 
L 418.954825 220.405694 
L 419.566425 220.405694 
L 420.178025 267.030574 
L 420.789625 251.488947 
L 421.401225 251.488947 
L 422.012825 235.947321 
L 422.624425 235.947321 
L 423.236025 204.864067 
L 423.847625 204.864067 
L 424.459225 220.405694 
L 425.070825 251.488947 
L 425.682425 204.864067 
L 426.905625 142.69756 
L 427.517225 173.780813 
L 428.128825 235.947321 
L 428.740425 235.947321 
L 429.352025 173.780813 
L 429.963625 189.32244 
L 430.575225 158.239187 
L 431.798425 189.32244 
L 432.410025 158.239187 
L 433.021625 173.780813 
L 433.633225 204.864067 
L 434.244825 220.405694 
L 434.856425 251.488947 
L 435.468025 251.488947 
L 436.079625 282.572201 
L 436.691225 220.405694 
L 437.302825 189.32244 
L 438.526025 220.405694 
L 439.137625 189.32244 
L 439.749225 189.32244 
L 440.360825 220.405694 
L 440.972425 173.780813 
L 441.584025 158.239187 
L 442.195625 220.405694 
L 443.418825 220.405694 
L 444.642025 189.32244 
L 445.253625 235.947321 
L 445.865225 251.488947 
L 446.476825 220.405694 
L 447.088425 204.864067 
L 447.700025 204.864067 
L 448.311625 220.405694 
L 448.923225 189.32244 
L 449.534825 220.405694 
L 450.146425 158.239187 
L 450.758025 173.780813 
L 451.369625 158.239187 
L 451.981225 189.32244 
L 453.816025 235.947321 
L 454.427625 267.030574 
L 455.039225 267.030574 
L 455.650825 235.947321 
L 456.262425 220.405694 
L 456.874025 251.488947 
L 457.485625 235.947321 
L 458.097225 204.864067 
L 458.708825 204.864067 
L 459.320425 158.239187 
L 459.932025 142.69756 
L 460.543625 173.780813 
L 461.155225 158.239187 
L 461.766825 189.32244 
L 462.378425 235.947321 
L 462.990025 204.864067 
L 463.601625 142.69756 
L 464.824825 204.864067 
L 465.436425 189.32244 
L 466.048025 189.32244 
L 466.659625 158.239187 
L 467.271225 204.864067 
L 467.882825 158.239187 
L 468.494425 142.69756 
L 469.106025 173.780813 
L 469.717625 235.947321 
L 470.329225 189.32244 
L 470.940825 189.32244 
L 471.552425 142.69756 
L 472.164025 127.155933 
L 472.775625 173.780813 
L 473.998825 173.780813 
L 475.833625 220.405694 
L 476.445225 189.32244 
L 477.056825 220.405694 
L 478.280025 220.405694 
L 478.891625 235.947321 
L 479.503225 235.947321 
L 480.114825 189.32244 
L 480.726425 189.32244 
L 481.338025 158.239187 
L 481.949625 158.239187 
L 482.561225 220.405694 
L 484.396025 267.030574 
L 485.007625 251.488947 
L 485.619225 220.405694 
L 486.230825 220.405694 
L 486.842425 204.864067 
L 487.454025 251.488947 
L 488.065625 267.030574 
L 488.677225 220.405694 
L 489.288825 235.947321 
L 489.900425 204.864067 
L 490.512025 189.32244 
L 491.123625 235.947321 
L 492.346825 267.030574 
L 492.958425 220.405694 
L 493.570025 220.405694 
L 494.181625 189.32244 
L 494.793225 189.32244 
L 496.016425 158.239187 
L 496.628025 220.405694 
L 497.239625 220.405694 
L 497.851225 204.864067 
L 498.462825 158.239187 
L 499.074425 173.780813 
L 499.686025 220.405694 
L 500.297625 204.864067 
L 500.909225 235.947321 
L 501.520825 235.947321 
L 502.132425 220.405694 
L 502.744025 189.32244 
L 503.355625 173.780813 
L 503.967225 204.864067 
L 504.578825 220.405694 
L 505.190425 251.488947 
L 506.413625 189.32244 
L 507.025225 173.780813 
L 507.636825 173.780813 
L 508.248425 142.69756 
L 509.471625 173.780813 
L 510.083225 204.864067 
L 511.306425 142.69756 
L 511.918025 142.69756 
L 513.141225 111.614306 
L 513.752825 158.239187 
L 514.364425 189.32244 
L 514.976025 189.32244 
L 515.587625 173.780813 
L 516.199225 220.405694 
L 516.810825 251.488947 
L 518.034025 251.488947 
L 518.645625 235.947321 
L 519.257225 204.864067 
L 519.868825 158.239187 
L 520.480425 142.69756 
L 521.092025 173.780813 
L 521.703625 235.947321 
L 522.315225 220.405694 
L 522.926825 189.32244 
L 523.538425 204.864067 
L 524.761625 173.780813 
L 525.373225 204.864067 
L 525.984825 173.780813 
L 526.596425 189.32244 
L 527.819625 251.488947 
L 528.431225 267.030574 
L 529.042825 220.405694 
L 529.654425 235.947321 
L 530.266025 220.405694 
L 530.877625 189.32244 
L 531.489225 204.864067 
L 532.100825 204.864067 
L 532.712425 173.780813 
L 533.324025 204.864067 
L 533.935625 189.32244 
L 534.547225 189.32244 
L 535.158825 204.864067 
L 535.770425 173.780813 
L 536.993625 235.947321 
L 537.605225 251.488947 
L 538.216825 220.405694 
L 538.828425 204.864067 
L 539.440025 204.864067 
L 540.051625 173.780813 
L 540.663225 158.239187 
L 541.274825 173.780813 
L 541.886425 220.405694 
L 542.498025 235.947321 
L 543.109625 189.32244 
L 544.944425 189.32244 
L 545.556025 235.947321 
L 546.779225 267.030574 
L 547.390825 267.030574 
L 548.002425 204.864067 
L 548.614025 173.780813 
L 549.225625 189.32244 
L 550.448825 127.155933 
L 551.060425 158.239187 
L 551.672025 111.614306 
L 552.283625 189.32244 
L 552.895225 189.32244 
L 553.506825 235.947321 
L 554.118425 220.405694 
L 554.730025 235.947321 
L 555.953225 235.947321 
L 556.564825 267.030574 
L 557.176425 235.947321 
L 559.011225 235.947321 
L 559.622825 220.405694 
L 560.234425 235.947321 
L 560.846025 235.947321 
L 561.457625 189.32244 
L 562.069225 204.864067 
L 562.680825 158.239187 
L 563.292425 142.69756 
L 563.904025 111.614306 
L 564.515625 142.69756 
L 565.127225 127.155933 
L 565.738825 204.864067 
L 566.350425 204.864067 
L 566.962025 267.030574 
L 567.573625 235.947321 
L 568.185225 251.488947 
L 568.796825 251.488947 
L 569.408425 235.947321 
L 570.020025 235.947321 
L 570.631625 251.488947 
L 571.243225 204.864067 
L 572.466425 235.947321 
L 573.078025 235.947321 
L 573.689625 189.32244 
L 574.301225 189.32244 
L 574.912825 204.864067 
L 575.524425 235.947321 
L 576.136025 251.488947 
L 576.747625 251.488947 
L 577.970825 189.32244 
L 578.582425 127.155933 
L 579.194025 111.614306 
L 579.805625 158.239187 
L 580.417225 189.32244 
L 581.640425 189.32244 
L 582.252025 173.780813 
L 582.863625 204.864067 
L 584.086825 235.947321 
L 584.698425 220.405694 
L 585.921625 158.239187 
L 586.533225 158.239187 
L 587.144825 235.947321 
L 587.756425 204.864067 
L 588.368025 235.947321 
L 588.979625 220.405694 
L 589.591225 282.572201 
L 590.202825 235.947321 
L 590.814425 267.030574 
L 591.426025 173.780813 
L 592.037625 158.239187 
L 592.649225 173.780813 
L 593.260825 173.780813 
L 593.872425 220.405694 
L 594.484025 220.405694 
L 595.095625 204.864067 
L 595.707225 204.864067 
L 596.318825 189.32244 
L 596.930425 189.32244 
L 597.542025 251.488947 
L 598.153625 267.030574 
L 598.765225 251.488947 
L 599.376825 220.405694 
L 600.600025 220.405694 
L 601.211625 189.32244 
L 601.823225 189.32244 
L 602.434825 127.155933 
L 603.046425 173.780813 
L 603.658025 158.239187 
L 604.269625 173.780813 
L 604.881225 204.864067 
L 605.492825 189.32244 
L 606.104425 189.32244 
L 606.716025 235.947321 
L 607.327625 189.32244 
L 607.939225 220.405694 
L 608.550825 189.32244 
L 609.162425 173.780813 
L 609.774025 189.32244 
L 610.385625 189.32244 
L 610.997225 173.780813 
L 612.220425 204.864067 
L 613.443625 204.864067 
L 614.055225 189.32244 
L 614.666825 220.405694 
L 615.278425 220.405694 
L 615.890025 267.030574 
L 616.501625 267.030574 
L 617.113225 204.864067 
L 617.724825 189.32244 
L 618.336425 189.32244 
L 618.948025 158.239187 
L 620.171225 189.32244 
L 620.782825 220.405694 
L 621.394425 204.864067 
L 622.006025 220.405694 
L 622.617625 189.32244 
L 623.229225 204.864067 
L 624.452425 204.864067 
L 625.064025 220.405694 
L 625.675625 220.405694 
L 626.287225 298.113828 
L 626.898825 235.947321 
L 627.510425 220.405694 
L 628.733625 158.239187 
L 629.345225 189.32244 
L 629.956825 204.864067 
L 630.568425 173.780813 
L 631.180025 189.32244 
L 631.791625 220.405694 
L 633.014825 220.405694 
L 633.626425 173.780813 
L 634.238025 204.864067 
L 634.849625 173.780813 
L 635.461225 204.864067 
L 636.072825 189.32244 
L 636.684425 189.32244 
L 637.296025 220.405694 
L 637.907625 235.947321 
L 638.519225 204.864067 
L 639.130825 220.405694 
L 639.742425 220.405694 
L 640.354025 204.864067 
L 640.965625 220.405694 
L 641.577225 158.239187 
L 642.188825 173.780813 
L 642.800425 220.405694 
L 643.412025 251.488947 
L 644.023625 220.405694 
L 644.635225 204.864067 
L 645.246825 173.780813 
L 645.858425 220.405694 
L 646.470025 189.32244 
L 647.081625 251.488947 
L 647.693225 267.030574 
L 648.304825 267.030574 
L 648.916425 204.864067 
L 649.528025 173.780813 
L 650.139625 189.32244 
L 650.751225 173.780813 
L 651.362825 220.405694 
L 651.974425 220.405694 
L 652.586025 204.864067 
L 653.197625 235.947321 
L 653.809225 235.947321 
L 654.420825 220.405694 
L 655.644025 158.239187 
L 656.255625 189.32244 
L 656.867225 204.864067 
L 657.478825 189.32244 
L 658.090425 235.947321 
L 659.313625 204.864067 
L 660.536825 142.69756 
L 661.148425 189.32244 
L 662.371625 251.488947 
L 662.983225 267.030574 
L 663.594825 251.488947 
L 664.818025 158.239187 
L 665.429625 173.780813 
L 666.652825 80.531053 
L 667.264425 64.989426 
L 668.487625 158.239187 
L 669.099225 220.405694 
L 669.710825 204.864067 
L 670.322425 173.780813 
L 671.545625 173.780813 
L 671.545625 173.780813 
" clip-path="url(#p732fdee842)" style="fill: none; stroke: #0c5da5; stroke-linecap: square"/>
   </g>
   <g id="patch_3">
    <path d="M 29.365625 328.42 
L 29.365625 3.6 
" style="fill: none; stroke: #000000; stroke-width: 0.5; stroke-linejoin: miter; stroke-linecap: square"/>
   </g>
   <g id="patch_4">
    <path d="M 702.125625 328.42 
L 702.125625 3.6 
" style="fill: none; stroke: #000000; stroke-width: 0.5; stroke-linejoin: miter; stroke-linecap: square"/>
   </g>
   <g id="patch_5">
    <path d="M 29.365625 328.42 
L 702.125625 328.42 
" style="fill: none; stroke: #000000; stroke-width: 0.5; stroke-linejoin: miter; stroke-linecap: square"/>
   </g>
   <g id="patch_6">
    <path d="M 29.365625 3.6 
L 702.125625 3.6 
" style="fill: none; stroke: #000000; stroke-width: 0.5; stroke-linejoin: miter; stroke-linecap: square"/>
   </g>
  </g>
 </g>
 <defs>
  <clipPath id="p732fdee842">
   <rect x="29.365625" y="3.6" width="672.76" height="324.82"/>
  </clipPath>
 </defs>
</svg>
