<?xml version="1.0" encoding="utf-8" standalone="no"?>
<!DOCTYPE svg PUBLIC "-//W3C//DTD SVG 1.1//EN"
  "http://www.w3.org/Graphics/SVG/1.1/DTD/svg11.dtd">
<svg xmlns:xlink="http://www.w3.org/1999/xlink" width="705.545pt" height="345.198125pt" viewBox="0 0 705.545 345.198125" xmlns="http://www.w3.org/2000/svg" version="1.1">
 <metadata>
  <rdf:RDF xmlns:dc="http://purl.org/dc/elements/1.1/" xmlns:cc="http://creativecommons.org/ns#" xmlns:rdf="http://www.w3.org/1999/02/22-rdf-syntax-ns#">
   <cc:Work>
    <dc:type rdf:resource="http://purl.org/dc/dcmitype/StillImage"/>
    <dc:date>2023-07-06T23:26:17.398825</dc:date>
    <dc:format>image/svg+xml</dc:format>
    <dc:creator>
     <cc:Agent>
      <dc:title>Matplotlib v3.7.2, https://matplotlib.org/</dc:title>
     </cc:Agent>
    </dc:creator>
   </cc:Work>
  </rdf:RDF>
 </metadata>
 <defs>
  <style type="text/css">*{stroke-linejoin: round; stroke-linecap: butt}</style>
 </defs>
 <g id="figure_1">
  <g id="patch_1">
   <path d="M -0 345.198125 
L 705.545 345.198125 
L 705.545 0 
L -0 0 
z
" style="fill: #ffffff"/>
  </g>
  <g id="axes_1">
   <g id="patch_2">
    <path d="M 19.825 328.42 
L 701.945 328.42 
L 701.945 3.6 
L 19.825 3.6 
z
" style="fill: #ffffff"/>
   </g>
   <g id="matplotlib.axis_1">
    <g id="xtick_1">
     <g id="line2d_1">
      <defs>
       <path id="m96d6634bd3" d="M 0 0 
L 0 -3 
" style="stroke: #000000; stroke-width: 0.5"/>
      </defs>
      <g>
       <use xlink:href="#m96d6634bd3" x="50.210345" y="328.42" style="stroke: #000000; stroke-width: 0.5"/>
      </g>
     </g>
     <g id="line2d_2">
      <defs>
       <path id="ma75aed7239" d="M 0 0 
L 0 3 
" style="stroke: #000000; stroke-width: 0.5"/>
      </defs>
      <g>
       <use xlink:href="#ma75aed7239" x="50.210345" y="3.6" style="stroke: #000000; stroke-width: 0.5"/>
      </g>
     </g>
     <g id="text_1">
      <!-- 0 -->
      <g transform="translate(47.029095 339.518437) scale(0.1 -0.1)">
       <defs>
        <path id="DejaVuSerif-30" d="M 2034 219 
Q 2513 219 2750 744 
Q 2988 1269 2988 2328 
Q 2988 3391 2750 3916 
Q 2513 4441 2034 4441 
Q 1556 4441 1318 3916 
Q 1081 3391 1081 2328 
Q 1081 1269 1318 744 
Q 1556 219 2034 219 
z
M 2034 -91 
Q 1275 -91 848 546 
Q 422 1184 422 2328 
Q 422 3475 848 4112 
Q 1275 4750 2034 4750 
Q 2797 4750 3222 4112 
Q 3647 3475 3647 2328 
Q 3647 1184 3222 546 
Q 2797 -91 2034 -91 
z
" transform="scale(0.015625)"/>
       </defs>
       <use xlink:href="#DejaVuSerif-30"/>
      </g>
     </g>
    </g>
    <g id="xtick_2">
     <g id="line2d_3">
      <g>
       <use xlink:href="#m96d6634bd3" x="174.232164" y="328.42" style="stroke: #000000; stroke-width: 0.5"/>
      </g>
     </g>
     <g id="line2d_4">
      <g>
       <use xlink:href="#ma75aed7239" x="174.232164" y="3.6" style="stroke: #000000; stroke-width: 0.5"/>
      </g>
     </g>
     <g id="text_2">
      <!-- 200 -->
      <g transform="translate(164.688414 339.518437) scale(0.1 -0.1)">
       <defs>
        <path id="DejaVuSerif-32" d="M 819 3553 
L 469 3553 
L 469 4384 
Q 803 4563 1142 4656 
Q 1481 4750 1806 4750 
Q 2534 4750 2956 4397 
Q 3378 4044 3378 3438 
Q 3378 2753 2422 1800 
Q 2347 1728 2309 1691 
L 1131 513 
L 3078 513 
L 3078 1088 
L 3444 1088 
L 3444 0 
L 434 0 
L 434 341 
L 1850 1753 
Q 2319 2222 2519 2614 
Q 2719 3006 2719 3438 
Q 2719 3909 2473 4175 
Q 2228 4441 1797 4441 
Q 1350 4441 1106 4219 
Q 863 3997 819 3553 
z
" transform="scale(0.015625)"/>
       </defs>
       <use xlink:href="#DejaVuSerif-32"/>
       <use xlink:href="#DejaVuSerif-30" x="63.623047"/>
       <use xlink:href="#DejaVuSerif-30" x="127.246094"/>
      </g>
     </g>
    </g>
    <g id="xtick_3">
     <g id="line2d_5">
      <g>
       <use xlink:href="#m96d6634bd3" x="298.253982" y="328.42" style="stroke: #000000; stroke-width: 0.5"/>
      </g>
     </g>
     <g id="line2d_6">
      <g>
       <use xlink:href="#ma75aed7239" x="298.253982" y="3.6" style="stroke: #000000; stroke-width: 0.5"/>
      </g>
     </g>
     <g id="text_3">
      <!-- 400 -->
      <g transform="translate(288.710232 339.518437) scale(0.1 -0.1)">
       <defs>
        <path id="DejaVuSerif-34" d="M 2234 1581 
L 2234 4063 
L 641 1581 
L 2234 1581 
z
M 3609 0 
L 1484 0 
L 1484 331 
L 2234 331 
L 2234 1247 
L 197 1247 
L 197 1588 
L 2241 4750 
L 2859 4750 
L 2859 1581 
L 3750 1581 
L 3750 1247 
L 2859 1247 
L 2859 331 
L 3609 331 
L 3609 0 
z
" transform="scale(0.015625)"/>
       </defs>
       <use xlink:href="#DejaVuSerif-34"/>
       <use xlink:href="#DejaVuSerif-30" x="63.623047"/>
       <use xlink:href="#DejaVuSerif-30" x="127.246094"/>
      </g>
     </g>
    </g>
    <g id="xtick_4">
     <g id="line2d_7">
      <g>
       <use xlink:href="#m96d6634bd3" x="422.2758" y="328.42" style="stroke: #000000; stroke-width: 0.5"/>
      </g>
     </g>
     <g id="line2d_8">
      <g>
       <use xlink:href="#ma75aed7239" x="422.2758" y="3.6" style="stroke: #000000; stroke-width: 0.5"/>
      </g>
     </g>
     <g id="text_4">
      <!-- 600 -->
      <g transform="translate(412.73205 339.518437) scale(0.1 -0.1)">
       <defs>
        <path id="DejaVuSerif-36" d="M 2094 219 
Q 2534 219 2771 542 
Q 3009 866 3009 1472 
Q 3009 2078 2771 2401 
Q 2534 2725 2094 2725 
Q 1647 2725 1412 2412 
Q 1178 2100 1178 1509 
Q 1178 888 1415 553 
Q 1653 219 2094 219 
z
M 1075 2569 
Q 1288 2803 1556 2918 
Q 1825 3034 2163 3034 
Q 2859 3034 3264 2615 
Q 3669 2197 3669 1472 
Q 3669 763 3233 336 
Q 2797 -91 2069 -91 
Q 1278 -91 853 498 
Q 428 1088 428 2181 
Q 428 3406 931 4078 
Q 1434 4750 2350 4750 
Q 2597 4750 2869 4703 
Q 3141 4656 3425 4563 
L 3425 3794 
L 3072 3794 
Q 3034 4109 2831 4275 
Q 2628 4441 2284 4441 
Q 1678 4441 1381 3981 
Q 1084 3522 1075 2569 
z
" transform="scale(0.015625)"/>
       </defs>
       <use xlink:href="#DejaVuSerif-36"/>
       <use xlink:href="#DejaVuSerif-30" x="63.623047"/>
       <use xlink:href="#DejaVuSerif-30" x="127.246094"/>
      </g>
     </g>
    </g>
    <g id="xtick_5">
     <g id="line2d_9">
      <g>
       <use xlink:href="#m96d6634bd3" x="546.297618" y="328.42" style="stroke: #000000; stroke-width: 0.5"/>
      </g>
     </g>
     <g id="line2d_10">
      <g>
       <use xlink:href="#ma75aed7239" x="546.297618" y="3.6" style="stroke: #000000; stroke-width: 0.5"/>
      </g>
     </g>
     <g id="text_5">
      <!-- 800 -->
      <g transform="translate(536.753868 339.518437) scale(0.1 -0.1)">
       <defs>
        <path id="DejaVuSerif-38" d="M 2981 1275 
Q 2981 1775 2732 2051 
Q 2484 2328 2034 2328 
Q 1584 2328 1336 2051 
Q 1088 1775 1088 1275 
Q 1088 772 1336 495 
Q 1584 219 2034 219 
Q 2484 219 2732 495 
Q 2981 772 2981 1275 
z
M 2853 3541 
Q 2853 3966 2637 4203 
Q 2422 4441 2034 4441 
Q 1650 4441 1433 4203 
Q 1216 3966 1216 3541 
Q 1216 3113 1433 2875 
Q 1650 2638 2034 2638 
Q 2422 2638 2637 2875 
Q 2853 3113 2853 3541 
z
M 2516 2484 
Q 3047 2413 3344 2092 
Q 3641 1772 3641 1275 
Q 3641 619 3225 264 
Q 2809 -91 2034 -91 
Q 1263 -91 845 264 
Q 428 619 428 1275 
Q 428 1772 725 2092 
Q 1022 2413 1556 2484 
Q 1084 2569 832 2842 
Q 581 3116 581 3541 
Q 581 4103 968 4426 
Q 1356 4750 2034 4750 
Q 2713 4750 3100 4426 
Q 3488 4103 3488 3541 
Q 3488 3116 3236 2842 
Q 2984 2569 2516 2484 
z
" transform="scale(0.015625)"/>
       </defs>
       <use xlink:href="#DejaVuSerif-38"/>
       <use xlink:href="#DejaVuSerif-30" x="63.623047"/>
       <use xlink:href="#DejaVuSerif-30" x="127.246094"/>
      </g>
     </g>
    </g>
    <g id="xtick_6">
     <g id="line2d_11">
      <g>
       <use xlink:href="#m96d6634bd3" x="670.319436" y="328.42" style="stroke: #000000; stroke-width: 0.5"/>
      </g>
     </g>
     <g id="line2d_12">
      <g>
       <use xlink:href="#ma75aed7239" x="670.319436" y="3.6" style="stroke: #000000; stroke-width: 0.5"/>
      </g>
     </g>
     <g id="text_6">
      <!-- 1000 -->
      <g transform="translate(657.594436 339.518437) scale(0.1 -0.1)">
       <defs>
        <path id="DejaVuSerif-31" d="M 909 0 
L 909 331 
L 1722 331 
L 1722 4213 
L 781 3603 
L 781 4013 
L 1919 4750 
L 2350 4750 
L 2350 331 
L 3163 331 
L 3163 0 
L 909 0 
z
" transform="scale(0.015625)"/>
       </defs>
       <use xlink:href="#DejaVuSerif-31"/>
       <use xlink:href="#DejaVuSerif-30" x="63.623047"/>
       <use xlink:href="#DejaVuSerif-30" x="127.246094"/>
       <use xlink:href="#DejaVuSerif-30" x="190.869141"/>
      </g>
     </g>
    </g>
    <g id="xtick_7">
     <g id="line2d_13">
      <defs>
       <path id="m7ebff4d8db" d="M 0 0 
L 0 -1.5 
" style="stroke: #000000; stroke-width: 0.5"/>
      </defs>
      <g>
       <use xlink:href="#m7ebff4d8db" x="81.2158" y="328.42" style="stroke: #000000; stroke-width: 0.5"/>
      </g>
     </g>
     <g id="line2d_14">
      <defs>
       <path id="ma47f240255" d="M 0 0 
L 0 1.5 
" style="stroke: #000000; stroke-width: 0.5"/>
      </defs>
      <g>
       <use xlink:href="#ma47f240255" x="81.2158" y="3.6" style="stroke: #000000; stroke-width: 0.5"/>
      </g>
     </g>
    </g>
    <g id="xtick_8">
     <g id="line2d_15">
      <g>
       <use xlink:href="#m7ebff4d8db" x="112.221255" y="328.42" style="stroke: #000000; stroke-width: 0.5"/>
      </g>
     </g>
     <g id="line2d_16">
      <g>
       <use xlink:href="#ma47f240255" x="112.221255" y="3.6" style="stroke: #000000; stroke-width: 0.5"/>
      </g>
     </g>
    </g>
    <g id="xtick_9">
     <g id="line2d_17">
      <g>
       <use xlink:href="#m7ebff4d8db" x="143.226709" y="328.42" style="stroke: #000000; stroke-width: 0.5"/>
      </g>
     </g>
     <g id="line2d_18">
      <g>
       <use xlink:href="#ma47f240255" x="143.226709" y="3.6" style="stroke: #000000; stroke-width: 0.5"/>
      </g>
     </g>
    </g>
    <g id="xtick_10">
     <g id="line2d_19">
      <g>
       <use xlink:href="#m7ebff4d8db" x="205.237618" y="328.42" style="stroke: #000000; stroke-width: 0.5"/>
      </g>
     </g>
     <g id="line2d_20">
      <g>
       <use xlink:href="#ma47f240255" x="205.237618" y="3.6" style="stroke: #000000; stroke-width: 0.5"/>
      </g>
     </g>
    </g>
    <g id="xtick_11">
     <g id="line2d_21">
      <g>
       <use xlink:href="#m7ebff4d8db" x="236.243073" y="328.42" style="stroke: #000000; stroke-width: 0.5"/>
      </g>
     </g>
     <g id="line2d_22">
      <g>
       <use xlink:href="#ma47f240255" x="236.243073" y="3.6" style="stroke: #000000; stroke-width: 0.5"/>
      </g>
     </g>
    </g>
    <g id="xtick_12">
     <g id="line2d_23">
      <g>
       <use xlink:href="#m7ebff4d8db" x="267.248527" y="328.42" style="stroke: #000000; stroke-width: 0.5"/>
      </g>
     </g>
     <g id="line2d_24">
      <g>
       <use xlink:href="#ma47f240255" x="267.248527" y="3.6" style="stroke: #000000; stroke-width: 0.5"/>
      </g>
     </g>
    </g>
    <g id="xtick_13">
     <g id="line2d_25">
      <g>
       <use xlink:href="#m7ebff4d8db" x="329.259436" y="328.42" style="stroke: #000000; stroke-width: 0.5"/>
      </g>
     </g>
     <g id="line2d_26">
      <g>
       <use xlink:href="#ma47f240255" x="329.259436" y="3.6" style="stroke: #000000; stroke-width: 0.5"/>
      </g>
     </g>
    </g>
    <g id="xtick_14">
     <g id="line2d_27">
      <g>
       <use xlink:href="#m7ebff4d8db" x="360.264891" y="328.42" style="stroke: #000000; stroke-width: 0.5"/>
      </g>
     </g>
     <g id="line2d_28">
      <g>
       <use xlink:href="#ma47f240255" x="360.264891" y="3.6" style="stroke: #000000; stroke-width: 0.5"/>
      </g>
     </g>
    </g>
    <g id="xtick_15">
     <g id="line2d_29">
      <g>
       <use xlink:href="#m7ebff4d8db" x="391.270345" y="328.42" style="stroke: #000000; stroke-width: 0.5"/>
      </g>
     </g>
     <g id="line2d_30">
      <g>
       <use xlink:href="#ma47f240255" x="391.270345" y="3.6" style="stroke: #000000; stroke-width: 0.5"/>
      </g>
     </g>
    </g>
    <g id="xtick_16">
     <g id="line2d_31">
      <g>
       <use xlink:href="#m7ebff4d8db" x="453.281255" y="328.42" style="stroke: #000000; stroke-width: 0.5"/>
      </g>
     </g>
     <g id="line2d_32">
      <g>
       <use xlink:href="#ma47f240255" x="453.281255" y="3.6" style="stroke: #000000; stroke-width: 0.5"/>
      </g>
     </g>
    </g>
    <g id="xtick_17">
     <g id="line2d_33">
      <g>
       <use xlink:href="#m7ebff4d8db" x="484.286709" y="328.42" style="stroke: #000000; stroke-width: 0.5"/>
      </g>
     </g>
     <g id="line2d_34">
      <g>
       <use xlink:href="#ma47f240255" x="484.286709" y="3.6" style="stroke: #000000; stroke-width: 0.5"/>
      </g>
     </g>
    </g>
    <g id="xtick_18">
     <g id="line2d_35">
      <g>
       <use xlink:href="#m7ebff4d8db" x="515.292164" y="328.42" style="stroke: #000000; stroke-width: 0.5"/>
      </g>
     </g>
     <g id="line2d_36">
      <g>
       <use xlink:href="#ma47f240255" x="515.292164" y="3.6" style="stroke: #000000; stroke-width: 0.5"/>
      </g>
     </g>
    </g>
    <g id="xtick_19">
     <g id="line2d_37">
      <g>
       <use xlink:href="#m7ebff4d8db" x="577.303073" y="328.42" style="stroke: #000000; stroke-width: 0.5"/>
      </g>
     </g>
     <g id="line2d_38">
      <g>
       <use xlink:href="#ma47f240255" x="577.303073" y="3.6" style="stroke: #000000; stroke-width: 0.5"/>
      </g>
     </g>
    </g>
    <g id="xtick_20">
     <g id="line2d_39">
      <g>
       <use xlink:href="#m7ebff4d8db" x="608.308527" y="328.42" style="stroke: #000000; stroke-width: 0.5"/>
      </g>
     </g>
     <g id="line2d_40">
      <g>
       <use xlink:href="#ma47f240255" x="608.308527" y="3.6" style="stroke: #000000; stroke-width: 0.5"/>
      </g>
     </g>
    </g>
    <g id="xtick_21">
     <g id="line2d_41">
      <g>
       <use xlink:href="#m7ebff4d8db" x="639.313982" y="328.42" style="stroke: #000000; stroke-width: 0.5"/>
      </g>
     </g>
     <g id="line2d_42">
      <g>
       <use xlink:href="#ma47f240255" x="639.313982" y="3.6" style="stroke: #000000; stroke-width: 0.5"/>
      </g>
     </g>
    </g>
    <g id="xtick_22">
     <g id="line2d_43">
      <g>
       <use xlink:href="#m7ebff4d8db" x="701.324891" y="328.42" style="stroke: #000000; stroke-width: 0.5"/>
      </g>
     </g>
     <g id="line2d_44">
      <g>
       <use xlink:href="#ma47f240255" x="701.324891" y="3.6" style="stroke: #000000; stroke-width: 0.5"/>
      </g>
     </g>
    </g>
   </g>
   <g id="matplotlib.axis_2">
    <g id="ytick_1">
     <g id="line2d_45">
      <defs>
       <path id="m7336c6ded1" d="M 0 0 
L 3 0 
" style="stroke: #000000; stroke-width: 0.5"/>
      </defs>
      <g>
       <use xlink:href="#m7336c6ded1" x="19.825" y="313.655455" style="stroke: #000000; stroke-width: 0.5"/>
      </g>
     </g>
     <g id="line2d_46">
      <defs>
       <path id="m7eba41ba46" d="M 0 0 
L -3 0 
" style="stroke: #000000; stroke-width: 0.5"/>
      </defs>
      <g>
       <use xlink:href="#m7eba41ba46" x="701.945" y="313.655455" style="stroke: #000000; stroke-width: 0.5"/>
      </g>
     </g>
     <g id="text_7">
      <!-- 0 -->
      <g transform="translate(9.9625 317.454673) scale(0.1 -0.1)">
       <use xlink:href="#DejaVuSerif-30"/>
      </g>
     </g>
    </g>
    <g id="ytick_2">
     <g id="line2d_47">
      <g>
       <use xlink:href="#m7336c6ded1" x="19.825" y="276.744091" style="stroke: #000000; stroke-width: 0.5"/>
      </g>
     </g>
     <g id="line2d_48">
      <g>
       <use xlink:href="#m7eba41ba46" x="701.945" y="276.744091" style="stroke: #000000; stroke-width: 0.5"/>
      </g>
     </g>
     <g id="text_8">
      <!-- 2 -->
      <g transform="translate(9.9625 280.54331) scale(0.1 -0.1)">
       <use xlink:href="#DejaVuSerif-32"/>
      </g>
     </g>
    </g>
    <g id="ytick_3">
     <g id="line2d_49">
      <g>
       <use xlink:href="#m7336c6ded1" x="19.825" y="239.832727" style="stroke: #000000; stroke-width: 0.5"/>
      </g>
     </g>
     <g id="line2d_50">
      <g>
       <use xlink:href="#m7eba41ba46" x="701.945" y="239.832727" style="stroke: #000000; stroke-width: 0.5"/>
      </g>
     </g>
     <g id="text_9">
      <!-- 4 -->
      <g transform="translate(9.9625 243.631946) scale(0.1 -0.1)">
       <use xlink:href="#DejaVuSerif-34"/>
      </g>
     </g>
    </g>
    <g id="ytick_4">
     <g id="line2d_51">
      <g>
       <use xlink:href="#m7336c6ded1" x="19.825" y="202.921364" style="stroke: #000000; stroke-width: 0.5"/>
      </g>
     </g>
     <g id="line2d_52">
      <g>
       <use xlink:href="#m7eba41ba46" x="701.945" y="202.921364" style="stroke: #000000; stroke-width: 0.5"/>
      </g>
     </g>
     <g id="text_10">
      <!-- 6 -->
      <g transform="translate(9.9625 206.720582) scale(0.1 -0.1)">
       <use xlink:href="#DejaVuSerif-36"/>
      </g>
     </g>
    </g>
    <g id="ytick_5">
     <g id="line2d_53">
      <g>
       <use xlink:href="#m7336c6ded1" x="19.825" y="166.01" style="stroke: #000000; stroke-width: 0.5"/>
      </g>
     </g>
     <g id="line2d_54">
      <g>
       <use xlink:href="#m7eba41ba46" x="701.945" y="166.01" style="stroke: #000000; stroke-width: 0.5"/>
      </g>
     </g>
     <g id="text_11">
      <!-- 8 -->
      <g transform="translate(9.9625 169.809219) scale(0.1 -0.1)">
       <use xlink:href="#DejaVuSerif-38"/>
      </g>
     </g>
    </g>
    <g id="ytick_6">
     <g id="line2d_55">
      <g>
       <use xlink:href="#m7336c6ded1" x="19.825" y="129.098636" style="stroke: #000000; stroke-width: 0.5"/>
      </g>
     </g>
     <g id="line2d_56">
      <g>
       <use xlink:href="#m7eba41ba46" x="701.945" y="129.098636" style="stroke: #000000; stroke-width: 0.5"/>
      </g>
     </g>
     <g id="text_12">
      <!-- 10 -->
      <g transform="translate(3.6 132.897855) scale(0.1 -0.1)">
       <use xlink:href="#DejaVuSerif-31"/>
       <use xlink:href="#DejaVuSerif-30" x="63.623047"/>
      </g>
     </g>
    </g>
    <g id="ytick_7">
     <g id="line2d_57">
      <g>
       <use xlink:href="#m7336c6ded1" x="19.825" y="92.187273" style="stroke: #000000; stroke-width: 0.5"/>
      </g>
     </g>
     <g id="line2d_58">
      <g>
       <use xlink:href="#m7eba41ba46" x="701.945" y="92.187273" style="stroke: #000000; stroke-width: 0.5"/>
      </g>
     </g>
     <g id="text_13">
      <!-- 12 -->
      <g transform="translate(3.6 95.986491) scale(0.1 -0.1)">
       <use xlink:href="#DejaVuSerif-31"/>
       <use xlink:href="#DejaVuSerif-32" x="63.623047"/>
      </g>
     </g>
    </g>
    <g id="ytick_8">
     <g id="line2d_59">
      <g>
       <use xlink:href="#m7336c6ded1" x="19.825" y="55.275909" style="stroke: #000000; stroke-width: 0.5"/>
      </g>
     </g>
     <g id="line2d_60">
      <g>
       <use xlink:href="#m7eba41ba46" x="701.945" y="55.275909" style="stroke: #000000; stroke-width: 0.5"/>
      </g>
     </g>
     <g id="text_14">
      <!-- 14 -->
      <g transform="translate(3.6 59.075128) scale(0.1 -0.1)">
       <use xlink:href="#DejaVuSerif-31"/>
       <use xlink:href="#DejaVuSerif-34" x="63.623047"/>
      </g>
     </g>
    </g>
    <g id="ytick_9">
     <g id="line2d_61">
      <g>
       <use xlink:href="#m7336c6ded1" x="19.825" y="18.364545" style="stroke: #000000; stroke-width: 0.5"/>
      </g>
     </g>
     <g id="line2d_62">
      <g>
       <use xlink:href="#m7eba41ba46" x="701.945" y="18.364545" style="stroke: #000000; stroke-width: 0.5"/>
      </g>
     </g>
     <g id="text_15">
      <!-- 16 -->
      <g transform="translate(3.6 22.163764) scale(0.1 -0.1)">
       <use xlink:href="#DejaVuSerif-31"/>
       <use xlink:href="#DejaVuSerif-36" x="63.623047"/>
      </g>
     </g>
    </g>
    <g id="ytick_10">
     <g id="line2d_63">
      <defs>
       <path id="m27709174da" d="M 0 0 
L 1.5 0 
" style="stroke: #000000; stroke-width: 0.5"/>
      </defs>
      <g>
       <use xlink:href="#m27709174da" x="19.825" y="322.883295" style="stroke: #000000; stroke-width: 0.5"/>
      </g>
     </g>
     <g id="line2d_64">
      <defs>
       <path id="mbe7a6a37dc" d="M 0 0 
L -1.5 0 
" style="stroke: #000000; stroke-width: 0.5"/>
      </defs>
      <g>
       <use xlink:href="#mbe7a6a37dc" x="701.945" y="322.883295" style="stroke: #000000; stroke-width: 0.5"/>
      </g>
     </g>
    </g>
    <g id="ytick_11">
     <g id="line2d_65">
      <g>
       <use xlink:href="#m27709174da" x="19.825" y="304.427614" style="stroke: #000000; stroke-width: 0.5"/>
      </g>
     </g>
     <g id="line2d_66">
      <g>
       <use xlink:href="#mbe7a6a37dc" x="701.945" y="304.427614" style="stroke: #000000; stroke-width: 0.5"/>
      </g>
     </g>
    </g>
    <g id="ytick_12">
     <g id="line2d_67">
      <g>
       <use xlink:href="#m27709174da" x="19.825" y="295.199773" style="stroke: #000000; stroke-width: 0.5"/>
      </g>
     </g>
     <g id="line2d_68">
      <g>
       <use xlink:href="#mbe7a6a37dc" x="701.945" y="295.199773" style="stroke: #000000; stroke-width: 0.5"/>
      </g>
     </g>
    </g>
    <g id="ytick_13">
     <g id="line2d_69">
      <g>
       <use xlink:href="#m27709174da" x="19.825" y="285.971932" style="stroke: #000000; stroke-width: 0.5"/>
      </g>
     </g>
     <g id="line2d_70">
      <g>
       <use xlink:href="#mbe7a6a37dc" x="701.945" y="285.971932" style="stroke: #000000; stroke-width: 0.5"/>
      </g>
     </g>
    </g>
    <g id="ytick_14">
     <g id="line2d_71">
      <g>
       <use xlink:href="#m27709174da" x="19.825" y="267.51625" style="stroke: #000000; stroke-width: 0.5"/>
      </g>
     </g>
     <g id="line2d_72">
      <g>
       <use xlink:href="#mbe7a6a37dc" x="701.945" y="267.51625" style="stroke: #000000; stroke-width: 0.5"/>
      </g>
     </g>
    </g>
    <g id="ytick_15">
     <g id="line2d_73">
      <g>
       <use xlink:href="#m27709174da" x="19.825" y="258.288409" style="stroke: #000000; stroke-width: 0.5"/>
      </g>
     </g>
     <g id="line2d_74">
      <g>
       <use xlink:href="#mbe7a6a37dc" x="701.945" y="258.288409" style="stroke: #000000; stroke-width: 0.5"/>
      </g>
     </g>
    </g>
    <g id="ytick_16">
     <g id="line2d_75">
      <g>
       <use xlink:href="#m27709174da" x="19.825" y="249.060568" style="stroke: #000000; stroke-width: 0.5"/>
      </g>
     </g>
     <g id="line2d_76">
      <g>
       <use xlink:href="#mbe7a6a37dc" x="701.945" y="249.060568" style="stroke: #000000; stroke-width: 0.5"/>
      </g>
     </g>
    </g>
    <g id="ytick_17">
     <g id="line2d_77">
      <g>
       <use xlink:href="#m27709174da" x="19.825" y="230.604886" style="stroke: #000000; stroke-width: 0.5"/>
      </g>
     </g>
     <g id="line2d_78">
      <g>
       <use xlink:href="#mbe7a6a37dc" x="701.945" y="230.604886" style="stroke: #000000; stroke-width: 0.5"/>
      </g>
     </g>
    </g>
    <g id="ytick_18">
     <g id="line2d_79">
      <g>
       <use xlink:href="#m27709174da" x="19.825" y="221.377045" style="stroke: #000000; stroke-width: 0.5"/>
      </g>
     </g>
     <g id="line2d_80">
      <g>
       <use xlink:href="#mbe7a6a37dc" x="701.945" y="221.377045" style="stroke: #000000; stroke-width: 0.5"/>
      </g>
     </g>
    </g>
    <g id="ytick_19">
     <g id="line2d_81">
      <g>
       <use xlink:href="#m27709174da" x="19.825" y="212.149205" style="stroke: #000000; stroke-width: 0.5"/>
      </g>
     </g>
     <g id="line2d_82">
      <g>
       <use xlink:href="#mbe7a6a37dc" x="701.945" y="212.149205" style="stroke: #000000; stroke-width: 0.5"/>
      </g>
     </g>
    </g>
    <g id="ytick_20">
     <g id="line2d_83">
      <g>
       <use xlink:href="#m27709174da" x="19.825" y="193.693523" style="stroke: #000000; stroke-width: 0.5"/>
      </g>
     </g>
     <g id="line2d_84">
      <g>
       <use xlink:href="#mbe7a6a37dc" x="701.945" y="193.693523" style="stroke: #000000; stroke-width: 0.5"/>
      </g>
     </g>
    </g>
    <g id="ytick_21">
     <g id="line2d_85">
      <g>
       <use xlink:href="#m27709174da" x="19.825" y="184.465682" style="stroke: #000000; stroke-width: 0.5"/>
      </g>
     </g>
     <g id="line2d_86">
      <g>
       <use xlink:href="#mbe7a6a37dc" x="701.945" y="184.465682" style="stroke: #000000; stroke-width: 0.5"/>
      </g>
     </g>
    </g>
    <g id="ytick_22">
     <g id="line2d_87">
      <g>
       <use xlink:href="#m27709174da" x="19.825" y="175.237841" style="stroke: #000000; stroke-width: 0.5"/>
      </g>
     </g>
     <g id="line2d_88">
      <g>
       <use xlink:href="#mbe7a6a37dc" x="701.945" y="175.237841" style="stroke: #000000; stroke-width: 0.5"/>
      </g>
     </g>
    </g>
    <g id="ytick_23">
     <g id="line2d_89">
      <g>
       <use xlink:href="#m27709174da" x="19.825" y="156.782159" style="stroke: #000000; stroke-width: 0.5"/>
      </g>
     </g>
     <g id="line2d_90">
      <g>
       <use xlink:href="#mbe7a6a37dc" x="701.945" y="156.782159" style="stroke: #000000; stroke-width: 0.5"/>
      </g>
     </g>
    </g>
    <g id="ytick_24">
     <g id="line2d_91">
      <g>
       <use xlink:href="#m27709174da" x="19.825" y="147.554318" style="stroke: #000000; stroke-width: 0.5"/>
      </g>
     </g>
     <g id="line2d_92">
      <g>
       <use xlink:href="#mbe7a6a37dc" x="701.945" y="147.554318" style="stroke: #000000; stroke-width: 0.5"/>
      </g>
     </g>
    </g>
    <g id="ytick_25">
     <g id="line2d_93">
      <g>
       <use xlink:href="#m27709174da" x="19.825" y="138.326477" style="stroke: #000000; stroke-width: 0.5"/>
      </g>
     </g>
     <g id="line2d_94">
      <g>
       <use xlink:href="#mbe7a6a37dc" x="701.945" y="138.326477" style="stroke: #000000; stroke-width: 0.5"/>
      </g>
     </g>
    </g>
    <g id="ytick_26">
     <g id="line2d_95">
      <g>
       <use xlink:href="#m27709174da" x="19.825" y="119.870795" style="stroke: #000000; stroke-width: 0.5"/>
      </g>
     </g>
     <g id="line2d_96">
      <g>
       <use xlink:href="#mbe7a6a37dc" x="701.945" y="119.870795" style="stroke: #000000; stroke-width: 0.5"/>
      </g>
     </g>
    </g>
    <g id="ytick_27">
     <g id="line2d_97">
      <g>
       <use xlink:href="#m27709174da" x="19.825" y="110.642955" style="stroke: #000000; stroke-width: 0.5"/>
      </g>
     </g>
     <g id="line2d_98">
      <g>
       <use xlink:href="#mbe7a6a37dc" x="701.945" y="110.642955" style="stroke: #000000; stroke-width: 0.5"/>
      </g>
     </g>
    </g>
    <g id="ytick_28">
     <g id="line2d_99">
      <g>
       <use xlink:href="#m27709174da" x="19.825" y="101.415114" style="stroke: #000000; stroke-width: 0.5"/>
      </g>
     </g>
     <g id="line2d_100">
      <g>
       <use xlink:href="#mbe7a6a37dc" x="701.945" y="101.415114" style="stroke: #000000; stroke-width: 0.5"/>
      </g>
     </g>
    </g>
    <g id="ytick_29">
     <g id="line2d_101">
      <g>
       <use xlink:href="#m27709174da" x="19.825" y="82.959432" style="stroke: #000000; stroke-width: 0.5"/>
      </g>
     </g>
     <g id="line2d_102">
      <g>
       <use xlink:href="#mbe7a6a37dc" x="701.945" y="82.959432" style="stroke: #000000; stroke-width: 0.5"/>
      </g>
     </g>
    </g>
    <g id="ytick_30">
     <g id="line2d_103">
      <g>
       <use xlink:href="#m27709174da" x="19.825" y="73.731591" style="stroke: #000000; stroke-width: 0.5"/>
      </g>
     </g>
     <g id="line2d_104">
      <g>
       <use xlink:href="#mbe7a6a37dc" x="701.945" y="73.731591" style="stroke: #000000; stroke-width: 0.5"/>
      </g>
     </g>
    </g>
    <g id="ytick_31">
     <g id="line2d_105">
      <g>
       <use xlink:href="#m27709174da" x="19.825" y="64.50375" style="stroke: #000000; stroke-width: 0.5"/>
      </g>
     </g>
     <g id="line2d_106">
      <g>
       <use xlink:href="#mbe7a6a37dc" x="701.945" y="64.50375" style="stroke: #000000; stroke-width: 0.5"/>
      </g>
     </g>
    </g>
    <g id="ytick_32">
     <g id="line2d_107">
      <g>
       <use xlink:href="#m27709174da" x="19.825" y="46.048068" style="stroke: #000000; stroke-width: 0.5"/>
      </g>
     </g>
     <g id="line2d_108">
      <g>
       <use xlink:href="#mbe7a6a37dc" x="701.945" y="46.048068" style="stroke: #000000; stroke-width: 0.5"/>
      </g>
     </g>
    </g>
    <g id="ytick_33">
     <g id="line2d_109">
      <g>
       <use xlink:href="#m27709174da" x="19.825" y="36.820227" style="stroke: #000000; stroke-width: 0.5"/>
      </g>
     </g>
     <g id="line2d_110">
      <g>
       <use xlink:href="#mbe7a6a37dc" x="701.945" y="36.820227" style="stroke: #000000; stroke-width: 0.5"/>
      </g>
     </g>
    </g>
    <g id="ytick_34">
     <g id="line2d_111">
      <g>
       <use xlink:href="#m27709174da" x="19.825" y="27.592386" style="stroke: #000000; stroke-width: 0.5"/>
      </g>
     </g>
     <g id="line2d_112">
      <g>
       <use xlink:href="#mbe7a6a37dc" x="701.945" y="27.592386" style="stroke: #000000; stroke-width: 0.5"/>
      </g>
     </g>
    </g>
    <g id="ytick_35">
     <g id="line2d_113">
      <g>
       <use xlink:href="#m27709174da" x="19.825" y="9.136705" style="stroke: #000000; stroke-width: 0.5"/>
      </g>
     </g>
     <g id="line2d_114">
      <g>
       <use xlink:href="#mbe7a6a37dc" x="701.945" y="9.136705" style="stroke: #000000; stroke-width: 0.5"/>
      </g>
     </g>
    </g>
   </g>
   <g id="line2d_115">
    <path d="M 50.830455 313.655455 
L 53.931 313.655455 
L 55.171218 276.744091 
L 55.791327 276.744091 
L 57.031545 202.921364 
L 57.651655 184.465682 
L 58.271764 221.377045 
L 58.891873 166.01 
L 59.511982 184.465682 
L 60.132091 147.554318 
L 61.372309 147.554318 
L 61.992418 110.642955 
L 62.612527 129.098636 
L 63.232636 110.642955 
L 63.852745 184.465682 
L 64.472855 166.01 
L 65.092964 202.921364 
L 66.333182 239.832727 
L 67.5734 202.921364 
L 68.193509 221.377045 
L 68.813618 129.098636 
L 69.433727 55.275909 
L 70.053836 36.820227 
L 71.294055 147.554318 
L 71.914164 166.01 
L 72.534273 73.731591 
L 73.774491 110.642955 
L 74.3946 239.832727 
L 75.014709 221.377045 
L 75.634818 221.377045 
L 76.254927 166.01 
L 76.875036 147.554318 
L 77.495145 166.01 
L 78.115255 166.01 
L 78.735364 147.554318 
L 79.355473 221.377045 
L 80.595691 221.377045 
L 81.2158 147.554318 
L 81.835909 166.01 
L 82.456018 147.554318 
L 83.696236 221.377045 
L 84.316345 184.465682 
L 85.556564 147.554318 
L 86.796782 221.377045 
L 87.416891 184.465682 
L 88.037 166.01 
L 88.657109 129.098636 
L 89.277218 129.098636 
L 89.897327 166.01 
L 90.517436 166.01 
L 91.137545 184.465682 
L 92.377764 184.465682 
L 92.997873 202.921364 
L 93.617982 202.921364 
L 94.238091 147.554318 
L 94.8582 166.01 
L 95.478309 166.01 
L 96.098418 239.832727 
L 96.718527 221.377045 
L 97.338636 258.288409 
L 97.958745 221.377045 
L 99.198964 184.465682 
L 99.819073 184.465682 
L 100.439182 147.554318 
L 101.059291 202.921364 
L 101.6794 184.465682 
L 102.299509 202.921364 
L 102.919618 258.288409 
L 103.539727 276.744091 
L 104.159836 202.921364 
L 104.779945 202.921364 
L 105.400055 166.01 
L 106.020164 221.377045 
L 106.640273 202.921364 
L 107.260382 166.01 
L 107.880491 166.01 
L 109.120709 239.832727 
L 109.740818 239.832727 
L 110.360927 258.288409 
L 110.981036 258.288409 
L 111.601145 239.832727 
L 112.221255 202.921364 
L 113.461473 239.832727 
L 114.081582 239.832727 
L 114.701691 184.465682 
L 115.3218 166.01 
L 115.941909 110.642955 
L 116.562018 166.01 
L 117.182127 184.465682 
L 117.802236 184.465682 
L 118.422345 221.377045 
L 119.042455 202.921364 
L 119.662564 129.098636 
L 120.282673 110.642955 
L 120.902782 166.01 
L 121.522891 202.921364 
L 122.143 258.288409 
L 122.763109 166.01 
L 123.383218 184.465682 
L 124.003327 221.377045 
L 124.623436 202.921364 
L 125.863655 239.832727 
L 127.103873 202.921364 
L 127.723982 221.377045 
L 128.344091 221.377045 
L 128.9642 239.832727 
L 129.584309 202.921364 
L 130.824527 166.01 
L 131.444636 202.921364 
L 132.064745 221.377045 
L 133.304964 184.465682 
L 133.925073 184.465682 
L 134.545182 202.921364 
L 135.165291 239.832727 
L 135.7854 202.921364 
L 136.405509 147.554318 
L 137.025618 129.098636 
L 137.645727 18.364545 
L 138.265836 55.275909 
L 138.885945 184.465682 
L 139.506055 221.377045 
L 140.126164 202.921364 
L 140.746273 202.921364 
L 141.366382 184.465682 
L 141.986491 221.377045 
L 142.6066 221.377045 
L 143.846818 184.465682 
L 144.466927 184.465682 
L 145.087036 258.288409 
L 146.327255 147.554318 
L 146.947364 166.01 
L 148.187582 166.01 
L 148.807691 221.377045 
L 149.4278 221.377045 
L 150.047909 239.832727 
L 150.668018 221.377045 
L 151.288127 166.01 
L 151.908236 147.554318 
L 152.528345 166.01 
L 153.148455 166.01 
L 153.768564 221.377045 
L 154.388673 239.832727 
L 155.008782 221.377045 
L 155.628891 184.465682 
L 156.249 221.377045 
L 156.869109 276.744091 
L 157.489218 276.744091 
L 158.109327 239.832727 
L 158.729436 239.832727 
L 159.349545 202.921364 
L 159.969655 202.921364 
L 161.209873 239.832727 
L 161.829982 239.832727 
L 162.450091 276.744091 
L 163.0702 184.465682 
L 163.690309 166.01 
L 164.310418 110.642955 
L 164.930527 166.01 
L 165.550636 147.554318 
L 166.170745 147.554318 
L 166.790855 166.01 
L 167.410964 166.01 
L 168.031073 202.921364 
L 168.651182 202.921364 
L 169.271291 147.554318 
L 170.511509 147.554318 
L 171.131618 166.01 
L 171.751727 221.377045 
L 172.371836 129.098636 
L 172.991945 92.187273 
L 173.612055 92.187273 
L 174.232164 110.642955 
L 174.852273 166.01 
L 175.472382 202.921364 
L 176.092491 184.465682 
L 176.7126 184.465682 
L 177.332709 129.098636 
L 178.572927 129.098636 
L 179.193036 166.01 
L 179.813145 221.377045 
L 180.433255 221.377045 
L 181.053364 202.921364 
L 181.673473 202.921364 
L 182.293582 147.554318 
L 182.913691 202.921364 
L 183.5338 202.921364 
L 184.153909 221.377045 
L 184.774018 221.377045 
L 185.394127 184.465682 
L 186.634345 147.554318 
L 187.254455 166.01 
L 187.874564 221.377045 
L 188.494673 166.01 
L 189.734891 92.187273 
L 190.355 129.098636 
L 190.975109 184.465682 
L 192.215327 221.377045 
L 192.835436 202.921364 
L 193.455545 239.832727 
L 194.075655 147.554318 
L 194.695764 92.187273 
L 195.315873 147.554318 
L 195.935982 221.377045 
L 196.556091 258.288409 
L 197.1762 221.377045 
L 197.796309 202.921364 
L 198.416418 239.832727 
L 199.656636 239.832727 
L 200.276745 258.288409 
L 200.896855 239.832727 
L 201.516964 166.01 
L 202.137073 202.921364 
L 202.757182 202.921364 
L 203.377291 239.832727 
L 204.617509 166.01 
L 205.237618 147.554318 
L 205.857727 184.465682 
L 206.477836 166.01 
L 207.097945 110.642955 
L 207.718055 110.642955 
L 208.958273 73.731591 
L 209.578382 73.731591 
L 210.198491 129.098636 
L 210.8186 147.554318 
L 211.438709 129.098636 
L 212.058818 184.465682 
L 212.678927 166.01 
L 213.919145 202.921364 
L 214.539255 239.832727 
L 215.779473 202.921364 
L 216.399582 147.554318 
L 217.019691 147.554318 
L 217.6398 184.465682 
L 218.259909 202.921364 
L 218.880018 184.465682 
L 219.500127 221.377045 
L 220.740345 221.377045 
L 221.360455 184.465682 
L 221.980564 166.01 
L 222.600673 221.377045 
L 223.220782 221.377045 
L 223.840891 258.288409 
L 224.461 239.832727 
L 225.701218 166.01 
L 226.321327 184.465682 
L 226.941436 147.554318 
L 227.561545 129.098636 
L 228.181655 166.01 
L 228.801764 166.01 
L 229.421873 184.465682 
L 230.041982 129.098636 
L 230.662091 166.01 
L 231.2822 147.554318 
L 231.902309 239.832727 
L 233.142527 239.832727 
L 233.762636 202.921364 
L 234.382745 147.554318 
L 235.002855 147.554318 
L 235.622964 166.01 
L 236.243073 129.098636 
L 236.863182 129.098636 
L 238.1034 202.921364 
L 238.723509 258.288409 
L 239.343618 295.199773 
L 239.963727 221.377045 
L 240.583836 221.377045 
L 241.203945 184.465682 
L 241.824055 184.465682 
L 242.444164 147.554318 
L 243.064273 184.465682 
L 243.684382 166.01 
L 244.304491 166.01 
L 244.9246 184.465682 
L 245.544709 147.554318 
L 246.164818 202.921364 
L 246.784927 147.554318 
L 248.025145 184.465682 
L 248.645255 221.377045 
L 249.265364 202.921364 
L 249.885473 166.01 
L 250.505582 147.554318 
L 251.125691 147.554318 
L 252.365909 295.199773 
L 253.606127 258.288409 
L 254.226236 202.921364 
L 254.846345 202.921364 
L 255.466455 110.642955 
L 256.086564 147.554318 
L 256.706673 202.921364 
L 257.326782 202.921364 
L 257.946891 110.642955 
L 258.567 110.642955 
L 259.187109 147.554318 
L 259.807218 147.554318 
L 260.427327 221.377045 
L 261.047436 221.377045 
L 262.287655 147.554318 
L 262.907764 147.554318 
L 263.527873 73.731591 
L 264.147982 92.187273 
L 264.768091 147.554318 
L 265.3882 147.554318 
L 266.008309 110.642955 
L 266.628418 110.642955 
L 267.248527 129.098636 
L 267.868636 110.642955 
L 268.488745 166.01 
L 269.108855 202.921364 
L 269.728964 166.01 
L 270.349073 166.01 
L 270.969182 92.187273 
L 271.589291 110.642955 
L 272.2094 147.554318 
L 272.829509 147.554318 
L 273.449618 166.01 
L 274.069727 166.01 
L 274.689836 129.098636 
L 275.309945 184.465682 
L 275.930055 221.377045 
L 276.550164 202.921364 
L 277.170273 202.921364 
L 277.790382 184.465682 
L 278.410491 184.465682 
L 279.0306 147.554318 
L 280.270818 258.288409 
L 280.890927 202.921364 
L 281.511036 184.465682 
L 282.131145 129.098636 
L 283.371364 166.01 
L 284.611582 239.832727 
L 285.231691 202.921364 
L 285.8518 202.921364 
L 286.471909 221.377045 
L 287.092018 184.465682 
L 287.712127 202.921364 
L 288.332236 184.465682 
L 288.952345 129.098636 
L 289.572455 110.642955 
L 290.192564 129.098636 
L 290.812673 184.465682 
L 291.432782 166.01 
L 292.673 166.01 
L 293.913218 202.921364 
L 294.533327 202.921364 
L 295.153436 221.377045 
L 295.773545 184.465682 
L 296.393655 184.465682 
L 297.013764 221.377045 
L 297.633873 184.465682 
L 298.253982 221.377045 
L 299.4942 147.554318 
L 300.114309 147.554318 
L 301.354527 184.465682 
L 301.974636 147.554318 
L 302.594745 129.098636 
L 303.214855 129.098636 
L 303.834964 110.642955 
L 304.455073 129.098636 
L 306.3154 239.832727 
L 306.935509 295.199773 
L 307.555618 221.377045 
L 308.175727 239.832727 
L 308.795836 221.377045 
L 309.415945 184.465682 
L 310.036055 184.465682 
L 310.656164 166.01 
L 311.276273 166.01 
L 311.896382 147.554318 
L 312.516491 166.01 
L 313.1366 147.554318 
L 313.756709 184.465682 
L 314.376818 166.01 
L 314.996927 184.465682 
L 316.237145 184.465682 
L 316.857255 166.01 
L 317.477364 184.465682 
L 318.097473 221.377045 
L 318.717582 202.921364 
L 319.337691 166.01 
L 319.9578 202.921364 
L 321.818127 202.921364 
L 322.438236 184.465682 
L 323.058345 221.377045 
L 324.298564 221.377045 
L 324.918673 239.832727 
L 325.538782 184.465682 
L 326.158891 184.465682 
L 326.779 166.01 
L 327.399109 184.465682 
L 328.019218 184.465682 
L 328.639327 166.01 
L 329.259436 184.465682 
L 329.879545 166.01 
L 330.499655 166.01 
L 331.119764 147.554318 
L 331.739873 202.921364 
L 332.359982 147.554318 
L 332.980091 184.465682 
L 333.6002 166.01 
L 334.220309 166.01 
L 334.840418 129.098636 
L 335.460527 110.642955 
L 336.080636 202.921364 
L 337.320855 202.921364 
L 338.561073 129.098636 
L 339.181182 147.554318 
L 339.801291 92.187273 
L 340.4214 147.554318 
L 341.041509 221.377045 
L 342.901836 221.377045 
L 343.521945 184.465682 
L 345.382273 129.098636 
L 346.002382 129.098636 
L 346.622491 92.187273 
L 347.2426 92.187273 
L 347.862709 110.642955 
L 348.482818 166.01 
L 349.102927 184.465682 
L 349.723036 239.832727 
L 350.963255 239.832727 
L 351.583364 221.377045 
L 352.823582 221.377045 
L 353.443691 202.921364 
L 354.0638 166.01 
L 354.683909 202.921364 
L 355.304018 147.554318 
L 355.924127 202.921364 
L 356.544236 239.832727 
L 357.784455 202.921364 
L 359.024673 129.098636 
L 359.644782 166.01 
L 360.264891 166.01 
L 360.885 202.921364 
L 361.505109 221.377045 
L 362.125218 202.921364 
L 362.745327 147.554318 
L 363.365436 184.465682 
L 363.985545 184.465682 
L 364.605655 221.377045 
L 365.225764 202.921364 
L 365.845873 202.921364 
L 367.086091 166.01 
L 367.7062 129.098636 
L 368.946418 166.01 
L 369.566527 202.921364 
L 370.186636 202.921364 
L 371.426855 129.098636 
L 372.046964 166.01 
L 372.667073 184.465682 
L 373.287182 147.554318 
L 373.907291 147.554318 
L 375.147509 184.465682 
L 375.767618 184.465682 
L 377.007836 258.288409 
L 377.627945 221.377045 
L 378.248055 221.377045 
L 378.868164 184.465682 
L 379.488273 202.921364 
L 380.108382 202.921364 
L 380.728491 147.554318 
L 381.3486 147.554318 
L 381.968709 184.465682 
L 382.588818 202.921364 
L 383.829036 166.01 
L 384.449145 184.465682 
L 385.689364 258.288409 
L 386.309473 221.377045 
L 386.929582 221.377045 
L 388.1698 184.465682 
L 388.789909 221.377045 
L 389.410018 221.377045 
L 390.030127 166.01 
L 390.650236 129.098636 
L 391.270345 166.01 
L 391.890455 184.465682 
L 392.510564 166.01 
L 393.130673 129.098636 
L 393.750782 110.642955 
L 394.370891 129.098636 
L 394.991 202.921364 
L 395.611109 202.921364 
L 396.231218 258.288409 
L 396.851327 276.744091 
L 397.471436 184.465682 
L 399.331764 184.465682 
L 399.951873 202.921364 
L 400.571982 184.465682 
L 401.192091 147.554318 
L 401.8122 147.554318 
L 402.432309 166.01 
L 403.052418 147.554318 
L 403.672527 221.377045 
L 404.292636 221.377045 
L 405.532855 258.288409 
L 406.152964 184.465682 
L 406.773073 221.377045 
L 407.393182 221.377045 
L 408.013291 202.921364 
L 408.6334 202.921364 
L 409.253509 221.377045 
L 409.873618 221.377045 
L 410.493727 239.832727 
L 411.113836 202.921364 
L 411.733945 221.377045 
L 412.354055 258.288409 
L 412.974164 221.377045 
L 413.594273 202.921364 
L 414.214382 202.921364 
L 414.834491 184.465682 
L 416.074709 221.377045 
L 416.694818 166.01 
L 417.314927 221.377045 
L 417.935036 202.921364 
L 418.555145 166.01 
L 419.175255 239.832727 
L 419.795364 147.554318 
L 420.415473 147.554318 
L 421.035582 129.098636 
L 422.2758 239.832727 
L 422.895909 202.921364 
L 423.516018 202.921364 
L 424.136127 184.465682 
L 424.756236 184.465682 
L 425.376345 202.921364 
L 425.996455 147.554318 
L 426.616564 166.01 
L 427.856782 129.098636 
L 428.476891 147.554318 
L 429.097 202.921364 
L 429.717109 202.921364 
L 430.337218 258.288409 
L 430.957327 166.01 
L 432.197545 166.01 
L 432.817655 239.832727 
L 433.437764 221.377045 
L 434.057873 221.377045 
L 435.298091 295.199773 
L 435.9182 295.199773 
L 436.538309 239.832727 
L 437.778527 239.832727 
L 438.398636 221.377045 
L 439.018745 258.288409 
L 439.638855 239.832727 
L 440.258964 258.288409 
L 440.879073 258.288409 
L 441.499182 202.921364 
L 442.119291 166.01 
L 442.7394 221.377045 
L 443.359509 166.01 
L 443.979618 221.377045 
L 444.599727 221.377045 
L 445.219836 276.744091 
L 445.839945 239.832727 
L 446.460055 239.832727 
L 447.080164 184.465682 
L 447.700273 147.554318 
L 448.940491 110.642955 
L 449.5606 129.098636 
L 450.180709 221.377045 
L 450.800818 239.832727 
L 452.041036 202.921364 
L 453.281255 202.921364 
L 453.901364 92.187273 
L 454.521473 147.554318 
L 455.141582 147.554318 
L 455.761691 166.01 
L 456.3818 129.098636 
L 457.001909 147.554318 
L 457.622018 184.465682 
L 458.242127 147.554318 
L 458.862236 129.098636 
L 459.482345 202.921364 
L 460.102455 166.01 
L 460.722564 221.377045 
L 461.962782 258.288409 
L 462.582891 295.199773 
L 463.203 258.288409 
L 464.443218 258.288409 
L 465.683436 221.377045 
L 466.303545 147.554318 
L 466.923655 202.921364 
L 467.543764 239.832727 
L 468.163873 221.377045 
L 468.783982 184.465682 
L 469.404091 184.465682 
L 470.0242 166.01 
L 470.644309 184.465682 
L 471.264418 184.465682 
L 471.884527 202.921364 
L 472.504636 202.921364 
L 473.124745 166.01 
L 473.744855 166.01 
L 474.364964 129.098636 
L 474.985073 129.098636 
L 475.605182 184.465682 
L 476.8454 258.288409 
L 477.465509 221.377045 
L 478.085618 239.832727 
L 478.705727 147.554318 
L 479.325836 92.187273 
L 479.945945 73.731591 
L 480.566055 184.465682 
L 481.806273 221.377045 
L 482.426382 202.921364 
L 483.046491 129.098636 
L 483.6666 147.554318 
L 484.286709 184.465682 
L 484.906818 202.921364 
L 485.526927 184.465682 
L 486.147036 184.465682 
L 486.767145 202.921364 
L 487.387255 147.554318 
L 488.007364 147.554318 
L 489.247582 221.377045 
L 489.867691 202.921364 
L 490.4878 239.832727 
L 491.107909 184.465682 
L 491.728018 166.01 
L 492.348127 202.921364 
L 492.968236 184.465682 
L 493.588345 184.465682 
L 494.208455 166.01 
L 494.828564 184.465682 
L 495.448673 258.288409 
L 496.068782 276.744091 
L 496.688891 276.744091 
L 497.309 221.377045 
L 497.929109 202.921364 
L 498.549218 147.554318 
L 499.169327 110.642955 
L 499.789436 110.642955 
L 500.409545 147.554318 
L 501.029655 202.921364 
L 501.649764 239.832727 
L 502.269873 202.921364 
L 502.889982 221.377045 
L 503.510091 258.288409 
L 504.1302 221.377045 
L 504.750309 129.098636 
L 505.370418 129.098636 
L 505.990527 110.642955 
L 506.610636 202.921364 
L 507.230745 239.832727 
L 507.850855 202.921364 
L 508.470964 129.098636 
L 509.711182 129.098636 
L 510.331291 92.187273 
L 510.9514 147.554318 
L 512.191618 110.642955 
L 512.811727 129.098636 
L 513.431836 92.187273 
L 514.051945 129.098636 
L 516.532382 202.921364 
L 517.7726 166.01 
L 518.392709 202.921364 
L 519.012818 258.288409 
L 519.632927 202.921364 
L 520.253036 221.377045 
L 521.493255 147.554318 
L 522.113364 184.465682 
L 522.733473 184.465682 
L 523.353582 239.832727 
L 523.973691 221.377045 
L 524.5938 239.832727 
L 525.213909 202.921364 
L 526.454127 202.921364 
L 527.074236 184.465682 
L 527.694345 239.832727 
L 528.314455 239.832727 
L 528.934564 258.288409 
L 529.554673 202.921364 
L 530.174782 184.465682 
L 530.794891 239.832727 
L 531.415 184.465682 
L 532.035109 147.554318 
L 532.655218 129.098636 
L 533.275327 184.465682 
L 533.895436 184.465682 
L 534.515545 258.288409 
L 535.135655 221.377045 
L 536.375873 221.377045 
L 536.995982 258.288409 
L 537.616091 258.288409 
L 538.2362 239.832727 
L 540.096527 239.832727 
L 541.336745 92.187273 
L 541.956855 92.187273 
L 542.576964 73.731591 
L 543.197073 147.554318 
L 543.817182 110.642955 
L 544.437291 92.187273 
L 545.0574 110.642955 
L 546.297618 184.465682 
L 547.537836 184.465682 
L 548.157945 129.098636 
L 548.778055 110.642955 
L 550.018273 184.465682 
L 550.638382 147.554318 
L 551.258491 166.01 
L 551.8786 110.642955 
L 552.498709 147.554318 
L 553.118818 147.554318 
L 553.738927 221.377045 
L 554.359036 202.921364 
L 554.979145 221.377045 
L 555.599255 184.465682 
L 556.219364 184.465682 
L 556.839473 202.921364 
L 557.459582 184.465682 
L 558.079691 110.642955 
L 558.6998 110.642955 
L 559.319909 92.187273 
L 559.940018 147.554318 
L 561.180236 221.377045 
L 561.800345 202.921364 
L 562.420455 202.921364 
L 563.040564 221.377045 
L 563.660673 184.465682 
L 564.280782 184.465682 
L 564.900891 221.377045 
L 566.141109 184.465682 
L 567.381327 221.377045 
L 568.001436 110.642955 
L 569.241655 184.465682 
L 569.861764 184.465682 
L 570.481873 166.01 
L 571.101982 239.832727 
L 571.722091 258.288409 
L 572.3422 202.921364 
L 572.962309 202.921364 
L 573.582418 221.377045 
L 574.202527 166.01 
L 575.442745 166.01 
L 576.062855 202.921364 
L 576.682964 166.01 
L 577.303073 147.554318 
L 577.923182 147.554318 
L 578.543291 129.098636 
L 579.1634 129.098636 
L 579.783509 110.642955 
L 580.403618 202.921364 
L 581.023727 221.377045 
L 581.643836 258.288409 
L 582.263945 239.832727 
L 582.884055 202.921364 
L 583.504164 147.554318 
L 584.124273 166.01 
L 584.744382 221.377045 
L 585.364491 202.921364 
L 585.9846 221.377045 
L 586.604709 221.377045 
L 587.224818 202.921364 
L 587.844927 166.01 
L 588.465036 147.554318 
L 589.085145 166.01 
L 589.705255 239.832727 
L 590.945473 166.01 
L 591.565582 147.554318 
L 592.185691 221.377045 
L 592.8058 258.288409 
L 594.046018 258.288409 
L 594.666127 166.01 
L 595.286236 129.098636 
L 595.906345 129.098636 
L 597.146564 239.832727 
L 597.766673 166.01 
L 598.386782 202.921364 
L 599.006891 202.921364 
L 599.627 166.01 
L 600.247109 202.921364 
L 601.487327 166.01 
L 602.107436 221.377045 
L 602.727545 184.465682 
L 603.347655 184.465682 
L 603.967764 166.01 
L 604.587873 184.465682 
L 605.207982 92.187273 
L 605.828091 184.465682 
L 607.068309 184.465682 
L 607.688418 202.921364 
L 608.308527 147.554318 
L 608.928636 110.642955 
L 609.548745 184.465682 
L 610.168855 239.832727 
L 610.788964 258.288409 
L 611.409073 239.832727 
L 612.029182 202.921364 
L 612.649291 147.554318 
L 613.889509 184.465682 
L 614.509618 147.554318 
L 615.129727 129.098636 
L 615.749836 166.01 
L 616.369945 147.554318 
L 617.610164 221.377045 
L 618.230273 184.465682 
L 618.850382 166.01 
L 619.470491 129.098636 
L 620.0906 202.921364 
L 620.710709 147.554318 
L 621.330818 184.465682 
L 621.950927 202.921364 
L 622.571036 258.288409 
L 623.191145 184.465682 
L 623.811255 166.01 
L 624.431364 184.465682 
L 625.671582 184.465682 
L 626.291691 221.377045 
L 626.9118 202.921364 
L 627.531909 129.098636 
L 629.392236 184.465682 
L 630.012345 166.01 
L 630.632455 184.465682 
L 631.252564 166.01 
L 631.872673 166.01 
L 632.492782 184.465682 
L 634.353109 184.465682 
L 635.593327 221.377045 
L 636.213436 258.288409 
L 636.833545 184.465682 
L 637.453655 221.377045 
L 638.073764 202.921364 
L 638.693873 221.377045 
L 640.5542 166.01 
L 641.174309 184.465682 
L 641.794418 166.01 
L 642.414527 239.832727 
L 644.274855 129.098636 
L 644.894964 129.098636 
L 645.515073 184.465682 
L 646.755291 184.465682 
L 647.995509 147.554318 
L 648.615618 184.465682 
L 649.235727 147.554318 
L 649.855836 129.098636 
L 650.475945 166.01 
L 651.096055 147.554318 
L 651.716164 202.921364 
L 652.336273 221.377045 
L 652.956382 221.377045 
L 653.576491 184.465682 
L 654.1966 166.01 
L 655.436818 92.187273 
L 656.056927 92.187273 
L 657.297145 129.098636 
L 657.917255 221.377045 
L 658.537364 239.832727 
L 659.777582 239.832727 
L 660.397691 202.921364 
L 661.637909 239.832727 
L 662.878127 202.921364 
L 663.498236 166.01 
L 664.118345 166.01 
L 664.738455 221.377045 
L 665.978673 184.465682 
L 666.598782 129.098636 
L 667.218891 147.554318 
L 667.839 221.377045 
L 668.459109 184.465682 
L 669.079218 221.377045 
L 669.699327 239.832727 
L 670.319436 202.921364 
L 670.939545 239.832727 
L 670.939545 239.832727 
" clip-path="url(#p9cd24097b3)" style="fill: none; stroke: #0c5da5; stroke-linecap: square"/>
   </g>
   <g id="patch_3">
    <path d="M 19.825 328.42 
L 19.825 3.6 
" style="fill: none; stroke: #000000; stroke-width: 0.5; stroke-linejoin: miter; stroke-linecap: square"/>
   </g>
   <g id="patch_4">
    <path d="M 701.945 328.42 
L 701.945 3.6 
" style="fill: none; stroke: #000000; stroke-width: 0.5; stroke-linejoin: miter; stroke-linecap: square"/>
   </g>
   <g id="patch_5">
    <path d="M 19.825 328.42 
L 701.945 328.42 
" style="fill: none; stroke: #000000; stroke-width: 0.5; stroke-linejoin: miter; stroke-linecap: square"/>
   </g>
   <g id="patch_6">
    <path d="M 19.825 3.6 
L 701.945 3.6 
" style="fill: none; stroke: #000000; stroke-width: 0.5; stroke-linejoin: miter; stroke-linecap: square"/>
   </g>
  </g>
 </g>
 <defs>
  <clipPath id="p9cd24097b3">
   <rect x="19.825" y="3.6" width="682.12" height="324.82"/>
  </clipPath>
 </defs>
</svg>
