<?xml version="1.0" encoding="utf-8" standalone="no"?>
<!DOCTYPE svg PUBLIC "-//W3C//DTD SVG 1.1//EN"
  "http://www.w3.org/Graphics/SVG/1.1/DTD/svg11.dtd">
<svg xmlns:xlink="http://www.w3.org/1999/xlink" width="705.545pt" height="345.198125pt" viewBox="0 0 705.545 345.198125" xmlns="http://www.w3.org/2000/svg" version="1.1">
 <metadata>
  <rdf:RDF xmlns:dc="http://purl.org/dc/elements/1.1/" xmlns:cc="http://creativecommons.org/ns#" xmlns:rdf="http://www.w3.org/1999/02/22-rdf-syntax-ns#">
   <cc:Work>
    <dc:type rdf:resource="http://purl.org/dc/dcmitype/StillImage"/>
    <dc:date>2023-07-06T23:17:01.617800</dc:date>
    <dc:format>image/svg+xml</dc:format>
    <dc:creator>
     <cc:Agent>
      <dc:title>Matplotlib v3.7.2, https://matplotlib.org/</dc:title>
     </cc:Agent>
    </dc:creator>
   </cc:Work>
  </rdf:RDF>
 </metadata>
 <defs>
  <style type="text/css">*{stroke-linejoin: round; stroke-linecap: butt}</style>
 </defs>
 <g id="figure_1">
  <g id="patch_1">
   <path d="M -0 345.198125 
L 705.545 345.198125 
L 705.545 0 
L -0 0 
z
" style="fill: #ffffff"/>
  </g>
  <g id="axes_1">
   <g id="patch_2">
    <path d="M 19.825 328.42 
L 701.945 328.42 
L 701.945 3.6 
L 19.825 3.6 
z
" style="fill: #ffffff"/>
   </g>
   <g id="matplotlib.axis_1">
    <g id="xtick_1">
     <g id="line2d_1">
      <defs>
       <path id="m565ce069d5" d="M 0 0 
L 0 -3 
" style="stroke: #000000; stroke-width: 0.5"/>
      </defs>
      <g>
       <use xlink:href="#m565ce069d5" x="50.210345" y="328.42" style="stroke: #000000; stroke-width: 0.5"/>
      </g>
     </g>
     <g id="line2d_2">
      <defs>
       <path id="me51957099f" d="M 0 0 
L 0 3 
" style="stroke: #000000; stroke-width: 0.5"/>
      </defs>
      <g>
       <use xlink:href="#me51957099f" x="50.210345" y="3.6" style="stroke: #000000; stroke-width: 0.5"/>
      </g>
     </g>
     <g id="text_1">
      <!-- 0 -->
      <g transform="translate(47.029095 339.518437) scale(0.1 -0.1)">
       <defs>
        <path id="DejaVuSerif-30" d="M 2034 219 
Q 2513 219 2750 744 
Q 2988 1269 2988 2328 
Q 2988 3391 2750 3916 
Q 2513 4441 2034 4441 
Q 1556 4441 1318 3916 
Q 1081 3391 1081 2328 
Q 1081 1269 1318 744 
Q 1556 219 2034 219 
z
M 2034 -91 
Q 1275 -91 848 546 
Q 422 1184 422 2328 
Q 422 3475 848 4112 
Q 1275 4750 2034 4750 
Q 2797 4750 3222 4112 
Q 3647 3475 3647 2328 
Q 3647 1184 3222 546 
Q 2797 -91 2034 -91 
z
" transform="scale(0.015625)"/>
       </defs>
       <use xlink:href="#DejaVuSerif-30"/>
      </g>
     </g>
    </g>
    <g id="xtick_2">
     <g id="line2d_3">
      <g>
       <use xlink:href="#m565ce069d5" x="174.232164" y="328.42" style="stroke: #000000; stroke-width: 0.5"/>
      </g>
     </g>
     <g id="line2d_4">
      <g>
       <use xlink:href="#me51957099f" x="174.232164" y="3.6" style="stroke: #000000; stroke-width: 0.5"/>
      </g>
     </g>
     <g id="text_2">
      <!-- 200 -->
      <g transform="translate(164.688414 339.518437) scale(0.1 -0.1)">
       <defs>
        <path id="DejaVuSerif-32" d="M 819 3553 
L 469 3553 
L 469 4384 
Q 803 4563 1142 4656 
Q 1481 4750 1806 4750 
Q 2534 4750 2956 4397 
Q 3378 4044 3378 3438 
Q 3378 2753 2422 1800 
Q 2347 1728 2309 1691 
L 1131 513 
L 3078 513 
L 3078 1088 
L 3444 1088 
L 3444 0 
L 434 0 
L 434 341 
L 1850 1753 
Q 2319 2222 2519 2614 
Q 2719 3006 2719 3438 
Q 2719 3909 2473 4175 
Q 2228 4441 1797 4441 
Q 1350 4441 1106 4219 
Q 863 3997 819 3553 
z
" transform="scale(0.015625)"/>
       </defs>
       <use xlink:href="#DejaVuSerif-32"/>
       <use xlink:href="#DejaVuSerif-30" x="63.623047"/>
       <use xlink:href="#DejaVuSerif-30" x="127.246094"/>
      </g>
     </g>
    </g>
    <g id="xtick_3">
     <g id="line2d_5">
      <g>
       <use xlink:href="#m565ce069d5" x="298.253982" y="328.42" style="stroke: #000000; stroke-width: 0.5"/>
      </g>
     </g>
     <g id="line2d_6">
      <g>
       <use xlink:href="#me51957099f" x="298.253982" y="3.6" style="stroke: #000000; stroke-width: 0.5"/>
      </g>
     </g>
     <g id="text_3">
      <!-- 400 -->
      <g transform="translate(288.710232 339.518437) scale(0.1 -0.1)">
       <defs>
        <path id="DejaVuSerif-34" d="M 2234 1581 
L 2234 4063 
L 641 1581 
L 2234 1581 
z
M 3609 0 
L 1484 0 
L 1484 331 
L 2234 331 
L 2234 1247 
L 197 1247 
L 197 1588 
L 2241 4750 
L 2859 4750 
L 2859 1581 
L 3750 1581 
L 3750 1247 
L 2859 1247 
L 2859 331 
L 3609 331 
L 3609 0 
z
" transform="scale(0.015625)"/>
       </defs>
       <use xlink:href="#DejaVuSerif-34"/>
       <use xlink:href="#DejaVuSerif-30" x="63.623047"/>
       <use xlink:href="#DejaVuSerif-30" x="127.246094"/>
      </g>
     </g>
    </g>
    <g id="xtick_4">
     <g id="line2d_7">
      <g>
       <use xlink:href="#m565ce069d5" x="422.2758" y="328.42" style="stroke: #000000; stroke-width: 0.5"/>
      </g>
     </g>
     <g id="line2d_8">
      <g>
       <use xlink:href="#me51957099f" x="422.2758" y="3.6" style="stroke: #000000; stroke-width: 0.5"/>
      </g>
     </g>
     <g id="text_4">
      <!-- 600 -->
      <g transform="translate(412.73205 339.518437) scale(0.1 -0.1)">
       <defs>
        <path id="DejaVuSerif-36" d="M 2094 219 
Q 2534 219 2771 542 
Q 3009 866 3009 1472 
Q 3009 2078 2771 2401 
Q 2534 2725 2094 2725 
Q 1647 2725 1412 2412 
Q 1178 2100 1178 1509 
Q 1178 888 1415 553 
Q 1653 219 2094 219 
z
M 1075 2569 
Q 1288 2803 1556 2918 
Q 1825 3034 2163 3034 
Q 2859 3034 3264 2615 
Q 3669 2197 3669 1472 
Q 3669 763 3233 336 
Q 2797 -91 2069 -91 
Q 1278 -91 853 498 
Q 428 1088 428 2181 
Q 428 3406 931 4078 
Q 1434 4750 2350 4750 
Q 2597 4750 2869 4703 
Q 3141 4656 3425 4563 
L 3425 3794 
L 3072 3794 
Q 3034 4109 2831 4275 
Q 2628 4441 2284 4441 
Q 1678 4441 1381 3981 
Q 1084 3522 1075 2569 
z
" transform="scale(0.015625)"/>
       </defs>
       <use xlink:href="#DejaVuSerif-36"/>
       <use xlink:href="#DejaVuSerif-30" x="63.623047"/>
       <use xlink:href="#DejaVuSerif-30" x="127.246094"/>
      </g>
     </g>
    </g>
    <g id="xtick_5">
     <g id="line2d_9">
      <g>
       <use xlink:href="#m565ce069d5" x="546.297618" y="328.42" style="stroke: #000000; stroke-width: 0.5"/>
      </g>
     </g>
     <g id="line2d_10">
      <g>
       <use xlink:href="#me51957099f" x="546.297618" y="3.6" style="stroke: #000000; stroke-width: 0.5"/>
      </g>
     </g>
     <g id="text_5">
      <!-- 800 -->
      <g transform="translate(536.753868 339.518437) scale(0.1 -0.1)">
       <defs>
        <path id="DejaVuSerif-38" d="M 2981 1275 
Q 2981 1775 2732 2051 
Q 2484 2328 2034 2328 
Q 1584 2328 1336 2051 
Q 1088 1775 1088 1275 
Q 1088 772 1336 495 
Q 1584 219 2034 219 
Q 2484 219 2732 495 
Q 2981 772 2981 1275 
z
M 2853 3541 
Q 2853 3966 2637 4203 
Q 2422 4441 2034 4441 
Q 1650 4441 1433 4203 
Q 1216 3966 1216 3541 
Q 1216 3113 1433 2875 
Q 1650 2638 2034 2638 
Q 2422 2638 2637 2875 
Q 2853 3113 2853 3541 
z
M 2516 2484 
Q 3047 2413 3344 2092 
Q 3641 1772 3641 1275 
Q 3641 619 3225 264 
Q 2809 -91 2034 -91 
Q 1263 -91 845 264 
Q 428 619 428 1275 
Q 428 1772 725 2092 
Q 1022 2413 1556 2484 
Q 1084 2569 832 2842 
Q 581 3116 581 3541 
Q 581 4103 968 4426 
Q 1356 4750 2034 4750 
Q 2713 4750 3100 4426 
Q 3488 4103 3488 3541 
Q 3488 3116 3236 2842 
Q 2984 2569 2516 2484 
z
" transform="scale(0.015625)"/>
       </defs>
       <use xlink:href="#DejaVuSerif-38"/>
       <use xlink:href="#DejaVuSerif-30" x="63.623047"/>
       <use xlink:href="#DejaVuSerif-30" x="127.246094"/>
      </g>
     </g>
    </g>
    <g id="xtick_6">
     <g id="line2d_11">
      <g>
       <use xlink:href="#m565ce069d5" x="670.319436" y="328.42" style="stroke: #000000; stroke-width: 0.5"/>
      </g>
     </g>
     <g id="line2d_12">
      <g>
       <use xlink:href="#me51957099f" x="670.319436" y="3.6" style="stroke: #000000; stroke-width: 0.5"/>
      </g>
     </g>
     <g id="text_6">
      <!-- 1000 -->
      <g transform="translate(657.594436 339.518437) scale(0.1 -0.1)">
       <defs>
        <path id="DejaVuSerif-31" d="M 909 0 
L 909 331 
L 1722 331 
L 1722 4213 
L 781 3603 
L 781 4013 
L 1919 4750 
L 2350 4750 
L 2350 331 
L 3163 331 
L 3163 0 
L 909 0 
z
" transform="scale(0.015625)"/>
       </defs>
       <use xlink:href="#DejaVuSerif-31"/>
       <use xlink:href="#DejaVuSerif-30" x="63.623047"/>
       <use xlink:href="#DejaVuSerif-30" x="127.246094"/>
       <use xlink:href="#DejaVuSerif-30" x="190.869141"/>
      </g>
     </g>
    </g>
    <g id="xtick_7">
     <g id="line2d_13">
      <defs>
       <path id="m77df8de3cf" d="M 0 0 
L 0 -1.5 
" style="stroke: #000000; stroke-width: 0.5"/>
      </defs>
      <g>
       <use xlink:href="#m77df8de3cf" x="81.2158" y="328.42" style="stroke: #000000; stroke-width: 0.5"/>
      </g>
     </g>
     <g id="line2d_14">
      <defs>
       <path id="m3c7052f301" d="M 0 0 
L 0 1.5 
" style="stroke: #000000; stroke-width: 0.5"/>
      </defs>
      <g>
       <use xlink:href="#m3c7052f301" x="81.2158" y="3.6" style="stroke: #000000; stroke-width: 0.5"/>
      </g>
     </g>
    </g>
    <g id="xtick_8">
     <g id="line2d_15">
      <g>
       <use xlink:href="#m77df8de3cf" x="112.221255" y="328.42" style="stroke: #000000; stroke-width: 0.5"/>
      </g>
     </g>
     <g id="line2d_16">
      <g>
       <use xlink:href="#m3c7052f301" x="112.221255" y="3.6" style="stroke: #000000; stroke-width: 0.5"/>
      </g>
     </g>
    </g>
    <g id="xtick_9">
     <g id="line2d_17">
      <g>
       <use xlink:href="#m77df8de3cf" x="143.226709" y="328.42" style="stroke: #000000; stroke-width: 0.5"/>
      </g>
     </g>
     <g id="line2d_18">
      <g>
       <use xlink:href="#m3c7052f301" x="143.226709" y="3.6" style="stroke: #000000; stroke-width: 0.5"/>
      </g>
     </g>
    </g>
    <g id="xtick_10">
     <g id="line2d_19">
      <g>
       <use xlink:href="#m77df8de3cf" x="205.237618" y="328.42" style="stroke: #000000; stroke-width: 0.5"/>
      </g>
     </g>
     <g id="line2d_20">
      <g>
       <use xlink:href="#m3c7052f301" x="205.237618" y="3.6" style="stroke: #000000; stroke-width: 0.5"/>
      </g>
     </g>
    </g>
    <g id="xtick_11">
     <g id="line2d_21">
      <g>
       <use xlink:href="#m77df8de3cf" x="236.243073" y="328.42" style="stroke: #000000; stroke-width: 0.5"/>
      </g>
     </g>
     <g id="line2d_22">
      <g>
       <use xlink:href="#m3c7052f301" x="236.243073" y="3.6" style="stroke: #000000; stroke-width: 0.5"/>
      </g>
     </g>
    </g>
    <g id="xtick_12">
     <g id="line2d_23">
      <g>
       <use xlink:href="#m77df8de3cf" x="267.248527" y="328.42" style="stroke: #000000; stroke-width: 0.5"/>
      </g>
     </g>
     <g id="line2d_24">
      <g>
       <use xlink:href="#m3c7052f301" x="267.248527" y="3.6" style="stroke: #000000; stroke-width: 0.5"/>
      </g>
     </g>
    </g>
    <g id="xtick_13">
     <g id="line2d_25">
      <g>
       <use xlink:href="#m77df8de3cf" x="329.259436" y="328.42" style="stroke: #000000; stroke-width: 0.5"/>
      </g>
     </g>
     <g id="line2d_26">
      <g>
       <use xlink:href="#m3c7052f301" x="329.259436" y="3.6" style="stroke: #000000; stroke-width: 0.5"/>
      </g>
     </g>
    </g>
    <g id="xtick_14">
     <g id="line2d_27">
      <g>
       <use xlink:href="#m77df8de3cf" x="360.264891" y="328.42" style="stroke: #000000; stroke-width: 0.5"/>
      </g>
     </g>
     <g id="line2d_28">
      <g>
       <use xlink:href="#m3c7052f301" x="360.264891" y="3.6" style="stroke: #000000; stroke-width: 0.5"/>
      </g>
     </g>
    </g>
    <g id="xtick_15">
     <g id="line2d_29">
      <g>
       <use xlink:href="#m77df8de3cf" x="391.270345" y="328.42" style="stroke: #000000; stroke-width: 0.5"/>
      </g>
     </g>
     <g id="line2d_30">
      <g>
       <use xlink:href="#m3c7052f301" x="391.270345" y="3.6" style="stroke: #000000; stroke-width: 0.5"/>
      </g>
     </g>
    </g>
    <g id="xtick_16">
     <g id="line2d_31">
      <g>
       <use xlink:href="#m77df8de3cf" x="453.281255" y="328.42" style="stroke: #000000; stroke-width: 0.5"/>
      </g>
     </g>
     <g id="line2d_32">
      <g>
       <use xlink:href="#m3c7052f301" x="453.281255" y="3.6" style="stroke: #000000; stroke-width: 0.5"/>
      </g>
     </g>
    </g>
    <g id="xtick_17">
     <g id="line2d_33">
      <g>
       <use xlink:href="#m77df8de3cf" x="484.286709" y="328.42" style="stroke: #000000; stroke-width: 0.5"/>
      </g>
     </g>
     <g id="line2d_34">
      <g>
       <use xlink:href="#m3c7052f301" x="484.286709" y="3.6" style="stroke: #000000; stroke-width: 0.5"/>
      </g>
     </g>
    </g>
    <g id="xtick_18">
     <g id="line2d_35">
      <g>
       <use xlink:href="#m77df8de3cf" x="515.292164" y="328.42" style="stroke: #000000; stroke-width: 0.5"/>
      </g>
     </g>
     <g id="line2d_36">
      <g>
       <use xlink:href="#m3c7052f301" x="515.292164" y="3.6" style="stroke: #000000; stroke-width: 0.5"/>
      </g>
     </g>
    </g>
    <g id="xtick_19">
     <g id="line2d_37">
      <g>
       <use xlink:href="#m77df8de3cf" x="577.303073" y="328.42" style="stroke: #000000; stroke-width: 0.5"/>
      </g>
     </g>
     <g id="line2d_38">
      <g>
       <use xlink:href="#m3c7052f301" x="577.303073" y="3.6" style="stroke: #000000; stroke-width: 0.5"/>
      </g>
     </g>
    </g>
    <g id="xtick_20">
     <g id="line2d_39">
      <g>
       <use xlink:href="#m77df8de3cf" x="608.308527" y="328.42" style="stroke: #000000; stroke-width: 0.5"/>
      </g>
     </g>
     <g id="line2d_40">
      <g>
       <use xlink:href="#m3c7052f301" x="608.308527" y="3.6" style="stroke: #000000; stroke-width: 0.5"/>
      </g>
     </g>
    </g>
    <g id="xtick_21">
     <g id="line2d_41">
      <g>
       <use xlink:href="#m77df8de3cf" x="639.313982" y="328.42" style="stroke: #000000; stroke-width: 0.5"/>
      </g>
     </g>
     <g id="line2d_42">
      <g>
       <use xlink:href="#m3c7052f301" x="639.313982" y="3.6" style="stroke: #000000; stroke-width: 0.5"/>
      </g>
     </g>
    </g>
    <g id="xtick_22">
     <g id="line2d_43">
      <g>
       <use xlink:href="#m77df8de3cf" x="701.324891" y="328.42" style="stroke: #000000; stroke-width: 0.5"/>
      </g>
     </g>
     <g id="line2d_44">
      <g>
       <use xlink:href="#m3c7052f301" x="701.324891" y="3.6" style="stroke: #000000; stroke-width: 0.5"/>
      </g>
     </g>
    </g>
   </g>
   <g id="matplotlib.axis_2">
    <g id="ytick_1">
     <g id="line2d_45">
      <defs>
       <path id="me40e043ce4" d="M 0 0 
L 3 0 
" style="stroke: #000000; stroke-width: 0.5"/>
      </defs>
      <g>
       <use xlink:href="#me40e043ce4" x="19.825" y="313.655455" style="stroke: #000000; stroke-width: 0.5"/>
      </g>
     </g>
     <g id="line2d_46">
      <defs>
       <path id="m71d67b0d07" d="M 0 0 
L -3 0 
" style="stroke: #000000; stroke-width: 0.5"/>
      </defs>
      <g>
       <use xlink:href="#m71d67b0d07" x="701.945" y="313.655455" style="stroke: #000000; stroke-width: 0.5"/>
      </g>
     </g>
     <g id="text_7">
      <!-- 0 -->
      <g transform="translate(9.9625 317.454673) scale(0.1 -0.1)">
       <use xlink:href="#DejaVuSerif-30"/>
      </g>
     </g>
    </g>
    <g id="ytick_2">
     <g id="line2d_47">
      <g>
       <use xlink:href="#me40e043ce4" x="19.825" y="276.744091" style="stroke: #000000; stroke-width: 0.5"/>
      </g>
     </g>
     <g id="line2d_48">
      <g>
       <use xlink:href="#m71d67b0d07" x="701.945" y="276.744091" style="stroke: #000000; stroke-width: 0.5"/>
      </g>
     </g>
     <g id="text_8">
      <!-- 2 -->
      <g transform="translate(9.9625 280.54331) scale(0.1 -0.1)">
       <use xlink:href="#DejaVuSerif-32"/>
      </g>
     </g>
    </g>
    <g id="ytick_3">
     <g id="line2d_49">
      <g>
       <use xlink:href="#me40e043ce4" x="19.825" y="239.832727" style="stroke: #000000; stroke-width: 0.5"/>
      </g>
     </g>
     <g id="line2d_50">
      <g>
       <use xlink:href="#m71d67b0d07" x="701.945" y="239.832727" style="stroke: #000000; stroke-width: 0.5"/>
      </g>
     </g>
     <g id="text_9">
      <!-- 4 -->
      <g transform="translate(9.9625 243.631946) scale(0.1 -0.1)">
       <use xlink:href="#DejaVuSerif-34"/>
      </g>
     </g>
    </g>
    <g id="ytick_4">
     <g id="line2d_51">
      <g>
       <use xlink:href="#me40e043ce4" x="19.825" y="202.921364" style="stroke: #000000; stroke-width: 0.5"/>
      </g>
     </g>
     <g id="line2d_52">
      <g>
       <use xlink:href="#m71d67b0d07" x="701.945" y="202.921364" style="stroke: #000000; stroke-width: 0.5"/>
      </g>
     </g>
     <g id="text_10">
      <!-- 6 -->
      <g transform="translate(9.9625 206.720582) scale(0.1 -0.1)">
       <use xlink:href="#DejaVuSerif-36"/>
      </g>
     </g>
    </g>
    <g id="ytick_5">
     <g id="line2d_53">
      <g>
       <use xlink:href="#me40e043ce4" x="19.825" y="166.01" style="stroke: #000000; stroke-width: 0.5"/>
      </g>
     </g>
     <g id="line2d_54">
      <g>
       <use xlink:href="#m71d67b0d07" x="701.945" y="166.01" style="stroke: #000000; stroke-width: 0.5"/>
      </g>
     </g>
     <g id="text_11">
      <!-- 8 -->
      <g transform="translate(9.9625 169.809219) scale(0.1 -0.1)">
       <use xlink:href="#DejaVuSerif-38"/>
      </g>
     </g>
    </g>
    <g id="ytick_6">
     <g id="line2d_55">
      <g>
       <use xlink:href="#me40e043ce4" x="19.825" y="129.098636" style="stroke: #000000; stroke-width: 0.5"/>
      </g>
     </g>
     <g id="line2d_56">
      <g>
       <use xlink:href="#m71d67b0d07" x="701.945" y="129.098636" style="stroke: #000000; stroke-width: 0.5"/>
      </g>
     </g>
     <g id="text_12">
      <!-- 10 -->
      <g transform="translate(3.6 132.897855) scale(0.1 -0.1)">
       <use xlink:href="#DejaVuSerif-31"/>
       <use xlink:href="#DejaVuSerif-30" x="63.623047"/>
      </g>
     </g>
    </g>
    <g id="ytick_7">
     <g id="line2d_57">
      <g>
       <use xlink:href="#me40e043ce4" x="19.825" y="92.187273" style="stroke: #000000; stroke-width: 0.5"/>
      </g>
     </g>
     <g id="line2d_58">
      <g>
       <use xlink:href="#m71d67b0d07" x="701.945" y="92.187273" style="stroke: #000000; stroke-width: 0.5"/>
      </g>
     </g>
     <g id="text_13">
      <!-- 12 -->
      <g transform="translate(3.6 95.986491) scale(0.1 -0.1)">
       <use xlink:href="#DejaVuSerif-31"/>
       <use xlink:href="#DejaVuSerif-32" x="63.623047"/>
      </g>
     </g>
    </g>
    <g id="ytick_8">
     <g id="line2d_59">
      <g>
       <use xlink:href="#me40e043ce4" x="19.825" y="55.275909" style="stroke: #000000; stroke-width: 0.5"/>
      </g>
     </g>
     <g id="line2d_60">
      <g>
       <use xlink:href="#m71d67b0d07" x="701.945" y="55.275909" style="stroke: #000000; stroke-width: 0.5"/>
      </g>
     </g>
     <g id="text_14">
      <!-- 14 -->
      <g transform="translate(3.6 59.075128) scale(0.1 -0.1)">
       <use xlink:href="#DejaVuSerif-31"/>
       <use xlink:href="#DejaVuSerif-34" x="63.623047"/>
      </g>
     </g>
    </g>
    <g id="ytick_9">
     <g id="line2d_61">
      <g>
       <use xlink:href="#me40e043ce4" x="19.825" y="18.364545" style="stroke: #000000; stroke-width: 0.5"/>
      </g>
     </g>
     <g id="line2d_62">
      <g>
       <use xlink:href="#m71d67b0d07" x="701.945" y="18.364545" style="stroke: #000000; stroke-width: 0.5"/>
      </g>
     </g>
     <g id="text_15">
      <!-- 16 -->
      <g transform="translate(3.6 22.163764) scale(0.1 -0.1)">
       <use xlink:href="#DejaVuSerif-31"/>
       <use xlink:href="#DejaVuSerif-36" x="63.623047"/>
      </g>
     </g>
    </g>
    <g id="ytick_10">
     <g id="line2d_63">
      <defs>
       <path id="m5b7d100343" d="M 0 0 
L 1.5 0 
" style="stroke: #000000; stroke-width: 0.5"/>
      </defs>
      <g>
       <use xlink:href="#m5b7d100343" x="19.825" y="322.883295" style="stroke: #000000; stroke-width: 0.5"/>
      </g>
     </g>
     <g id="line2d_64">
      <defs>
       <path id="med3cb83eef" d="M 0 0 
L -1.5 0 
" style="stroke: #000000; stroke-width: 0.5"/>
      </defs>
      <g>
       <use xlink:href="#med3cb83eef" x="701.945" y="322.883295" style="stroke: #000000; stroke-width: 0.5"/>
      </g>
     </g>
    </g>
    <g id="ytick_11">
     <g id="line2d_65">
      <g>
       <use xlink:href="#m5b7d100343" x="19.825" y="304.427614" style="stroke: #000000; stroke-width: 0.5"/>
      </g>
     </g>
     <g id="line2d_66">
      <g>
       <use xlink:href="#med3cb83eef" x="701.945" y="304.427614" style="stroke: #000000; stroke-width: 0.5"/>
      </g>
     </g>
    </g>
    <g id="ytick_12">
     <g id="line2d_67">
      <g>
       <use xlink:href="#m5b7d100343" x="19.825" y="295.199773" style="stroke: #000000; stroke-width: 0.5"/>
      </g>
     </g>
     <g id="line2d_68">
      <g>
       <use xlink:href="#med3cb83eef" x="701.945" y="295.199773" style="stroke: #000000; stroke-width: 0.5"/>
      </g>
     </g>
    </g>
    <g id="ytick_13">
     <g id="line2d_69">
      <g>
       <use xlink:href="#m5b7d100343" x="19.825" y="285.971932" style="stroke: #000000; stroke-width: 0.5"/>
      </g>
     </g>
     <g id="line2d_70">
      <g>
       <use xlink:href="#med3cb83eef" x="701.945" y="285.971932" style="stroke: #000000; stroke-width: 0.5"/>
      </g>
     </g>
    </g>
    <g id="ytick_14">
     <g id="line2d_71">
      <g>
       <use xlink:href="#m5b7d100343" x="19.825" y="267.51625" style="stroke: #000000; stroke-width: 0.5"/>
      </g>
     </g>
     <g id="line2d_72">
      <g>
       <use xlink:href="#med3cb83eef" x="701.945" y="267.51625" style="stroke: #000000; stroke-width: 0.5"/>
      </g>
     </g>
    </g>
    <g id="ytick_15">
     <g id="line2d_73">
      <g>
       <use xlink:href="#m5b7d100343" x="19.825" y="258.288409" style="stroke: #000000; stroke-width: 0.5"/>
      </g>
     </g>
     <g id="line2d_74">
      <g>
       <use xlink:href="#med3cb83eef" x="701.945" y="258.288409" style="stroke: #000000; stroke-width: 0.5"/>
      </g>
     </g>
    </g>
    <g id="ytick_16">
     <g id="line2d_75">
      <g>
       <use xlink:href="#m5b7d100343" x="19.825" y="249.060568" style="stroke: #000000; stroke-width: 0.5"/>
      </g>
     </g>
     <g id="line2d_76">
      <g>
       <use xlink:href="#med3cb83eef" x="701.945" y="249.060568" style="stroke: #000000; stroke-width: 0.5"/>
      </g>
     </g>
    </g>
    <g id="ytick_17">
     <g id="line2d_77">
      <g>
       <use xlink:href="#m5b7d100343" x="19.825" y="230.604886" style="stroke: #000000; stroke-width: 0.5"/>
      </g>
     </g>
     <g id="line2d_78">
      <g>
       <use xlink:href="#med3cb83eef" x="701.945" y="230.604886" style="stroke: #000000; stroke-width: 0.5"/>
      </g>
     </g>
    </g>
    <g id="ytick_18">
     <g id="line2d_79">
      <g>
       <use xlink:href="#m5b7d100343" x="19.825" y="221.377045" style="stroke: #000000; stroke-width: 0.5"/>
      </g>
     </g>
     <g id="line2d_80">
      <g>
       <use xlink:href="#med3cb83eef" x="701.945" y="221.377045" style="stroke: #000000; stroke-width: 0.5"/>
      </g>
     </g>
    </g>
    <g id="ytick_19">
     <g id="line2d_81">
      <g>
       <use xlink:href="#m5b7d100343" x="19.825" y="212.149205" style="stroke: #000000; stroke-width: 0.5"/>
      </g>
     </g>
     <g id="line2d_82">
      <g>
       <use xlink:href="#med3cb83eef" x="701.945" y="212.149205" style="stroke: #000000; stroke-width: 0.5"/>
      </g>
     </g>
    </g>
    <g id="ytick_20">
     <g id="line2d_83">
      <g>
       <use xlink:href="#m5b7d100343" x="19.825" y="193.693523" style="stroke: #000000; stroke-width: 0.5"/>
      </g>
     </g>
     <g id="line2d_84">
      <g>
       <use xlink:href="#med3cb83eef" x="701.945" y="193.693523" style="stroke: #000000; stroke-width: 0.5"/>
      </g>
     </g>
    </g>
    <g id="ytick_21">
     <g id="line2d_85">
      <g>
       <use xlink:href="#m5b7d100343" x="19.825" y="184.465682" style="stroke: #000000; stroke-width: 0.5"/>
      </g>
     </g>
     <g id="line2d_86">
      <g>
       <use xlink:href="#med3cb83eef" x="701.945" y="184.465682" style="stroke: #000000; stroke-width: 0.5"/>
      </g>
     </g>
    </g>
    <g id="ytick_22">
     <g id="line2d_87">
      <g>
       <use xlink:href="#m5b7d100343" x="19.825" y="175.237841" style="stroke: #000000; stroke-width: 0.5"/>
      </g>
     </g>
     <g id="line2d_88">
      <g>
       <use xlink:href="#med3cb83eef" x="701.945" y="175.237841" style="stroke: #000000; stroke-width: 0.5"/>
      </g>
     </g>
    </g>
    <g id="ytick_23">
     <g id="line2d_89">
      <g>
       <use xlink:href="#m5b7d100343" x="19.825" y="156.782159" style="stroke: #000000; stroke-width: 0.5"/>
      </g>
     </g>
     <g id="line2d_90">
      <g>
       <use xlink:href="#med3cb83eef" x="701.945" y="156.782159" style="stroke: #000000; stroke-width: 0.5"/>
      </g>
     </g>
    </g>
    <g id="ytick_24">
     <g id="line2d_91">
      <g>
       <use xlink:href="#m5b7d100343" x="19.825" y="147.554318" style="stroke: #000000; stroke-width: 0.5"/>
      </g>
     </g>
     <g id="line2d_92">
      <g>
       <use xlink:href="#med3cb83eef" x="701.945" y="147.554318" style="stroke: #000000; stroke-width: 0.5"/>
      </g>
     </g>
    </g>
    <g id="ytick_25">
     <g id="line2d_93">
      <g>
       <use xlink:href="#m5b7d100343" x="19.825" y="138.326477" style="stroke: #000000; stroke-width: 0.5"/>
      </g>
     </g>
     <g id="line2d_94">
      <g>
       <use xlink:href="#med3cb83eef" x="701.945" y="138.326477" style="stroke: #000000; stroke-width: 0.5"/>
      </g>
     </g>
    </g>
    <g id="ytick_26">
     <g id="line2d_95">
      <g>
       <use xlink:href="#m5b7d100343" x="19.825" y="119.870795" style="stroke: #000000; stroke-width: 0.5"/>
      </g>
     </g>
     <g id="line2d_96">
      <g>
       <use xlink:href="#med3cb83eef" x="701.945" y="119.870795" style="stroke: #000000; stroke-width: 0.5"/>
      </g>
     </g>
    </g>
    <g id="ytick_27">
     <g id="line2d_97">
      <g>
       <use xlink:href="#m5b7d100343" x="19.825" y="110.642955" style="stroke: #000000; stroke-width: 0.5"/>
      </g>
     </g>
     <g id="line2d_98">
      <g>
       <use xlink:href="#med3cb83eef" x="701.945" y="110.642955" style="stroke: #000000; stroke-width: 0.5"/>
      </g>
     </g>
    </g>
    <g id="ytick_28">
     <g id="line2d_99">
      <g>
       <use xlink:href="#m5b7d100343" x="19.825" y="101.415114" style="stroke: #000000; stroke-width: 0.5"/>
      </g>
     </g>
     <g id="line2d_100">
      <g>
       <use xlink:href="#med3cb83eef" x="701.945" y="101.415114" style="stroke: #000000; stroke-width: 0.5"/>
      </g>
     </g>
    </g>
    <g id="ytick_29">
     <g id="line2d_101">
      <g>
       <use xlink:href="#m5b7d100343" x="19.825" y="82.959432" style="stroke: #000000; stroke-width: 0.5"/>
      </g>
     </g>
     <g id="line2d_102">
      <g>
       <use xlink:href="#med3cb83eef" x="701.945" y="82.959432" style="stroke: #000000; stroke-width: 0.5"/>
      </g>
     </g>
    </g>
    <g id="ytick_30">
     <g id="line2d_103">
      <g>
       <use xlink:href="#m5b7d100343" x="19.825" y="73.731591" style="stroke: #000000; stroke-width: 0.5"/>
      </g>
     </g>
     <g id="line2d_104">
      <g>
       <use xlink:href="#med3cb83eef" x="701.945" y="73.731591" style="stroke: #000000; stroke-width: 0.5"/>
      </g>
     </g>
    </g>
    <g id="ytick_31">
     <g id="line2d_105">
      <g>
       <use xlink:href="#m5b7d100343" x="19.825" y="64.50375" style="stroke: #000000; stroke-width: 0.5"/>
      </g>
     </g>
     <g id="line2d_106">
      <g>
       <use xlink:href="#med3cb83eef" x="701.945" y="64.50375" style="stroke: #000000; stroke-width: 0.5"/>
      </g>
     </g>
    </g>
    <g id="ytick_32">
     <g id="line2d_107">
      <g>
       <use xlink:href="#m5b7d100343" x="19.825" y="46.048068" style="stroke: #000000; stroke-width: 0.5"/>
      </g>
     </g>
     <g id="line2d_108">
      <g>
       <use xlink:href="#med3cb83eef" x="701.945" y="46.048068" style="stroke: #000000; stroke-width: 0.5"/>
      </g>
     </g>
    </g>
    <g id="ytick_33">
     <g id="line2d_109">
      <g>
       <use xlink:href="#m5b7d100343" x="19.825" y="36.820227" style="stroke: #000000; stroke-width: 0.5"/>
      </g>
     </g>
     <g id="line2d_110">
      <g>
       <use xlink:href="#med3cb83eef" x="701.945" y="36.820227" style="stroke: #000000; stroke-width: 0.5"/>
      </g>
     </g>
    </g>
    <g id="ytick_34">
     <g id="line2d_111">
      <g>
       <use xlink:href="#m5b7d100343" x="19.825" y="27.592386" style="stroke: #000000; stroke-width: 0.5"/>
      </g>
     </g>
     <g id="line2d_112">
      <g>
       <use xlink:href="#med3cb83eef" x="701.945" y="27.592386" style="stroke: #000000; stroke-width: 0.5"/>
      </g>
     </g>
    </g>
    <g id="ytick_35">
     <g id="line2d_113">
      <g>
       <use xlink:href="#m5b7d100343" x="19.825" y="9.136705" style="stroke: #000000; stroke-width: 0.5"/>
      </g>
     </g>
     <g id="line2d_114">
      <g>
       <use xlink:href="#med3cb83eef" x="701.945" y="9.136705" style="stroke: #000000; stroke-width: 0.5"/>
      </g>
     </g>
    </g>
   </g>
   <g id="line2d_115">
    <path d="M 50.830455 313.655455 
L 55.171218 313.655455 
L 55.791327 295.199773 
L 56.411436 239.832727 
L 57.031545 202.921364 
L 57.651655 129.098636 
L 58.271764 92.187273 
L 58.891873 92.187273 
L 59.511982 202.921364 
L 60.132091 221.377045 
L 60.7522 221.377045 
L 61.992418 147.554318 
L 62.612527 147.554318 
L 63.232636 110.642955 
L 64.472855 147.554318 
L 65.092964 184.465682 
L 65.713073 202.921364 
L 66.333182 239.832727 
L 66.953291 202.921364 
L 68.193509 202.921364 
L 68.813618 184.465682 
L 69.433727 129.098636 
L 70.053836 184.465682 
L 70.673945 147.554318 
L 71.294055 147.554318 
L 71.914164 184.465682 
L 72.534273 184.465682 
L 73.154382 258.288409 
L 73.774491 239.832727 
L 74.3946 202.921364 
L 75.014709 184.465682 
L 75.634818 147.554318 
L 76.254927 147.554318 
L 76.875036 239.832727 
L 77.495145 276.744091 
L 78.115255 166.01 
L 78.735364 147.554318 
L 79.355473 73.731591 
L 79.975582 129.098636 
L 80.595691 147.554318 
L 81.2158 202.921364 
L 82.456018 202.921364 
L 83.076127 239.832727 
L 83.696236 221.377045 
L 84.316345 166.01 
L 84.936455 166.01 
L 85.556564 221.377045 
L 86.176673 221.377045 
L 86.796782 184.465682 
L 87.416891 184.465682 
L 88.037 166.01 
L 89.277218 202.921364 
L 89.897327 239.832727 
L 90.517436 221.377045 
L 91.137545 147.554318 
L 91.757655 202.921364 
L 92.377764 184.465682 
L 92.997873 184.465682 
L 93.617982 92.187273 
L 94.238091 110.642955 
L 94.8582 92.187273 
L 95.478309 166.01 
L 96.098418 166.01 
L 96.718527 221.377045 
L 97.338636 166.01 
L 97.958745 202.921364 
L 99.198964 202.921364 
L 99.819073 110.642955 
L 100.439182 147.554318 
L 101.6794 110.642955 
L 102.299509 184.465682 
L 104.159836 73.731591 
L 104.779945 92.187273 
L 105.400055 129.098636 
L 106.020164 147.554318 
L 106.640273 202.921364 
L 107.260382 202.921364 
L 107.880491 166.01 
L 108.5006 166.01 
L 109.120709 129.098636 
L 109.740818 129.098636 
L 110.360927 166.01 
L 110.981036 166.01 
L 111.601145 184.465682 
L 112.221255 184.465682 
L 112.841364 166.01 
L 113.461473 110.642955 
L 114.701691 110.642955 
L 115.3218 184.465682 
L 115.941909 239.832727 
L 116.562018 221.377045 
L 117.182127 221.377045 
L 117.802236 184.465682 
L 119.042455 147.554318 
L 119.662564 73.731591 
L 121.522891 184.465682 
L 122.143 184.465682 
L 122.763109 239.832727 
L 123.383218 221.377045 
L 124.003327 166.01 
L 124.623436 92.187273 
L 125.863655 166.01 
L 126.483764 184.465682 
L 127.103873 110.642955 
L 128.9642 166.01 
L 129.584309 221.377045 
L 130.204418 239.832727 
L 131.444636 202.921364 
L 132.064745 221.377045 
L 132.684855 221.377045 
L 133.304964 202.921364 
L 133.925073 202.921364 
L 134.545182 166.01 
L 135.165291 147.554318 
L 136.405509 147.554318 
L 137.025618 166.01 
L 137.645727 202.921364 
L 138.265836 184.465682 
L 140.126164 239.832727 
L 140.746273 239.832727 
L 141.366382 258.288409 
L 141.986491 221.377045 
L 142.6066 239.832727 
L 143.226709 239.832727 
L 144.466927 166.01 
L 145.087036 184.465682 
L 145.707145 184.465682 
L 146.327255 166.01 
L 146.947364 221.377045 
L 147.567473 184.465682 
L 148.187582 166.01 
L 148.807691 166.01 
L 149.4278 110.642955 
L 150.047909 129.098636 
L 150.668018 202.921364 
L 151.288127 202.921364 
L 151.908236 221.377045 
L 152.528345 166.01 
L 153.148455 166.01 
L 153.768564 92.187273 
L 154.388673 166.01 
L 155.008782 184.465682 
L 155.628891 166.01 
L 156.249 202.921364 
L 156.869109 202.921364 
L 157.489218 184.465682 
L 158.109327 184.465682 
L 158.729436 147.554318 
L 159.349545 184.465682 
L 159.969655 202.921364 
L 160.589764 166.01 
L 161.209873 202.921364 
L 161.829982 202.921364 
L 162.450091 184.465682 
L 163.0702 202.921364 
L 163.690309 184.465682 
L 164.310418 129.098636 
L 164.930527 184.465682 
L 165.550636 202.921364 
L 166.170745 239.832727 
L 166.790855 258.288409 
L 167.410964 166.01 
L 168.031073 166.01 
L 168.651182 202.921364 
L 169.271291 202.921364 
L 169.8914 166.01 
L 170.511509 147.554318 
L 171.131618 221.377045 
L 171.751727 184.465682 
L 172.371836 184.465682 
L 172.991945 92.187273 
L 173.612055 110.642955 
L 174.232164 147.554318 
L 174.852273 166.01 
L 175.472382 221.377045 
L 176.092491 202.921364 
L 176.7126 258.288409 
L 177.332709 166.01 
L 177.952818 184.465682 
L 178.572927 184.465682 
L 179.193036 147.554318 
L 179.813145 184.465682 
L 180.433255 202.921364 
L 181.053364 147.554318 
L 181.673473 129.098636 
L 182.293582 55.275909 
L 182.913691 129.098636 
L 183.5338 221.377045 
L 184.153909 258.288409 
L 184.774018 221.377045 
L 185.394127 221.377045 
L 186.014236 202.921364 
L 186.634345 202.921364 
L 187.254455 221.377045 
L 187.874564 202.921364 
L 189.114782 239.832727 
L 189.734891 239.832727 
L 190.355 202.921364 
L 190.975109 184.465682 
L 192.215327 184.465682 
L 192.835436 202.921364 
L 193.455545 202.921364 
L 194.075655 184.465682 
L 194.695764 147.554318 
L 195.315873 184.465682 
L 195.935982 258.288409 
L 196.556091 239.832727 
L 197.1762 239.832727 
L 197.796309 221.377045 
L 198.416418 147.554318 
L 199.036527 147.554318 
L 200.276745 184.465682 
L 200.896855 184.465682 
L 201.516964 258.288409 
L 202.137073 239.832727 
L 203.377291 239.832727 
L 203.9974 221.377045 
L 204.617509 166.01 
L 205.237618 184.465682 
L 205.857727 184.465682 
L 206.477836 166.01 
L 207.097945 129.098636 
L 207.718055 129.098636 
L 208.338164 110.642955 
L 208.958273 184.465682 
L 209.578382 202.921364 
L 210.198491 202.921364 
L 210.8186 166.01 
L 211.438709 184.465682 
L 212.058818 221.377045 
L 212.678927 221.377045 
L 213.299036 184.465682 
L 213.919145 202.921364 
L 214.539255 202.921364 
L 215.159364 166.01 
L 215.779473 166.01 
L 216.399582 184.465682 
L 217.019691 239.832727 
L 218.259909 239.832727 
L 218.880018 184.465682 
L 219.500127 147.554318 
L 220.120236 147.554318 
L 220.740345 110.642955 
L 221.360455 129.098636 
L 222.600673 202.921364 
L 223.220782 202.921364 
L 223.840891 184.465682 
L 224.461 184.465682 
L 225.081109 166.01 
L 226.321327 166.01 
L 226.941436 184.465682 
L 228.181655 147.554318 
L 228.801764 202.921364 
L 229.421873 202.921364 
L 230.041982 166.01 
L 230.662091 258.288409 
L 231.2822 258.288409 
L 231.902309 202.921364 
L 232.522418 202.921364 
L 233.142527 239.832727 
L 233.762636 258.288409 
L 234.382745 258.288409 
L 235.002855 239.832727 
L 235.622964 258.288409 
L 236.243073 221.377045 
L 236.863182 258.288409 
L 237.483291 239.832727 
L 238.1034 276.744091 
L 238.723509 239.832727 
L 239.343618 129.098636 
L 239.963727 92.187273 
L 240.583836 110.642955 
L 241.203945 166.01 
L 241.824055 147.554318 
L 242.444164 147.554318 
L 243.064273 110.642955 
L 244.304491 184.465682 
L 244.9246 276.744091 
L 245.544709 258.288409 
L 246.164818 202.921364 
L 246.784927 202.921364 
L 247.405036 239.832727 
L 248.025145 239.832727 
L 248.645255 202.921364 
L 249.265364 184.465682 
L 249.885473 221.377045 
L 250.505582 221.377045 
L 251.7458 258.288409 
L 252.365909 239.832727 
L 252.986018 166.01 
L 253.606127 202.921364 
L 254.846345 202.921364 
L 255.466455 129.098636 
L 256.086564 129.098636 
L 256.706673 147.554318 
L 257.326782 129.098636 
L 257.946891 147.554318 
L 259.187109 147.554318 
L 259.807218 221.377045 
L 260.427327 258.288409 
L 261.047436 258.288409 
L 261.667545 221.377045 
L 262.287655 221.377045 
L 262.907764 166.01 
L 264.768091 110.642955 
L 265.3882 147.554318 
L 266.008309 166.01 
L 266.628418 202.921364 
L 267.248527 221.377045 
L 267.868636 258.288409 
L 268.488745 202.921364 
L 269.108855 184.465682 
L 270.349073 184.465682 
L 270.969182 110.642955 
L 271.589291 184.465682 
L 272.2094 221.377045 
L 272.829509 221.377045 
L 273.449618 129.098636 
L 274.069727 110.642955 
L 274.689836 147.554318 
L 275.309945 166.01 
L 275.930055 166.01 
L 276.550164 147.554318 
L 277.170273 202.921364 
L 277.790382 184.465682 
L 278.410491 184.465682 
L 279.650709 147.554318 
L 280.270818 92.187273 
L 280.890927 202.921364 
L 281.511036 258.288409 
L 282.131145 221.377045 
L 282.751255 147.554318 
L 283.371364 110.642955 
L 283.991473 92.187273 
L 284.611582 166.01 
L 285.231691 184.465682 
L 285.8518 166.01 
L 286.471909 221.377045 
L 287.712127 221.377045 
L 288.952345 110.642955 
L 289.572455 110.642955 
L 290.192564 166.01 
L 290.812673 147.554318 
L 291.432782 92.187273 
L 292.052891 129.098636 
L 292.673 239.832727 
L 293.293109 184.465682 
L 293.913218 184.465682 
L 294.533327 239.832727 
L 295.153436 221.377045 
L 295.773545 184.465682 
L 296.393655 166.01 
L 297.633873 166.01 
L 298.253982 129.098636 
L 298.874091 147.554318 
L 299.4942 147.554318 
L 300.114309 184.465682 
L 300.734418 239.832727 
L 301.354527 221.377045 
L 301.974636 221.377045 
L 302.594745 166.01 
L 303.214855 147.554318 
L 303.834964 147.554318 
L 304.455073 202.921364 
L 305.075182 202.921364 
L 305.695291 184.465682 
L 306.3154 184.465682 
L 306.935509 166.01 
L 307.555618 166.01 
L 308.175727 110.642955 
L 308.795836 92.187273 
L 309.415945 147.554318 
L 310.036055 184.465682 
L 310.656164 166.01 
L 311.276273 92.187273 
L 311.896382 147.554318 
L 312.516491 129.098636 
L 313.1366 221.377045 
L 313.756709 258.288409 
L 314.376818 202.921364 
L 314.996927 184.465682 
L 315.617036 202.921364 
L 316.237145 184.465682 
L 317.477364 258.288409 
L 318.097473 276.744091 
L 318.717582 239.832727 
L 319.337691 184.465682 
L 320.577909 221.377045 
L 321.198018 258.288409 
L 321.818127 166.01 
L 322.438236 166.01 
L 323.058345 129.098636 
L 323.678455 166.01 
L 325.538782 221.377045 
L 326.779 184.465682 
L 327.399109 184.465682 
L 328.019218 221.377045 
L 328.639327 184.465682 
L 329.259436 166.01 
L 329.879545 184.465682 
L 330.499655 184.465682 
L 331.119764 239.832727 
L 332.980091 184.465682 
L 334.220309 110.642955 
L 336.080636 221.377045 
L 336.700745 221.377045 
L 337.320855 239.832727 
L 337.940964 166.01 
L 338.561073 110.642955 
L 339.181182 92.187273 
L 339.801291 129.098636 
L 340.4214 184.465682 
L 341.041509 184.465682 
L 341.661618 221.377045 
L 342.281727 202.921364 
L 342.901836 239.832727 
L 343.521945 221.377045 
L 344.142055 221.377045 
L 344.762164 184.465682 
L 345.382273 129.098636 
L 346.002382 166.01 
L 347.2426 129.098636 
L 348.482818 239.832727 
L 349.102927 202.921364 
L 349.723036 221.377045 
L 350.343145 258.288409 
L 352.203473 202.921364 
L 352.823582 202.921364 
L 353.443691 239.832727 
L 354.0638 239.832727 
L 354.683909 221.377045 
L 355.304018 166.01 
L 355.924127 92.187273 
L 356.544236 92.187273 
L 357.784455 202.921364 
L 358.404564 239.832727 
L 359.024673 258.288409 
L 359.644782 258.288409 
L 360.264891 221.377045 
L 360.885 166.01 
L 361.505109 166.01 
L 362.745327 202.921364 
L 363.365436 202.921364 
L 363.985545 221.377045 
L 364.605655 166.01 
L 365.225764 73.731591 
L 365.845873 73.731591 
L 366.465982 55.275909 
L 367.086091 73.731591 
L 367.7062 147.554318 
L 368.326309 202.921364 
L 368.946418 202.921364 
L 369.566527 166.01 
L 370.186636 166.01 
L 370.806745 147.554318 
L 371.426855 147.554318 
L 372.046964 110.642955 
L 373.287182 184.465682 
L 373.907291 202.921364 
L 374.5274 184.465682 
L 375.147509 147.554318 
L 375.767618 129.098636 
L 376.387727 18.364545 
L 377.007836 18.364545 
L 377.627945 110.642955 
L 378.868164 147.554318 
L 379.488273 202.921364 
L 380.108382 166.01 
L 381.3486 166.01 
L 381.968709 129.098636 
L 382.588818 166.01 
L 383.208927 166.01 
L 383.829036 184.465682 
L 384.449145 184.465682 
L 385.069255 147.554318 
L 385.689364 166.01 
L 386.309473 202.921364 
L 386.929582 202.921364 
L 387.549691 166.01 
L 388.789909 202.921364 
L 389.410018 276.744091 
L 390.030127 295.199773 
L 390.650236 295.199773 
L 391.270345 221.377045 
L 391.890455 129.098636 
L 392.510564 18.364545 
L 394.370891 184.465682 
L 395.611109 221.377045 
L 396.231218 129.098636 
L 396.851327 73.731591 
L 397.471436 129.098636 
L 398.711655 166.01 
L 399.331764 202.921364 
L 399.951873 276.744091 
L 400.571982 258.288409 
L 401.192091 202.921364 
L 401.8122 166.01 
L 402.432309 184.465682 
L 403.052418 184.465682 
L 403.672527 147.554318 
L 404.292636 202.921364 
L 404.912745 166.01 
L 405.532855 239.832727 
L 406.152964 239.832727 
L 406.773073 221.377045 
L 407.393182 239.832727 
L 408.013291 184.465682 
L 408.6334 202.921364 
L 409.253509 184.465682 
L 409.873618 184.465682 
L 410.493727 129.098636 
L 411.733945 129.098636 
L 412.354055 147.554318 
L 413.594273 110.642955 
L 414.214382 147.554318 
L 414.834491 202.921364 
L 415.4546 221.377045 
L 416.074709 166.01 
L 416.694818 147.554318 
L 417.935036 184.465682 
L 418.555145 184.465682 
L 419.175255 166.01 
L 419.795364 184.465682 
L 421.035582 184.465682 
L 421.655691 147.554318 
L 422.2758 166.01 
L 422.895909 129.098636 
L 423.516018 129.098636 
L 424.136127 184.465682 
L 424.756236 184.465682 
L 425.376345 239.832727 
L 425.996455 258.288409 
L 426.616564 221.377045 
L 427.856782 184.465682 
L 428.476891 184.465682 
L 429.097 166.01 
L 429.717109 202.921364 
L 430.337218 166.01 
L 430.957327 110.642955 
L 431.577436 110.642955 
L 432.197545 147.554318 
L 432.817655 147.554318 
L 433.437764 129.098636 
L 434.677982 166.01 
L 435.298091 221.377045 
L 435.9182 147.554318 
L 436.538309 184.465682 
L 437.158418 166.01 
L 437.778527 129.098636 
L 438.398636 147.554318 
L 439.018745 110.642955 
L 439.638855 166.01 
L 440.258964 184.465682 
L 440.879073 147.554318 
L 441.499182 184.465682 
L 442.119291 184.465682 
L 442.7394 221.377045 
L 443.359509 202.921364 
L 443.979618 166.01 
L 445.219836 202.921364 
L 445.839945 166.01 
L 446.460055 202.921364 
L 447.080164 147.554318 
L 448.320382 147.554318 
L 448.940491 202.921364 
L 449.5606 221.377045 
L 450.180709 184.465682 
L 450.800818 239.832727 
L 451.420927 239.832727 
L 452.041036 184.465682 
L 452.661145 239.832727 
L 453.281255 239.832727 
L 453.901364 276.744091 
L 454.521473 221.377045 
L 455.141582 202.921364 
L 455.761691 239.832727 
L 456.3818 221.377045 
L 457.001909 258.288409 
L 457.622018 202.921364 
L 458.862236 202.921364 
L 459.482345 184.465682 
L 460.102455 258.288409 
L 460.722564 258.288409 
L 461.342673 239.832727 
L 461.962782 258.288409 
L 462.582891 239.832727 
L 463.203 166.01 
L 463.823109 184.465682 
L 464.443218 166.01 
L 465.063327 129.098636 
L 465.683436 129.098636 
L 466.303545 147.554318 
L 466.923655 202.921364 
L 467.543764 166.01 
L 468.163873 147.554318 
L 468.783982 202.921364 
L 469.404091 221.377045 
L 470.0242 202.921364 
L 470.644309 166.01 
L 471.264418 147.554318 
L 471.884527 221.377045 
L 472.504636 221.377045 
L 473.124745 202.921364 
L 473.744855 202.921364 
L 474.364964 184.465682 
L 474.985073 184.465682 
L 475.605182 221.377045 
L 476.225291 221.377045 
L 476.8454 239.832727 
L 478.085618 202.921364 
L 478.705727 202.921364 
L 479.325836 184.465682 
L 479.945945 147.554318 
L 480.566055 166.01 
L 481.186164 129.098636 
L 481.806273 110.642955 
L 482.426382 73.731591 
L 483.046491 110.642955 
L 484.286709 110.642955 
L 484.906818 166.01 
L 485.526927 166.01 
L 486.147036 221.377045 
L 486.767145 239.832727 
L 487.387255 202.921364 
L 488.007364 202.921364 
L 488.627473 239.832727 
L 489.247582 202.921364 
L 489.867691 202.921364 
L 490.4878 184.465682 
L 491.728018 110.642955 
L 492.348127 147.554318 
L 492.968236 166.01 
L 493.588345 166.01 
L 494.208455 239.832727 
L 494.828564 166.01 
L 495.448673 202.921364 
L 496.068782 221.377045 
L 497.929109 166.01 
L 498.549218 202.921364 
L 499.169327 166.01 
L 500.409545 202.921364 
L 501.029655 166.01 
L 501.649764 202.921364 
L 502.269873 202.921364 
L 502.889982 184.465682 
L 503.510091 239.832727 
L 504.1302 202.921364 
L 504.750309 202.921364 
L 505.370418 221.377045 
L 505.990527 221.377045 
L 506.610636 166.01 
L 507.230745 129.098636 
L 507.850855 129.098636 
L 508.470964 166.01 
L 509.091073 184.465682 
L 509.711182 221.377045 
L 511.571509 221.377045 
L 512.191618 166.01 
L 512.811727 166.01 
L 514.051945 239.832727 
L 514.672055 258.288409 
L 515.292164 221.377045 
L 516.532382 184.465682 
L 518.392709 184.465682 
L 519.012818 202.921364 
L 520.253036 166.01 
L 520.873145 184.465682 
L 521.493255 129.098636 
L 523.353582 184.465682 
L 524.5938 147.554318 
L 525.834018 147.554318 
L 526.454127 202.921364 
L 527.074236 202.921364 
L 528.314455 166.01 
L 528.934564 221.377045 
L 530.174782 258.288409 
L 530.794891 258.288409 
L 531.415 221.377045 
L 532.035109 239.832727 
L 532.655218 202.921364 
L 533.275327 184.465682 
L 533.895436 202.921364 
L 534.515545 166.01 
L 535.135655 184.465682 
L 535.755764 147.554318 
L 536.375873 221.377045 
L 536.995982 239.832727 
L 537.616091 239.832727 
L 538.2362 221.377045 
L 538.856309 221.377045 
L 539.476418 258.288409 
L 540.096527 239.832727 
L 541.336745 239.832727 
L 541.956855 166.01 
L 542.576964 110.642955 
L 543.197073 110.642955 
L 543.817182 147.554318 
L 544.437291 202.921364 
L 545.0574 239.832727 
L 545.677509 202.921364 
L 546.297618 239.832727 
L 546.917727 239.832727 
L 547.537836 258.288409 
L 548.157945 221.377045 
L 549.398164 221.377045 
L 550.018273 202.921364 
L 550.638382 129.098636 
L 551.258491 110.642955 
L 551.8786 147.554318 
L 553.118818 184.465682 
L 553.738927 184.465682 
L 554.359036 221.377045 
L 554.979145 202.921364 
L 555.599255 221.377045 
L 556.219364 202.921364 
L 556.839473 166.01 
L 558.079691 166.01 
L 558.6998 221.377045 
L 559.319909 258.288409 
L 559.940018 202.921364 
L 561.180236 166.01 
L 561.800345 92.187273 
L 562.420455 129.098636 
L 563.660673 166.01 
L 564.280782 276.744091 
L 564.900891 276.744091 
L 565.521 221.377045 
L 566.141109 202.921364 
L 566.761218 202.921364 
L 567.381327 221.377045 
L 568.001436 184.465682 
L 568.621545 184.465682 
L 569.241655 129.098636 
L 569.861764 92.187273 
L 570.481873 110.642955 
L 571.101982 36.820227 
L 571.722091 73.731591 
L 572.3422 166.01 
L 572.962309 202.921364 
L 574.202527 239.832727 
L 574.822636 221.377045 
L 575.442745 184.465682 
L 576.062855 92.187273 
L 576.682964 147.554318 
L 577.303073 129.098636 
L 577.923182 184.465682 
L 579.1634 221.377045 
L 579.783509 184.465682 
L 581.023727 221.377045 
L 581.643836 92.187273 
L 582.263945 73.731591 
L 582.884055 36.820227 
L 583.504164 110.642955 
L 584.124273 147.554318 
L 584.744382 147.554318 
L 585.9846 221.377045 
L 586.604709 221.377045 
L 587.844927 184.465682 
L 588.465036 221.377045 
L 589.085145 239.832727 
L 589.705255 239.832727 
L 590.325364 221.377045 
L 590.945473 258.288409 
L 591.565582 276.744091 
L 592.185691 258.288409 
L 592.8058 276.744091 
L 593.425909 239.832727 
L 594.046018 221.377045 
L 595.286236 258.288409 
L 595.906345 202.921364 
L 596.526455 202.921364 
L 597.146564 184.465682 
L 597.766673 202.921364 
L 598.386782 129.098636 
L 599.627 55.275909 
L 600.247109 92.187273 
L 600.867218 166.01 
L 602.107436 202.921364 
L 602.727545 166.01 
L 603.347655 92.187273 
L 603.967764 55.275909 
L 604.587873 129.098636 
L 605.207982 239.832727 
L 605.828091 166.01 
L 606.4482 221.377045 
L 607.068309 221.377045 
L 607.688418 202.921364 
L 608.308527 166.01 
L 608.928636 202.921364 
L 609.548745 166.01 
L 610.168855 221.377045 
L 610.788964 202.921364 
L 611.409073 202.921364 
L 612.029182 221.377045 
L 612.649291 202.921364 
L 613.2694 276.744091 
L 613.889509 276.744091 
L 615.129727 239.832727 
L 616.369945 166.01 
L 616.990055 166.01 
L 617.610164 129.098636 
L 618.230273 129.098636 
L 618.850382 147.554318 
L 619.470491 129.098636 
L 620.0906 166.01 
L 620.710709 258.288409 
L 621.330818 276.744091 
L 622.571036 166.01 
L 623.811255 129.098636 
L 624.431364 184.465682 
L 625.051473 129.098636 
L 625.671582 129.098636 
L 626.291691 184.465682 
L 626.9118 166.01 
L 627.531909 202.921364 
L 628.772127 202.921364 
L 629.392236 184.465682 
L 630.012345 239.832727 
L 630.632455 239.832727 
L 631.252564 221.377045 
L 631.872673 184.465682 
L 632.492782 166.01 
L 633.112891 202.921364 
L 633.733 221.377045 
L 634.353109 184.465682 
L 634.973218 166.01 
L 635.593327 202.921364 
L 636.213436 184.465682 
L 637.453655 221.377045 
L 638.073764 184.465682 
L 638.693873 221.377045 
L 639.313982 202.921364 
L 639.934091 202.921364 
L 640.5542 166.01 
L 641.174309 221.377045 
L 641.794418 202.921364 
L 643.034636 129.098636 
L 643.654745 55.275909 
L 644.274855 36.820227 
L 645.515073 110.642955 
L 646.135182 221.377045 
L 646.755291 258.288409 
L 647.3754 221.377045 
L 647.995509 202.921364 
L 649.235727 55.275909 
L 650.475945 202.921364 
L 651.096055 221.377045 
L 653.576491 221.377045 
L 654.1966 258.288409 
L 655.436818 221.377045 
L 656.056927 184.465682 
L 656.677036 202.921364 
L 657.297145 184.465682 
L 657.917255 221.377045 
L 658.537364 221.377045 
L 659.157473 202.921364 
L 659.777582 202.921364 
L 660.397691 221.377045 
L 661.0178 221.377045 
L 661.637909 202.921364 
L 662.258018 239.832727 
L 662.878127 166.01 
L 664.118345 129.098636 
L 664.738455 129.098636 
L 665.358564 184.465682 
L 665.978673 147.554318 
L 666.598782 147.554318 
L 667.218891 129.098636 
L 667.839 184.465682 
L 668.459109 166.01 
L 669.079218 184.465682 
L 669.699327 166.01 
L 670.319436 221.377045 
L 670.939545 239.832727 
L 670.939545 239.832727 
" clip-path="url(#p7fd312888e)" style="fill: none; stroke: #0c5da5; stroke-linecap: square"/>
   </g>
   <g id="patch_3">
    <path d="M 19.825 328.42 
L 19.825 3.6 
" style="fill: none; stroke: #000000; stroke-width: 0.5; stroke-linejoin: miter; stroke-linecap: square"/>
   </g>
   <g id="patch_4">
    <path d="M 701.945 328.42 
L 701.945 3.6 
" style="fill: none; stroke: #000000; stroke-width: 0.5; stroke-linejoin: miter; stroke-linecap: square"/>
   </g>
   <g id="patch_5">
    <path d="M 19.825 328.42 
L 701.945 328.42 
" style="fill: none; stroke: #000000; stroke-width: 0.5; stroke-linejoin: miter; stroke-linecap: square"/>
   </g>
   <g id="patch_6">
    <path d="M 19.825 3.6 
L 701.945 3.6 
" style="fill: none; stroke: #000000; stroke-width: 0.5; stroke-linejoin: miter; stroke-linecap: square"/>
   </g>
  </g>
 </g>
 <defs>
  <clipPath id="p7fd312888e">
   <rect x="19.825" y="3.6" width="682.12" height="324.82"/>
  </clipPath>
 </defs>
</svg>
