<?xml version="1.0" encoding="utf-8" standalone="no"?>
<!DOCTYPE svg PUBLIC "-//W3C//DTD SVG 1.1//EN"
  "http://www.w3.org/Graphics/SVG/1.1/DTD/svg11.dtd">
<!-- Created with matplotlib (https://matplotlib.org/) -->
<svg height="345.6pt" version="1.1" viewBox="0 0 705.6 345.6" width="705.6pt" xmlns="http://www.w3.org/2000/svg" xmlns:xlink="http://www.w3.org/1999/xlink">
 <metadata>
  <rdf:RDF xmlns:cc="http://creativecommons.org/ns#" xmlns:dc="http://purl.org/dc/elements/1.1/" xmlns:rdf="http://www.w3.org/1999/02/22-rdf-syntax-ns#">
   <cc:Work>
    <dc:type rdf:resource="http://purl.org/dc/dcmitype/StillImage"/>
    <dc:date>2023-06-30T16:09:40.483636</dc:date>
    <dc:format>image/svg+xml</dc:format>
    <dc:creator>
     <cc:Agent>
      <dc:title>Matplotlib v3.3.2, https://matplotlib.org/</dc:title>
     </cc:Agent>
    </dc:creator>
   </cc:Work>
  </rdf:RDF>
 </metadata>
 <defs>
  <style type="text/css">*{stroke-linecap:butt;stroke-linejoin:round;}</style>
 </defs>
 <g id="figure_1">
  <g id="patch_1">
   <path d="M -0 345.6 
L 705.6 345.6 
L 705.6 0 
L -0 0 
z
" style="fill:#ffffff;"/>
  </g>
  <g id="axes_1">
   <g id="patch_2">
    <path d="M 39.865625 315.001562 
L 702 315.001562 
L 702 3.6 
L 39.865625 3.6 
z
" style="fill:#ffffff;"/>
   </g>
   <g id="patch_3">
    <path clip-path="url(#pd0734b77d9)" d="M 69.962642 315.001562 
L 92.256729 315.001562 
L 92.256729 24.420018 
L 69.962642 24.420018 
z
" style="fill:#db5f57;"/>
   </g>
   <g id="patch_4">
    <path clip-path="url(#pd0734b77d9)" d="M 226.021249 315.001562 
L 248.315336 315.001562 
L 248.315336 279.05333 
L 226.021249 279.05333 
z
" style="fill:#db5f57;"/>
   </g>
   <g id="patch_5">
    <path clip-path="url(#pd0734b77d9)" d="M 382.079856 315.001562 
L 404.373943 315.001562 
L 404.373943 309.01019 
L 382.079856 309.01019 
z
" style="fill:#db5f57;"/>
   </g>
   <g id="patch_6">
    <path clip-path="url(#pd0734b77d9)" d="M 538.138463 315.001562 
L 560.432549 315.001562 
L 560.432549 314.335854 
L 538.138463 314.335854 
z
" style="fill:#db5f57;"/>
   </g>
   <g id="patch_7">
    <path clip-path="url(#pd0734b77d9)" d="M 136.844902 315.001562 
L 159.138989 315.001562 
L 159.138989 19.760062 
L 136.844902 19.760062 
z
" style="fill:url(#h20ec6f74ee);"/>
   </g>
   <g id="patch_8">
    <path clip-path="url(#pd0734b77d9)" d="M 292.903509 315.001562 
L 315.197596 315.001562 
L 315.197596 289.03895 
L 292.903509 289.03895 
z
" style="fill:url(#h20ec6f74ee);"/>
   </g>
   <g id="patch_9">
    <path clip-path="url(#pd0734b77d9)" d="M 448.962116 315.001562 
L 471.256203 315.001562 
L 471.256203 303.684526 
L 448.962116 303.684526 
z
" style="fill:url(#h20ec6f74ee);"/>
   </g>
   <g id="patch_10">
    <path clip-path="url(#pd0734b77d9)" d="M 605.020723 315.001562 
L 627.31481 315.001562 
L 627.31481 314.335854 
L 605.020723 314.335854 
z
" style="fill:url(#h20ec6f74ee);"/>
   </g>
   <g id="patch_11">
    <path clip-path="url(#pd0734b77d9)" d="M 92.256729 315.001562 
L 114.550815 315.001562 
L 114.550815 19.094354 
L 92.256729 19.094354 
z
" style="fill:#57db5f;"/>
   </g>
   <g id="patch_12">
    <path clip-path="url(#pd0734b77d9)" d="M 248.315336 315.001562 
L 270.609422 315.001562 
L 270.609422 281.050454 
L 248.315336 281.050454 
z
" style="fill:#57db5f;"/>
   </g>
   <g id="patch_13">
    <path clip-path="url(#pd0734b77d9)" d="M 404.373943 315.001562 
L 426.668029 315.001562 
L 426.668029 312.33873 
L 404.373943 312.33873 
z
" style="fill:#57db5f;"/>
   </g>
   <g id="patch_14">
    <path clip-path="url(#pd0734b77d9)" d="M 560.432549 315.001562 
L 582.726636 315.001562 
L 582.726636 314.335854 
L 560.432549 314.335854 
z
" style="fill:#57db5f;"/>
   </g>
   <g id="patch_15">
    <path clip-path="url(#pd0734b77d9)" d="M 159.138989 315.001562 
L 181.433076 315.001562 
L 181.433076 18.428646 
L 159.138989 18.428646 
z
" style="fill:url(#hc473eb6eda);"/>
   </g>
   <g id="patch_16">
    <path clip-path="url(#pd0734b77d9)" d="M 315.197596 315.001562 
L 337.491682 315.001562 
L 337.491682 285.044702 
L 315.197596 285.044702 
z
" style="fill:url(#hc473eb6eda);"/>
   </g>
   <g id="patch_17">
    <path clip-path="url(#pd0734b77d9)" d="M 471.256203 315.001562 
L 493.550289 315.001562 
L 493.550289 309.01019 
L 471.256203 309.01019 
z
" style="fill:url(#hc473eb6eda);"/>
   </g>
   <g id="patch_18">
    <path clip-path="url(#pd0734b77d9)" d="M 627.31481 315.001562 
L 649.608896 315.001562 
L 649.608896 314.335854 
L 627.31481 314.335854 
z
" style="fill:url(#hc473eb6eda);"/>
   </g>
   <g id="patch_19">
    <path clip-path="url(#pd0734b77d9)" d="M 114.550815 315.001562 
L 136.844902 315.001562 
L 136.844902 26.417142 
L 114.550815 26.417142 
z
" style="fill:#5f57db;"/>
   </g>
   <g id="patch_20">
    <path clip-path="url(#pd0734b77d9)" d="M 270.609422 315.001562 
L 292.903509 315.001562 
L 292.903509 280.384746 
L 270.609422 280.384746 
z
" style="fill:#5f57db;"/>
   </g>
   <g id="patch_21">
    <path clip-path="url(#pd0734b77d9)" d="M 426.668029 315.001562 
L 448.962116 315.001562 
L 448.962116 305.68165 
L 426.668029 305.68165 
z
" style="fill:#5f57db;"/>
   </g>
   <g id="patch_22">
    <path clip-path="url(#pd0734b77d9)" d="M 582.726636 315.001562 
L 605.020723 315.001562 
L 605.020723 314.335854 
L 582.726636 314.335854 
z
" style="fill:#5f57db;"/>
   </g>
   <g id="patch_23">
    <path clip-path="url(#pd0734b77d9)" d="M 181.433076 315.001562 
L 203.727162 315.001562 
L 203.727162 25.751434 
L 181.433076 25.751434 
z
" style="fill:url(#h9287a47f2b);"/>
   </g>
   <g id="patch_24">
    <path clip-path="url(#pd0734b77d9)" d="M 337.491682 315.001562 
L 359.785769 315.001562 
L 359.785769 277.721914 
L 337.491682 277.721914 
z
" style="fill:url(#h9287a47f2b);"/>
   </g>
   <g id="patch_25">
    <path clip-path="url(#pd0734b77d9)" d="M 493.550289 315.001562 
L 515.844376 315.001562 
L 515.844376 308.344482 
L 493.550289 308.344482 
z
" style="fill:url(#h9287a47f2b);"/>
   </g>
   <g id="patch_26">
    <path clip-path="url(#pd0734b77d9)" d="M 649.608896 315.001562 
L 671.902983 315.001562 
L 671.902983 315.001562 
L 649.608896 315.001562 
z
" style="fill:url(#h9287a47f2b);"/>
   </g>
   <g id="patch_27">
    <path clip-path="url(#pd0734b77d9)" d="M 174.74485 315.001562 
L 299.591735 315.001562 
L 299.591735 315.001562 
L 174.74485 315.001562 
z
" style="fill:#808080;"/>
   </g>
   <g id="patch_28">
    <path clip-path="url(#pd0734b77d9)" d="M 174.74485 315.001562 
L 299.591735 315.001562 
L 299.591735 315.001562 
L 174.74485 315.001562 
z
" style="fill:url(#he28180d4d7);"/>
   </g>
   <g id="matplotlib.axis_1">
    <g id="xtick_1">
     <g id="line2d_1">
      <defs>
       <path d="M 0 0 
L 0 -3 
" id="md08479d54a" style="stroke:#000000;stroke-width:0.5;"/>
      </defs>
      <g>
       <use style="stroke:#000000;stroke-width:0.5;" x="136.844902" xlink:href="#md08479d54a" y="315.001562"/>
      </g>
     </g>
     <g id="line2d_2">
      <defs>
       <path d="M 0 0 
L 0 3 
" id="m618fd3b87e" style="stroke:#000000;stroke-width:0.5;"/>
      </defs>
      <g>
       <use style="stroke:#000000;stroke-width:0.5;" x="136.844902" xlink:href="#m618fd3b87e" y="3.6"/>
      </g>
     </g>
     <g id="text_1">
      <!-- 0 -->
      <g transform="translate(133.663652 326.1)scale(0.1 -0.1)">
       <defs>
        <path d="M 31.78125 3.421875 
Q 39.265625 3.421875 42.96875 11.625 
Q 46.6875 19.828125 46.6875 36.375 
Q 46.6875 52.984375 42.96875 61.1875 
Q 39.265625 69.390625 31.78125 69.390625 
Q 24.3125 69.390625 20.59375 61.1875 
Q 16.890625 52.984375 16.890625 36.375 
Q 16.890625 19.828125 20.59375 11.625 
Q 24.3125 3.421875 31.78125 3.421875 
z
M 31.78125 -1.421875 
Q 19.921875 -1.421875 13.25 8.53125 
Q 6.59375 18.5 6.59375 36.375 
Q 6.59375 54.296875 13.25 64.25 
Q 19.921875 74.21875 31.78125 74.21875 
Q 43.703125 74.21875 50.34375 64.25 
Q 56.984375 54.296875 56.984375 36.375 
Q 56.984375 18.5 50.34375 8.53125 
Q 43.703125 -1.421875 31.78125 -1.421875 
z
" id="DejaVuSerif-48"/>
       </defs>
       <use xlink:href="#DejaVuSerif-48"/>
      </g>
     </g>
    </g>
    <g id="xtick_2">
     <g id="line2d_3">
      <g>
       <use style="stroke:#000000;stroke-width:0.5;" x="292.903509" xlink:href="#md08479d54a" y="315.001562"/>
      </g>
     </g>
     <g id="line2d_4">
      <g>
       <use style="stroke:#000000;stroke-width:0.5;" x="292.903509" xlink:href="#m618fd3b87e" y="3.6"/>
      </g>
     </g>
     <g id="text_2">
      <!-- 1 -->
      <g transform="translate(289.722259 326.1)scale(0.1 -0.1)">
       <defs>
        <path d="M 14.203125 0 
L 14.203125 5.171875 
L 26.90625 5.171875 
L 26.90625 65.828125 
L 12.203125 56.296875 
L 12.203125 62.703125 
L 29.984375 74.21875 
L 36.71875 74.21875 
L 36.71875 5.171875 
L 49.421875 5.171875 
L 49.421875 0 
z
" id="DejaVuSerif-49"/>
       </defs>
       <use xlink:href="#DejaVuSerif-49"/>
      </g>
     </g>
    </g>
    <g id="xtick_3">
     <g id="line2d_5">
      <g>
       <use style="stroke:#000000;stroke-width:0.5;" x="448.962116" xlink:href="#md08479d54a" y="315.001562"/>
      </g>
     </g>
     <g id="line2d_6">
      <g>
       <use style="stroke:#000000;stroke-width:0.5;" x="448.962116" xlink:href="#m618fd3b87e" y="3.6"/>
      </g>
     </g>
     <g id="text_3">
      <!-- 2 -->
      <g transform="translate(445.780866 326.1)scale(0.1 -0.1)">
       <defs>
        <path d="M 12.796875 55.515625 
L 7.328125 55.515625 
L 7.328125 68.5 
Q 12.546875 71.296875 17.84375 72.75 
Q 23.140625 74.21875 28.21875 74.21875 
Q 39.59375 74.21875 46.1875 68.703125 
Q 52.78125 63.1875 52.78125 53.71875 
Q 52.78125 43.015625 37.84375 28.125 
Q 36.671875 27 36.078125 26.421875 
L 17.671875 8.015625 
L 48.09375 8.015625 
L 48.09375 17 
L 53.8125 17 
L 53.8125 0 
L 6.78125 0 
L 6.78125 5.328125 
L 28.90625 27.390625 
Q 36.234375 34.71875 39.359375 40.84375 
Q 42.484375 46.96875 42.484375 53.71875 
Q 42.484375 61.078125 38.640625 65.234375 
Q 34.8125 69.390625 28.078125 69.390625 
Q 21.09375 69.390625 17.28125 65.921875 
Q 13.484375 62.453125 12.796875 55.515625 
z
" id="DejaVuSerif-50"/>
       </defs>
       <use xlink:href="#DejaVuSerif-50"/>
      </g>
     </g>
    </g>
    <g id="xtick_4">
     <g id="line2d_7">
      <g>
       <use style="stroke:#000000;stroke-width:0.5;" x="605.020723" xlink:href="#md08479d54a" y="315.001562"/>
      </g>
     </g>
     <g id="line2d_8">
      <g>
       <use style="stroke:#000000;stroke-width:0.5;" x="605.020723" xlink:href="#m618fd3b87e" y="3.6"/>
      </g>
     </g>
     <g id="text_4">
      <!-- 3 -->
      <g transform="translate(601.839473 326.1)scale(0.1 -0.1)">
       <defs>
        <path d="M 9.71875 69.828125 
Q 15.4375 71.96875 20.671875 73.09375 
Q 25.921875 74.21875 30.515625 74.21875 
Q 41.21875 74.21875 47.21875 69.59375 
Q 53.21875 64.984375 53.21875 56.78125 
Q 53.21875 50.203125 49.0625 45.78125 
Q 44.921875 41.359375 37.3125 39.796875 
Q 46.296875 38.53125 51.25 33.28125 
Q 56.203125 28.03125 56.203125 19.671875 
Q 56.203125 9.46875 49.34375 4.015625 
Q 42.484375 -1.421875 29.59375 -1.421875 
Q 23.875 -1.421875 18.421875 -0.1875 
Q 12.984375 1.03125 7.625 3.515625 
L 7.625 17.671875 
L 13.09375 17.671875 
Q 13.578125 10.640625 17.828125 7.03125 
Q 22.078125 3.421875 29.78125 3.421875 
Q 37.25 3.421875 41.578125 7.734375 
Q 45.90625 12.0625 45.90625 19.578125 
Q 45.90625 28.171875 41.453125 32.59375 
Q 37.015625 37.015625 28.421875 37.015625 
L 23.78125 37.015625 
L 23.78125 42 
L 26.21875 42 
Q 34.765625 42 39.03125 45.53125 
Q 43.3125 49.078125 43.3125 56.203125 
Q 43.3125 62.59375 39.796875 65.984375 
Q 36.28125 69.390625 29.6875 69.390625 
Q 23.09375 69.390625 19.453125 66.265625 
Q 15.828125 63.140625 15.1875 56.984375 
L 9.71875 56.984375 
z
" id="DejaVuSerif-51"/>
       </defs>
       <use xlink:href="#DejaVuSerif-51"/>
      </g>
     </g>
    </g>
    <g id="xtick_5">
     <g id="line2d_9">
      <defs>
       <path d="M 0 0 
L 0 -1.5 
" id="m6f35f953ee" style="stroke:#000000;stroke-width:0.5;"/>
      </defs>
      <g>
       <use style="stroke:#000000;stroke-width:0.5;" x="43.209738" xlink:href="#m6f35f953ee" y="315.001562"/>
      </g>
     </g>
     <g id="line2d_10">
      <defs>
       <path d="M 0 0 
L 0 1.5 
" id="m28556b3bb2" style="stroke:#000000;stroke-width:0.5;"/>
      </defs>
      <g>
       <use style="stroke:#000000;stroke-width:0.5;" x="43.209738" xlink:href="#m28556b3bb2" y="3.6"/>
      </g>
     </g>
    </g>
    <g id="xtick_6">
     <g id="line2d_11">
      <g>
       <use style="stroke:#000000;stroke-width:0.5;" x="74.421459" xlink:href="#m6f35f953ee" y="315.001562"/>
      </g>
     </g>
     <g id="line2d_12">
      <g>
       <use style="stroke:#000000;stroke-width:0.5;" x="74.421459" xlink:href="#m28556b3bb2" y="3.6"/>
      </g>
     </g>
    </g>
    <g id="xtick_7">
     <g id="line2d_13">
      <g>
       <use style="stroke:#000000;stroke-width:0.5;" x="105.633181" xlink:href="#m6f35f953ee" y="315.001562"/>
      </g>
     </g>
     <g id="line2d_14">
      <g>
       <use style="stroke:#000000;stroke-width:0.5;" x="105.633181" xlink:href="#m28556b3bb2" y="3.6"/>
      </g>
     </g>
    </g>
    <g id="xtick_8">
     <g id="line2d_15">
      <g>
       <use style="stroke:#000000;stroke-width:0.5;" x="168.056624" xlink:href="#m6f35f953ee" y="315.001562"/>
      </g>
     </g>
     <g id="line2d_16">
      <g>
       <use style="stroke:#000000;stroke-width:0.5;" x="168.056624" xlink:href="#m28556b3bb2" y="3.6"/>
      </g>
     </g>
    </g>
    <g id="xtick_9">
     <g id="line2d_17">
      <g>
       <use style="stroke:#000000;stroke-width:0.5;" x="199.268345" xlink:href="#m6f35f953ee" y="315.001562"/>
      </g>
     </g>
     <g id="line2d_18">
      <g>
       <use style="stroke:#000000;stroke-width:0.5;" x="199.268345" xlink:href="#m28556b3bb2" y="3.6"/>
      </g>
     </g>
    </g>
    <g id="xtick_10">
     <g id="line2d_19">
      <g>
       <use style="stroke:#000000;stroke-width:0.5;" x="230.480066" xlink:href="#m6f35f953ee" y="315.001562"/>
      </g>
     </g>
     <g id="line2d_20">
      <g>
       <use style="stroke:#000000;stroke-width:0.5;" x="230.480066" xlink:href="#m28556b3bb2" y="3.6"/>
      </g>
     </g>
    </g>
    <g id="xtick_11">
     <g id="line2d_21">
      <g>
       <use style="stroke:#000000;stroke-width:0.5;" x="261.691788" xlink:href="#m6f35f953ee" y="315.001562"/>
      </g>
     </g>
     <g id="line2d_22">
      <g>
       <use style="stroke:#000000;stroke-width:0.5;" x="261.691788" xlink:href="#m28556b3bb2" y="3.6"/>
      </g>
     </g>
    </g>
    <g id="xtick_12">
     <g id="line2d_23">
      <g>
       <use style="stroke:#000000;stroke-width:0.5;" x="324.11523" xlink:href="#m6f35f953ee" y="315.001562"/>
      </g>
     </g>
     <g id="line2d_24">
      <g>
       <use style="stroke:#000000;stroke-width:0.5;" x="324.11523" xlink:href="#m28556b3bb2" y="3.6"/>
      </g>
     </g>
    </g>
    <g id="xtick_13">
     <g id="line2d_25">
      <g>
       <use style="stroke:#000000;stroke-width:0.5;" x="355.326952" xlink:href="#m6f35f953ee" y="315.001562"/>
      </g>
     </g>
     <g id="line2d_26">
      <g>
       <use style="stroke:#000000;stroke-width:0.5;" x="355.326952" xlink:href="#m28556b3bb2" y="3.6"/>
      </g>
     </g>
    </g>
    <g id="xtick_14">
     <g id="line2d_27">
      <g>
       <use style="stroke:#000000;stroke-width:0.5;" x="386.538673" xlink:href="#m6f35f953ee" y="315.001562"/>
      </g>
     </g>
     <g id="line2d_28">
      <g>
       <use style="stroke:#000000;stroke-width:0.5;" x="386.538673" xlink:href="#m28556b3bb2" y="3.6"/>
      </g>
     </g>
    </g>
    <g id="xtick_15">
     <g id="line2d_29">
      <g>
       <use style="stroke:#000000;stroke-width:0.5;" x="417.750395" xlink:href="#m6f35f953ee" y="315.001562"/>
      </g>
     </g>
     <g id="line2d_30">
      <g>
       <use style="stroke:#000000;stroke-width:0.5;" x="417.750395" xlink:href="#m28556b3bb2" y="3.6"/>
      </g>
     </g>
    </g>
    <g id="xtick_16">
     <g id="line2d_31">
      <g>
       <use style="stroke:#000000;stroke-width:0.5;" x="480.173837" xlink:href="#m6f35f953ee" y="315.001562"/>
      </g>
     </g>
     <g id="line2d_32">
      <g>
       <use style="stroke:#000000;stroke-width:0.5;" x="480.173837" xlink:href="#m28556b3bb2" y="3.6"/>
      </g>
     </g>
    </g>
    <g id="xtick_17">
     <g id="line2d_33">
      <g>
       <use style="stroke:#000000;stroke-width:0.5;" x="511.385559" xlink:href="#m6f35f953ee" y="315.001562"/>
      </g>
     </g>
     <g id="line2d_34">
      <g>
       <use style="stroke:#000000;stroke-width:0.5;" x="511.385559" xlink:href="#m28556b3bb2" y="3.6"/>
      </g>
     </g>
    </g>
    <g id="xtick_18">
     <g id="line2d_35">
      <g>
       <use style="stroke:#000000;stroke-width:0.5;" x="542.59728" xlink:href="#m6f35f953ee" y="315.001562"/>
      </g>
     </g>
     <g id="line2d_36">
      <g>
       <use style="stroke:#000000;stroke-width:0.5;" x="542.59728" xlink:href="#m28556b3bb2" y="3.6"/>
      </g>
     </g>
    </g>
    <g id="xtick_19">
     <g id="line2d_37">
      <g>
       <use style="stroke:#000000;stroke-width:0.5;" x="573.809001" xlink:href="#m6f35f953ee" y="315.001562"/>
      </g>
     </g>
     <g id="line2d_38">
      <g>
       <use style="stroke:#000000;stroke-width:0.5;" x="573.809001" xlink:href="#m28556b3bb2" y="3.6"/>
      </g>
     </g>
    </g>
    <g id="xtick_20">
     <g id="line2d_39">
      <g>
       <use style="stroke:#000000;stroke-width:0.5;" x="636.232444" xlink:href="#m6f35f953ee" y="315.001562"/>
      </g>
     </g>
     <g id="line2d_40">
      <g>
       <use style="stroke:#000000;stroke-width:0.5;" x="636.232444" xlink:href="#m28556b3bb2" y="3.6"/>
      </g>
     </g>
    </g>
    <g id="xtick_21">
     <g id="line2d_41">
      <g>
       <use style="stroke:#000000;stroke-width:0.5;" x="667.444166" xlink:href="#m6f35f953ee" y="315.001562"/>
      </g>
     </g>
     <g id="line2d_42">
      <g>
       <use style="stroke:#000000;stroke-width:0.5;" x="667.444166" xlink:href="#m28556b3bb2" y="3.6"/>
      </g>
     </g>
    </g>
    <g id="xtick_22">
     <g id="line2d_43">
      <g>
       <use style="stroke:#000000;stroke-width:0.5;" x="698.655887" xlink:href="#m6f35f953ee" y="315.001562"/>
      </g>
     </g>
     <g id="line2d_44">
      <g>
       <use style="stroke:#000000;stroke-width:0.5;" x="698.655887" xlink:href="#m28556b3bb2" y="3.6"/>
      </g>
     </g>
    </g>
    <g id="text_5">
     <!-- Failure Intensity -->
     <g transform="translate(329.078906 339.778125)scale(0.1 -0.1)">
      <defs>
       <path d="M 5.515625 0 
L 5.515625 5.171875 
L 14.796875 5.171875 
L 14.796875 67.671875 
L 5.515625 67.671875 
L 5.515625 72.90625 
L 65.1875 72.90625 
L 65.1875 56.6875 
L 59.1875 56.6875 
L 59.1875 66.890625 
L 24.703125 66.890625 
L 24.703125 42.484375 
L 49.609375 42.484375 
L 49.609375 51.609375 
L 55.609375 51.609375 
L 55.609375 27.390625 
L 49.609375 27.390625 
L 49.609375 36.53125 
L 24.703125 36.53125 
L 24.703125 5.171875 
L 36.375 5.171875 
L 36.375 0 
z
" id="DejaVuSerif-70"/>
       <path d="M 39.796875 16.3125 
L 39.796875 27.296875 
L 28.21875 27.296875 
Q 21.53125 27.296875 18.25 24.40625 
Q 14.984375 21.53125 14.984375 15.578125 
Q 14.984375 10.15625 18.296875 6.984375 
Q 21.625 3.8125 27.296875 3.8125 
Q 32.90625 3.8125 36.34375 7.28125 
Q 39.796875 10.75 39.796875 16.3125 
z
M 48.78125 32.421875 
L 48.78125 5.171875 
L 56.78125 5.171875 
L 56.78125 0 
L 39.796875 0 
L 39.796875 5.609375 
Q 36.8125 2 32.90625 0.28125 
Q 29 -1.421875 23.78125 -1.421875 
Q 15.140625 -1.421875 10.0625 3.171875 
Q 4.984375 7.765625 4.984375 15.578125 
Q 4.984375 23.640625 10.796875 28.078125 
Q 16.609375 32.515625 27.203125 32.515625 
L 39.796875 32.515625 
L 39.796875 36.078125 
Q 39.796875 42 36.203125 45.234375 
Q 32.625 48.484375 26.125 48.484375 
Q 20.75 48.484375 17.578125 46.046875 
Q 14.40625 43.609375 13.625 38.8125 
L 8.984375 38.8125 
L 8.984375 49.3125 
Q 13.671875 51.3125 18.09375 52.3125 
Q 22.515625 53.328125 26.703125 53.328125 
Q 37.5 53.328125 43.140625 47.96875 
Q 48.78125 42.625 48.78125 32.421875 
z
" id="DejaVuSerif-97"/>
       <path d="M 9.71875 68.015625 
Q 9.71875 70.265625 11.34375 71.921875 
Q 12.984375 73.578125 15.28125 73.578125 
Q 17.53125 73.578125 19.15625 71.921875 
Q 20.796875 70.265625 20.796875 68.015625 
Q 20.796875 65.71875 19.1875 64.109375 
Q 17.578125 62.5 15.28125 62.5 
Q 12.984375 62.5 11.34375 64.109375 
Q 9.71875 65.71875 9.71875 68.015625 
z
M 21.1875 5.171875 
L 29.6875 5.171875 
L 29.6875 0 
L 3.609375 0 
L 3.609375 5.171875 
L 12.203125 5.171875 
L 12.203125 46.6875 
L 3.609375 46.6875 
L 3.609375 51.90625 
L 21.1875 51.90625 
z
" id="DejaVuSerif-105"/>
       <path d="M 20.515625 5.171875 
L 29 5.171875 
L 29 0 
L 2.875 0 
L 2.875 5.171875 
L 11.53125 5.171875 
L 11.53125 70.796875 
L 2.875 70.796875 
L 2.875 75.984375 
L 20.515625 75.984375 
z
" id="DejaVuSerif-108"/>
       <path d="M 35.40625 51.90625 
L 52.203125 51.90625 
L 52.203125 5.171875 
L 60.6875 5.171875 
L 60.6875 0 
L 43.21875 0 
L 43.21875 9.1875 
Q 40.71875 4 36.765625 1.28125 
Q 32.8125 -1.421875 27.59375 -1.421875 
Q 18.953125 -1.421875 14.875 3.484375 
Q 10.796875 8.40625 10.796875 18.890625 
L 10.796875 46.6875 
L 2.6875 46.6875 
L 2.6875 51.90625 
L 19.828125 51.90625 
L 19.828125 21.6875 
Q 19.828125 12.203125 22.140625 8.6875 
Q 24.46875 5.171875 30.421875 5.171875 
Q 36.671875 5.171875 39.9375 9.765625 
Q 43.21875 14.359375 43.21875 23.09375 
L 43.21875 46.6875 
L 35.40625 46.6875 
z
" id="DejaVuSerif-117"/>
       <path d="M 47.796875 52 
L 47.796875 39.015625 
L 42.625 39.015625 
Q 42.390625 42.875 40.484375 44.78125 
Q 38.578125 46.6875 34.90625 46.6875 
Q 28.265625 46.6875 24.71875 42.09375 
Q 21.1875 37.5 21.1875 28.90625 
L 21.1875 5.171875 
L 31.59375 5.171875 
L 31.59375 0 
L 4.109375 0 
L 4.109375 5.171875 
L 12.203125 5.171875 
L 12.203125 46.78125 
L 3.609375 46.78125 
L 3.609375 51.90625 
L 21.1875 51.90625 
L 21.1875 42.671875 
Q 23.828125 48.09375 27.96875 50.703125 
Q 32.125 53.328125 38.09375 53.328125 
Q 40.28125 53.328125 42.703125 52.984375 
Q 45.125 52.640625 47.796875 52 
z
" id="DejaVuSerif-114"/>
       <path d="M 54.203125 25 
L 15.484375 25 
L 15.484375 24.609375 
Q 15.484375 14.109375 19.4375 8.765625 
Q 23.390625 3.421875 31.109375 3.421875 
Q 37.015625 3.421875 40.796875 6.515625 
Q 44.578125 9.625 46.09375 15.71875 
L 53.328125 15.71875 
Q 51.171875 7.171875 45.375 2.875 
Q 39.59375 -1.421875 30.171875 -1.421875 
Q 18.796875 -1.421875 11.890625 6.078125 
Q 4.984375 13.578125 4.984375 25.984375 
Q 4.984375 38.28125 11.765625 45.796875 
Q 18.5625 53.328125 29.59375 53.328125 
Q 41.359375 53.328125 47.65625 46.0625 
Q 53.953125 38.8125 54.203125 25 
z
M 43.609375 30.171875 
Q 43.3125 39.265625 39.765625 43.875 
Q 36.234375 48.484375 29.59375 48.484375 
Q 23.390625 48.484375 19.828125 43.84375 
Q 16.265625 39.203125 15.484375 30.171875 
z
" id="DejaVuSerif-101"/>
       <path id="DejaVuSerif-32"/>
       <path d="M 24.703125 5.171875 
L 33.984375 5.171875 
L 33.984375 0 
L 5.515625 0 
L 5.515625 5.171875 
L 14.796875 5.171875 
L 14.796875 67.671875 
L 5.515625 67.671875 
L 5.515625 72.90625 
L 33.984375 72.90625 
L 33.984375 67.671875 
L 24.703125 67.671875 
z
" id="DejaVuSerif-73"/>
       <path d="M 4.109375 0 
L 4.109375 5.171875 
L 12.203125 5.171875 
L 12.203125 46.6875 
L 3.609375 46.6875 
L 3.609375 51.90625 
L 21.1875 51.90625 
L 21.1875 42.671875 
Q 23.6875 47.953125 27.65625 50.640625 
Q 31.640625 53.328125 36.921875 53.328125 
Q 45.515625 53.328125 49.5625 48.390625 
Q 53.609375 43.453125 53.609375 33.015625 
L 53.609375 5.171875 
L 61.625 5.171875 
L 61.625 0 
L 36.8125 0 
L 36.8125 5.171875 
L 44.578125 5.171875 
L 44.578125 30.171875 
Q 44.578125 39.703125 42.234375 43.234375 
Q 39.890625 46.78125 33.984375 46.78125 
Q 27.734375 46.78125 24.453125 42.203125 
Q 21.1875 37.640625 21.1875 28.90625 
L 21.1875 5.171875 
L 29 5.171875 
L 29 0 
z
" id="DejaVuSerif-110"/>
       <path d="M 10.796875 46.6875 
L 2.875 46.6875 
L 2.875 51.90625 
L 10.796875 51.90625 
L 10.796875 68.015625 
L 19.828125 68.015625 
L 19.828125 51.90625 
L 36.71875 51.90625 
L 36.71875 46.6875 
L 19.828125 46.6875 
L 19.828125 13.71875 
Q 19.828125 7.125 21.09375 5.265625 
Q 22.359375 3.421875 25.78125 3.421875 
Q 29.296875 3.421875 30.90625 5.484375 
Q 32.515625 7.5625 32.625 12.203125 
L 39.40625 12.203125 
Q 39.015625 5.125 35.546875 1.84375 
Q 32.078125 -1.421875 25 -1.421875 
Q 17.234375 -1.421875 14.015625 2.015625 
Q 10.796875 5.46875 10.796875 13.71875 
z
" id="DejaVuSerif-116"/>
       <path d="M 5.609375 2.875 
L 5.609375 14.984375 
L 10.796875 14.984375 
Q 10.984375 9.1875 14.421875 6.296875 
Q 17.875 3.421875 24.609375 3.421875 
Q 30.671875 3.421875 33.84375 5.6875 
Q 37.015625 7.953125 37.015625 12.3125 
Q 37.015625 15.71875 34.6875 17.8125 
Q 32.375 19.921875 24.90625 22.3125 
L 18.40625 24.515625 
Q 11.71875 26.65625 8.71875 29.875 
Q 5.71875 33.109375 5.71875 38.09375 
Q 5.71875 45.21875 10.9375 49.265625 
Q 16.15625 53.328125 25.390625 53.328125 
Q 29.5 53.328125 34.03125 52.25 
Q 38.578125 51.171875 43.40625 49.125 
L 43.40625 37.796875 
L 38.234375 37.796875 
Q 38.03125 42.828125 34.703125 45.65625 
Q 31.390625 48.484375 25.6875 48.484375 
Q 20.015625 48.484375 17.109375 46.484375 
Q 14.203125 44.484375 14.203125 40.484375 
Q 14.203125 37.203125 16.40625 35.21875 
Q 18.609375 33.25 25.203125 31.203125 
L 32.328125 29 
Q 39.703125 26.703125 42.9375 23.265625 
Q 46.1875 19.828125 46.1875 14.40625 
Q 46.1875 7.03125 40.546875 2.796875 
Q 34.90625 -1.421875 25 -1.421875 
Q 19.96875 -1.421875 15.1875 -0.34375 
Q 10.40625 0.734375 5.609375 2.875 
z
" id="DejaVuSerif-115"/>
       <path d="M 21.578125 -9.515625 
L 25 -0.875 
L 5.609375 46.6875 
L -0.296875 46.6875 
L -0.296875 51.90625 
L 23.578125 51.90625 
L 23.578125 46.6875 
L 15.28125 46.6875 
L 29.890625 10.984375 
L 44.484375 46.6875 
L 36.71875 46.6875 
L 36.71875 51.90625 
L 56.203125 51.90625 
L 56.203125 46.6875 
L 50.390625 46.6875 
L 26.609375 -11.71875 
Q 24.171875 -17.78125 21.1875 -20 
Q 18.21875 -22.21875 12.796875 -22.21875 
Q 10.5 -22.21875 8.078125 -21.828125 
Q 5.671875 -21.4375 3.21875 -20.703125 
L 3.21875 -10.796875 
L 7.8125 -10.796875 
Q 8.109375 -14.109375 9.5 -15.546875 
Q 10.890625 -17 13.8125 -17 
Q 16.5 -17 18.140625 -15.5 
Q 19.78125 -14.015625 21.578125 -9.515625 
z
" id="DejaVuSerif-121"/>
      </defs>
      <use xlink:href="#DejaVuSerif-70"/>
      <use x="62.634766" xlink:href="#DejaVuSerif-97"/>
      <use x="122.253906" xlink:href="#DejaVuSerif-105"/>
      <use x="154.236328" xlink:href="#DejaVuSerif-108"/>
      <use x="186.21875" xlink:href="#DejaVuSerif-117"/>
      <use x="250.623047" xlink:href="#DejaVuSerif-114"/>
      <use x="298.425781" xlink:href="#DejaVuSerif-101"/>
      <use x="357.605469" xlink:href="#DejaVuSerif-32"/>
      <use x="389.392578" xlink:href="#DejaVuSerif-73"/>
      <use x="428.894531" xlink:href="#DejaVuSerif-110"/>
      <use x="493.298828" xlink:href="#DejaVuSerif-116"/>
      <use x="533.484375" xlink:href="#DejaVuSerif-101"/>
      <use x="592.664062" xlink:href="#DejaVuSerif-110"/>
      <use x="657.068359" xlink:href="#DejaVuSerif-115"/>
      <use x="708.386719" xlink:href="#DejaVuSerif-105"/>
      <use x="740.369141" xlink:href="#DejaVuSerif-116"/>
      <use x="780.554688" xlink:href="#DejaVuSerif-121"/>
     </g>
    </g>
   </g>
   <g id="matplotlib.axis_2">
    <g id="ytick_1">
     <g id="line2d_45">
      <defs>
       <path d="M 0 0 
L 3 0 
" id="m804aaaaea2" style="stroke:#000000;stroke-width:0.5;"/>
      </defs>
      <g>
       <use style="stroke:#000000;stroke-width:0.5;" x="39.865625" xlink:href="#m804aaaaea2" y="315.001562"/>
      </g>
     </g>
     <g id="line2d_46">
      <defs>
       <path d="M 0 0 
L -3 0 
" id="m35c8caf75e" style="stroke:#000000;stroke-width:0.5;"/>
      </defs>
      <g>
       <use style="stroke:#000000;stroke-width:0.5;" x="702" xlink:href="#m35c8caf75e" y="315.001562"/>
      </g>
     </g>
     <g id="text_6">
      <!-- 0 -->
      <g transform="translate(30.003125 318.800781)scale(0.1 -0.1)">
       <use xlink:href="#DejaVuSerif-48"/>
      </g>
     </g>
    </g>
    <g id="ytick_2">
     <g id="line2d_47">
      <g>
       <use style="stroke:#000000;stroke-width:0.5;" x="39.865625" xlink:href="#m804aaaaea2" y="248.430762"/>
      </g>
     </g>
     <g id="line2d_48">
      <g>
       <use style="stroke:#000000;stroke-width:0.5;" x="702" xlink:href="#m35c8caf75e" y="248.430762"/>
      </g>
     </g>
     <g id="text_7">
      <!-- 200 -->
      <g transform="translate(17.278125 252.229981)scale(0.1 -0.1)">
       <use xlink:href="#DejaVuSerif-50"/>
       <use x="63.623047" xlink:href="#DejaVuSerif-48"/>
       <use x="127.246094" xlink:href="#DejaVuSerif-48"/>
      </g>
     </g>
    </g>
    <g id="ytick_3">
     <g id="line2d_49">
      <g>
       <use style="stroke:#000000;stroke-width:0.5;" x="39.865625" xlink:href="#m804aaaaea2" y="181.859961"/>
      </g>
     </g>
     <g id="line2d_50">
      <g>
       <use style="stroke:#000000;stroke-width:0.5;" x="702" xlink:href="#m35c8caf75e" y="181.859961"/>
      </g>
     </g>
     <g id="text_8">
      <!-- 400 -->
      <g transform="translate(17.278125 185.65918)scale(0.1 -0.1)">
       <defs>
        <path d="M 34.90625 24.703125 
L 34.90625 63.484375 
L 10.015625 24.703125 
z
M 56.390625 0 
L 23.1875 0 
L 23.1875 5.171875 
L 34.90625 5.171875 
L 34.90625 19.484375 
L 3.078125 19.484375 
L 3.078125 24.8125 
L 35.015625 74.21875 
L 44.671875 74.21875 
L 44.671875 24.703125 
L 58.59375 24.703125 
L 58.59375 19.484375 
L 44.671875 19.484375 
L 44.671875 5.171875 
L 56.390625 5.171875 
z
" id="DejaVuSerif-52"/>
       </defs>
       <use xlink:href="#DejaVuSerif-52"/>
       <use x="63.623047" xlink:href="#DejaVuSerif-48"/>
       <use x="127.246094" xlink:href="#DejaVuSerif-48"/>
      </g>
     </g>
    </g>
    <g id="ytick_4">
     <g id="line2d_51">
      <g>
       <use style="stroke:#000000;stroke-width:0.5;" x="39.865625" xlink:href="#m804aaaaea2" y="115.289161"/>
      </g>
     </g>
     <g id="line2d_52">
      <g>
       <use style="stroke:#000000;stroke-width:0.5;" x="702" xlink:href="#m35c8caf75e" y="115.289161"/>
      </g>
     </g>
     <g id="text_9">
      <!-- 600 -->
      <g transform="translate(17.278125 119.088379)scale(0.1 -0.1)">
       <defs>
        <path d="M 32.71875 3.421875 
Q 39.59375 3.421875 43.296875 8.46875 
Q 47.015625 13.53125 47.015625 23 
Q 47.015625 32.46875 43.296875 37.515625 
Q 39.59375 42.578125 32.71875 42.578125 
Q 25.734375 42.578125 22.0625 37.6875 
Q 18.40625 32.8125 18.40625 23.578125 
Q 18.40625 13.875 22.109375 8.640625 
Q 25.828125 3.421875 32.71875 3.421875 
z
M 16.796875 40.140625 
Q 20.125 43.796875 24.3125 45.59375 
Q 28.515625 47.40625 33.796875 47.40625 
Q 44.671875 47.40625 51 40.859375 
Q 57.328125 34.328125 57.328125 23 
Q 57.328125 11.921875 50.515625 5.25 
Q 43.703125 -1.421875 32.328125 -1.421875 
Q 19.96875 -1.421875 13.328125 7.78125 
Q 6.6875 17 6.6875 34.078125 
Q 6.6875 53.21875 14.546875 63.71875 
Q 22.40625 74.21875 36.71875 74.21875 
Q 40.578125 74.21875 44.828125 73.484375 
Q 49.078125 72.75 53.515625 71.296875 
L 53.515625 59.28125 
L 48 59.28125 
Q 47.40625 64.203125 44.234375 66.796875 
Q 41.0625 69.390625 35.6875 69.390625 
Q 26.21875 69.390625 21.578125 62.203125 
Q 16.9375 55.03125 16.796875 40.140625 
z
" id="DejaVuSerif-54"/>
       </defs>
       <use xlink:href="#DejaVuSerif-54"/>
       <use x="63.623047" xlink:href="#DejaVuSerif-48"/>
       <use x="127.246094" xlink:href="#DejaVuSerif-48"/>
      </g>
     </g>
    </g>
    <g id="ytick_5">
     <g id="line2d_53">
      <g>
       <use style="stroke:#000000;stroke-width:0.5;" x="39.865625" xlink:href="#m804aaaaea2" y="48.71836"/>
      </g>
     </g>
     <g id="line2d_54">
      <g>
       <use style="stroke:#000000;stroke-width:0.5;" x="702" xlink:href="#m35c8caf75e" y="48.71836"/>
      </g>
     </g>
     <g id="text_10">
      <!-- 800 -->
      <g transform="translate(17.278125 52.517579)scale(0.1 -0.1)">
       <defs>
        <path d="M 46.578125 19.921875 
Q 46.578125 27.734375 42.6875 32.046875 
Q 38.8125 36.375 31.78125 36.375 
Q 24.75 36.375 20.875 32.046875 
Q 17 27.734375 17 19.921875 
Q 17 12.0625 20.875 7.734375 
Q 24.75 3.421875 31.78125 3.421875 
Q 38.8125 3.421875 42.6875 7.734375 
Q 46.578125 12.0625 46.578125 19.921875 
z
M 44.578125 55.328125 
Q 44.578125 61.96875 41.203125 65.671875 
Q 37.84375 69.390625 31.78125 69.390625 
Q 25.78125 69.390625 22.390625 65.671875 
Q 19 61.96875 19 55.328125 
Q 19 48.640625 22.390625 44.921875 
Q 25.78125 41.21875 31.78125 41.21875 
Q 37.84375 41.21875 41.203125 44.921875 
Q 44.578125 48.640625 44.578125 55.328125 
z
M 39.3125 38.8125 
Q 47.609375 37.703125 52.25 32.6875 
Q 56.890625 27.6875 56.890625 19.921875 
Q 56.890625 9.671875 50.390625 4.125 
Q 43.890625 -1.421875 31.78125 -1.421875 
Q 19.734375 -1.421875 13.203125 4.125 
Q 6.6875 9.671875 6.6875 19.921875 
Q 6.6875 27.6875 11.328125 32.6875 
Q 15.96875 37.703125 24.3125 38.8125 
Q 16.9375 40.140625 13 44.40625 
Q 9.078125 48.6875 9.078125 55.328125 
Q 9.078125 64.109375 15.125 69.15625 
Q 21.1875 74.21875 31.78125 74.21875 
Q 42.390625 74.21875 48.4375 69.15625 
Q 54.5 64.109375 54.5 55.328125 
Q 54.5 48.6875 50.5625 44.40625 
Q 46.625 40.140625 39.3125 38.8125 
z
" id="DejaVuSerif-56"/>
       </defs>
       <use xlink:href="#DejaVuSerif-56"/>
       <use x="63.623047" xlink:href="#DejaVuSerif-48"/>
       <use x="127.246094" xlink:href="#DejaVuSerif-48"/>
      </g>
     </g>
    </g>
    <g id="ytick_6">
     <g id="line2d_55">
      <defs>
       <path d="M 0 0 
L 1.5 0 
" id="mc1468660df" style="stroke:#000000;stroke-width:0.5;"/>
      </defs>
      <g>
       <use style="stroke:#000000;stroke-width:0.5;" x="39.865625" xlink:href="#mc1468660df" y="298.358862"/>
      </g>
     </g>
     <g id="line2d_56">
      <defs>
       <path d="M 0 0 
L -1.5 0 
" id="mae7a643dbf" style="stroke:#000000;stroke-width:0.5;"/>
      </defs>
      <g>
       <use style="stroke:#000000;stroke-width:0.5;" x="702" xlink:href="#mae7a643dbf" y="298.358862"/>
      </g>
     </g>
    </g>
    <g id="ytick_7">
     <g id="line2d_57">
      <g>
       <use style="stroke:#000000;stroke-width:0.5;" x="39.865625" xlink:href="#mc1468660df" y="281.716162"/>
      </g>
     </g>
     <g id="line2d_58">
      <g>
       <use style="stroke:#000000;stroke-width:0.5;" x="702" xlink:href="#mae7a643dbf" y="281.716162"/>
      </g>
     </g>
    </g>
    <g id="ytick_8">
     <g id="line2d_59">
      <g>
       <use style="stroke:#000000;stroke-width:0.5;" x="39.865625" xlink:href="#mc1468660df" y="265.073462"/>
      </g>
     </g>
     <g id="line2d_60">
      <g>
       <use style="stroke:#000000;stroke-width:0.5;" x="702" xlink:href="#mae7a643dbf" y="265.073462"/>
      </g>
     </g>
    </g>
    <g id="ytick_9">
     <g id="line2d_61">
      <g>
       <use style="stroke:#000000;stroke-width:0.5;" x="39.865625" xlink:href="#mc1468660df" y="231.788062"/>
      </g>
     </g>
     <g id="line2d_62">
      <g>
       <use style="stroke:#000000;stroke-width:0.5;" x="702" xlink:href="#mae7a643dbf" y="231.788062"/>
      </g>
     </g>
    </g>
    <g id="ytick_10">
     <g id="line2d_63">
      <g>
       <use style="stroke:#000000;stroke-width:0.5;" x="39.865625" xlink:href="#mc1468660df" y="215.145362"/>
      </g>
     </g>
     <g id="line2d_64">
      <g>
       <use style="stroke:#000000;stroke-width:0.5;" x="702" xlink:href="#mae7a643dbf" y="215.145362"/>
      </g>
     </g>
    </g>
    <g id="ytick_11">
     <g id="line2d_65">
      <g>
       <use style="stroke:#000000;stroke-width:0.5;" x="39.865625" xlink:href="#mc1468660df" y="198.502661"/>
      </g>
     </g>
     <g id="line2d_66">
      <g>
       <use style="stroke:#000000;stroke-width:0.5;" x="702" xlink:href="#mae7a643dbf" y="198.502661"/>
      </g>
     </g>
    </g>
    <g id="ytick_12">
     <g id="line2d_67">
      <g>
       <use style="stroke:#000000;stroke-width:0.5;" x="39.865625" xlink:href="#mc1468660df" y="165.217261"/>
      </g>
     </g>
     <g id="line2d_68">
      <g>
       <use style="stroke:#000000;stroke-width:0.5;" x="702" xlink:href="#mae7a643dbf" y="165.217261"/>
      </g>
     </g>
    </g>
    <g id="ytick_13">
     <g id="line2d_69">
      <g>
       <use style="stroke:#000000;stroke-width:0.5;" x="39.865625" xlink:href="#mc1468660df" y="148.574561"/>
      </g>
     </g>
     <g id="line2d_70">
      <g>
       <use style="stroke:#000000;stroke-width:0.5;" x="702" xlink:href="#mae7a643dbf" y="148.574561"/>
      </g>
     </g>
    </g>
    <g id="ytick_14">
     <g id="line2d_71">
      <g>
       <use style="stroke:#000000;stroke-width:0.5;" x="39.865625" xlink:href="#mc1468660df" y="131.931861"/>
      </g>
     </g>
     <g id="line2d_72">
      <g>
       <use style="stroke:#000000;stroke-width:0.5;" x="702" xlink:href="#mae7a643dbf" y="131.931861"/>
      </g>
     </g>
    </g>
    <g id="ytick_15">
     <g id="line2d_73">
      <g>
       <use style="stroke:#000000;stroke-width:0.5;" x="39.865625" xlink:href="#mc1468660df" y="98.646461"/>
      </g>
     </g>
     <g id="line2d_74">
      <g>
       <use style="stroke:#000000;stroke-width:0.5;" x="702" xlink:href="#mae7a643dbf" y="98.646461"/>
      </g>
     </g>
    </g>
    <g id="ytick_16">
     <g id="line2d_75">
      <g>
       <use style="stroke:#000000;stroke-width:0.5;" x="39.865625" xlink:href="#mc1468660df" y="82.00376"/>
      </g>
     </g>
     <g id="line2d_76">
      <g>
       <use style="stroke:#000000;stroke-width:0.5;" x="702" xlink:href="#mae7a643dbf" y="82.00376"/>
      </g>
     </g>
    </g>
    <g id="ytick_17">
     <g id="line2d_77">
      <g>
       <use style="stroke:#000000;stroke-width:0.5;" x="39.865625" xlink:href="#mc1468660df" y="65.36106"/>
      </g>
     </g>
     <g id="line2d_78">
      <g>
       <use style="stroke:#000000;stroke-width:0.5;" x="702" xlink:href="#mae7a643dbf" y="65.36106"/>
      </g>
     </g>
    </g>
    <g id="ytick_18">
     <g id="line2d_79">
      <g>
       <use style="stroke:#000000;stroke-width:0.5;" x="39.865625" xlink:href="#mc1468660df" y="32.07566"/>
      </g>
     </g>
     <g id="line2d_80">
      <g>
       <use style="stroke:#000000;stroke-width:0.5;" x="702" xlink:href="#mae7a643dbf" y="32.07566"/>
      </g>
     </g>
    </g>
    <g id="ytick_19">
     <g id="line2d_81">
      <g>
       <use style="stroke:#000000;stroke-width:0.5;" x="39.865625" xlink:href="#mc1468660df" y="15.43296"/>
      </g>
     </g>
     <g id="line2d_82">
      <g>
       <use style="stroke:#000000;stroke-width:0.5;" x="702" xlink:href="#mae7a643dbf" y="15.43296"/>
      </g>
     </g>
    </g>
    <g id="text_11">
     <!-- Number of Occurrences -->
     <g transform="translate(11.198438 220.430469)rotate(-90)scale(0.1 -0.1)">
      <defs>
       <path d="M 4.890625 0 
L 4.890625 5.171875 
L 14.703125 5.171875 
L 14.703125 67.671875 
L 4.890625 67.671875 
L 4.890625 72.90625 
L 23.578125 72.90625 
L 67.28125 15.375 
L 67.28125 67.671875 
L 57.515625 67.671875 
L 57.515625 72.90625 
L 83.109375 72.90625 
L 83.109375 67.671875 
L 73.296875 67.671875 
L 73.296875 -1.421875 
L 67.390625 -1.421875 
L 20.703125 60.015625 
L 20.703125 5.171875 
L 30.515625 5.171875 
L 30.515625 0 
z
" id="DejaVuSerif-78"/>
       <path d="M 51.8125 41.796875 
Q 54.390625 47.515625 58.421875 50.421875 
Q 62.453125 53.328125 67.828125 53.328125 
Q 75.984375 53.328125 79.984375 48.265625 
Q 83.984375 43.21875 83.984375 33.015625 
L 83.984375 5.171875 
L 92.09375 5.171875 
L 92.09375 0 
L 67.1875 0 
L 67.1875 5.171875 
L 75 5.171875 
L 75 31.984375 
Q 75 39.9375 72.65625 43.3125 
Q 70.3125 46.6875 64.890625 46.6875 
Q 58.890625 46.6875 55.734375 42.140625 
Q 52.59375 37.59375 52.59375 28.90625 
L 52.59375 5.171875 
L 60.40625 5.171875 
L 60.40625 0 
L 35.796875 0 
L 35.796875 5.171875 
L 43.609375 5.171875 
L 43.609375 32.328125 
Q 43.609375 40.09375 41.265625 43.390625 
Q 38.921875 46.6875 33.5 46.6875 
Q 27.484375 46.6875 24.328125 42.140625 
Q 21.1875 37.59375 21.1875 28.90625 
L 21.1875 5.171875 
L 29 5.171875 
L 29 0 
L 4.109375 0 
L 4.109375 5.171875 
L 12.203125 5.171875 
L 12.203125 46.78125 
L 3.609375 46.78125 
L 3.609375 51.90625 
L 21.1875 51.90625 
L 21.1875 42.671875 
Q 23.6875 47.859375 27.53125 50.59375 
Q 31.390625 53.328125 36.28125 53.328125 
Q 42.328125 53.328125 46.375 50.3125 
Q 50.4375 47.3125 51.8125 41.796875 
z
" id="DejaVuSerif-109"/>
       <path d="M 11.53125 5.171875 
L 11.53125 70.796875 
L 2.875 70.796875 
L 2.875 75.984375 
L 20.515625 75.984375 
L 20.515625 43.796875 
Q 23.140625 48.6875 27.21875 51 
Q 31.296875 53.328125 37.3125 53.328125 
Q 46.875 53.328125 52.921875 45.75 
Q 58.984375 38.1875 58.984375 25.984375 
Q 58.984375 13.765625 52.921875 6.171875 
Q 46.875 -1.421875 37.3125 -1.421875 
Q 31.296875 -1.421875 27.21875 0.890625 
Q 23.140625 3.21875 20.515625 8.109375 
L 20.515625 0 
L 2.875 0 
L 2.875 5.171875 
z
M 20.515625 23.390625 
Q 20.515625 14.015625 24.09375 9.109375 
Q 27.6875 4.203125 34.515625 4.203125 
Q 41.40625 4.203125 44.9375 9.71875 
Q 48.484375 15.234375 48.484375 25.984375 
Q 48.484375 36.765625 44.9375 42.234375 
Q 41.40625 47.703125 34.515625 47.703125 
Q 27.6875 47.703125 24.09375 42.765625 
Q 20.515625 37.84375 20.515625 28.515625 
z
" id="DejaVuSerif-98"/>
       <path d="M 30.078125 3.421875 
Q 37.3125 3.421875 40.984375 9.125 
Q 44.671875 14.84375 44.671875 25.984375 
Q 44.671875 37.109375 40.984375 42.796875 
Q 37.3125 48.484375 30.078125 48.484375 
Q 22.859375 48.484375 19.171875 42.796875 
Q 15.484375 37.109375 15.484375 25.984375 
Q 15.484375 14.84375 19.1875 9.125 
Q 22.90625 3.421875 30.078125 3.421875 
z
M 30.078125 -1.421875 
Q 18.75 -1.421875 11.859375 6.078125 
Q 4.984375 13.578125 4.984375 25.984375 
Q 4.984375 38.375 11.84375 45.84375 
Q 18.703125 53.328125 30.078125 53.328125 
Q 41.453125 53.328125 48.3125 45.84375 
Q 55.171875 38.375 55.171875 25.984375 
Q 55.171875 13.578125 48.3125 6.078125 
Q 41.453125 -1.421875 30.078125 -1.421875 
z
" id="DejaVuSerif-111"/>
       <path d="M 43.015625 63.71875 
L 38.28125 63.71875 
Q 38.234375 67.390625 36.203125 69.28125 
Q 34.1875 71.1875 30.328125 71.1875 
Q 25.296875 71.1875 23.234375 68.421875 
Q 21.1875 65.671875 21.1875 58.59375 
L 21.1875 51.90625 
L 35.6875 51.90625 
L 35.6875 46.6875 
L 21.1875 46.6875 
L 21.1875 5.171875 
L 32.71875 5.171875 
L 32.71875 0 
L 3.609375 0 
L 3.609375 5.171875 
L 12.203125 5.171875 
L 12.203125 46.6875 
L 3.609375 46.6875 
L 3.609375 51.90625 
L 12.203125 51.90625 
L 12.203125 58.40625 
Q 12.203125 67.09375 16.71875 71.53125 
Q 21.234375 75.984375 29.984375 75.984375 
Q 33.25 75.984375 36.515625 75.390625 
Q 39.796875 74.8125 43.015625 73.578125 
z
" id="DejaVuSerif-102"/>
       <path d="M 41.015625 3.8125 
Q 52.984375 3.8125 59.078125 12.03125 
Q 65.1875 20.265625 65.1875 36.375 
Q 65.1875 52.546875 59.078125 60.765625 
Q 52.984375 69 41.015625 69 
Q 29 69 22.890625 60.765625 
Q 16.796875 52.546875 16.796875 36.375 
Q 16.796875 20.265625 22.890625 12.03125 
Q 29 3.8125 41.015625 3.8125 
z
M 41.015625 -1.421875 
Q 33.59375 -1.421875 27.359375 1.015625 
Q 21.140625 3.46875 16.40625 8.203125 
Q 10.9375 13.671875 8.265625 20.609375 
Q 5.609375 27.546875 5.609375 36.375 
Q 5.609375 45.21875 8.265625 52.171875 
Q 10.9375 59.125 16.40625 64.59375 
Q 21.1875 69.390625 27.34375 71.796875 
Q 33.5 74.21875 41.015625 74.21875 
Q 56.890625 74.21875 66.65625 63.8125 
Q 76.421875 53.421875 76.421875 36.375 
Q 76.421875 27.640625 73.734375 20.625 
Q 71.046875 13.625 65.578125 8.203125 
Q 60.796875 3.421875 54.640625 1 
Q 48.484375 -1.421875 41.015625 -1.421875 
z
" id="DejaVuSerif-79"/>
       <path d="M 51.421875 15.578125 
Q 49.515625 7.28125 44.09375 2.921875 
Q 38.671875 -1.421875 30.078125 -1.421875 
Q 18.75 -1.421875 11.859375 6.078125 
Q 4.984375 13.578125 4.984375 25.984375 
Q 4.984375 38.421875 11.859375 45.875 
Q 18.75 53.328125 30.078125 53.328125 
Q 35.015625 53.328125 39.890625 52.171875 
Q 44.78125 51.03125 49.703125 48.6875 
L 49.703125 35.40625 
L 44.484375 35.40625 
Q 43.453125 42.234375 40.015625 45.359375 
Q 36.578125 48.484375 30.171875 48.484375 
Q 22.90625 48.484375 19.1875 42.84375 
Q 15.484375 37.203125 15.484375 25.984375 
Q 15.484375 14.75 19.171875 9.078125 
Q 22.859375 3.421875 30.171875 3.421875 
Q 35.984375 3.421875 39.453125 6.4375 
Q 42.921875 9.46875 44.1875 15.578125 
z
" id="DejaVuSerif-99"/>
      </defs>
      <use xlink:href="#DejaVuSerif-78"/>
      <use x="87.5" xlink:href="#DejaVuSerif-117"/>
      <use x="151.904297" xlink:href="#DejaVuSerif-109"/>
      <use x="246.728516" xlink:href="#DejaVuSerif-98"/>
      <use x="310.742188" xlink:href="#DejaVuSerif-101"/>
      <use x="369.921875" xlink:href="#DejaVuSerif-114"/>
      <use x="417.724609" xlink:href="#DejaVuSerif-32"/>
      <use x="449.511719" xlink:href="#DejaVuSerif-111"/>
      <use x="509.716797" xlink:href="#DejaVuSerif-102"/>
      <use x="546.728516" xlink:href="#DejaVuSerif-32"/>
      <use x="578.515625" xlink:href="#DejaVuSerif-79"/>
      <use x="660.498047" xlink:href="#DejaVuSerif-99"/>
      <use x="716.503906" xlink:href="#DejaVuSerif-99"/>
      <use x="772.509766" xlink:href="#DejaVuSerif-117"/>
      <use x="836.914062" xlink:href="#DejaVuSerif-114"/>
      <use x="884.716797" xlink:href="#DejaVuSerif-114"/>
      <use x="932.519531" xlink:href="#DejaVuSerif-101"/>
      <use x="991.699219" xlink:href="#DejaVuSerif-110"/>
      <use x="1056.103516" xlink:href="#DejaVuSerif-99"/>
      <use x="1112.109375" xlink:href="#DejaVuSerif-101"/>
      <use x="1171.289062" xlink:href="#DejaVuSerif-115"/>
     </g>
    </g>
   </g>
   <g id="patch_29">
    <path d="M 39.865625 315.001562 
L 39.865625 3.6 
" style="fill:none;stroke:#000000;stroke-linecap:square;stroke-linejoin:miter;stroke-width:0.5;"/>
   </g>
   <g id="patch_30">
    <path d="M 702 315.001562 
L 702 3.6 
" style="fill:none;stroke:#000000;stroke-linecap:square;stroke-linejoin:miter;stroke-width:0.5;"/>
   </g>
   <g id="patch_31">
    <path d="M 39.865625 315.001562 
L 702 315.001562 
" style="fill:none;stroke:#000000;stroke-linecap:square;stroke-linejoin:miter;stroke-width:0.5;"/>
   </g>
   <g id="patch_32">
    <path d="M 39.865625 3.6 
L 702 3.6 
" style="fill:none;stroke:#000000;stroke-linecap:square;stroke-linejoin:miter;stroke-width:0.5;"/>
   </g>
   <g id="text_12">
    <!-- 873 -->
    <g transform="translate(71.565935 19.34033)scale(0.1 -0.1)">
     <defs>
      <path d="M 56.390625 67.921875 
L 27.875 0 
L 20.609375 0 
L 47.796875 64.890625 
L 14.109375 64.890625 
L 14.109375 55.90625 
L 8.40625 55.90625 
L 8.40625 72.90625 
L 56.390625 72.90625 
z
" id="DejaVuSerif-55"/>
     </defs>
     <use xlink:href="#DejaVuSerif-56"/>
     <use x="63.623047" xlink:href="#DejaVuSerif-55"/>
     <use x="127.246094" xlink:href="#DejaVuSerif-51"/>
    </g>
   </g>
   <g id="text_13">
    <!-- 108 -->
    <g transform="translate(227.624542 273.973643)scale(0.1 -0.1)">
     <use xlink:href="#DejaVuSerif-49"/>
     <use x="63.623047" xlink:href="#DejaVuSerif-48"/>
     <use x="127.246094" xlink:href="#DejaVuSerif-56"/>
    </g>
   </g>
   <g id="text_14">
    <!-- 18 -->
    <g transform="translate(386.864399 303.930503)scale(0.1 -0.1)">
     <use xlink:href="#DejaVuSerif-49"/>
     <use x="63.623047" xlink:href="#DejaVuSerif-56"/>
    </g>
   </g>
   <g id="text_15">
    <!-- 2 -->
    <g transform="translate(546.104256 309.256167)scale(0.1 -0.1)">
     <use xlink:href="#DejaVuSerif-50"/>
    </g>
   </g>
   <g id="text_16">
    <!-- 887 -->
    <g transform="translate(138.448195 14.680374)scale(0.1 -0.1)">
     <use xlink:href="#DejaVuSerif-56"/>
     <use x="63.623047" xlink:href="#DejaVuSerif-56"/>
     <use x="127.246094" xlink:href="#DejaVuSerif-55"/>
    </g>
   </g>
   <g id="text_17">
    <!-- 78 -->
    <g transform="translate(297.688052 283.959263)scale(0.1 -0.1)">
     <use xlink:href="#DejaVuSerif-55"/>
     <use x="63.623047" xlink:href="#DejaVuSerif-56"/>
    </g>
   </g>
   <g id="text_18">
    <!-- 34 -->
    <g transform="translate(453.746659 298.604839)scale(0.1 -0.1)">
     <use xlink:href="#DejaVuSerif-51"/>
     <use x="63.623047" xlink:href="#DejaVuSerif-52"/>
    </g>
   </g>
   <g id="text_19">
    <!-- 2 -->
    <g transform="translate(612.986516 309.256167)scale(0.1 -0.1)">
     <use xlink:href="#DejaVuSerif-50"/>
    </g>
   </g>
   <g id="text_20">
    <!-- 889 -->
    <g transform="translate(93.860022 14.014666)scale(0.1 -0.1)">
     <defs>
      <path d="M 46.78125 32.671875 
Q 43.5 29 39.25 27.1875 
Q 35.015625 25.390625 29.6875 25.390625 
Q 18.84375 25.390625 12.5625 31.9375 
Q 6.296875 38.484375 6.296875 49.8125 
Q 6.296875 60.890625 13.109375 67.546875 
Q 19.921875 74.21875 31.296875 74.21875 
Q 43.65625 74.21875 50.265625 65.015625 
Q 56.890625 55.8125 56.890625 38.71875 
Q 56.890625 19.578125 49.015625 9.078125 
Q 41.15625 -1.421875 26.90625 -1.421875 
Q 23.046875 -1.421875 18.796875 -0.6875 
Q 14.546875 0.046875 10.109375 1.515625 
L 10.109375 13.625 
L 15.578125 13.625 
Q 16.21875 8.6875 19.390625 6.046875 
Q 22.5625 3.421875 27.875 3.421875 
Q 37.359375 3.421875 41.984375 10.5625 
Q 46.625 17.71875 46.78125 32.671875 
z
M 30.90625 69.390625 
Q 23.96875 69.390625 20.28125 64.328125 
Q 16.609375 59.28125 16.609375 49.8125 
Q 16.609375 40.328125 20.28125 35.25 
Q 23.96875 30.171875 30.90625 30.171875 
Q 37.84375 30.171875 41.53125 35.078125 
Q 45.21875 39.984375 45.21875 49.21875 
Q 45.21875 58.9375 41.5 64.15625 
Q 37.796875 69.390625 30.90625 69.390625 
z
" id="DejaVuSerif-57"/>
     </defs>
     <use xlink:href="#DejaVuSerif-56"/>
     <use x="63.623047" xlink:href="#DejaVuSerif-56"/>
     <use x="127.246094" xlink:href="#DejaVuSerif-57"/>
    </g>
   </g>
   <g id="text_21">
    <!-- 102 -->
    <g transform="translate(249.918629 275.970767)scale(0.1 -0.1)">
     <use xlink:href="#DejaVuSerif-49"/>
     <use x="63.623047" xlink:href="#DejaVuSerif-48"/>
     <use x="127.246094" xlink:href="#DejaVuSerif-50"/>
    </g>
   </g>
   <g id="text_22">
    <!-- 8 -->
    <g transform="translate(412.339736 307.259043)scale(0.1 -0.1)">
     <use xlink:href="#DejaVuSerif-56"/>
    </g>
   </g>
   <g id="text_23">
    <!-- 2 -->
    <g transform="translate(568.398343 309.256167)scale(0.1 -0.1)">
     <use xlink:href="#DejaVuSerif-50"/>
    </g>
   </g>
   <g id="text_24">
    <!-- 891 -->
    <g transform="translate(160.742282 13.348958)scale(0.1 -0.1)">
     <use xlink:href="#DejaVuSerif-56"/>
     <use x="63.623047" xlink:href="#DejaVuSerif-57"/>
     <use x="127.246094" xlink:href="#DejaVuSerif-49"/>
    </g>
   </g>
   <g id="text_25">
    <!-- 90 -->
    <g transform="translate(319.982139 279.965015)scale(0.1 -0.1)">
     <use xlink:href="#DejaVuSerif-57"/>
     <use x="63.623047" xlink:href="#DejaVuSerif-48"/>
    </g>
   </g>
   <g id="text_26">
    <!-- 18 -->
    <g transform="translate(476.040746 303.930503)scale(0.1 -0.1)">
     <use xlink:href="#DejaVuSerif-49"/>
     <use x="63.623047" xlink:href="#DejaVuSerif-56"/>
    </g>
   </g>
   <g id="text_27">
    <!-- 2 -->
    <g transform="translate(635.280603 309.256167)scale(0.1 -0.1)">
     <use xlink:href="#DejaVuSerif-50"/>
    </g>
   </g>
   <g id="text_28">
    <!-- 867 -->
    <g transform="translate(116.154109 21.337454)scale(0.1 -0.1)">
     <use xlink:href="#DejaVuSerif-56"/>
     <use x="63.623047" xlink:href="#DejaVuSerif-54"/>
     <use x="127.246094" xlink:href="#DejaVuSerif-55"/>
    </g>
   </g>
   <g id="text_29">
    <!-- 104 -->
    <g transform="translate(272.212716 275.305059)scale(0.1 -0.1)">
     <use xlink:href="#DejaVuSerif-49"/>
     <use x="63.623047" xlink:href="#DejaVuSerif-48"/>
     <use x="127.246094" xlink:href="#DejaVuSerif-52"/>
    </g>
   </g>
   <g id="text_30">
    <!-- 28 -->
    <g transform="translate(431.452573 300.601963)scale(0.1 -0.1)">
     <use xlink:href="#DejaVuSerif-50"/>
     <use x="63.623047" xlink:href="#DejaVuSerif-56"/>
    </g>
   </g>
   <g id="text_31">
    <!-- 2 -->
    <g transform="translate(590.69243 309.256167)scale(0.1 -0.1)">
     <use xlink:href="#DejaVuSerif-50"/>
    </g>
   </g>
   <g id="text_32">
    <!-- 869 -->
    <g transform="translate(183.036369 20.671746)scale(0.1 -0.1)">
     <use xlink:href="#DejaVuSerif-56"/>
     <use x="63.623047" xlink:href="#DejaVuSerif-54"/>
     <use x="127.246094" xlink:href="#DejaVuSerif-57"/>
    </g>
   </g>
   <g id="text_33">
    <!-- 112 -->
    <g transform="translate(339.094976 272.642227)scale(0.1 -0.1)">
     <use xlink:href="#DejaVuSerif-49"/>
     <use x="63.623047" xlink:href="#DejaVuSerif-49"/>
     <use x="127.246094" xlink:href="#DejaVuSerif-50"/>
    </g>
   </g>
   <g id="text_34">
    <!-- 20 -->
    <g transform="translate(498.334833 303.264795)scale(0.1 -0.1)">
     <use xlink:href="#DejaVuSerif-50"/>
     <use x="63.623047" xlink:href="#DejaVuSerif-48"/>
    </g>
   </g>
   <g id="legend_1">
    <g id="patch_33">
     <path d="M 631.56875 20.198437 
L 651.56875 20.198437 
L 651.56875 13.198437 
L 631.56875 13.198437 
z
" style="fill:#db5f57;"/>
    </g>
    <g id="text_35">
     <!-- Host 0 -->
     <g transform="translate(659.56875 20.198437)scale(0.1 -0.1)">
      <defs>
       <path d="M 5.515625 0 
L 5.515625 5.171875 
L 14.796875 5.171875 
L 14.796875 67.671875 
L 5.515625 67.671875 
L 5.515625 72.90625 
L 33.984375 72.90625 
L 33.984375 67.671875 
L 24.703125 67.671875 
L 24.703125 42.484375 
L 62.5 42.484375 
L 62.5 67.671875 
L 53.21875 67.671875 
L 53.21875 72.90625 
L 81.6875 72.90625 
L 81.6875 67.671875 
L 72.40625 67.671875 
L 72.40625 5.171875 
L 81.6875 5.171875 
L 81.6875 0 
L 53.21875 0 
L 53.21875 5.171875 
L 62.5 5.171875 
L 62.5 36.53125 
L 24.703125 36.53125 
L 24.703125 5.171875 
L 33.984375 5.171875 
L 33.984375 0 
z
" id="DejaVuSerif-72"/>
      </defs>
      <use xlink:href="#DejaVuSerif-72"/>
      <use x="87.207031" xlink:href="#DejaVuSerif-111"/>
      <use x="147.412109" xlink:href="#DejaVuSerif-115"/>
      <use x="198.730469" xlink:href="#DejaVuSerif-116"/>
      <use x="238.916016" xlink:href="#DejaVuSerif-32"/>
      <use x="270.703125" xlink:href="#DejaVuSerif-48"/>
     </g>
    </g>
    <g id="patch_34">
     <path d="M 631.56875 34.876562 
L 651.56875 34.876562 
L 651.56875 27.876562 
L 631.56875 27.876562 
z
" style="fill:#57db5f;"/>
    </g>
    <g id="text_36">
     <!-- Host 1 -->
     <g transform="translate(659.56875 34.876562)scale(0.1 -0.1)">
      <use xlink:href="#DejaVuSerif-72"/>
      <use x="87.207031" xlink:href="#DejaVuSerif-111"/>
      <use x="147.412109" xlink:href="#DejaVuSerif-115"/>
      <use x="198.730469" xlink:href="#DejaVuSerif-116"/>
      <use x="238.916016" xlink:href="#DejaVuSerif-32"/>
      <use x="270.703125" xlink:href="#DejaVuSerif-49"/>
     </g>
    </g>
    <g id="patch_35">
     <path d="M 631.56875 49.554687 
L 651.56875 49.554687 
L 651.56875 42.554687 
L 631.56875 42.554687 
z
" style="fill:#5f57db;"/>
    </g>
    <g id="text_37">
     <!-- Host 2 -->
     <g transform="translate(659.56875 49.554687)scale(0.1 -0.1)">
      <use xlink:href="#DejaVuSerif-72"/>
      <use x="87.207031" xlink:href="#DejaVuSerif-111"/>
      <use x="147.412109" xlink:href="#DejaVuSerif-115"/>
      <use x="198.730469" xlink:href="#DejaVuSerif-116"/>
      <use x="238.916016" xlink:href="#DejaVuSerif-32"/>
      <use x="270.703125" xlink:href="#DejaVuSerif-50"/>
     </g>
    </g>
    <g id="patch_36">
     <path d="M 631.56875 64.232812 
L 651.56875 64.232812 
L 651.56875 57.232812 
L 631.56875 57.232812 
z
" style="fill:#808080;"/>
    </g>
    <g id="text_38">
     <!-- CPU -->
     <g transform="translate(659.56875 64.232812)scale(0.1 -0.1)">
      <defs>
       <path d="M 70.515625 19.28125 
Q 67.28125 9.078125 59.6875 3.828125 
Q 52.09375 -1.421875 40.484375 -1.421875 
Q 33.34375 -1.421875 27.234375 1.015625 
Q 21.140625 3.46875 16.40625 8.203125 
Q 10.9375 13.671875 8.265625 20.625 
Q 5.609375 27.59375 5.609375 36.375 
Q 5.609375 53.375 15.421875 63.796875 
Q 25.25 74.21875 41.3125 74.21875 
Q 47.265625 74.21875 54 72.65625 
Q 60.75 71.09375 68.5 67.921875 
L 68.5 51.125 
L 62.984375 51.125 
Q 61.1875 60.296875 55.734375 64.640625 
Q 50.296875 69 40.484375 69 
Q 28.8125 69 22.796875 60.71875 
Q 16.796875 52.4375 16.796875 36.375 
Q 16.796875 20.359375 22.796875 12.078125 
Q 28.8125 3.8125 40.484375 3.8125 
Q 48.640625 3.8125 53.90625 7.6875 
Q 59.1875 11.578125 61.53125 19.28125 
z
" id="DejaVuSerif-67"/>
       <path d="M 24.703125 37.109375 
L 37.59375 37.109375 
Q 44.875 37.109375 48.671875 41.03125 
Q 52.484375 44.96875 52.484375 52.390625 
Q 52.484375 59.859375 48.671875 63.765625 
Q 44.875 67.671875 37.59375 67.671875 
L 24.703125 67.671875 
z
M 5.515625 0 
L 5.515625 5.171875 
L 14.796875 5.171875 
L 14.796875 67.671875 
L 5.515625 67.671875 
L 5.515625 72.90625 
L 39.984375 72.90625 
Q 50.921875 72.90625 57.3125 67.359375 
Q 63.71875 61.8125 63.71875 52.390625 
Q 63.71875 43.015625 57.3125 37.453125 
Q 50.921875 31.890625 39.984375 31.890625 
L 24.703125 31.890625 
L 24.703125 5.171875 
L 35.984375 5.171875 
L 35.984375 0 
z
" id="DejaVuSerif-80"/>
       <path d="M 14.015625 67.671875 
L 4.6875 67.671875 
L 4.6875 72.90625 
L 33.203125 72.90625 
L 33.203125 67.671875 
L 23.875 67.671875 
L 23.875 29.984375 
Q 23.875 16.015625 28.4375 10.5 
Q 33.015625 4.984375 44.1875 4.984375 
Q 55.375 4.984375 59.9375 10.5 
Q 64.5 16.015625 64.5 29.984375 
L 64.5 67.671875 
L 55.171875 67.671875 
L 55.171875 72.90625 
L 79.78125 72.90625 
L 79.78125 67.671875 
L 70.515625 67.671875 
L 70.515625 29 
Q 70.515625 12.359375 64.109375 5.46875 
Q 57.71875 -1.421875 42.390625 -1.421875 
Q 27.046875 -1.421875 20.53125 5.515625 
Q 14.015625 12.453125 14.015625 29 
z
" id="DejaVuSerif-85"/>
      </defs>
      <use xlink:href="#DejaVuSerif-67"/>
      <use x="76.513672" xlink:href="#DejaVuSerif-80"/>
      <use x="142.048828" xlink:href="#DejaVuSerif-85"/>
     </g>
    </g>
    <g id="patch_37">
     <path d="M 631.56875 78.910937 
L 651.56875 78.910937 
L 651.56875 71.910937 
L 631.56875 71.910937 
z
" style="fill:url(#he28180d4d7);"/>
    </g>
    <g id="text_39">
     <!-- RAM -->
     <g transform="translate(659.56875 78.910937)scale(0.1 -0.1)">
      <defs>
       <path d="M 47.90625 36.1875 
Q 51.3125 35.25 53.78125 33.03125 
Q 56.25 30.8125 58.203125 26.8125 
L 68.796875 5.171875 
L 77.6875 5.171875 
L 77.6875 0 
L 60.5 0 
L 49.125 23.1875 
Q 45.84375 29.9375 43.109375 31.90625 
Q 40.375 33.890625 35.59375 33.890625 
L 24.703125 33.890625 
L 24.703125 5.171875 
L 35.015625 5.171875 
L 35.015625 0 
L 5.515625 0 
L 5.515625 5.171875 
L 14.796875 5.171875 
L 14.796875 67.671875 
L 5.515625 67.671875 
L 5.515625 72.90625 
L 42.484375 72.90625 
Q 53.125 72.90625 58.90625 67.828125 
Q 64.703125 62.75 64.703125 53.421875 
Q 64.703125 45.90625 60.46875 41.578125 
Q 56.25 37.25 47.90625 36.1875 
z
M 24.703125 39.109375 
L 39.109375 39.109375 
Q 46.484375 39.109375 50 42.59375 
Q 53.515625 46.09375 53.515625 53.421875 
Q 53.515625 60.75 50 64.203125 
Q 46.484375 67.671875 39.109375 67.671875 
L 24.703125 67.671875 
z
" id="DejaVuSerif-82"/>
       <path d="M 20.015625 26.421875 
L 46.78125 26.421875 
L 33.40625 61.078125 
z
M -0.59375 0 
L -0.59375 5.171875 
L 5.8125 5.171875 
L 31.78125 72.90625 
L 39.984375 72.90625 
L 66.015625 5.171875 
L 73.1875 5.171875 
L 73.1875 0 
L 46.6875 0 
L 46.6875 5.171875 
L 54.78125 5.171875 
L 48.6875 21.1875 
L 18.015625 21.1875 
L 11.921875 5.171875 
L 19.921875 5.171875 
L 19.921875 0 
z
" id="DejaVuSerif-65"/>
       <path d="M 5.515625 0 
L 5.515625 5.171875 
L 14.796875 5.171875 
L 14.796875 67.671875 
L 4.984375 67.671875 
L 4.984375 72.90625 
L 26.21875 72.90625 
L 51.8125 21 
L 77.390625 72.90625 
L 97.3125 72.90625 
L 97.3125 67.671875 
L 87.59375 67.671875 
L 87.59375 5.171875 
L 96.921875 5.171875 
L 96.921875 0 
L 68.40625 0 
L 68.40625 5.171875 
L 77.6875 5.171875 
L 77.6875 61.53125 
L 52.6875 10.6875 
L 45.796875 10.6875 
L 20.796875 61.53125 
L 20.796875 5.171875 
L 30.078125 5.171875 
L 30.078125 0 
z
" id="DejaVuSerif-77"/>
      </defs>
      <use xlink:href="#DejaVuSerif-82"/>
      <use x="75.292969" xlink:href="#DejaVuSerif-65"/>
      <use x="147.509766" xlink:href="#DejaVuSerif-77"/>
     </g>
    </g>
   </g>
  </g>
 </g>
 <defs>
  <clipPath id="pd0734b77d9">
   <rect height="311.401563" width="662.134375" x="39.865625" y="3.6"/>
  </clipPath>
 </defs>
 <defs>
  <pattern height="72" id="h20ec6f74ee" patternUnits="userSpaceOnUse" width="72" x="0" y="0">
   <rect fill="#db5f57" height="73" width="73" x="0" y="0"/>
   <path d="M -36 36 
L 36 -36 
M -32 40 
L 40 -32 
M -28 44 
L 44 -28 
M -24 48 
L 48 -24 
M -20 52 
L 52 -20 
M -16 56 
L 56 -16 
M -12 60 
L 60 -12 
M -8 64 
L 64 -8 
M -4 68 
L 68 -4 
M 0 72 
L 72 0 
M 4 76 
L 76 4 
M 8 80 
L 80 8 
M 12 84 
L 84 12 
M 16 88 
L 88 16 
M 20 92 
L 92 20 
M 24 96 
L 96 24 
M 28 100 
L 100 28 
M 32 104 
L 104 32 
M 36 108 
L 108 36 
" style="fill:#000000;stroke:#000000;stroke-linecap:butt;stroke-linejoin:miter;stroke-width:1.0;"/>
  </pattern>
  <pattern height="72" id="hc473eb6eda" patternUnits="userSpaceOnUse" width="72" x="0" y="0">
   <rect fill="#57db5f" height="73" width="73" x="0" y="0"/>
   <path d="M -36 36 
L 36 -36 
M -32 40 
L 40 -32 
M -28 44 
L 44 -28 
M -24 48 
L 48 -24 
M -20 52 
L 52 -20 
M -16 56 
L 56 -16 
M -12 60 
L 60 -12 
M -8 64 
L 64 -8 
M -4 68 
L 68 -4 
M 0 72 
L 72 0 
M 4 76 
L 76 4 
M 8 80 
L 80 8 
M 12 84 
L 84 12 
M 16 88 
L 88 16 
M 20 92 
L 92 20 
M 24 96 
L 96 24 
M 28 100 
L 100 28 
M 32 104 
L 104 32 
M 36 108 
L 108 36 
" style="fill:#000000;stroke:#000000;stroke-linecap:butt;stroke-linejoin:miter;stroke-width:1.0;"/>
  </pattern>
  <pattern height="72" id="h9287a47f2b" patternUnits="userSpaceOnUse" width="72" x="0" y="0">
   <rect fill="#5f57db" height="73" width="73" x="0" y="0"/>
   <path d="M -36 36 
L 36 -36 
M -32 40 
L 40 -32 
M -28 44 
L 44 -28 
M -24 48 
L 48 -24 
M -20 52 
L 52 -20 
M -16 56 
L 56 -16 
M -12 60 
L 60 -12 
M -8 64 
L 64 -8 
M -4 68 
L 68 -4 
M 0 72 
L 72 0 
M 4 76 
L 76 4 
M 8 80 
L 80 8 
M 12 84 
L 84 12 
M 16 88 
L 88 16 
M 20 92 
L 92 20 
M 24 96 
L 96 24 
M 28 100 
L 100 28 
M 32 104 
L 104 32 
M 36 108 
L 108 36 
" style="fill:#000000;stroke:#000000;stroke-linecap:butt;stroke-linejoin:miter;stroke-width:1.0;"/>
  </pattern>
  <pattern height="72" id="he28180d4d7" patternUnits="userSpaceOnUse" width="72" x="0" y="0">
   <rect fill="#808080" height="73" width="73" x="0" y="0"/>
   <path d="M -36 36 
L 36 -36 
M -32 40 
L 40 -32 
M -28 44 
L 44 -28 
M -24 48 
L 48 -24 
M -20 52 
L 52 -20 
M -16 56 
L 56 -16 
M -12 60 
L 60 -12 
M -8 64 
L 64 -8 
M -4 68 
L 68 -4 
M 0 72 
L 72 0 
M 4 76 
L 76 4 
M 8 80 
L 80 8 
M 12 84 
L 84 12 
M 16 88 
L 88 16 
M 20 92 
L 92 20 
M 24 96 
L 96 24 
M 28 100 
L 100 28 
M 32 104 
L 104 32 
M 36 108 
L 108 36 
" style="fill:#000000;stroke:#000000;stroke-linecap:butt;stroke-linejoin:miter;stroke-width:1.0;"/>
  </pattern>
 </defs>
</svg>
