<?xml version="1.0" encoding="utf-8" standalone="no"?>
<!DOCTYPE svg PUBLIC "-//W3C//DTD SVG 1.1//EN"
  "http://www.w3.org/Graphics/SVG/1.1/DTD/svg11.dtd">
<svg xmlns:xlink="http://www.w3.org/1999/xlink" width="705.545pt" height="345.198125pt" viewBox="0 0 705.545 345.198125" xmlns="http://www.w3.org/2000/svg" version="1.1">
 <metadata>
  <rdf:RDF xmlns:dc="http://purl.org/dc/elements/1.1/" xmlns:cc="http://creativecommons.org/ns#" xmlns:rdf="http://www.w3.org/1999/02/22-rdf-syntax-ns#">
   <cc:Work>
    <dc:type rdf:resource="http://purl.org/dc/dcmitype/StillImage"/>
    <dc:date>2023-07-06T23:31:53.130927</dc:date>
    <dc:format>image/svg+xml</dc:format>
    <dc:creator>
     <cc:Agent>
      <dc:title>Matplotlib v3.7.2, https://matplotlib.org/</dc:title>
     </cc:Agent>
    </dc:creator>
   </cc:Work>
  </rdf:RDF>
 </metadata>
 <defs>
  <style type="text/css">*{stroke-linejoin: round; stroke-linecap: butt}</style>
 </defs>
 <g id="figure_1">
  <g id="patch_1">
   <path d="M -0 345.198125 
L 705.545 345.198125 
L 705.545 0 
L -0 0 
z
" style="fill: #ffffff"/>
  </g>
  <g id="axes_1">
   <g id="patch_2">
    <path d="M 19.825 328.42 
L 701.945 328.42 
L 701.945 3.6 
L 19.825 3.6 
z
" style="fill: #ffffff"/>
   </g>
   <g id="matplotlib.axis_1">
    <g id="xtick_1">
     <g id="line2d_1">
      <defs>
       <path id="md0bb5b73e5" d="M 0 0 
L 0 -3 
" style="stroke: #000000; stroke-width: 0.5"/>
      </defs>
      <g>
       <use xlink:href="#md0bb5b73e5" x="50.210345" y="328.42" style="stroke: #000000; stroke-width: 0.5"/>
      </g>
     </g>
     <g id="line2d_2">
      <defs>
       <path id="mb83b19793f" d="M 0 0 
L 0 3 
" style="stroke: #000000; stroke-width: 0.5"/>
      </defs>
      <g>
       <use xlink:href="#mb83b19793f" x="50.210345" y="3.6" style="stroke: #000000; stroke-width: 0.5"/>
      </g>
     </g>
     <g id="text_1">
      <!-- 0 -->
      <g transform="translate(47.029095 339.518437) scale(0.1 -0.1)">
       <defs>
        <path id="DejaVuSerif-30" d="M 2034 219 
Q 2513 219 2750 744 
Q 2988 1269 2988 2328 
Q 2988 3391 2750 3916 
Q 2513 4441 2034 4441 
Q 1556 4441 1318 3916 
Q 1081 3391 1081 2328 
Q 1081 1269 1318 744 
Q 1556 219 2034 219 
z
M 2034 -91 
Q 1275 -91 848 546 
Q 422 1184 422 2328 
Q 422 3475 848 4112 
Q 1275 4750 2034 4750 
Q 2797 4750 3222 4112 
Q 3647 3475 3647 2328 
Q 3647 1184 3222 546 
Q 2797 -91 2034 -91 
z
" transform="scale(0.015625)"/>
       </defs>
       <use xlink:href="#DejaVuSerif-30"/>
      </g>
     </g>
    </g>
    <g id="xtick_2">
     <g id="line2d_3">
      <g>
       <use xlink:href="#md0bb5b73e5" x="174.232164" y="328.42" style="stroke: #000000; stroke-width: 0.5"/>
      </g>
     </g>
     <g id="line2d_4">
      <g>
       <use xlink:href="#mb83b19793f" x="174.232164" y="3.6" style="stroke: #000000; stroke-width: 0.5"/>
      </g>
     </g>
     <g id="text_2">
      <!-- 200 -->
      <g transform="translate(164.688414 339.518437) scale(0.1 -0.1)">
       <defs>
        <path id="DejaVuSerif-32" d="M 819 3553 
L 469 3553 
L 469 4384 
Q 803 4563 1142 4656 
Q 1481 4750 1806 4750 
Q 2534 4750 2956 4397 
Q 3378 4044 3378 3438 
Q 3378 2753 2422 1800 
Q 2347 1728 2309 1691 
L 1131 513 
L 3078 513 
L 3078 1088 
L 3444 1088 
L 3444 0 
L 434 0 
L 434 341 
L 1850 1753 
Q 2319 2222 2519 2614 
Q 2719 3006 2719 3438 
Q 2719 3909 2473 4175 
Q 2228 4441 1797 4441 
Q 1350 4441 1106 4219 
Q 863 3997 819 3553 
z
" transform="scale(0.015625)"/>
       </defs>
       <use xlink:href="#DejaVuSerif-32"/>
       <use xlink:href="#DejaVuSerif-30" x="63.623047"/>
       <use xlink:href="#DejaVuSerif-30" x="127.246094"/>
      </g>
     </g>
    </g>
    <g id="xtick_3">
     <g id="line2d_5">
      <g>
       <use xlink:href="#md0bb5b73e5" x="298.253982" y="328.42" style="stroke: #000000; stroke-width: 0.5"/>
      </g>
     </g>
     <g id="line2d_6">
      <g>
       <use xlink:href="#mb83b19793f" x="298.253982" y="3.6" style="stroke: #000000; stroke-width: 0.5"/>
      </g>
     </g>
     <g id="text_3">
      <!-- 400 -->
      <g transform="translate(288.710232 339.518437) scale(0.1 -0.1)">
       <defs>
        <path id="DejaVuSerif-34" d="M 2234 1581 
L 2234 4063 
L 641 1581 
L 2234 1581 
z
M 3609 0 
L 1484 0 
L 1484 331 
L 2234 331 
L 2234 1247 
L 197 1247 
L 197 1588 
L 2241 4750 
L 2859 4750 
L 2859 1581 
L 3750 1581 
L 3750 1247 
L 2859 1247 
L 2859 331 
L 3609 331 
L 3609 0 
z
" transform="scale(0.015625)"/>
       </defs>
       <use xlink:href="#DejaVuSerif-34"/>
       <use xlink:href="#DejaVuSerif-30" x="63.623047"/>
       <use xlink:href="#DejaVuSerif-30" x="127.246094"/>
      </g>
     </g>
    </g>
    <g id="xtick_4">
     <g id="line2d_7">
      <g>
       <use xlink:href="#md0bb5b73e5" x="422.2758" y="328.42" style="stroke: #000000; stroke-width: 0.5"/>
      </g>
     </g>
     <g id="line2d_8">
      <g>
       <use xlink:href="#mb83b19793f" x="422.2758" y="3.6" style="stroke: #000000; stroke-width: 0.5"/>
      </g>
     </g>
     <g id="text_4">
      <!-- 600 -->
      <g transform="translate(412.73205 339.518437) scale(0.1 -0.1)">
       <defs>
        <path id="DejaVuSerif-36" d="M 2094 219 
Q 2534 219 2771 542 
Q 3009 866 3009 1472 
Q 3009 2078 2771 2401 
Q 2534 2725 2094 2725 
Q 1647 2725 1412 2412 
Q 1178 2100 1178 1509 
Q 1178 888 1415 553 
Q 1653 219 2094 219 
z
M 1075 2569 
Q 1288 2803 1556 2918 
Q 1825 3034 2163 3034 
Q 2859 3034 3264 2615 
Q 3669 2197 3669 1472 
Q 3669 763 3233 336 
Q 2797 -91 2069 -91 
Q 1278 -91 853 498 
Q 428 1088 428 2181 
Q 428 3406 931 4078 
Q 1434 4750 2350 4750 
Q 2597 4750 2869 4703 
Q 3141 4656 3425 4563 
L 3425 3794 
L 3072 3794 
Q 3034 4109 2831 4275 
Q 2628 4441 2284 4441 
Q 1678 4441 1381 3981 
Q 1084 3522 1075 2569 
z
" transform="scale(0.015625)"/>
       </defs>
       <use xlink:href="#DejaVuSerif-36"/>
       <use xlink:href="#DejaVuSerif-30" x="63.623047"/>
       <use xlink:href="#DejaVuSerif-30" x="127.246094"/>
      </g>
     </g>
    </g>
    <g id="xtick_5">
     <g id="line2d_9">
      <g>
       <use xlink:href="#md0bb5b73e5" x="546.297618" y="328.42" style="stroke: #000000; stroke-width: 0.5"/>
      </g>
     </g>
     <g id="line2d_10">
      <g>
       <use xlink:href="#mb83b19793f" x="546.297618" y="3.6" style="stroke: #000000; stroke-width: 0.5"/>
      </g>
     </g>
     <g id="text_5">
      <!-- 800 -->
      <g transform="translate(536.753868 339.518437) scale(0.1 -0.1)">
       <defs>
        <path id="DejaVuSerif-38" d="M 2981 1275 
Q 2981 1775 2732 2051 
Q 2484 2328 2034 2328 
Q 1584 2328 1336 2051 
Q 1088 1775 1088 1275 
Q 1088 772 1336 495 
Q 1584 219 2034 219 
Q 2484 219 2732 495 
Q 2981 772 2981 1275 
z
M 2853 3541 
Q 2853 3966 2637 4203 
Q 2422 4441 2034 4441 
Q 1650 4441 1433 4203 
Q 1216 3966 1216 3541 
Q 1216 3113 1433 2875 
Q 1650 2638 2034 2638 
Q 2422 2638 2637 2875 
Q 2853 3113 2853 3541 
z
M 2516 2484 
Q 3047 2413 3344 2092 
Q 3641 1772 3641 1275 
Q 3641 619 3225 264 
Q 2809 -91 2034 -91 
Q 1263 -91 845 264 
Q 428 619 428 1275 
Q 428 1772 725 2092 
Q 1022 2413 1556 2484 
Q 1084 2569 832 2842 
Q 581 3116 581 3541 
Q 581 4103 968 4426 
Q 1356 4750 2034 4750 
Q 2713 4750 3100 4426 
Q 3488 4103 3488 3541 
Q 3488 3116 3236 2842 
Q 2984 2569 2516 2484 
z
" transform="scale(0.015625)"/>
       </defs>
       <use xlink:href="#DejaVuSerif-38"/>
       <use xlink:href="#DejaVuSerif-30" x="63.623047"/>
       <use xlink:href="#DejaVuSerif-30" x="127.246094"/>
      </g>
     </g>
    </g>
    <g id="xtick_6">
     <g id="line2d_11">
      <g>
       <use xlink:href="#md0bb5b73e5" x="670.319436" y="328.42" style="stroke: #000000; stroke-width: 0.5"/>
      </g>
     </g>
     <g id="line2d_12">
      <g>
       <use xlink:href="#mb83b19793f" x="670.319436" y="3.6" style="stroke: #000000; stroke-width: 0.5"/>
      </g>
     </g>
     <g id="text_6">
      <!-- 1000 -->
      <g transform="translate(657.594436 339.518437) scale(0.1 -0.1)">
       <defs>
        <path id="DejaVuSerif-31" d="M 909 0 
L 909 331 
L 1722 331 
L 1722 4213 
L 781 3603 
L 781 4013 
L 1919 4750 
L 2350 4750 
L 2350 331 
L 3163 331 
L 3163 0 
L 909 0 
z
" transform="scale(0.015625)"/>
       </defs>
       <use xlink:href="#DejaVuSerif-31"/>
       <use xlink:href="#DejaVuSerif-30" x="63.623047"/>
       <use xlink:href="#DejaVuSerif-30" x="127.246094"/>
       <use xlink:href="#DejaVuSerif-30" x="190.869141"/>
      </g>
     </g>
    </g>
    <g id="xtick_7">
     <g id="line2d_13">
      <defs>
       <path id="me470d8efab" d="M 0 0 
L 0 -1.5 
" style="stroke: #000000; stroke-width: 0.5"/>
      </defs>
      <g>
       <use xlink:href="#me470d8efab" x="81.2158" y="328.42" style="stroke: #000000; stroke-width: 0.5"/>
      </g>
     </g>
     <g id="line2d_14">
      <defs>
       <path id="mcf280cdcca" d="M 0 0 
L 0 1.5 
" style="stroke: #000000; stroke-width: 0.5"/>
      </defs>
      <g>
       <use xlink:href="#mcf280cdcca" x="81.2158" y="3.6" style="stroke: #000000; stroke-width: 0.5"/>
      </g>
     </g>
    </g>
    <g id="xtick_8">
     <g id="line2d_15">
      <g>
       <use xlink:href="#me470d8efab" x="112.221255" y="328.42" style="stroke: #000000; stroke-width: 0.5"/>
      </g>
     </g>
     <g id="line2d_16">
      <g>
       <use xlink:href="#mcf280cdcca" x="112.221255" y="3.6" style="stroke: #000000; stroke-width: 0.5"/>
      </g>
     </g>
    </g>
    <g id="xtick_9">
     <g id="line2d_17">
      <g>
       <use xlink:href="#me470d8efab" x="143.226709" y="328.42" style="stroke: #000000; stroke-width: 0.5"/>
      </g>
     </g>
     <g id="line2d_18">
      <g>
       <use xlink:href="#mcf280cdcca" x="143.226709" y="3.6" style="stroke: #000000; stroke-width: 0.5"/>
      </g>
     </g>
    </g>
    <g id="xtick_10">
     <g id="line2d_19">
      <g>
       <use xlink:href="#me470d8efab" x="205.237618" y="328.42" style="stroke: #000000; stroke-width: 0.5"/>
      </g>
     </g>
     <g id="line2d_20">
      <g>
       <use xlink:href="#mcf280cdcca" x="205.237618" y="3.6" style="stroke: #000000; stroke-width: 0.5"/>
      </g>
     </g>
    </g>
    <g id="xtick_11">
     <g id="line2d_21">
      <g>
       <use xlink:href="#me470d8efab" x="236.243073" y="328.42" style="stroke: #000000; stroke-width: 0.5"/>
      </g>
     </g>
     <g id="line2d_22">
      <g>
       <use xlink:href="#mcf280cdcca" x="236.243073" y="3.6" style="stroke: #000000; stroke-width: 0.5"/>
      </g>
     </g>
    </g>
    <g id="xtick_12">
     <g id="line2d_23">
      <g>
       <use xlink:href="#me470d8efab" x="267.248527" y="328.42" style="stroke: #000000; stroke-width: 0.5"/>
      </g>
     </g>
     <g id="line2d_24">
      <g>
       <use xlink:href="#mcf280cdcca" x="267.248527" y="3.6" style="stroke: #000000; stroke-width: 0.5"/>
      </g>
     </g>
    </g>
    <g id="xtick_13">
     <g id="line2d_25">
      <g>
       <use xlink:href="#me470d8efab" x="329.259436" y="328.42" style="stroke: #000000; stroke-width: 0.5"/>
      </g>
     </g>
     <g id="line2d_26">
      <g>
       <use xlink:href="#mcf280cdcca" x="329.259436" y="3.6" style="stroke: #000000; stroke-width: 0.5"/>
      </g>
     </g>
    </g>
    <g id="xtick_14">
     <g id="line2d_27">
      <g>
       <use xlink:href="#me470d8efab" x="360.264891" y="328.42" style="stroke: #000000; stroke-width: 0.5"/>
      </g>
     </g>
     <g id="line2d_28">
      <g>
       <use xlink:href="#mcf280cdcca" x="360.264891" y="3.6" style="stroke: #000000; stroke-width: 0.5"/>
      </g>
     </g>
    </g>
    <g id="xtick_15">
     <g id="line2d_29">
      <g>
       <use xlink:href="#me470d8efab" x="391.270345" y="328.42" style="stroke: #000000; stroke-width: 0.5"/>
      </g>
     </g>
     <g id="line2d_30">
      <g>
       <use xlink:href="#mcf280cdcca" x="391.270345" y="3.6" style="stroke: #000000; stroke-width: 0.5"/>
      </g>
     </g>
    </g>
    <g id="xtick_16">
     <g id="line2d_31">
      <g>
       <use xlink:href="#me470d8efab" x="453.281255" y="328.42" style="stroke: #000000; stroke-width: 0.5"/>
      </g>
     </g>
     <g id="line2d_32">
      <g>
       <use xlink:href="#mcf280cdcca" x="453.281255" y="3.6" style="stroke: #000000; stroke-width: 0.5"/>
      </g>
     </g>
    </g>
    <g id="xtick_17">
     <g id="line2d_33">
      <g>
       <use xlink:href="#me470d8efab" x="484.286709" y="328.42" style="stroke: #000000; stroke-width: 0.5"/>
      </g>
     </g>
     <g id="line2d_34">
      <g>
       <use xlink:href="#mcf280cdcca" x="484.286709" y="3.6" style="stroke: #000000; stroke-width: 0.5"/>
      </g>
     </g>
    </g>
    <g id="xtick_18">
     <g id="line2d_35">
      <g>
       <use xlink:href="#me470d8efab" x="515.292164" y="328.42" style="stroke: #000000; stroke-width: 0.5"/>
      </g>
     </g>
     <g id="line2d_36">
      <g>
       <use xlink:href="#mcf280cdcca" x="515.292164" y="3.6" style="stroke: #000000; stroke-width: 0.5"/>
      </g>
     </g>
    </g>
    <g id="xtick_19">
     <g id="line2d_37">
      <g>
       <use xlink:href="#me470d8efab" x="577.303073" y="328.42" style="stroke: #000000; stroke-width: 0.5"/>
      </g>
     </g>
     <g id="line2d_38">
      <g>
       <use xlink:href="#mcf280cdcca" x="577.303073" y="3.6" style="stroke: #000000; stroke-width: 0.5"/>
      </g>
     </g>
    </g>
    <g id="xtick_20">
     <g id="line2d_39">
      <g>
       <use xlink:href="#me470d8efab" x="608.308527" y="328.42" style="stroke: #000000; stroke-width: 0.5"/>
      </g>
     </g>
     <g id="line2d_40">
      <g>
       <use xlink:href="#mcf280cdcca" x="608.308527" y="3.6" style="stroke: #000000; stroke-width: 0.5"/>
      </g>
     </g>
    </g>
    <g id="xtick_21">
     <g id="line2d_41">
      <g>
       <use xlink:href="#me470d8efab" x="639.313982" y="328.42" style="stroke: #000000; stroke-width: 0.5"/>
      </g>
     </g>
     <g id="line2d_42">
      <g>
       <use xlink:href="#mcf280cdcca" x="639.313982" y="3.6" style="stroke: #000000; stroke-width: 0.5"/>
      </g>
     </g>
    </g>
    <g id="xtick_22">
     <g id="line2d_43">
      <g>
       <use xlink:href="#me470d8efab" x="701.324891" y="328.42" style="stroke: #000000; stroke-width: 0.5"/>
      </g>
     </g>
     <g id="line2d_44">
      <g>
       <use xlink:href="#mcf280cdcca" x="701.324891" y="3.6" style="stroke: #000000; stroke-width: 0.5"/>
      </g>
     </g>
    </g>
   </g>
   <g id="matplotlib.axis_2">
    <g id="ytick_1">
     <g id="line2d_45">
      <defs>
       <path id="m82d4be11b2" d="M 0 0 
L 3 0 
" style="stroke: #000000; stroke-width: 0.5"/>
      </defs>
      <g>
       <use xlink:href="#m82d4be11b2" x="19.825" y="313.655455" style="stroke: #000000; stroke-width: 0.5"/>
      </g>
     </g>
     <g id="line2d_46">
      <defs>
       <path id="m7bd32fecf6" d="M 0 0 
L -3 0 
" style="stroke: #000000; stroke-width: 0.5"/>
      </defs>
      <g>
       <use xlink:href="#m7bd32fecf6" x="701.945" y="313.655455" style="stroke: #000000; stroke-width: 0.5"/>
      </g>
     </g>
     <g id="text_7">
      <!-- 0 -->
      <g transform="translate(9.9625 317.454673) scale(0.1 -0.1)">
       <use xlink:href="#DejaVuSerif-30"/>
      </g>
     </g>
    </g>
    <g id="ytick_2">
     <g id="line2d_47">
      <g>
       <use xlink:href="#m82d4be11b2" x="19.825" y="271.471039" style="stroke: #000000; stroke-width: 0.5"/>
      </g>
     </g>
     <g id="line2d_48">
      <g>
       <use xlink:href="#m7bd32fecf6" x="701.945" y="271.471039" style="stroke: #000000; stroke-width: 0.5"/>
      </g>
     </g>
     <g id="text_8">
      <!-- 2 -->
      <g transform="translate(9.9625 275.270258) scale(0.1 -0.1)">
       <use xlink:href="#DejaVuSerif-32"/>
      </g>
     </g>
    </g>
    <g id="ytick_3">
     <g id="line2d_49">
      <g>
       <use xlink:href="#m82d4be11b2" x="19.825" y="229.286623" style="stroke: #000000; stroke-width: 0.5"/>
      </g>
     </g>
     <g id="line2d_50">
      <g>
       <use xlink:href="#m7bd32fecf6" x="701.945" y="229.286623" style="stroke: #000000; stroke-width: 0.5"/>
      </g>
     </g>
     <g id="text_9">
      <!-- 4 -->
      <g transform="translate(9.9625 233.085842) scale(0.1 -0.1)">
       <use xlink:href="#DejaVuSerif-34"/>
      </g>
     </g>
    </g>
    <g id="ytick_4">
     <g id="line2d_51">
      <g>
       <use xlink:href="#m82d4be11b2" x="19.825" y="187.102208" style="stroke: #000000; stroke-width: 0.5"/>
      </g>
     </g>
     <g id="line2d_52">
      <g>
       <use xlink:href="#m7bd32fecf6" x="701.945" y="187.102208" style="stroke: #000000; stroke-width: 0.5"/>
      </g>
     </g>
     <g id="text_10">
      <!-- 6 -->
      <g transform="translate(9.9625 190.901427) scale(0.1 -0.1)">
       <use xlink:href="#DejaVuSerif-36"/>
      </g>
     </g>
    </g>
    <g id="ytick_5">
     <g id="line2d_53">
      <g>
       <use xlink:href="#m82d4be11b2" x="19.825" y="144.917792" style="stroke: #000000; stroke-width: 0.5"/>
      </g>
     </g>
     <g id="line2d_54">
      <g>
       <use xlink:href="#m7bd32fecf6" x="701.945" y="144.917792" style="stroke: #000000; stroke-width: 0.5"/>
      </g>
     </g>
     <g id="text_11">
      <!-- 8 -->
      <g transform="translate(9.9625 148.717011) scale(0.1 -0.1)">
       <use xlink:href="#DejaVuSerif-38"/>
      </g>
     </g>
    </g>
    <g id="ytick_6">
     <g id="line2d_55">
      <g>
       <use xlink:href="#m82d4be11b2" x="19.825" y="102.733377" style="stroke: #000000; stroke-width: 0.5"/>
      </g>
     </g>
     <g id="line2d_56">
      <g>
       <use xlink:href="#m7bd32fecf6" x="701.945" y="102.733377" style="stroke: #000000; stroke-width: 0.5"/>
      </g>
     </g>
     <g id="text_12">
      <!-- 10 -->
      <g transform="translate(3.6 106.532595) scale(0.1 -0.1)">
       <use xlink:href="#DejaVuSerif-31"/>
       <use xlink:href="#DejaVuSerif-30" x="63.623047"/>
      </g>
     </g>
    </g>
    <g id="ytick_7">
     <g id="line2d_57">
      <g>
       <use xlink:href="#m82d4be11b2" x="19.825" y="60.548961" style="stroke: #000000; stroke-width: 0.5"/>
      </g>
     </g>
     <g id="line2d_58">
      <g>
       <use xlink:href="#m7bd32fecf6" x="701.945" y="60.548961" style="stroke: #000000; stroke-width: 0.5"/>
      </g>
     </g>
     <g id="text_13">
      <!-- 12 -->
      <g transform="translate(3.6 64.34818) scale(0.1 -0.1)">
       <use xlink:href="#DejaVuSerif-31"/>
       <use xlink:href="#DejaVuSerif-32" x="63.623047"/>
      </g>
     </g>
    </g>
    <g id="ytick_8">
     <g id="line2d_59">
      <g>
       <use xlink:href="#m82d4be11b2" x="19.825" y="18.364545" style="stroke: #000000; stroke-width: 0.5"/>
      </g>
     </g>
     <g id="line2d_60">
      <g>
       <use xlink:href="#m7bd32fecf6" x="701.945" y="18.364545" style="stroke: #000000; stroke-width: 0.5"/>
      </g>
     </g>
     <g id="text_14">
      <!-- 14 -->
      <g transform="translate(3.6 22.163764) scale(0.1 -0.1)">
       <use xlink:href="#DejaVuSerif-31"/>
       <use xlink:href="#DejaVuSerif-34" x="63.623047"/>
      </g>
     </g>
    </g>
    <g id="ytick_9">
     <g id="line2d_61">
      <defs>
       <path id="m29f86de1bc" d="M 0 0 
L 1.5 0 
" style="stroke: #000000; stroke-width: 0.5"/>
      </defs>
      <g>
       <use xlink:href="#m29f86de1bc" x="19.825" y="324.201558" style="stroke: #000000; stroke-width: 0.5"/>
      </g>
     </g>
     <g id="line2d_62">
      <defs>
       <path id="m1d40795696" d="M 0 0 
L -1.5 0 
" style="stroke: #000000; stroke-width: 0.5"/>
      </defs>
      <g>
       <use xlink:href="#m1d40795696" x="701.945" y="324.201558" style="stroke: #000000; stroke-width: 0.5"/>
      </g>
     </g>
    </g>
    <g id="ytick_10">
     <g id="line2d_63">
      <g>
       <use xlink:href="#m29f86de1bc" x="19.825" y="303.109351" style="stroke: #000000; stroke-width: 0.5"/>
      </g>
     </g>
     <g id="line2d_64">
      <g>
       <use xlink:href="#m1d40795696" x="701.945" y="303.109351" style="stroke: #000000; stroke-width: 0.5"/>
      </g>
     </g>
    </g>
    <g id="ytick_11">
     <g id="line2d_65">
      <g>
       <use xlink:href="#m29f86de1bc" x="19.825" y="292.563247" style="stroke: #000000; stroke-width: 0.5"/>
      </g>
     </g>
     <g id="line2d_66">
      <g>
       <use xlink:href="#m1d40795696" x="701.945" y="292.563247" style="stroke: #000000; stroke-width: 0.5"/>
      </g>
     </g>
    </g>
    <g id="ytick_12">
     <g id="line2d_67">
      <g>
       <use xlink:href="#m29f86de1bc" x="19.825" y="282.017143" style="stroke: #000000; stroke-width: 0.5"/>
      </g>
     </g>
     <g id="line2d_68">
      <g>
       <use xlink:href="#m1d40795696" x="701.945" y="282.017143" style="stroke: #000000; stroke-width: 0.5"/>
      </g>
     </g>
    </g>
    <g id="ytick_13">
     <g id="line2d_69">
      <g>
       <use xlink:href="#m29f86de1bc" x="19.825" y="260.924935" style="stroke: #000000; stroke-width: 0.5"/>
      </g>
     </g>
     <g id="line2d_70">
      <g>
       <use xlink:href="#m1d40795696" x="701.945" y="260.924935" style="stroke: #000000; stroke-width: 0.5"/>
      </g>
     </g>
    </g>
    <g id="ytick_14">
     <g id="line2d_71">
      <g>
       <use xlink:href="#m29f86de1bc" x="19.825" y="250.378831" style="stroke: #000000; stroke-width: 0.5"/>
      </g>
     </g>
     <g id="line2d_72">
      <g>
       <use xlink:href="#m1d40795696" x="701.945" y="250.378831" style="stroke: #000000; stroke-width: 0.5"/>
      </g>
     </g>
    </g>
    <g id="ytick_15">
     <g id="line2d_73">
      <g>
       <use xlink:href="#m29f86de1bc" x="19.825" y="239.832727" style="stroke: #000000; stroke-width: 0.5"/>
      </g>
     </g>
     <g id="line2d_74">
      <g>
       <use xlink:href="#m1d40795696" x="701.945" y="239.832727" style="stroke: #000000; stroke-width: 0.5"/>
      </g>
     </g>
    </g>
    <g id="ytick_16">
     <g id="line2d_75">
      <g>
       <use xlink:href="#m29f86de1bc" x="19.825" y="218.740519" style="stroke: #000000; stroke-width: 0.5"/>
      </g>
     </g>
     <g id="line2d_76">
      <g>
       <use xlink:href="#m1d40795696" x="701.945" y="218.740519" style="stroke: #000000; stroke-width: 0.5"/>
      </g>
     </g>
    </g>
    <g id="ytick_17">
     <g id="line2d_77">
      <g>
       <use xlink:href="#m29f86de1bc" x="19.825" y="208.194416" style="stroke: #000000; stroke-width: 0.5"/>
      </g>
     </g>
     <g id="line2d_78">
      <g>
       <use xlink:href="#m1d40795696" x="701.945" y="208.194416" style="stroke: #000000; stroke-width: 0.5"/>
      </g>
     </g>
    </g>
    <g id="ytick_18">
     <g id="line2d_79">
      <g>
       <use xlink:href="#m29f86de1bc" x="19.825" y="197.648312" style="stroke: #000000; stroke-width: 0.5"/>
      </g>
     </g>
     <g id="line2d_80">
      <g>
       <use xlink:href="#m1d40795696" x="701.945" y="197.648312" style="stroke: #000000; stroke-width: 0.5"/>
      </g>
     </g>
    </g>
    <g id="ytick_19">
     <g id="line2d_81">
      <g>
       <use xlink:href="#m29f86de1bc" x="19.825" y="176.556104" style="stroke: #000000; stroke-width: 0.5"/>
      </g>
     </g>
     <g id="line2d_82">
      <g>
       <use xlink:href="#m1d40795696" x="701.945" y="176.556104" style="stroke: #000000; stroke-width: 0.5"/>
      </g>
     </g>
    </g>
    <g id="ytick_20">
     <g id="line2d_83">
      <g>
       <use xlink:href="#m29f86de1bc" x="19.825" y="166.01" style="stroke: #000000; stroke-width: 0.5"/>
      </g>
     </g>
     <g id="line2d_84">
      <g>
       <use xlink:href="#m1d40795696" x="701.945" y="166.01" style="stroke: #000000; stroke-width: 0.5"/>
      </g>
     </g>
    </g>
    <g id="ytick_21">
     <g id="line2d_85">
      <g>
       <use xlink:href="#m29f86de1bc" x="19.825" y="155.463896" style="stroke: #000000; stroke-width: 0.5"/>
      </g>
     </g>
     <g id="line2d_86">
      <g>
       <use xlink:href="#m1d40795696" x="701.945" y="155.463896" style="stroke: #000000; stroke-width: 0.5"/>
      </g>
     </g>
    </g>
    <g id="ytick_22">
     <g id="line2d_87">
      <g>
       <use xlink:href="#m29f86de1bc" x="19.825" y="134.371688" style="stroke: #000000; stroke-width: 0.5"/>
      </g>
     </g>
     <g id="line2d_88">
      <g>
       <use xlink:href="#m1d40795696" x="701.945" y="134.371688" style="stroke: #000000; stroke-width: 0.5"/>
      </g>
     </g>
    </g>
    <g id="ytick_23">
     <g id="line2d_89">
      <g>
       <use xlink:href="#m29f86de1bc" x="19.825" y="123.825584" style="stroke: #000000; stroke-width: 0.5"/>
      </g>
     </g>
     <g id="line2d_90">
      <g>
       <use xlink:href="#m1d40795696" x="701.945" y="123.825584" style="stroke: #000000; stroke-width: 0.5"/>
      </g>
     </g>
    </g>
    <g id="ytick_24">
     <g id="line2d_91">
      <g>
       <use xlink:href="#m29f86de1bc" x="19.825" y="113.279481" style="stroke: #000000; stroke-width: 0.5"/>
      </g>
     </g>
     <g id="line2d_92">
      <g>
       <use xlink:href="#m1d40795696" x="701.945" y="113.279481" style="stroke: #000000; stroke-width: 0.5"/>
      </g>
     </g>
    </g>
    <g id="ytick_25">
     <g id="line2d_93">
      <g>
       <use xlink:href="#m29f86de1bc" x="19.825" y="92.187273" style="stroke: #000000; stroke-width: 0.5"/>
      </g>
     </g>
     <g id="line2d_94">
      <g>
       <use xlink:href="#m1d40795696" x="701.945" y="92.187273" style="stroke: #000000; stroke-width: 0.5"/>
      </g>
     </g>
    </g>
    <g id="ytick_26">
     <g id="line2d_95">
      <g>
       <use xlink:href="#m29f86de1bc" x="19.825" y="81.641169" style="stroke: #000000; stroke-width: 0.5"/>
      </g>
     </g>
     <g id="line2d_96">
      <g>
       <use xlink:href="#m1d40795696" x="701.945" y="81.641169" style="stroke: #000000; stroke-width: 0.5"/>
      </g>
     </g>
    </g>
    <g id="ytick_27">
     <g id="line2d_97">
      <g>
       <use xlink:href="#m29f86de1bc" x="19.825" y="71.095065" style="stroke: #000000; stroke-width: 0.5"/>
      </g>
     </g>
     <g id="line2d_98">
      <g>
       <use xlink:href="#m1d40795696" x="701.945" y="71.095065" style="stroke: #000000; stroke-width: 0.5"/>
      </g>
     </g>
    </g>
    <g id="ytick_28">
     <g id="line2d_99">
      <g>
       <use xlink:href="#m29f86de1bc" x="19.825" y="50.002857" style="stroke: #000000; stroke-width: 0.5"/>
      </g>
     </g>
     <g id="line2d_100">
      <g>
       <use xlink:href="#m1d40795696" x="701.945" y="50.002857" style="stroke: #000000; stroke-width: 0.5"/>
      </g>
     </g>
    </g>
    <g id="ytick_29">
     <g id="line2d_101">
      <g>
       <use xlink:href="#m29f86de1bc" x="19.825" y="39.456753" style="stroke: #000000; stroke-width: 0.5"/>
      </g>
     </g>
     <g id="line2d_102">
      <g>
       <use xlink:href="#m1d40795696" x="701.945" y="39.456753" style="stroke: #000000; stroke-width: 0.5"/>
      </g>
     </g>
    </g>
    <g id="ytick_30">
     <g id="line2d_103">
      <g>
       <use xlink:href="#m29f86de1bc" x="19.825" y="28.910649" style="stroke: #000000; stroke-width: 0.5"/>
      </g>
     </g>
     <g id="line2d_104">
      <g>
       <use xlink:href="#m1d40795696" x="701.945" y="28.910649" style="stroke: #000000; stroke-width: 0.5"/>
      </g>
     </g>
    </g>
    <g id="ytick_31">
     <g id="line2d_105">
      <g>
       <use xlink:href="#m29f86de1bc" x="19.825" y="7.818442" style="stroke: #000000; stroke-width: 0.5"/>
      </g>
     </g>
     <g id="line2d_106">
      <g>
       <use xlink:href="#m1d40795696" x="701.945" y="7.818442" style="stroke: #000000; stroke-width: 0.5"/>
      </g>
     </g>
    </g>
   </g>
   <g id="line2d_107">
    <path d="M 50.830455 313.655455 
L 53.310891 313.655455 
L 53.931 271.471039 
L 55.171218 271.471039 
L 55.791327 208.194416 
L 57.651655 208.194416 
L 58.271764 166.01 
L 58.891873 229.286623 
L 60.132091 187.102208 
L 60.7522 144.917792 
L 61.992418 187.102208 
L 62.612527 166.01 
L 63.852745 250.378831 
L 64.472855 229.286623 
L 65.713073 144.917792 
L 66.333182 123.825584 
L 66.953291 123.825584 
L 68.813618 187.102208 
L 69.433727 166.01 
L 70.053836 208.194416 
L 70.673945 229.286623 
L 71.294055 187.102208 
L 71.914164 187.102208 
L 72.534273 123.825584 
L 73.774491 123.825584 
L 74.3946 187.102208 
L 75.014709 144.917792 
L 75.634818 166.01 
L 76.254927 123.825584 
L 77.495145 123.825584 
L 78.115255 187.102208 
L 78.735364 144.917792 
L 79.355473 187.102208 
L 79.975582 166.01 
L 81.2158 166.01 
L 81.835909 144.917792 
L 82.456018 102.733377 
L 83.076127 102.733377 
L 83.696236 144.917792 
L 84.316345 81.641169 
L 84.936455 144.917792 
L 86.176673 187.102208 
L 86.796782 187.102208 
L 87.416891 166.01 
L 88.657109 81.641169 
L 89.277218 144.917792 
L 89.897327 229.286623 
L 90.517436 229.286623 
L 91.137545 187.102208 
L 91.757655 187.102208 
L 92.997873 229.286623 
L 94.238091 229.286623 
L 94.8582 144.917792 
L 96.098418 187.102208 
L 96.718527 166.01 
L 97.338636 208.194416 
L 97.958745 229.286623 
L 99.819073 229.286623 
L 101.059291 187.102208 
L 101.6794 208.194416 
L 102.299509 187.102208 
L 102.919618 208.194416 
L 103.539727 208.194416 
L 104.779945 81.641169 
L 105.400055 102.733377 
L 106.020164 144.917792 
L 106.640273 166.01 
L 107.260382 81.641169 
L 107.880491 123.825584 
L 108.5006 144.917792 
L 109.120709 187.102208 
L 110.360927 187.102208 
L 110.981036 208.194416 
L 111.601145 208.194416 
L 112.221255 166.01 
L 112.841364 81.641169 
L 113.461473 39.456753 
L 114.081582 60.548961 
L 114.701691 166.01 
L 115.3218 208.194416 
L 115.941909 229.286623 
L 116.562018 187.102208 
L 117.802236 187.102208 
L 118.422345 144.917792 
L 119.042455 144.917792 
L 120.902782 208.194416 
L 121.522891 187.102208 
L 122.763109 229.286623 
L 124.623436 229.286623 
L 125.243545 271.471039 
L 125.863655 250.378831 
L 126.483764 208.194416 
L 127.103873 187.102208 
L 127.723982 208.194416 
L 128.344091 250.378831 
L 128.9642 271.471039 
L 129.584309 250.378831 
L 130.824527 292.563247 
L 131.444636 271.471039 
L 132.064745 229.286623 
L 133.304964 229.286623 
L 133.925073 144.917792 
L 134.545182 123.825584 
L 135.165291 81.641169 
L 135.7854 123.825584 
L 136.405509 187.102208 
L 137.025618 187.102208 
L 138.885945 250.378831 
L 139.506055 229.286623 
L 140.126164 250.378831 
L 140.746273 166.01 
L 141.366382 144.917792 
L 141.986491 81.641169 
L 143.226709 166.01 
L 143.846818 229.286623 
L 144.466927 208.194416 
L 145.087036 123.825584 
L 146.947364 123.825584 
L 147.567473 166.01 
L 149.4278 166.01 
L 150.047909 102.733377 
L 151.288127 187.102208 
L 151.908236 166.01 
L 152.528345 123.825584 
L 153.148455 166.01 
L 153.768564 187.102208 
L 154.388673 229.286623 
L 155.008782 187.102208 
L 155.628891 166.01 
L 156.249 123.825584 
L 157.489218 166.01 
L 158.109327 229.286623 
L 159.969655 166.01 
L 160.589764 123.825584 
L 161.209873 123.825584 
L 161.829982 39.456753 
L 162.450091 81.641169 
L 163.690309 208.194416 
L 164.310418 208.194416 
L 164.930527 187.102208 
L 165.550636 208.194416 
L 166.170745 208.194416 
L 166.790855 166.01 
L 167.410964 208.194416 
L 168.031073 208.194416 
L 168.651182 229.286623 
L 169.271291 229.286623 
L 169.8914 250.378831 
L 170.511509 187.102208 
L 171.131618 187.102208 
L 171.751727 208.194416 
L 172.371836 250.378831 
L 172.991945 229.286623 
L 173.612055 250.378831 
L 174.852273 208.194416 
L 175.472382 292.563247 
L 176.092491 229.286623 
L 176.7126 229.286623 
L 177.332709 166.01 
L 177.952818 208.194416 
L 178.572927 166.01 
L 179.193036 144.917792 
L 179.813145 144.917792 
L 180.433255 81.641169 
L 181.053364 123.825584 
L 181.673473 123.825584 
L 182.293582 187.102208 
L 182.913691 229.286623 
L 184.153909 187.102208 
L 184.774018 187.102208 
L 185.394127 144.917792 
L 186.014236 123.825584 
L 186.634345 250.378831 
L 187.874564 208.194416 
L 188.494673 102.733377 
L 189.114782 60.548961 
L 189.734891 60.548961 
L 190.355 102.733377 
L 190.975109 60.548961 
L 192.215327 187.102208 
L 194.075655 187.102208 
L 194.695764 166.01 
L 195.315873 123.825584 
L 195.935982 144.917792 
L 196.556091 187.102208 
L 197.1762 166.01 
L 197.796309 208.194416 
L 199.036527 250.378831 
L 200.276745 208.194416 
L 200.896855 229.286623 
L 201.516964 166.01 
L 202.137073 208.194416 
L 202.757182 166.01 
L 203.377291 60.548961 
L 203.9974 18.364545 
L 204.617509 60.548961 
L 205.237618 144.917792 
L 205.857727 123.825584 
L 206.477836 166.01 
L 207.097945 123.825584 
L 207.718055 123.825584 
L 208.338164 229.286623 
L 210.198491 166.01 
L 210.8186 166.01 
L 211.438709 187.102208 
L 212.678927 102.733377 
L 213.299036 123.825584 
L 213.919145 166.01 
L 215.159364 208.194416 
L 216.399582 208.194416 
L 217.019691 229.286623 
L 217.6398 187.102208 
L 218.259909 187.102208 
L 218.880018 208.194416 
L 220.740345 81.641169 
L 221.360455 123.825584 
L 221.980564 81.641169 
L 222.600673 123.825584 
L 223.220782 123.825584 
L 223.840891 144.917792 
L 225.081109 102.733377 
L 225.701218 123.825584 
L 226.321327 187.102208 
L 226.941436 229.286623 
L 227.561545 229.286623 
L 228.801764 144.917792 
L 229.421873 208.194416 
L 230.041982 166.01 
L 230.662091 208.194416 
L 231.2822 208.194416 
L 231.902309 187.102208 
L 232.522418 187.102208 
L 233.142527 123.825584 
L 233.762636 123.825584 
L 234.382745 187.102208 
L 235.622964 229.286623 
L 236.243073 166.01 
L 236.863182 166.01 
L 237.483291 187.102208 
L 238.1034 166.01 
L 238.723509 187.102208 
L 239.343618 187.102208 
L 239.963727 208.194416 
L 241.203945 166.01 
L 242.444164 166.01 
L 243.064273 187.102208 
L 243.684382 187.102208 
L 244.9246 102.733377 
L 245.544709 123.825584 
L 246.164818 102.733377 
L 247.405036 144.917792 
L 248.025145 123.825584 
L 248.645255 166.01 
L 249.265364 166.01 
L 249.885473 123.825584 
L 250.505582 102.733377 
L 251.125691 123.825584 
L 251.7458 208.194416 
L 252.365909 229.286623 
L 252.986018 144.917792 
L 253.606127 166.01 
L 254.226236 166.01 
L 254.846345 208.194416 
L 255.466455 187.102208 
L 256.086564 144.917792 
L 256.706673 144.917792 
L 257.326782 187.102208 
L 257.946891 144.917792 
L 258.567 166.01 
L 259.187109 229.286623 
L 259.807218 229.286623 
L 260.427327 187.102208 
L 261.047436 123.825584 
L 261.667545 123.825584 
L 262.287655 144.917792 
L 262.907764 187.102208 
L 263.527873 208.194416 
L 264.147982 187.102208 
L 264.768091 144.917792 
L 265.3882 144.917792 
L 266.008309 166.01 
L 266.628418 166.01 
L 267.868636 123.825584 
L 268.488745 144.917792 
L 269.108855 208.194416 
L 269.728964 187.102208 
L 270.349073 187.102208 
L 270.969182 208.194416 
L 272.829509 208.194416 
L 273.449618 166.01 
L 274.069727 166.01 
L 274.689836 123.825584 
L 275.309945 187.102208 
L 275.930055 229.286623 
L 276.550164 187.102208 
L 277.170273 229.286623 
L 278.410491 229.286623 
L 279.0306 166.01 
L 279.650709 208.194416 
L 280.890927 208.194416 
L 281.511036 144.917792 
L 282.131145 208.194416 
L 282.751255 166.01 
L 283.371364 187.102208 
L 283.991473 123.825584 
L 284.611582 144.917792 
L 285.231691 123.825584 
L 285.8518 187.102208 
L 286.471909 187.102208 
L 287.092018 229.286623 
L 287.712127 187.102208 
L 288.952345 187.102208 
L 289.572455 166.01 
L 290.812673 208.194416 
L 291.432782 187.102208 
L 292.052891 123.825584 
L 293.293109 123.825584 
L 293.913218 208.194416 
L 294.533327 250.378831 
L 295.153436 144.917792 
L 296.393655 187.102208 
L 297.013764 144.917792 
L 297.633873 123.825584 
L 298.253982 144.917792 
L 298.874091 208.194416 
L 299.4942 208.194416 
L 301.354527 271.471039 
L 301.974636 208.194416 
L 302.594745 166.01 
L 303.214855 187.102208 
L 303.834964 166.01 
L 304.455073 187.102208 
L 305.075182 102.733377 
L 305.695291 166.01 
L 306.3154 187.102208 
L 306.935509 166.01 
L 307.555618 102.733377 
L 308.175727 60.548961 
L 308.795836 123.825584 
L 309.415945 144.917792 
L 310.036055 144.917792 
L 310.656164 187.102208 
L 311.276273 187.102208 
L 311.896382 144.917792 
L 312.516491 123.825584 
L 313.1366 144.917792 
L 314.376818 144.917792 
L 314.996927 166.01 
L 315.617036 208.194416 
L 316.237145 144.917792 
L 316.857255 102.733377 
L 317.477364 39.456753 
L 318.097473 102.733377 
L 318.717582 81.641169 
L 319.337691 144.917792 
L 319.9578 187.102208 
L 321.818127 187.102208 
L 322.438236 229.286623 
L 323.058345 187.102208 
L 323.678455 166.01 
L 324.298564 123.825584 
L 324.918673 60.548961 
L 326.158891 144.917792 
L 326.779 123.825584 
L 327.399109 187.102208 
L 328.639327 229.286623 
L 329.259436 187.102208 
L 329.879545 166.01 
L 331.119764 208.194416 
L 331.739873 144.917792 
L 332.359982 144.917792 
L 332.980091 187.102208 
L 333.6002 102.733377 
L 334.220309 60.548961 
L 334.840418 144.917792 
L 335.460527 166.01 
L 336.080636 208.194416 
L 336.700745 208.194416 
L 337.320855 229.286623 
L 337.940964 144.917792 
L 338.561073 166.01 
L 339.181182 166.01 
L 339.801291 208.194416 
L 340.4214 208.194416 
L 341.041509 229.286623 
L 342.281727 102.733377 
L 344.142055 102.733377 
L 344.762164 81.641169 
L 345.382273 166.01 
L 346.002382 166.01 
L 346.622491 187.102208 
L 347.2426 187.102208 
L 347.862709 208.194416 
L 348.482818 187.102208 
L 349.102927 250.378831 
L 349.723036 271.471039 
L 350.963255 271.471039 
L 351.583364 292.563247 
L 352.203473 187.102208 
L 352.823582 144.917792 
L 353.443691 187.102208 
L 354.0638 60.548961 
L 354.683909 18.364545 
L 355.304018 81.641169 
L 355.924127 60.548961 
L 357.164345 60.548961 
L 357.784455 144.917792 
L 358.404564 208.194416 
L 359.024673 187.102208 
L 360.264891 60.548961 
L 360.885 102.733377 
L 362.125218 229.286623 
L 362.745327 229.286623 
L 363.985545 102.733377 
L 365.225764 144.917792 
L 365.845873 60.548961 
L 366.465982 123.825584 
L 367.086091 166.01 
L 367.7062 144.917792 
L 368.326309 166.01 
L 368.946418 123.825584 
L 369.566527 166.01 
L 370.186636 187.102208 
L 370.806745 144.917792 
L 371.426855 166.01 
L 372.046964 102.733377 
L 372.667073 102.733377 
L 373.287182 187.102208 
L 373.907291 187.102208 
L 374.5274 208.194416 
L 375.147509 123.825584 
L 375.767618 102.733377 
L 376.387727 39.456753 
L 377.007836 39.456753 
L 378.248055 81.641169 
L 378.868164 187.102208 
L 380.728491 187.102208 
L 381.3486 229.286623 
L 381.968709 208.194416 
L 382.588818 166.01 
L 383.208927 187.102208 
L 383.829036 229.286623 
L 384.449145 208.194416 
L 385.069255 250.378831 
L 385.689364 166.01 
L 386.309473 123.825584 
L 386.929582 123.825584 
L 387.549691 208.194416 
L 388.1698 229.286623 
L 388.789909 187.102208 
L 390.030127 187.102208 
L 390.650236 166.01 
L 391.270345 208.194416 
L 391.890455 229.286623 
L 392.510564 292.563247 
L 394.370891 166.01 
L 394.991 166.01 
L 396.231218 81.641169 
L 396.851327 81.641169 
L 397.471436 102.733377 
L 398.091545 208.194416 
L 398.711655 208.194416 
L 399.331764 271.471039 
L 400.571982 187.102208 
L 401.192091 166.01 
L 401.8122 208.194416 
L 402.432309 187.102208 
L 403.052418 271.471039 
L 403.672527 250.378831 
L 404.292636 166.01 
L 404.912745 123.825584 
L 406.152964 166.01 
L 408.6334 81.641169 
L 409.253509 144.917792 
L 409.873618 144.917792 
L 410.493727 166.01 
L 411.113836 166.01 
L 411.733945 102.733377 
L 412.354055 144.917792 
L 412.974164 102.733377 
L 414.834491 229.286623 
L 415.4546 102.733377 
L 416.074709 81.641169 
L 417.314927 81.641169 
L 417.935036 39.456753 
L 418.555145 39.456753 
L 419.175255 123.825584 
L 419.795364 187.102208 
L 420.415473 208.194416 
L 421.035582 250.378831 
L 422.895909 187.102208 
L 423.516018 229.286623 
L 424.136127 187.102208 
L 424.756236 187.102208 
L 425.996455 144.917792 
L 426.616564 250.378831 
L 427.856782 166.01 
L 428.476891 102.733377 
L 429.097 81.641169 
L 430.337218 81.641169 
L 430.957327 123.825584 
L 431.577436 102.733377 
L 432.817655 229.286623 
L 433.437764 250.378831 
L 435.298091 250.378831 
L 436.538309 166.01 
L 437.158418 187.102208 
L 437.778527 250.378831 
L 438.398636 229.286623 
L 440.258964 229.286623 
L 440.879073 187.102208 
L 441.499182 102.733377 
L 442.119291 144.917792 
L 442.7394 208.194416 
L 443.359509 229.286623 
L 443.979618 208.194416 
L 444.599727 271.471039 
L 445.219836 292.563247 
L 445.839945 229.286623 
L 446.460055 187.102208 
L 447.080164 102.733377 
L 447.700273 144.917792 
L 448.320382 166.01 
L 448.940491 166.01 
L 449.5606 187.102208 
L 450.800818 144.917792 
L 451.420927 166.01 
L 452.041036 166.01 
L 452.661145 187.102208 
L 453.281255 229.286623 
L 453.901364 208.194416 
L 454.521473 250.378831 
L 455.141582 229.286623 
L 457.001909 229.286623 
L 457.622018 187.102208 
L 458.242127 208.194416 
L 458.862236 187.102208 
L 459.482345 208.194416 
L 460.102455 250.378831 
L 461.962782 123.825584 
L 462.582891 166.01 
L 463.203 187.102208 
L 463.823109 187.102208 
L 464.443218 250.378831 
L 465.063327 250.378831 
L 465.683436 229.286623 
L 466.303545 229.286623 
L 466.923655 187.102208 
L 468.163873 187.102208 
L 468.783982 229.286623 
L 470.0242 229.286623 
L 470.644309 250.378831 
L 471.264418 229.286623 
L 471.884527 187.102208 
L 472.504636 102.733377 
L 473.124745 144.917792 
L 473.744855 144.917792 
L 474.364964 250.378831 
L 475.605182 123.825584 
L 476.225291 123.825584 
L 477.465509 166.01 
L 478.085618 229.286623 
L 478.705727 271.471039 
L 479.325836 271.471039 
L 479.945945 229.286623 
L 480.566055 229.286623 
L 481.186164 187.102208 
L 481.806273 187.102208 
L 482.426382 229.286623 
L 483.6666 102.733377 
L 484.286709 81.641169 
L 484.906818 123.825584 
L 485.526927 187.102208 
L 486.767145 144.917792 
L 488.007364 229.286623 
L 488.627473 229.286623 
L 489.247582 166.01 
L 489.867691 81.641169 
L 490.4878 60.548961 
L 491.107909 60.548961 
L 491.728018 123.825584 
L 492.348127 81.641169 
L 492.968236 123.825584 
L 493.588345 123.825584 
L 494.208455 81.641169 
L 494.828564 123.825584 
L 495.448673 144.917792 
L 496.068782 102.733377 
L 496.688891 144.917792 
L 497.929109 187.102208 
L 498.549218 166.01 
L 499.169327 187.102208 
L 499.789436 166.01 
L 500.409545 229.286623 
L 501.649764 229.286623 
L 502.269873 187.102208 
L 503.510091 144.917792 
L 504.1302 144.917792 
L 505.370418 229.286623 
L 505.990527 208.194416 
L 506.610636 208.194416 
L 507.230745 229.286623 
L 507.850855 208.194416 
L 508.470964 271.471039 
L 509.711182 187.102208 
L 510.331291 123.825584 
L 510.9514 123.825584 
L 511.571509 166.01 
L 512.811727 208.194416 
L 513.431836 208.194416 
L 514.051945 271.471039 
L 514.672055 187.102208 
L 515.912273 187.102208 
L 516.532382 144.917792 
L 517.152491 144.917792 
L 517.7726 208.194416 
L 518.392709 166.01 
L 519.012818 166.01 
L 520.253036 208.194416 
L 520.873145 250.378831 
L 521.493255 250.378831 
L 522.113364 229.286623 
L 522.733473 102.733377 
L 523.353582 102.733377 
L 524.5938 144.917792 
L 525.213909 187.102208 
L 526.454127 187.102208 
L 527.074236 229.286623 
L 527.694345 250.378831 
L 528.314455 208.194416 
L 528.934564 208.194416 
L 529.554673 102.733377 
L 530.174782 144.917792 
L 530.794891 102.733377 
L 531.415 144.917792 
L 532.035109 208.194416 
L 532.655218 187.102208 
L 533.275327 229.286623 
L 533.895436 208.194416 
L 534.515545 123.825584 
L 535.135655 208.194416 
L 536.375873 166.01 
L 537.616091 166.01 
L 538.2362 102.733377 
L 538.856309 166.01 
L 540.096527 166.01 
L 541.956855 102.733377 
L 542.576964 144.917792 
L 543.197073 166.01 
L 544.437291 250.378831 
L 545.0574 229.286623 
L 545.677509 250.378831 
L 546.297618 187.102208 
L 547.537836 144.917792 
L 548.157945 102.733377 
L 548.778055 166.01 
L 549.398164 144.917792 
L 550.018273 102.733377 
L 550.638382 102.733377 
L 551.8786 144.917792 
L 552.498709 187.102208 
L 553.118818 187.102208 
L 553.738927 166.01 
L 554.359036 123.825584 
L 554.979145 187.102208 
L 555.599255 187.102208 
L 556.219364 250.378831 
L 557.459582 208.194416 
L 558.079691 166.01 
L 558.6998 144.917792 
L 559.319909 208.194416 
L 559.940018 166.01 
L 560.560127 144.917792 
L 561.180236 208.194416 
L 561.800345 187.102208 
L 562.420455 271.471039 
L 563.040564 250.378831 
L 563.660673 271.471039 
L 564.900891 187.102208 
L 565.521 166.01 
L 566.141109 166.01 
L 566.761218 102.733377 
L 567.381327 102.733377 
L 568.001436 81.641169 
L 569.241655 81.641169 
L 569.861764 166.01 
L 570.481873 144.917792 
L 571.101982 166.01 
L 572.3422 166.01 
L 572.962309 123.825584 
L 574.822636 250.378831 
L 575.442745 187.102208 
L 576.062855 102.733377 
L 577.303073 60.548961 
L 577.923182 60.548961 
L 578.543291 166.01 
L 579.1634 187.102208 
L 579.783509 229.286623 
L 582.263945 229.286623 
L 583.504164 187.102208 
L 584.124273 102.733377 
L 584.744382 123.825584 
L 585.364491 123.825584 
L 585.9846 166.01 
L 586.604709 166.01 
L 587.844927 39.456753 
L 588.465036 81.641169 
L 589.085145 166.01 
L 589.705255 208.194416 
L 590.325364 229.286623 
L 591.565582 187.102208 
L 592.185691 81.641169 
L 592.8058 81.641169 
L 593.425909 123.825584 
L 594.046018 123.825584 
L 594.666127 208.194416 
L 595.286236 208.194416 
L 595.906345 229.286623 
L 596.526455 187.102208 
L 597.146564 187.102208 
L 597.766673 229.286623 
L 598.386782 208.194416 
L 599.006891 144.917792 
L 600.247109 144.917792 
L 600.867218 102.733377 
L 601.487327 102.733377 
L 602.107436 123.825584 
L 602.727545 102.733377 
L 603.967764 144.917792 
L 604.587873 208.194416 
L 605.207982 166.01 
L 607.068309 229.286623 
L 607.688418 271.471039 
L 608.308527 187.102208 
L 608.928636 187.102208 
L 609.548745 229.286623 
L 610.168855 187.102208 
L 610.788964 187.102208 
L 611.409073 166.01 
L 612.029182 187.102208 
L 612.649291 187.102208 
L 613.2694 250.378831 
L 613.889509 144.917792 
L 614.509618 123.825584 
L 615.129727 144.917792 
L 615.749836 250.378831 
L 616.990055 250.378831 
L 618.230273 123.825584 
L 618.850382 166.01 
L 619.470491 166.01 
L 620.710709 250.378831 
L 621.330818 208.194416 
L 621.950927 208.194416 
L 622.571036 166.01 
L 623.191145 166.01 
L 623.811255 208.194416 
L 624.431364 166.01 
L 625.671582 250.378831 
L 626.291691 250.378831 
L 627.531909 166.01 
L 628.152018 187.102208 
L 628.772127 144.917792 
L 629.392236 229.286623 
L 630.012345 144.917792 
L 630.632455 166.01 
L 631.252564 144.917792 
L 631.872673 208.194416 
L 632.492782 187.102208 
L 633.112891 187.102208 
L 633.733 144.917792 
L 634.353109 166.01 
L 635.593327 166.01 
L 636.213436 187.102208 
L 636.833545 166.01 
L 637.453655 166.01 
L 638.073764 144.917792 
L 639.934091 208.194416 
L 642.414527 208.194416 
L 643.034636 187.102208 
L 643.654745 144.917792 
L 644.274855 187.102208 
L 644.894964 81.641169 
L 645.515073 60.548961 
L 646.135182 18.364545 
L 646.755291 18.364545 
L 647.3754 81.641169 
L 647.995509 123.825584 
L 648.615618 144.917792 
L 649.235727 123.825584 
L 649.855836 123.825584 
L 650.475945 187.102208 
L 651.096055 166.01 
L 651.716164 187.102208 
L 652.336273 187.102208 
L 652.956382 144.917792 
L 653.576491 144.917792 
L 654.1966 187.102208 
L 654.816709 123.825584 
L 655.436818 123.825584 
L 656.056927 102.733377 
L 656.677036 144.917792 
L 657.297145 144.917792 
L 657.917255 187.102208 
L 658.537364 123.825584 
L 659.157473 144.917792 
L 659.777582 208.194416 
L 660.397691 208.194416 
L 661.0178 187.102208 
L 661.637909 187.102208 
L 662.258018 166.01 
L 662.878127 166.01 
L 663.498236 144.917792 
L 664.118345 250.378831 
L 664.738455 271.471039 
L 665.358564 250.378831 
L 665.978673 250.378831 
L 666.598782 229.286623 
L 667.218891 229.286623 
L 667.839 187.102208 
L 668.459109 166.01 
L 669.079218 187.102208 
L 669.699327 187.102208 
L 670.319436 229.286623 
L 670.939545 208.194416 
L 670.939545 208.194416 
" clip-path="url(#p6b3a625de6)" style="fill: none; stroke: #0c5da5; stroke-linecap: square"/>
   </g>
   <g id="patch_3">
    <path d="M 19.825 328.42 
L 19.825 3.6 
" style="fill: none; stroke: #000000; stroke-width: 0.5; stroke-linejoin: miter; stroke-linecap: square"/>
   </g>
   <g id="patch_4">
    <path d="M 701.945 328.42 
L 701.945 3.6 
" style="fill: none; stroke: #000000; stroke-width: 0.5; stroke-linejoin: miter; stroke-linecap: square"/>
   </g>
   <g id="patch_5">
    <path d="M 19.825 328.42 
L 701.945 328.42 
" style="fill: none; stroke: #000000; stroke-width: 0.5; stroke-linejoin: miter; stroke-linecap: square"/>
   </g>
   <g id="patch_6">
    <path d="M 19.825 3.6 
L 701.945 3.6 
" style="fill: none; stroke: #000000; stroke-width: 0.5; stroke-linejoin: miter; stroke-linecap: square"/>
   </g>
  </g>
 </g>
 <defs>
  <clipPath id="p6b3a625de6">
   <rect x="19.825" y="3.6" width="682.12" height="324.82"/>
  </clipPath>
 </defs>
</svg>
