<?xml version="1.0" encoding="utf-8" standalone="no"?>
<!DOCTYPE svg PUBLIC "-//W3C//DTD SVG 1.1//EN"
  "http://www.w3.org/Graphics/SVG/1.1/DTD/svg11.dtd">
<svg xmlns:xlink="http://www.w3.org/1999/xlink" width="705.545pt" height="345.198125pt" viewBox="0 0 705.545 345.198125" xmlns="http://www.w3.org/2000/svg" version="1.1">
 <metadata>
  <rdf:RDF xmlns:dc="http://purl.org/dc/elements/1.1/" xmlns:cc="http://creativecommons.org/ns#" xmlns:rdf="http://www.w3.org/1999/02/22-rdf-syntax-ns#">
   <cc:Work>
    <dc:type rdf:resource="http://purl.org/dc/dcmitype/StillImage"/>
    <dc:date>2023-07-06T23:23:53.503006</dc:date>
    <dc:format>image/svg+xml</dc:format>
    <dc:creator>
     <cc:Agent>
      <dc:title>Matplotlib v3.7.2, https://matplotlib.org/</dc:title>
     </cc:Agent>
    </dc:creator>
   </cc:Work>
  </rdf:RDF>
 </metadata>
 <defs>
  <style type="text/css">*{stroke-linejoin: round; stroke-linecap: butt}</style>
 </defs>
 <g id="figure_1">
  <g id="patch_1">
   <path d="M -0 345.198125 
L 705.545 345.198125 
L 705.545 0 
L -0 0 
z
" style="fill: #ffffff"/>
  </g>
  <g id="axes_1">
   <g id="patch_2">
    <path d="M 19.825 328.42 
L 701.945 328.42 
L 701.945 3.6 
L 19.825 3.6 
z
" style="fill: #ffffff"/>
   </g>
   <g id="matplotlib.axis_1">
    <g id="xtick_1">
     <g id="line2d_1">
      <defs>
       <path id="ma6387e9911" d="M 0 0 
L 0 -3 
" style="stroke: #000000; stroke-width: 0.5"/>
      </defs>
      <g>
       <use xlink:href="#ma6387e9911" x="50.210345" y="328.42" style="stroke: #000000; stroke-width: 0.5"/>
      </g>
     </g>
     <g id="line2d_2">
      <defs>
       <path id="m5923f24a9a" d="M 0 0 
L 0 3 
" style="stroke: #000000; stroke-width: 0.5"/>
      </defs>
      <g>
       <use xlink:href="#m5923f24a9a" x="50.210345" y="3.6" style="stroke: #000000; stroke-width: 0.5"/>
      </g>
     </g>
     <g id="text_1">
      <!-- 0 -->
      <g transform="translate(47.029095 339.518437) scale(0.1 -0.1)">
       <defs>
        <path id="DejaVuSerif-30" d="M 2034 219 
Q 2513 219 2750 744 
Q 2988 1269 2988 2328 
Q 2988 3391 2750 3916 
Q 2513 4441 2034 4441 
Q 1556 4441 1318 3916 
Q 1081 3391 1081 2328 
Q 1081 1269 1318 744 
Q 1556 219 2034 219 
z
M 2034 -91 
Q 1275 -91 848 546 
Q 422 1184 422 2328 
Q 422 3475 848 4112 
Q 1275 4750 2034 4750 
Q 2797 4750 3222 4112 
Q 3647 3475 3647 2328 
Q 3647 1184 3222 546 
Q 2797 -91 2034 -91 
z
" transform="scale(0.015625)"/>
       </defs>
       <use xlink:href="#DejaVuSerif-30"/>
      </g>
     </g>
    </g>
    <g id="xtick_2">
     <g id="line2d_3">
      <g>
       <use xlink:href="#ma6387e9911" x="174.232164" y="328.42" style="stroke: #000000; stroke-width: 0.5"/>
      </g>
     </g>
     <g id="line2d_4">
      <g>
       <use xlink:href="#m5923f24a9a" x="174.232164" y="3.6" style="stroke: #000000; stroke-width: 0.5"/>
      </g>
     </g>
     <g id="text_2">
      <!-- 200 -->
      <g transform="translate(164.688414 339.518437) scale(0.1 -0.1)">
       <defs>
        <path id="DejaVuSerif-32" d="M 819 3553 
L 469 3553 
L 469 4384 
Q 803 4563 1142 4656 
Q 1481 4750 1806 4750 
Q 2534 4750 2956 4397 
Q 3378 4044 3378 3438 
Q 3378 2753 2422 1800 
Q 2347 1728 2309 1691 
L 1131 513 
L 3078 513 
L 3078 1088 
L 3444 1088 
L 3444 0 
L 434 0 
L 434 341 
L 1850 1753 
Q 2319 2222 2519 2614 
Q 2719 3006 2719 3438 
Q 2719 3909 2473 4175 
Q 2228 4441 1797 4441 
Q 1350 4441 1106 4219 
Q 863 3997 819 3553 
z
" transform="scale(0.015625)"/>
       </defs>
       <use xlink:href="#DejaVuSerif-32"/>
       <use xlink:href="#DejaVuSerif-30" x="63.623047"/>
       <use xlink:href="#DejaVuSerif-30" x="127.246094"/>
      </g>
     </g>
    </g>
    <g id="xtick_3">
     <g id="line2d_5">
      <g>
       <use xlink:href="#ma6387e9911" x="298.253982" y="328.42" style="stroke: #000000; stroke-width: 0.5"/>
      </g>
     </g>
     <g id="line2d_6">
      <g>
       <use xlink:href="#m5923f24a9a" x="298.253982" y="3.6" style="stroke: #000000; stroke-width: 0.5"/>
      </g>
     </g>
     <g id="text_3">
      <!-- 400 -->
      <g transform="translate(288.710232 339.518437) scale(0.1 -0.1)">
       <defs>
        <path id="DejaVuSerif-34" d="M 2234 1581 
L 2234 4063 
L 641 1581 
L 2234 1581 
z
M 3609 0 
L 1484 0 
L 1484 331 
L 2234 331 
L 2234 1247 
L 197 1247 
L 197 1588 
L 2241 4750 
L 2859 4750 
L 2859 1581 
L 3750 1581 
L 3750 1247 
L 2859 1247 
L 2859 331 
L 3609 331 
L 3609 0 
z
" transform="scale(0.015625)"/>
       </defs>
       <use xlink:href="#DejaVuSerif-34"/>
       <use xlink:href="#DejaVuSerif-30" x="63.623047"/>
       <use xlink:href="#DejaVuSerif-30" x="127.246094"/>
      </g>
     </g>
    </g>
    <g id="xtick_4">
     <g id="line2d_7">
      <g>
       <use xlink:href="#ma6387e9911" x="422.2758" y="328.42" style="stroke: #000000; stroke-width: 0.5"/>
      </g>
     </g>
     <g id="line2d_8">
      <g>
       <use xlink:href="#m5923f24a9a" x="422.2758" y="3.6" style="stroke: #000000; stroke-width: 0.5"/>
      </g>
     </g>
     <g id="text_4">
      <!-- 600 -->
      <g transform="translate(412.73205 339.518437) scale(0.1 -0.1)">
       <defs>
        <path id="DejaVuSerif-36" d="M 2094 219 
Q 2534 219 2771 542 
Q 3009 866 3009 1472 
Q 3009 2078 2771 2401 
Q 2534 2725 2094 2725 
Q 1647 2725 1412 2412 
Q 1178 2100 1178 1509 
Q 1178 888 1415 553 
Q 1653 219 2094 219 
z
M 1075 2569 
Q 1288 2803 1556 2918 
Q 1825 3034 2163 3034 
Q 2859 3034 3264 2615 
Q 3669 2197 3669 1472 
Q 3669 763 3233 336 
Q 2797 -91 2069 -91 
Q 1278 -91 853 498 
Q 428 1088 428 2181 
Q 428 3406 931 4078 
Q 1434 4750 2350 4750 
Q 2597 4750 2869 4703 
Q 3141 4656 3425 4563 
L 3425 3794 
L 3072 3794 
Q 3034 4109 2831 4275 
Q 2628 4441 2284 4441 
Q 1678 4441 1381 3981 
Q 1084 3522 1075 2569 
z
" transform="scale(0.015625)"/>
       </defs>
       <use xlink:href="#DejaVuSerif-36"/>
       <use xlink:href="#DejaVuSerif-30" x="63.623047"/>
       <use xlink:href="#DejaVuSerif-30" x="127.246094"/>
      </g>
     </g>
    </g>
    <g id="xtick_5">
     <g id="line2d_9">
      <g>
       <use xlink:href="#ma6387e9911" x="546.297618" y="328.42" style="stroke: #000000; stroke-width: 0.5"/>
      </g>
     </g>
     <g id="line2d_10">
      <g>
       <use xlink:href="#m5923f24a9a" x="546.297618" y="3.6" style="stroke: #000000; stroke-width: 0.5"/>
      </g>
     </g>
     <g id="text_5">
      <!-- 800 -->
      <g transform="translate(536.753868 339.518437) scale(0.1 -0.1)">
       <defs>
        <path id="DejaVuSerif-38" d="M 2981 1275 
Q 2981 1775 2732 2051 
Q 2484 2328 2034 2328 
Q 1584 2328 1336 2051 
Q 1088 1775 1088 1275 
Q 1088 772 1336 495 
Q 1584 219 2034 219 
Q 2484 219 2732 495 
Q 2981 772 2981 1275 
z
M 2853 3541 
Q 2853 3966 2637 4203 
Q 2422 4441 2034 4441 
Q 1650 4441 1433 4203 
Q 1216 3966 1216 3541 
Q 1216 3113 1433 2875 
Q 1650 2638 2034 2638 
Q 2422 2638 2637 2875 
Q 2853 3113 2853 3541 
z
M 2516 2484 
Q 3047 2413 3344 2092 
Q 3641 1772 3641 1275 
Q 3641 619 3225 264 
Q 2809 -91 2034 -91 
Q 1263 -91 845 264 
Q 428 619 428 1275 
Q 428 1772 725 2092 
Q 1022 2413 1556 2484 
Q 1084 2569 832 2842 
Q 581 3116 581 3541 
Q 581 4103 968 4426 
Q 1356 4750 2034 4750 
Q 2713 4750 3100 4426 
Q 3488 4103 3488 3541 
Q 3488 3116 3236 2842 
Q 2984 2569 2516 2484 
z
" transform="scale(0.015625)"/>
       </defs>
       <use xlink:href="#DejaVuSerif-38"/>
       <use xlink:href="#DejaVuSerif-30" x="63.623047"/>
       <use xlink:href="#DejaVuSerif-30" x="127.246094"/>
      </g>
     </g>
    </g>
    <g id="xtick_6">
     <g id="line2d_11">
      <g>
       <use xlink:href="#ma6387e9911" x="670.319436" y="328.42" style="stroke: #000000; stroke-width: 0.5"/>
      </g>
     </g>
     <g id="line2d_12">
      <g>
       <use xlink:href="#m5923f24a9a" x="670.319436" y="3.6" style="stroke: #000000; stroke-width: 0.5"/>
      </g>
     </g>
     <g id="text_6">
      <!-- 1000 -->
      <g transform="translate(657.594436 339.518437) scale(0.1 -0.1)">
       <defs>
        <path id="DejaVuSerif-31" d="M 909 0 
L 909 331 
L 1722 331 
L 1722 4213 
L 781 3603 
L 781 4013 
L 1919 4750 
L 2350 4750 
L 2350 331 
L 3163 331 
L 3163 0 
L 909 0 
z
" transform="scale(0.015625)"/>
       </defs>
       <use xlink:href="#DejaVuSerif-31"/>
       <use xlink:href="#DejaVuSerif-30" x="63.623047"/>
       <use xlink:href="#DejaVuSerif-30" x="127.246094"/>
       <use xlink:href="#DejaVuSerif-30" x="190.869141"/>
      </g>
     </g>
    </g>
    <g id="xtick_7">
     <g id="line2d_13">
      <defs>
       <path id="mea6f3df41f" d="M 0 0 
L 0 -1.5 
" style="stroke: #000000; stroke-width: 0.5"/>
      </defs>
      <g>
       <use xlink:href="#mea6f3df41f" x="81.2158" y="328.42" style="stroke: #000000; stroke-width: 0.5"/>
      </g>
     </g>
     <g id="line2d_14">
      <defs>
       <path id="m6d530a3bc1" d="M 0 0 
L 0 1.5 
" style="stroke: #000000; stroke-width: 0.5"/>
      </defs>
      <g>
       <use xlink:href="#m6d530a3bc1" x="81.2158" y="3.6" style="stroke: #000000; stroke-width: 0.5"/>
      </g>
     </g>
    </g>
    <g id="xtick_8">
     <g id="line2d_15">
      <g>
       <use xlink:href="#mea6f3df41f" x="112.221255" y="328.42" style="stroke: #000000; stroke-width: 0.5"/>
      </g>
     </g>
     <g id="line2d_16">
      <g>
       <use xlink:href="#m6d530a3bc1" x="112.221255" y="3.6" style="stroke: #000000; stroke-width: 0.5"/>
      </g>
     </g>
    </g>
    <g id="xtick_9">
     <g id="line2d_17">
      <g>
       <use xlink:href="#mea6f3df41f" x="143.226709" y="328.42" style="stroke: #000000; stroke-width: 0.5"/>
      </g>
     </g>
     <g id="line2d_18">
      <g>
       <use xlink:href="#m6d530a3bc1" x="143.226709" y="3.6" style="stroke: #000000; stroke-width: 0.5"/>
      </g>
     </g>
    </g>
    <g id="xtick_10">
     <g id="line2d_19">
      <g>
       <use xlink:href="#mea6f3df41f" x="205.237618" y="328.42" style="stroke: #000000; stroke-width: 0.5"/>
      </g>
     </g>
     <g id="line2d_20">
      <g>
       <use xlink:href="#m6d530a3bc1" x="205.237618" y="3.6" style="stroke: #000000; stroke-width: 0.5"/>
      </g>
     </g>
    </g>
    <g id="xtick_11">
     <g id="line2d_21">
      <g>
       <use xlink:href="#mea6f3df41f" x="236.243073" y="328.42" style="stroke: #000000; stroke-width: 0.5"/>
      </g>
     </g>
     <g id="line2d_22">
      <g>
       <use xlink:href="#m6d530a3bc1" x="236.243073" y="3.6" style="stroke: #000000; stroke-width: 0.5"/>
      </g>
     </g>
    </g>
    <g id="xtick_12">
     <g id="line2d_23">
      <g>
       <use xlink:href="#mea6f3df41f" x="267.248527" y="328.42" style="stroke: #000000; stroke-width: 0.5"/>
      </g>
     </g>
     <g id="line2d_24">
      <g>
       <use xlink:href="#m6d530a3bc1" x="267.248527" y="3.6" style="stroke: #000000; stroke-width: 0.5"/>
      </g>
     </g>
    </g>
    <g id="xtick_13">
     <g id="line2d_25">
      <g>
       <use xlink:href="#mea6f3df41f" x="329.259436" y="328.42" style="stroke: #000000; stroke-width: 0.5"/>
      </g>
     </g>
     <g id="line2d_26">
      <g>
       <use xlink:href="#m6d530a3bc1" x="329.259436" y="3.6" style="stroke: #000000; stroke-width: 0.5"/>
      </g>
     </g>
    </g>
    <g id="xtick_14">
     <g id="line2d_27">
      <g>
       <use xlink:href="#mea6f3df41f" x="360.264891" y="328.42" style="stroke: #000000; stroke-width: 0.5"/>
      </g>
     </g>
     <g id="line2d_28">
      <g>
       <use xlink:href="#m6d530a3bc1" x="360.264891" y="3.6" style="stroke: #000000; stroke-width: 0.5"/>
      </g>
     </g>
    </g>
    <g id="xtick_15">
     <g id="line2d_29">
      <g>
       <use xlink:href="#mea6f3df41f" x="391.270345" y="328.42" style="stroke: #000000; stroke-width: 0.5"/>
      </g>
     </g>
     <g id="line2d_30">
      <g>
       <use xlink:href="#m6d530a3bc1" x="391.270345" y="3.6" style="stroke: #000000; stroke-width: 0.5"/>
      </g>
     </g>
    </g>
    <g id="xtick_16">
     <g id="line2d_31">
      <g>
       <use xlink:href="#mea6f3df41f" x="453.281255" y="328.42" style="stroke: #000000; stroke-width: 0.5"/>
      </g>
     </g>
     <g id="line2d_32">
      <g>
       <use xlink:href="#m6d530a3bc1" x="453.281255" y="3.6" style="stroke: #000000; stroke-width: 0.5"/>
      </g>
     </g>
    </g>
    <g id="xtick_17">
     <g id="line2d_33">
      <g>
       <use xlink:href="#mea6f3df41f" x="484.286709" y="328.42" style="stroke: #000000; stroke-width: 0.5"/>
      </g>
     </g>
     <g id="line2d_34">
      <g>
       <use xlink:href="#m6d530a3bc1" x="484.286709" y="3.6" style="stroke: #000000; stroke-width: 0.5"/>
      </g>
     </g>
    </g>
    <g id="xtick_18">
     <g id="line2d_35">
      <g>
       <use xlink:href="#mea6f3df41f" x="515.292164" y="328.42" style="stroke: #000000; stroke-width: 0.5"/>
      </g>
     </g>
     <g id="line2d_36">
      <g>
       <use xlink:href="#m6d530a3bc1" x="515.292164" y="3.6" style="stroke: #000000; stroke-width: 0.5"/>
      </g>
     </g>
    </g>
    <g id="xtick_19">
     <g id="line2d_37">
      <g>
       <use xlink:href="#mea6f3df41f" x="577.303073" y="328.42" style="stroke: #000000; stroke-width: 0.5"/>
      </g>
     </g>
     <g id="line2d_38">
      <g>
       <use xlink:href="#m6d530a3bc1" x="577.303073" y="3.6" style="stroke: #000000; stroke-width: 0.5"/>
      </g>
     </g>
    </g>
    <g id="xtick_20">
     <g id="line2d_39">
      <g>
       <use xlink:href="#mea6f3df41f" x="608.308527" y="328.42" style="stroke: #000000; stroke-width: 0.5"/>
      </g>
     </g>
     <g id="line2d_40">
      <g>
       <use xlink:href="#m6d530a3bc1" x="608.308527" y="3.6" style="stroke: #000000; stroke-width: 0.5"/>
      </g>
     </g>
    </g>
    <g id="xtick_21">
     <g id="line2d_41">
      <g>
       <use xlink:href="#mea6f3df41f" x="639.313982" y="328.42" style="stroke: #000000; stroke-width: 0.5"/>
      </g>
     </g>
     <g id="line2d_42">
      <g>
       <use xlink:href="#m6d530a3bc1" x="639.313982" y="3.6" style="stroke: #000000; stroke-width: 0.5"/>
      </g>
     </g>
    </g>
    <g id="xtick_22">
     <g id="line2d_43">
      <g>
       <use xlink:href="#mea6f3df41f" x="701.324891" y="328.42" style="stroke: #000000; stroke-width: 0.5"/>
      </g>
     </g>
     <g id="line2d_44">
      <g>
       <use xlink:href="#m6d530a3bc1" x="701.324891" y="3.6" style="stroke: #000000; stroke-width: 0.5"/>
      </g>
     </g>
    </g>
   </g>
   <g id="matplotlib.axis_2">
    <g id="ytick_1">
     <g id="line2d_45">
      <defs>
       <path id="me18e45bf4b" d="M 0 0 
L 3 0 
" style="stroke: #000000; stroke-width: 0.5"/>
      </defs>
      <g>
       <use xlink:href="#me18e45bf4b" x="19.825" y="313.655455" style="stroke: #000000; stroke-width: 0.5"/>
      </g>
     </g>
     <g id="line2d_46">
      <defs>
       <path id="mb677ca9a32" d="M 0 0 
L -3 0 
" style="stroke: #000000; stroke-width: 0.5"/>
      </defs>
      <g>
       <use xlink:href="#mb677ca9a32" x="701.945" y="313.655455" style="stroke: #000000; stroke-width: 0.5"/>
      </g>
     </g>
     <g id="text_7">
      <!-- 0 -->
      <g transform="translate(9.9625 317.454673) scale(0.1 -0.1)">
       <use xlink:href="#DejaVuSerif-30"/>
      </g>
     </g>
    </g>
    <g id="ytick_2">
     <g id="line2d_47">
      <g>
       <use xlink:href="#me18e45bf4b" x="19.825" y="276.744091" style="stroke: #000000; stroke-width: 0.5"/>
      </g>
     </g>
     <g id="line2d_48">
      <g>
       <use xlink:href="#mb677ca9a32" x="701.945" y="276.744091" style="stroke: #000000; stroke-width: 0.5"/>
      </g>
     </g>
     <g id="text_8">
      <!-- 2 -->
      <g transform="translate(9.9625 280.54331) scale(0.1 -0.1)">
       <use xlink:href="#DejaVuSerif-32"/>
      </g>
     </g>
    </g>
    <g id="ytick_3">
     <g id="line2d_49">
      <g>
       <use xlink:href="#me18e45bf4b" x="19.825" y="239.832727" style="stroke: #000000; stroke-width: 0.5"/>
      </g>
     </g>
     <g id="line2d_50">
      <g>
       <use xlink:href="#mb677ca9a32" x="701.945" y="239.832727" style="stroke: #000000; stroke-width: 0.5"/>
      </g>
     </g>
     <g id="text_9">
      <!-- 4 -->
      <g transform="translate(9.9625 243.631946) scale(0.1 -0.1)">
       <use xlink:href="#DejaVuSerif-34"/>
      </g>
     </g>
    </g>
    <g id="ytick_4">
     <g id="line2d_51">
      <g>
       <use xlink:href="#me18e45bf4b" x="19.825" y="202.921364" style="stroke: #000000; stroke-width: 0.5"/>
      </g>
     </g>
     <g id="line2d_52">
      <g>
       <use xlink:href="#mb677ca9a32" x="701.945" y="202.921364" style="stroke: #000000; stroke-width: 0.5"/>
      </g>
     </g>
     <g id="text_10">
      <!-- 6 -->
      <g transform="translate(9.9625 206.720582) scale(0.1 -0.1)">
       <use xlink:href="#DejaVuSerif-36"/>
      </g>
     </g>
    </g>
    <g id="ytick_5">
     <g id="line2d_53">
      <g>
       <use xlink:href="#me18e45bf4b" x="19.825" y="166.01" style="stroke: #000000; stroke-width: 0.5"/>
      </g>
     </g>
     <g id="line2d_54">
      <g>
       <use xlink:href="#mb677ca9a32" x="701.945" y="166.01" style="stroke: #000000; stroke-width: 0.5"/>
      </g>
     </g>
     <g id="text_11">
      <!-- 8 -->
      <g transform="translate(9.9625 169.809219) scale(0.1 -0.1)">
       <use xlink:href="#DejaVuSerif-38"/>
      </g>
     </g>
    </g>
    <g id="ytick_6">
     <g id="line2d_55">
      <g>
       <use xlink:href="#me18e45bf4b" x="19.825" y="129.098636" style="stroke: #000000; stroke-width: 0.5"/>
      </g>
     </g>
     <g id="line2d_56">
      <g>
       <use xlink:href="#mb677ca9a32" x="701.945" y="129.098636" style="stroke: #000000; stroke-width: 0.5"/>
      </g>
     </g>
     <g id="text_12">
      <!-- 10 -->
      <g transform="translate(3.6 132.897855) scale(0.1 -0.1)">
       <use xlink:href="#DejaVuSerif-31"/>
       <use xlink:href="#DejaVuSerif-30" x="63.623047"/>
      </g>
     </g>
    </g>
    <g id="ytick_7">
     <g id="line2d_57">
      <g>
       <use xlink:href="#me18e45bf4b" x="19.825" y="92.187273" style="stroke: #000000; stroke-width: 0.5"/>
      </g>
     </g>
     <g id="line2d_58">
      <g>
       <use xlink:href="#mb677ca9a32" x="701.945" y="92.187273" style="stroke: #000000; stroke-width: 0.5"/>
      </g>
     </g>
     <g id="text_13">
      <!-- 12 -->
      <g transform="translate(3.6 95.986491) scale(0.1 -0.1)">
       <use xlink:href="#DejaVuSerif-31"/>
       <use xlink:href="#DejaVuSerif-32" x="63.623047"/>
      </g>
     </g>
    </g>
    <g id="ytick_8">
     <g id="line2d_59">
      <g>
       <use xlink:href="#me18e45bf4b" x="19.825" y="55.275909" style="stroke: #000000; stroke-width: 0.5"/>
      </g>
     </g>
     <g id="line2d_60">
      <g>
       <use xlink:href="#mb677ca9a32" x="701.945" y="55.275909" style="stroke: #000000; stroke-width: 0.5"/>
      </g>
     </g>
     <g id="text_14">
      <!-- 14 -->
      <g transform="translate(3.6 59.075128) scale(0.1 -0.1)">
       <use xlink:href="#DejaVuSerif-31"/>
       <use xlink:href="#DejaVuSerif-34" x="63.623047"/>
      </g>
     </g>
    </g>
    <g id="ytick_9">
     <g id="line2d_61">
      <g>
       <use xlink:href="#me18e45bf4b" x="19.825" y="18.364545" style="stroke: #000000; stroke-width: 0.5"/>
      </g>
     </g>
     <g id="line2d_62">
      <g>
       <use xlink:href="#mb677ca9a32" x="701.945" y="18.364545" style="stroke: #000000; stroke-width: 0.5"/>
      </g>
     </g>
     <g id="text_15">
      <!-- 16 -->
      <g transform="translate(3.6 22.163764) scale(0.1 -0.1)">
       <use xlink:href="#DejaVuSerif-31"/>
       <use xlink:href="#DejaVuSerif-36" x="63.623047"/>
      </g>
     </g>
    </g>
    <g id="ytick_10">
     <g id="line2d_63">
      <defs>
       <path id="m054b3bc6a9" d="M 0 0 
L 1.5 0 
" style="stroke: #000000; stroke-width: 0.5"/>
      </defs>
      <g>
       <use xlink:href="#m054b3bc6a9" x="19.825" y="322.883295" style="stroke: #000000; stroke-width: 0.5"/>
      </g>
     </g>
     <g id="line2d_64">
      <defs>
       <path id="m53849ff539" d="M 0 0 
L -1.5 0 
" style="stroke: #000000; stroke-width: 0.5"/>
      </defs>
      <g>
       <use xlink:href="#m53849ff539" x="701.945" y="322.883295" style="stroke: #000000; stroke-width: 0.5"/>
      </g>
     </g>
    </g>
    <g id="ytick_11">
     <g id="line2d_65">
      <g>
       <use xlink:href="#m054b3bc6a9" x="19.825" y="304.427614" style="stroke: #000000; stroke-width: 0.5"/>
      </g>
     </g>
     <g id="line2d_66">
      <g>
       <use xlink:href="#m53849ff539" x="701.945" y="304.427614" style="stroke: #000000; stroke-width: 0.5"/>
      </g>
     </g>
    </g>
    <g id="ytick_12">
     <g id="line2d_67">
      <g>
       <use xlink:href="#m054b3bc6a9" x="19.825" y="295.199773" style="stroke: #000000; stroke-width: 0.5"/>
      </g>
     </g>
     <g id="line2d_68">
      <g>
       <use xlink:href="#m53849ff539" x="701.945" y="295.199773" style="stroke: #000000; stroke-width: 0.5"/>
      </g>
     </g>
    </g>
    <g id="ytick_13">
     <g id="line2d_69">
      <g>
       <use xlink:href="#m054b3bc6a9" x="19.825" y="285.971932" style="stroke: #000000; stroke-width: 0.5"/>
      </g>
     </g>
     <g id="line2d_70">
      <g>
       <use xlink:href="#m53849ff539" x="701.945" y="285.971932" style="stroke: #000000; stroke-width: 0.5"/>
      </g>
     </g>
    </g>
    <g id="ytick_14">
     <g id="line2d_71">
      <g>
       <use xlink:href="#m054b3bc6a9" x="19.825" y="267.51625" style="stroke: #000000; stroke-width: 0.5"/>
      </g>
     </g>
     <g id="line2d_72">
      <g>
       <use xlink:href="#m53849ff539" x="701.945" y="267.51625" style="stroke: #000000; stroke-width: 0.5"/>
      </g>
     </g>
    </g>
    <g id="ytick_15">
     <g id="line2d_73">
      <g>
       <use xlink:href="#m054b3bc6a9" x="19.825" y="258.288409" style="stroke: #000000; stroke-width: 0.5"/>
      </g>
     </g>
     <g id="line2d_74">
      <g>
       <use xlink:href="#m53849ff539" x="701.945" y="258.288409" style="stroke: #000000; stroke-width: 0.5"/>
      </g>
     </g>
    </g>
    <g id="ytick_16">
     <g id="line2d_75">
      <g>
       <use xlink:href="#m054b3bc6a9" x="19.825" y="249.060568" style="stroke: #000000; stroke-width: 0.5"/>
      </g>
     </g>
     <g id="line2d_76">
      <g>
       <use xlink:href="#m53849ff539" x="701.945" y="249.060568" style="stroke: #000000; stroke-width: 0.5"/>
      </g>
     </g>
    </g>
    <g id="ytick_17">
     <g id="line2d_77">
      <g>
       <use xlink:href="#m054b3bc6a9" x="19.825" y="230.604886" style="stroke: #000000; stroke-width: 0.5"/>
      </g>
     </g>
     <g id="line2d_78">
      <g>
       <use xlink:href="#m53849ff539" x="701.945" y="230.604886" style="stroke: #000000; stroke-width: 0.5"/>
      </g>
     </g>
    </g>
    <g id="ytick_18">
     <g id="line2d_79">
      <g>
       <use xlink:href="#m054b3bc6a9" x="19.825" y="221.377045" style="stroke: #000000; stroke-width: 0.5"/>
      </g>
     </g>
     <g id="line2d_80">
      <g>
       <use xlink:href="#m53849ff539" x="701.945" y="221.377045" style="stroke: #000000; stroke-width: 0.5"/>
      </g>
     </g>
    </g>
    <g id="ytick_19">
     <g id="line2d_81">
      <g>
       <use xlink:href="#m054b3bc6a9" x="19.825" y="212.149205" style="stroke: #000000; stroke-width: 0.5"/>
      </g>
     </g>
     <g id="line2d_82">
      <g>
       <use xlink:href="#m53849ff539" x="701.945" y="212.149205" style="stroke: #000000; stroke-width: 0.5"/>
      </g>
     </g>
    </g>
    <g id="ytick_20">
     <g id="line2d_83">
      <g>
       <use xlink:href="#m054b3bc6a9" x="19.825" y="193.693523" style="stroke: #000000; stroke-width: 0.5"/>
      </g>
     </g>
     <g id="line2d_84">
      <g>
       <use xlink:href="#m53849ff539" x="701.945" y="193.693523" style="stroke: #000000; stroke-width: 0.5"/>
      </g>
     </g>
    </g>
    <g id="ytick_21">
     <g id="line2d_85">
      <g>
       <use xlink:href="#m054b3bc6a9" x="19.825" y="184.465682" style="stroke: #000000; stroke-width: 0.5"/>
      </g>
     </g>
     <g id="line2d_86">
      <g>
       <use xlink:href="#m53849ff539" x="701.945" y="184.465682" style="stroke: #000000; stroke-width: 0.5"/>
      </g>
     </g>
    </g>
    <g id="ytick_22">
     <g id="line2d_87">
      <g>
       <use xlink:href="#m054b3bc6a9" x="19.825" y="175.237841" style="stroke: #000000; stroke-width: 0.5"/>
      </g>
     </g>
     <g id="line2d_88">
      <g>
       <use xlink:href="#m53849ff539" x="701.945" y="175.237841" style="stroke: #000000; stroke-width: 0.5"/>
      </g>
     </g>
    </g>
    <g id="ytick_23">
     <g id="line2d_89">
      <g>
       <use xlink:href="#m054b3bc6a9" x="19.825" y="156.782159" style="stroke: #000000; stroke-width: 0.5"/>
      </g>
     </g>
     <g id="line2d_90">
      <g>
       <use xlink:href="#m53849ff539" x="701.945" y="156.782159" style="stroke: #000000; stroke-width: 0.5"/>
      </g>
     </g>
    </g>
    <g id="ytick_24">
     <g id="line2d_91">
      <g>
       <use xlink:href="#m054b3bc6a9" x="19.825" y="147.554318" style="stroke: #000000; stroke-width: 0.5"/>
      </g>
     </g>
     <g id="line2d_92">
      <g>
       <use xlink:href="#m53849ff539" x="701.945" y="147.554318" style="stroke: #000000; stroke-width: 0.5"/>
      </g>
     </g>
    </g>
    <g id="ytick_25">
     <g id="line2d_93">
      <g>
       <use xlink:href="#m054b3bc6a9" x="19.825" y="138.326477" style="stroke: #000000; stroke-width: 0.5"/>
      </g>
     </g>
     <g id="line2d_94">
      <g>
       <use xlink:href="#m53849ff539" x="701.945" y="138.326477" style="stroke: #000000; stroke-width: 0.5"/>
      </g>
     </g>
    </g>
    <g id="ytick_26">
     <g id="line2d_95">
      <g>
       <use xlink:href="#m054b3bc6a9" x="19.825" y="119.870795" style="stroke: #000000; stroke-width: 0.5"/>
      </g>
     </g>
     <g id="line2d_96">
      <g>
       <use xlink:href="#m53849ff539" x="701.945" y="119.870795" style="stroke: #000000; stroke-width: 0.5"/>
      </g>
     </g>
    </g>
    <g id="ytick_27">
     <g id="line2d_97">
      <g>
       <use xlink:href="#m054b3bc6a9" x="19.825" y="110.642955" style="stroke: #000000; stroke-width: 0.5"/>
      </g>
     </g>
     <g id="line2d_98">
      <g>
       <use xlink:href="#m53849ff539" x="701.945" y="110.642955" style="stroke: #000000; stroke-width: 0.5"/>
      </g>
     </g>
    </g>
    <g id="ytick_28">
     <g id="line2d_99">
      <g>
       <use xlink:href="#m054b3bc6a9" x="19.825" y="101.415114" style="stroke: #000000; stroke-width: 0.5"/>
      </g>
     </g>
     <g id="line2d_100">
      <g>
       <use xlink:href="#m53849ff539" x="701.945" y="101.415114" style="stroke: #000000; stroke-width: 0.5"/>
      </g>
     </g>
    </g>
    <g id="ytick_29">
     <g id="line2d_101">
      <g>
       <use xlink:href="#m054b3bc6a9" x="19.825" y="82.959432" style="stroke: #000000; stroke-width: 0.5"/>
      </g>
     </g>
     <g id="line2d_102">
      <g>
       <use xlink:href="#m53849ff539" x="701.945" y="82.959432" style="stroke: #000000; stroke-width: 0.5"/>
      </g>
     </g>
    </g>
    <g id="ytick_30">
     <g id="line2d_103">
      <g>
       <use xlink:href="#m054b3bc6a9" x="19.825" y="73.731591" style="stroke: #000000; stroke-width: 0.5"/>
      </g>
     </g>
     <g id="line2d_104">
      <g>
       <use xlink:href="#m53849ff539" x="701.945" y="73.731591" style="stroke: #000000; stroke-width: 0.5"/>
      </g>
     </g>
    </g>
    <g id="ytick_31">
     <g id="line2d_105">
      <g>
       <use xlink:href="#m054b3bc6a9" x="19.825" y="64.50375" style="stroke: #000000; stroke-width: 0.5"/>
      </g>
     </g>
     <g id="line2d_106">
      <g>
       <use xlink:href="#m53849ff539" x="701.945" y="64.50375" style="stroke: #000000; stroke-width: 0.5"/>
      </g>
     </g>
    </g>
    <g id="ytick_32">
     <g id="line2d_107">
      <g>
       <use xlink:href="#m054b3bc6a9" x="19.825" y="46.048068" style="stroke: #000000; stroke-width: 0.5"/>
      </g>
     </g>
     <g id="line2d_108">
      <g>
       <use xlink:href="#m53849ff539" x="701.945" y="46.048068" style="stroke: #000000; stroke-width: 0.5"/>
      </g>
     </g>
    </g>
    <g id="ytick_33">
     <g id="line2d_109">
      <g>
       <use xlink:href="#m054b3bc6a9" x="19.825" y="36.820227" style="stroke: #000000; stroke-width: 0.5"/>
      </g>
     </g>
     <g id="line2d_110">
      <g>
       <use xlink:href="#m53849ff539" x="701.945" y="36.820227" style="stroke: #000000; stroke-width: 0.5"/>
      </g>
     </g>
    </g>
    <g id="ytick_34">
     <g id="line2d_111">
      <g>
       <use xlink:href="#m054b3bc6a9" x="19.825" y="27.592386" style="stroke: #000000; stroke-width: 0.5"/>
      </g>
     </g>
     <g id="line2d_112">
      <g>
       <use xlink:href="#m53849ff539" x="701.945" y="27.592386" style="stroke: #000000; stroke-width: 0.5"/>
      </g>
     </g>
    </g>
    <g id="ytick_35">
     <g id="line2d_113">
      <g>
       <use xlink:href="#m054b3bc6a9" x="19.825" y="9.136705" style="stroke: #000000; stroke-width: 0.5"/>
      </g>
     </g>
     <g id="line2d_114">
      <g>
       <use xlink:href="#m53849ff539" x="701.945" y="9.136705" style="stroke: #000000; stroke-width: 0.5"/>
      </g>
     </g>
    </g>
   </g>
   <g id="line2d_115">
    <path d="M 50.830455 313.655455 
L 54.551109 313.655455 
L 55.171218 258.288409 
L 56.411436 184.465682 
L 57.031545 221.377045 
L 57.651655 202.921364 
L 58.271764 202.921364 
L 58.891873 239.832727 
L 59.511982 221.377045 
L 60.132091 239.832727 
L 60.7522 202.921364 
L 61.992418 239.832727 
L 62.612527 166.01 
L 63.232636 184.465682 
L 63.852745 184.465682 
L 64.472855 129.098636 
L 65.092964 147.554318 
L 65.713073 110.642955 
L 66.333182 129.098636 
L 66.953291 166.01 
L 67.5734 184.465682 
L 68.193509 129.098636 
L 68.813618 166.01 
L 70.053836 276.744091 
L 71.294055 202.921364 
L 71.914164 221.377045 
L 72.534273 166.01 
L 73.154382 202.921364 
L 73.774491 258.288409 
L 74.3946 184.465682 
L 75.014709 221.377045 
L 75.634818 239.832727 
L 77.495145 239.832727 
L 78.115255 166.01 
L 78.735364 147.554318 
L 79.355473 202.921364 
L 79.975582 221.377045 
L 81.835909 221.377045 
L 82.456018 202.921364 
L 83.076127 239.832727 
L 83.696236 221.377045 
L 84.316345 166.01 
L 84.936455 129.098636 
L 85.556564 110.642955 
L 86.176673 147.554318 
L 86.796782 110.642955 
L 87.416891 202.921364 
L 88.037 258.288409 
L 88.657109 221.377045 
L 89.277218 202.921364 
L 89.897327 129.098636 
L 90.517436 129.098636 
L 91.137545 110.642955 
L 91.757655 166.01 
L 92.377764 184.465682 
L 92.997873 239.832727 
L 93.617982 221.377045 
L 94.238091 221.377045 
L 94.8582 239.832727 
L 95.478309 202.921364 
L 96.098418 221.377045 
L 97.338636 221.377045 
L 97.958745 239.832727 
L 98.578855 202.921364 
L 99.198964 221.377045 
L 99.819073 202.921364 
L 101.059291 202.921364 
L 101.6794 147.554318 
L 102.299509 147.554318 
L 102.919618 129.098636 
L 103.539727 147.554318 
L 104.159836 221.377045 
L 104.779945 202.921364 
L 105.400055 166.01 
L 106.020164 184.465682 
L 106.640273 221.377045 
L 107.260382 221.377045 
L 107.880491 184.465682 
L 108.5006 129.098636 
L 109.120709 110.642955 
L 109.740818 147.554318 
L 110.360927 166.01 
L 110.981036 129.098636 
L 111.601145 147.554318 
L 112.221255 147.554318 
L 112.841364 110.642955 
L 113.461473 129.098636 
L 114.081582 110.642955 
L 114.701691 129.098636 
L 115.3218 221.377045 
L 115.941909 221.377045 
L 116.562018 184.465682 
L 117.182127 202.921364 
L 117.802236 166.01 
L 118.422345 184.465682 
L 119.042455 221.377045 
L 119.662564 166.01 
L 121.522891 221.377045 
L 122.143 221.377045 
L 122.763109 202.921364 
L 124.003327 92.187273 
L 125.243545 129.098636 
L 125.863655 166.01 
L 126.483764 221.377045 
L 127.103873 184.465682 
L 128.344091 184.465682 
L 128.9642 221.377045 
L 129.584309 239.832727 
L 130.204418 166.01 
L 130.824527 129.098636 
L 131.444636 36.820227 
L 132.064745 73.731591 
L 132.684855 147.554318 
L 133.304964 202.921364 
L 134.545182 239.832727 
L 135.165291 202.921364 
L 135.7854 184.465682 
L 136.405509 202.921364 
L 137.025618 202.921364 
L 137.645727 184.465682 
L 138.265836 258.288409 
L 138.885945 258.288409 
L 139.506055 239.832727 
L 140.126164 202.921364 
L 141.366382 239.832727 
L 141.986491 239.832727 
L 142.6066 202.921364 
L 143.226709 129.098636 
L 143.846818 129.098636 
L 144.466927 147.554318 
L 145.087036 184.465682 
L 145.707145 184.465682 
L 146.327255 221.377045 
L 146.947364 221.377045 
L 147.567473 258.288409 
L 148.187582 202.921364 
L 148.807691 110.642955 
L 149.4278 55.275909 
L 150.047909 110.642955 
L 150.668018 110.642955 
L 151.288127 221.377045 
L 151.908236 258.288409 
L 152.528345 221.377045 
L 155.628891 221.377045 
L 156.249 258.288409 
L 156.869109 258.288409 
L 157.489218 239.832727 
L 158.109327 239.832727 
L 158.729436 221.377045 
L 159.349545 184.465682 
L 159.969655 202.921364 
L 160.589764 166.01 
L 161.209873 147.554318 
L 161.829982 166.01 
L 163.690309 166.01 
L 165.550636 221.377045 
L 166.170745 147.554318 
L 166.790855 166.01 
L 167.410964 129.098636 
L 168.651182 129.098636 
L 169.271291 166.01 
L 169.8914 129.098636 
L 170.511509 129.098636 
L 171.131618 73.731591 
L 171.751727 73.731591 
L 172.371836 147.554318 
L 172.991945 147.554318 
L 173.612055 202.921364 
L 174.232164 239.832727 
L 176.092491 184.465682 
L 176.7126 202.921364 
L 177.332709 55.275909 
L 177.952818 73.731591 
L 178.572927 147.554318 
L 179.193036 147.554318 
L 180.433255 184.465682 
L 181.053364 239.832727 
L 181.673473 258.288409 
L 182.293582 184.465682 
L 182.913691 239.832727 
L 184.153909 202.921364 
L 185.394127 239.832727 
L 186.014236 221.377045 
L 186.634345 258.288409 
L 187.874564 258.288409 
L 188.494673 184.465682 
L 189.114782 202.921364 
L 190.355 129.098636 
L 190.975109 129.098636 
L 191.595218 147.554318 
L 192.835436 221.377045 
L 193.455545 166.01 
L 194.075655 184.465682 
L 194.695764 147.554318 
L 195.315873 129.098636 
L 195.935982 147.554318 
L 196.556091 184.465682 
L 197.1762 166.01 
L 197.796309 129.098636 
L 198.416418 129.098636 
L 199.036527 202.921364 
L 199.656636 166.01 
L 200.276745 147.554318 
L 200.896855 184.465682 
L 201.516964 202.921364 
L 202.137073 166.01 
L 202.757182 239.832727 
L 203.377291 184.465682 
L 203.9974 184.465682 
L 204.617509 221.377045 
L 205.237618 166.01 
L 205.857727 276.744091 
L 206.477836 239.832727 
L 207.097945 166.01 
L 207.718055 110.642955 
L 208.338164 73.731591 
L 208.958273 147.554318 
L 209.578382 147.554318 
L 210.198491 166.01 
L 210.8186 202.921364 
L 211.438709 166.01 
L 212.058818 202.921364 
L 213.299036 202.921364 
L 213.919145 221.377045 
L 215.159364 221.377045 
L 215.779473 202.921364 
L 216.399582 166.01 
L 217.019691 184.465682 
L 217.6398 221.377045 
L 218.259909 239.832727 
L 218.880018 202.921364 
L 220.120236 166.01 
L 220.740345 166.01 
L 221.360455 147.554318 
L 221.980564 184.465682 
L 222.600673 166.01 
L 223.220782 202.921364 
L 224.461 202.921364 
L 225.081109 147.554318 
L 226.321327 184.465682 
L 226.941436 221.377045 
L 228.181655 184.465682 
L 228.801764 184.465682 
L 229.421873 166.01 
L 230.041982 166.01 
L 230.662091 202.921364 
L 231.2822 184.465682 
L 231.902309 239.832727 
L 232.522418 221.377045 
L 233.142527 221.377045 
L 235.002855 166.01 
L 235.622964 184.465682 
L 236.243073 221.377045 
L 236.863182 202.921364 
L 237.483291 202.921364 
L 238.1034 147.554318 
L 238.723509 184.465682 
L 239.343618 202.921364 
L 239.963727 258.288409 
L 240.583836 258.288409 
L 241.203945 221.377045 
L 241.824055 202.921364 
L 242.444164 202.921364 
L 243.064273 184.465682 
L 243.684382 202.921364 
L 244.304491 202.921364 
L 244.9246 184.465682 
L 245.544709 202.921364 
L 246.164818 166.01 
L 246.784927 147.554318 
L 247.405036 221.377045 
L 248.025145 258.288409 
L 248.645255 202.921364 
L 249.265364 184.465682 
L 249.885473 73.731591 
L 250.505582 55.275909 
L 251.125691 92.187273 
L 251.7458 184.465682 
L 252.365909 221.377045 
L 252.986018 239.832727 
L 254.226236 202.921364 
L 254.846345 147.554318 
L 255.466455 166.01 
L 256.086564 166.01 
L 257.326782 202.921364 
L 257.946891 147.554318 
L 258.567 129.098636 
L 259.187109 184.465682 
L 259.807218 184.465682 
L 260.427327 221.377045 
L 261.047436 221.377045 
L 261.667545 202.921364 
L 262.287655 166.01 
L 262.907764 166.01 
L 264.147982 18.364545 
L 264.768091 55.275909 
L 265.3882 184.465682 
L 266.008309 202.921364 
L 266.628418 166.01 
L 267.248527 202.921364 
L 269.108855 202.921364 
L 269.728964 184.465682 
L 270.349073 221.377045 
L 270.969182 221.377045 
L 271.589291 258.288409 
L 272.829509 258.288409 
L 273.449618 239.832727 
L 274.069727 239.832727 
L 275.309945 166.01 
L 275.930055 147.554318 
L 276.550164 147.554318 
L 277.170273 184.465682 
L 277.790382 129.098636 
L 278.410491 221.377045 
L 279.650709 184.465682 
L 280.270818 221.377045 
L 282.131145 166.01 
L 282.751255 166.01 
L 283.371364 110.642955 
L 283.991473 110.642955 
L 284.611582 184.465682 
L 285.231691 239.832727 
L 285.8518 239.832727 
L 287.092018 202.921364 
L 287.712127 147.554318 
L 288.332236 110.642955 
L 288.952345 129.098636 
L 289.572455 166.01 
L 290.192564 184.465682 
L 290.812673 239.832727 
L 291.432782 258.288409 
L 292.052891 202.921364 
L 292.673 184.465682 
L 293.293109 184.465682 
L 293.913218 147.554318 
L 294.533327 166.01 
L 295.153436 239.832727 
L 295.773545 202.921364 
L 297.013764 202.921364 
L 297.633873 221.377045 
L 298.253982 202.921364 
L 298.874091 166.01 
L 299.4942 147.554318 
L 300.114309 147.554318 
L 300.734418 184.465682 
L 301.354527 166.01 
L 303.214855 221.377045 
L 303.834964 166.01 
L 304.455073 202.921364 
L 305.075182 221.377045 
L 305.695291 184.465682 
L 306.3154 184.465682 
L 306.935509 202.921364 
L 307.555618 166.01 
L 308.175727 147.554318 
L 308.795836 202.921364 
L 309.415945 202.921364 
L 310.036055 184.465682 
L 310.656164 147.554318 
L 311.276273 166.01 
L 311.896382 166.01 
L 312.516491 239.832727 
L 313.1366 221.377045 
L 313.756709 239.832727 
L 314.376818 239.832727 
L 314.996927 202.921364 
L 315.617036 221.377045 
L 316.237145 184.465682 
L 316.857255 166.01 
L 317.477364 166.01 
L 318.097473 202.921364 
L 318.717582 129.098636 
L 319.9578 166.01 
L 320.577909 129.098636 
L 321.198018 129.098636 
L 321.818127 110.642955 
L 323.058345 184.465682 
L 323.678455 202.921364 
L 324.298564 239.832727 
L 324.918673 258.288409 
L 325.538782 184.465682 
L 326.158891 166.01 
L 326.779 202.921364 
L 327.399109 166.01 
L 328.019218 166.01 
L 329.259436 92.187273 
L 329.879545 129.098636 
L 330.499655 147.554318 
L 331.739873 147.554318 
L 332.359982 166.01 
L 332.980091 239.832727 
L 333.6002 258.288409 
L 334.220309 258.288409 
L 334.840418 295.199773 
L 335.460527 258.288409 
L 336.080636 202.921364 
L 336.700745 129.098636 
L 337.940964 166.01 
L 338.561073 147.554318 
L 339.181182 184.465682 
L 339.801291 147.554318 
L 340.4214 147.554318 
L 341.041509 184.465682 
L 341.661618 239.832727 
L 342.281727 202.921364 
L 342.901836 147.554318 
L 343.521945 147.554318 
L 344.142055 166.01 
L 344.762164 202.921364 
L 345.382273 202.921364 
L 346.002382 184.465682 
L 346.622491 147.554318 
L 347.2426 166.01 
L 347.862709 166.01 
L 348.482818 184.465682 
L 349.102927 184.465682 
L 349.723036 239.832727 
L 350.343145 184.465682 
L 350.963255 202.921364 
L 351.583364 92.187273 
L 352.203473 110.642955 
L 352.823582 92.187273 
L 353.443691 110.642955 
L 354.0638 147.554318 
L 354.683909 258.288409 
L 355.304018 276.744091 
L 356.544236 239.832727 
L 357.164345 239.832727 
L 358.404564 202.921364 
L 359.644782 202.921364 
L 360.264891 166.01 
L 360.885 147.554318 
L 361.505109 73.731591 
L 362.745327 110.642955 
L 363.365436 184.465682 
L 363.985545 221.377045 
L 365.225764 258.288409 
L 365.845873 258.288409 
L 366.465982 221.377045 
L 367.086091 258.288409 
L 367.7062 239.832727 
L 368.326309 239.832727 
L 368.946418 166.01 
L 369.566527 110.642955 
L 370.186636 147.554318 
L 370.806745 239.832727 
L 371.426855 221.377045 
L 372.046964 166.01 
L 372.667073 184.465682 
L 373.287182 166.01 
L 373.907291 184.465682 
L 374.5274 184.465682 
L 375.147509 202.921364 
L 375.767618 184.465682 
L 376.387727 184.465682 
L 377.007836 221.377045 
L 377.627945 202.921364 
L 378.248055 202.921364 
L 378.868164 221.377045 
L 379.488273 221.377045 
L 380.108382 258.288409 
L 380.728491 221.377045 
L 381.3486 258.288409 
L 381.968709 276.744091 
L 382.588818 202.921364 
L 383.208927 221.377045 
L 383.829036 166.01 
L 384.449145 166.01 
L 385.069255 184.465682 
L 385.689364 258.288409 
L 386.929582 258.288409 
L 387.549691 276.744091 
L 388.789909 239.832727 
L 389.410018 239.832727 
L 390.650236 202.921364 
L 391.270345 166.01 
L 391.890455 147.554318 
L 392.510564 92.187273 
L 393.750782 129.098636 
L 394.370891 166.01 
L 394.991 184.465682 
L 395.611109 258.288409 
L 396.231218 221.377045 
L 397.471436 184.465682 
L 398.091545 184.465682 
L 399.331764 221.377045 
L 399.951873 184.465682 
L 400.571982 202.921364 
L 401.8122 166.01 
L 403.672527 221.377045 
L 404.912745 221.377045 
L 405.532855 276.744091 
L 406.773073 202.921364 
L 407.393182 147.554318 
L 408.013291 73.731591 
L 408.6334 129.098636 
L 409.873618 129.098636 
L 410.493727 184.465682 
L 411.113836 166.01 
L 412.974164 166.01 
L 414.214382 202.921364 
L 414.834491 184.465682 
L 415.4546 221.377045 
L 416.074709 239.832727 
L 416.694818 221.377045 
L 417.314927 221.377045 
L 417.935036 202.921364 
L 418.555145 110.642955 
L 419.175255 73.731591 
L 419.795364 110.642955 
L 420.415473 129.098636 
L 421.035582 221.377045 
L 421.655691 221.377045 
L 422.2758 202.921364 
L 422.895909 221.377045 
L 423.516018 258.288409 
L 424.136127 258.288409 
L 424.756236 221.377045 
L 425.376345 221.377045 
L 425.996455 166.01 
L 426.616564 147.554318 
L 427.236673 166.01 
L 427.856782 239.832727 
L 428.476891 202.921364 
L 429.717109 202.921364 
L 430.337218 147.554318 
L 430.957327 166.01 
L 431.577436 221.377045 
L 432.197545 221.377045 
L 432.817655 239.832727 
L 433.437764 202.921364 
L 434.057873 129.098636 
L 434.677982 92.187273 
L 435.298091 166.01 
L 435.9182 166.01 
L 437.778527 221.377045 
L 438.398636 184.465682 
L 439.018745 221.377045 
L 440.879073 221.377045 
L 441.499182 202.921364 
L 442.119291 221.377045 
L 442.7394 202.921364 
L 443.359509 221.377045 
L 443.979618 221.377045 
L 444.599727 202.921364 
L 445.219836 166.01 
L 445.839945 184.465682 
L 446.460055 184.465682 
L 447.080164 166.01 
L 447.700273 166.01 
L 448.320382 147.554318 
L 448.940491 221.377045 
L 449.5606 166.01 
L 450.180709 184.465682 
L 450.800818 221.377045 
L 451.420927 239.832727 
L 452.041036 221.377045 
L 453.281255 221.377045 
L 454.521473 258.288409 
L 455.141582 239.832727 
L 455.761691 239.832727 
L 456.3818 202.921364 
L 457.001909 184.465682 
L 457.622018 129.098636 
L 458.242127 166.01 
L 458.862236 184.465682 
L 459.482345 239.832727 
L 460.102455 129.098636 
L 461.342673 129.098636 
L 461.962782 147.554318 
L 462.582891 129.098636 
L 463.823109 202.921364 
L 464.443218 166.01 
L 465.063327 184.465682 
L 465.683436 147.554318 
L 466.303545 221.377045 
L 466.923655 147.554318 
L 468.163873 147.554318 
L 468.783982 184.465682 
L 469.404091 239.832727 
L 470.0242 239.832727 
L 470.644309 221.377045 
L 471.884527 147.554318 
L 472.504636 92.187273 
L 473.124745 129.098636 
L 473.744855 147.554318 
L 474.364964 221.377045 
L 474.985073 258.288409 
L 475.605182 239.832727 
L 476.225291 166.01 
L 476.8454 129.098636 
L 477.465509 110.642955 
L 478.085618 147.554318 
L 478.705727 258.288409 
L 479.325836 258.288409 
L 479.945945 166.01 
L 480.566055 184.465682 
L 481.186164 129.098636 
L 481.806273 202.921364 
L 482.426382 221.377045 
L 483.046491 221.377045 
L 483.6666 258.288409 
L 484.286709 221.377045 
L 484.906818 202.921364 
L 485.526927 166.01 
L 486.147036 221.377045 
L 486.767145 221.377045 
L 487.387255 202.921364 
L 488.007364 202.921364 
L 488.627473 184.465682 
L 489.867691 221.377045 
L 490.4878 295.199773 
L 491.107909 276.744091 
L 491.728018 239.832727 
L 492.348127 166.01 
L 492.968236 110.642955 
L 493.588345 147.554318 
L 494.208455 166.01 
L 494.828564 221.377045 
L 495.448673 258.288409 
L 496.068782 221.377045 
L 496.688891 202.921364 
L 497.309 221.377045 
L 497.929109 276.744091 
L 498.549218 258.288409 
L 499.169327 221.377045 
L 499.789436 202.921364 
L 500.409545 147.554318 
L 501.649764 110.642955 
L 502.269873 147.554318 
L 502.889982 129.098636 
L 504.1302 202.921364 
L 504.750309 202.921364 
L 505.990527 166.01 
L 507.850855 166.01 
L 508.470964 110.642955 
L 509.091073 129.098636 
L 510.9514 129.098636 
L 511.571509 147.554318 
L 512.191618 221.377045 
L 512.811727 221.377045 
L 514.051945 258.288409 
L 514.672055 221.377045 
L 515.292164 147.554318 
L 515.912273 129.098636 
L 516.532382 129.098636 
L 517.152491 166.01 
L 517.7726 166.01 
L 518.392709 110.642955 
L 519.012818 129.098636 
L 520.253036 129.098636 
L 520.873145 92.187273 
L 521.493255 166.01 
L 522.113364 129.098636 
L 522.733473 202.921364 
L 523.353582 184.465682 
L 524.5938 184.465682 
L 525.213909 202.921364 
L 526.454127 166.01 
L 527.694345 202.921364 
L 528.314455 258.288409 
L 528.934564 239.832727 
L 530.174782 166.01 
L 530.794891 202.921364 
L 531.415 202.921364 
L 532.035109 129.098636 
L 533.275327 92.187273 
L 533.895436 129.098636 
L 534.515545 73.731591 
L 535.135655 166.01 
L 535.755764 221.377045 
L 536.375873 258.288409 
L 536.995982 239.832727 
L 537.616091 276.744091 
L 538.2362 184.465682 
L 538.856309 166.01 
L 539.476418 166.01 
L 540.716636 202.921364 
L 541.336745 166.01 
L 541.956855 221.377045 
L 542.576964 202.921364 
L 543.817182 129.098636 
L 544.437291 184.465682 
L 545.0574 202.921364 
L 545.677509 129.098636 
L 546.297618 166.01 
L 546.917727 147.554318 
L 547.537836 184.465682 
L 548.157945 202.921364 
L 548.778055 147.554318 
L 549.398164 166.01 
L 550.018273 166.01 
L 551.258491 92.187273 
L 551.8786 129.098636 
L 552.498709 184.465682 
L 553.118818 184.465682 
L 553.738927 129.098636 
L 554.979145 55.275909 
L 555.599255 92.187273 
L 556.219364 202.921364 
L 556.839473 221.377045 
L 557.459582 202.921364 
L 558.079691 258.288409 
L 558.6998 221.377045 
L 559.319909 202.921364 
L 560.560127 239.832727 
L 561.800345 129.098636 
L 562.420455 110.642955 
L 563.040564 147.554318 
L 563.660673 166.01 
L 564.280782 129.098636 
L 564.900891 110.642955 
L 565.521 129.098636 
L 566.141109 202.921364 
L 566.761218 166.01 
L 567.381327 202.921364 
L 568.001436 129.098636 
L 568.621545 166.01 
L 569.241655 92.187273 
L 569.861764 55.275909 
L 570.481873 73.731591 
L 571.101982 110.642955 
L 571.722091 166.01 
L 572.3422 258.288409 
L 573.582418 147.554318 
L 574.202527 147.554318 
L 574.822636 166.01 
L 576.062855 166.01 
L 576.682964 147.554318 
L 577.303073 147.554318 
L 577.923182 129.098636 
L 578.543291 239.832727 
L 579.1634 202.921364 
L 579.783509 184.465682 
L 580.403618 184.465682 
L 581.023727 147.554318 
L 581.643836 184.465682 
L 582.884055 184.465682 
L 583.504164 166.01 
L 584.124273 202.921364 
L 584.744382 221.377045 
L 585.364491 221.377045 
L 585.9846 239.832727 
L 586.604709 239.832727 
L 587.224818 221.377045 
L 587.844927 147.554318 
L 588.465036 92.187273 
L 589.085145 129.098636 
L 589.705255 184.465682 
L 590.325364 202.921364 
L 590.945473 184.465682 
L 591.565582 202.921364 
L 592.185691 166.01 
L 592.8058 258.288409 
L 593.425909 166.01 
L 594.046018 166.01 
L 594.666127 184.465682 
L 595.286236 184.465682 
L 595.906345 202.921364 
L 596.526455 184.465682 
L 597.146564 147.554318 
L 597.766673 202.921364 
L 599.627 202.921364 
L 600.247109 166.01 
L 601.487327 55.275909 
L 602.107436 110.642955 
L 602.727545 184.465682 
L 603.347655 166.01 
L 603.967764 166.01 
L 605.207982 276.744091 
L 605.828091 313.655455 
L 607.068309 239.832727 
L 608.308527 202.921364 
L 610.168855 202.921364 
L 610.788964 184.465682 
L 611.409073 239.832727 
L 612.029182 221.377045 
L 612.649291 239.832727 
L 613.2694 147.554318 
L 613.889509 110.642955 
L 614.509618 147.554318 
L 615.129727 202.921364 
L 615.749836 184.465682 
L 616.369945 258.288409 
L 616.990055 276.744091 
L 617.610164 276.744091 
L 618.230273 258.288409 
L 618.850382 202.921364 
L 619.470491 129.098636 
L 620.710709 129.098636 
L 621.330818 239.832727 
L 621.950927 221.377045 
L 622.571036 129.098636 
L 624.431364 184.465682 
L 625.051473 184.465682 
L 625.671582 202.921364 
L 626.291691 184.465682 
L 626.9118 147.554318 
L 627.531909 184.465682 
L 628.152018 202.921364 
L 628.772127 184.465682 
L 629.392236 184.465682 
L 630.012345 221.377045 
L 630.632455 166.01 
L 631.872673 129.098636 
L 633.112891 202.921364 
L 633.733 202.921364 
L 634.353109 166.01 
L 635.593327 129.098636 
L 636.213436 147.554318 
L 636.833545 221.377045 
L 637.453655 166.01 
L 638.073764 202.921364 
L 638.693873 166.01 
L 639.313982 166.01 
L 639.934091 221.377045 
L 640.5542 258.288409 
L 641.174309 221.377045 
L 641.794418 147.554318 
L 642.414527 129.098636 
L 643.654745 129.098636 
L 644.274855 166.01 
L 644.894964 166.01 
L 645.515073 110.642955 
L 646.135182 110.642955 
L 647.3754 147.554318 
L 647.995509 129.098636 
L 648.615618 92.187273 
L 649.235727 73.731591 
L 649.855836 110.642955 
L 650.475945 92.187273 
L 651.096055 166.01 
L 651.716164 129.098636 
L 652.336273 129.098636 
L 652.956382 202.921364 
L 654.1966 129.098636 
L 654.816709 129.098636 
L 655.436818 166.01 
L 656.056927 147.554318 
L 656.677036 110.642955 
L 657.297145 202.921364 
L 659.157473 258.288409 
L 660.397691 258.288409 
L 661.0178 221.377045 
L 661.637909 166.01 
L 662.258018 147.554318 
L 662.878127 202.921364 
L 663.498236 239.832727 
L 664.118345 239.832727 
L 664.738455 184.465682 
L 665.358564 202.921364 
L 665.978673 239.832727 
L 666.598782 129.098636 
L 667.839 55.275909 
L 668.459109 36.820227 
L 669.079218 36.820227 
L 669.699327 55.275909 
L 670.319436 92.187273 
L 670.939545 184.465682 
L 670.939545 184.465682 
" clip-path="url(#pdf1c4325b1)" style="fill: none; stroke: #0c5da5; stroke-linecap: square"/>
   </g>
   <g id="patch_3">
    <path d="M 19.825 328.42 
L 19.825 3.6 
" style="fill: none; stroke: #000000; stroke-width: 0.5; stroke-linejoin: miter; stroke-linecap: square"/>
   </g>
   <g id="patch_4">
    <path d="M 701.945 328.42 
L 701.945 3.6 
" style="fill: none; stroke: #000000; stroke-width: 0.5; stroke-linejoin: miter; stroke-linecap: square"/>
   </g>
   <g id="patch_5">
    <path d="M 19.825 328.42 
L 701.945 328.42 
" style="fill: none; stroke: #000000; stroke-width: 0.5; stroke-linejoin: miter; stroke-linecap: square"/>
   </g>
   <g id="patch_6">
    <path d="M 19.825 3.6 
L 701.945 3.6 
" style="fill: none; stroke: #000000; stroke-width: 0.5; stroke-linejoin: miter; stroke-linecap: square"/>
   </g>
  </g>
 </g>
 <defs>
  <clipPath id="pdf1c4325b1">
   <rect x="19.825" y="3.6" width="682.12" height="324.82"/>
  </clipPath>
 </defs>
</svg>
